<svg width="142" height="88" viewBox="0 0 142 88" fill="none" xmlns="http://www.w3.org/2000/svg">
<path d="M140.236 0.25H1.76359C0.927659 0.25 0.25 0.927659 0.25 1.76359V14.2364C0.25 15.0723 0.927659 15.75 1.76359 15.75H140.236C141.072 15.75 141.75 15.0723 141.75 14.2364V1.76359C141.75 0.927659 141.072 0.25 140.236 0.25Z" fill="white" stroke="#FF0022" stroke-width="0.5"/>
<path d="M89 5H14V11H89V5Z" fill="#FF0022"/>
<path fill-rule="evenodd" clip-rule="evenodd" d="M8.70299 4.91895C7.23995 4.91895 6.0542 6.10469 6.0542 7.56774C6.0542 9.03078 7.23995 10.2165 8.70299 10.2165C10.166 10.2165 11.3518 9.03078 11.3518 7.56774C11.3518 6.10469 10.166 4.91895 8.70299 4.91895ZM9.94978 8.55741C10.015 8.62156 10.016 8.72606 9.95237 8.79177C9.88822 8.85695 9.78372 8.85799 9.71801 8.79435L8.70299 7.7995L7.68796 8.79384C7.62278 8.85799 7.51776 8.85695 7.45361 8.79125C7.38946 8.72606 7.39049 8.62104 7.4562 8.55689L8.46656 7.56774L7.4562 6.57806C7.39101 6.51391 7.38998 6.40941 7.45361 6.3437C7.51776 6.27852 7.62226 6.27749 7.68796 6.34112L8.70299 7.33597L9.71801 6.34164C9.7832 6.27749 9.88822 6.27852 9.95237 6.34422C10.0165 6.40941 10.0155 6.51443 9.94978 6.57858L8.93941 7.56774L9.94978 8.55741Z" fill="#F5222D"/>
<path fill-rule="evenodd" clip-rule="evenodd" d="M132.032 5.92451C132.101 5.85524 132.214 5.85524 132.283 5.92451L133.675 7.31656L135.067 5.92451C135.136 5.85524 135.249 5.85524 135.318 5.92451C135.387 5.99378 135.387 6.10609 135.318 6.17536L133.926 7.56756L135.318 8.95974C135.373 9.01515 135.385 9.09811 135.351 9.16455L135.318 9.21058C135.249 9.27985 135.136 9.27985 135.067 9.21058L133.675 7.81856L132.283 9.21058C132.214 9.27985 132.101 9.27985 132.032 9.21058C131.963 9.14131 131.963 9.02901 132.032 8.95974L133.424 7.56756L132.032 6.17536C131.977 6.11994 131.965 6.03698 131.999 5.97055L132.032 5.92451Z" fill="black" fill-opacity="0.45"/>
<path d="M140.236 72.25H1.76359C0.927659 72.25 0.25 72.9277 0.25 73.7636V86.2364C0.25 87.0723 0.927659 87.75 1.76359 87.75H140.236C141.072 87.75 141.75 87.0723 141.75 86.2364V73.7636C141.75 72.9277 141.072 72.25 140.236 72.25Z" fill="white" stroke="#FFC700" stroke-width="0.5"/>
<path d="M89 77H14V83H89V77Z" fill="#FFC700"/>
<path fill-rule="evenodd" clip-rule="evenodd" d="M8.70299 76.9192C7.23995 76.9192 6.0542 78.105 6.0542 79.568C6.0542 81.031 7.23995 82.2168 8.70299 82.2168C10.166 82.2168 11.3518 81.031 11.3518 79.568C11.3518 78.105 10.166 76.9192 8.70299 76.9192ZM8.86854 81.058C8.86854 81.1495 8.79456 81.2235 8.70299 81.2235C8.61142 81.2235 8.53744 81.1495 8.53744 81.058C8.53744 80.9664 8.61142 80.8924 8.70299 80.8924C8.79456 80.8924 8.86854 80.9664 8.86854 81.058ZM8.86854 80.3958C8.86854 80.4873 8.79456 80.5613 8.70299 80.5613C8.61142 80.5613 8.53744 80.4873 8.53744 80.3958V78.0781C8.53744 77.9865 8.61142 77.9125 8.70299 77.9125C8.79456 77.9125 8.86854 77.9865 8.86854 78.0781V80.3958Z" fill="#FAAD14"/>
<path fill-rule="evenodd" clip-rule="evenodd" d="M132.032 77.9245C132.101 77.8552 132.214 77.8552 132.283 77.9245L133.675 79.3166L135.067 77.9245C135.136 77.8552 135.249 77.8552 135.318 77.9245C135.387 77.9938 135.387 78.1061 135.318 78.1754L133.926 79.5676L135.318 80.9597C135.373 81.0152 135.385 81.0981 135.351 81.1645L135.318 81.2106C135.249 81.2799 135.136 81.2799 135.067 81.2106L133.675 79.8186L132.283 81.2106C132.214 81.2799 132.101 81.2799 132.032 81.2106C131.963 81.1413 131.963 81.029 132.032 80.9597L133.424 79.5676L132.032 78.1754C131.977 78.1199 131.965 78.037 131.999 77.9705L132.032 77.9245Z" fill="black" fill-opacity="0.45"/>
<path fill-rule="evenodd" clip-rule="evenodd" d="M140.478 24.25H1.5224C1.1705 24.25 0.852078 24.3908 0.621686 24.6189C0.392088 24.8462 0.25 25.1603 0.25 25.5073V38.4875C0.25 38.837 0.391848 39.1522 0.621277 39.3801C0.851773 39.6091 1.17048 39.75 1.5224 39.75H140.478C140.83 39.75 141.148 39.6094 141.378 39.3815C141.608 39.1546 141.75 38.8412 141.75 38.4948V25.5052C141.75 25.1631 141.606 24.8488 141.375 24.6204C141.145 24.3928 140.828 24.25 140.478 24.25Z" fill="white" stroke="#0010F7" stroke-width="0.5"/>
<path d="M89 29H14V35H89V29Z" fill="#0010F7"/>
<path fill-rule="evenodd" clip-rule="evenodd" d="M8.70299 28.9192C7.23995 28.9192 6.0542 30.105 6.0542 31.568C6.0542 33.031 7.23995 34.2168 8.70299 34.2168C10.166 34.2168 11.3518 33.031 11.3518 31.568C11.3518 30.105 10.166 28.9192 8.70299 28.9192ZM8.70299 29.9125C8.79456 29.9125 8.86854 29.9865 8.86854 30.0781C8.86854 30.1696 8.79456 30.2436 8.70299 30.2436C8.61142 30.2436 8.53744 30.1696 8.53744 30.0781C8.53744 29.9865 8.61142 29.9125 8.70299 29.9125ZM9.19705 33.2235H8.86078H8.52968H8.20893C8.11736 33.2235 8.04338 33.1495 8.04338 33.058C8.04338 32.9664 8.11736 32.8924 8.20893 32.8924H8.52968V31.224H8.20375C8.11219 31.224 8.03821 31.15 8.03821 31.0584C8.03821 30.9669 8.11219 30.8929 8.20375 30.8929H8.52968H8.69523C8.7868 30.8929 8.86078 30.9669 8.86078 31.0584V32.8924H9.19705C9.28862 32.8924 9.36777 32.9664 9.36777 33.058C9.36777 33.1495 9.28862 33.2235 9.19705 33.2235Z" fill="#1890FF"/>
<path fill-rule="evenodd" clip-rule="evenodd" d="M132.185 29.925C132.254 29.8557 132.366 29.8557 132.436 29.925L133.828 31.317L135.22 29.925C135.289 29.8557 135.402 29.8557 135.471 29.925C135.54 29.9943 135.54 30.1066 135.471 30.1758L134.079 31.568L135.471 32.9602C135.526 33.0156 135.537 33.0986 135.504 33.165L135.471 33.2111C135.402 33.2803 135.289 33.2803 135.22 33.2111L133.828 31.819L132.436 33.2111C132.366 33.2803 132.254 33.2803 132.185 33.2111C132.115 33.1418 132.115 33.0295 132.185 32.9602L133.577 31.568L132.185 30.1758C132.129 30.1204 132.118 30.0375 132.152 29.971L132.185 29.925Z" fill="black" fill-opacity="0.45"/>
<path fill-rule="evenodd" clip-rule="evenodd" d="M140.478 48.25H1.5224C1.17046 48.25 0.851989 48.3906 0.621567 48.6185C0.39206 48.8454 0.25 49.1588 0.25 49.5052V62.4948C0.25 62.8369 0.394003 63.1512 0.625081 63.3796C0.855225 63.6072 1.17223 63.75 1.5224 63.75H140.478C140.83 63.75 141.148 63.6094 141.378 63.3815C141.608 63.1546 141.75 62.8412 141.75 62.4948V49.5052C141.75 49.1631 141.606 48.8488 141.375 48.6204C141.145 48.3928 140.828 48.25 140.478 48.25Z" fill="white" stroke="#00F7BF" stroke-width="0.5"/>
<path fill-rule="evenodd" clip-rule="evenodd" d="M8.70299 52.9192C7.24007 52.9192 6.0542 54.1051 6.0542 55.568C6.0542 57.0309 7.24007 58.2168 8.70299 58.2168C10.1659 58.2168 11.3518 57.0309 11.3518 55.568C11.3518 54.1051 10.1659 52.9192 8.70299 52.9192ZM10.3042 54.8658L8.15304 56.9595C8.0883 57.0242 7.98318 57.0242 7.91845 56.9595L7.09663 56.1739C7.0319 56.1092 7.0319 56.004 7.09663 55.9393C7.16136 55.8746 7.26648 55.8746 7.33121 55.9393L8.036 56.6078L10.0696 54.6312C10.1343 54.5665 10.2394 54.5665 10.3042 54.6312C10.3689 54.696 10.3689 54.8011 10.3042 54.8658Z" fill="#00F7BF"/>
<path d="M89 53H14V59H89V53Z" fill="#00F7BF"/>
<path fill-rule="evenodd" clip-rule="evenodd" d="M132.032 53.9245C132.101 53.8552 132.214 53.8552 132.283 53.9245L133.675 55.3166L135.067 53.9245C135.136 53.8552 135.249 53.8552 135.318 53.9245C135.387 53.9938 135.387 54.1061 135.318 54.1754L133.926 55.5676L135.318 56.9597C135.373 57.0152 135.385 57.0981 135.351 57.1645L135.318 57.2106C135.249 57.2799 135.136 57.2799 135.067 57.2106L133.675 55.8186L132.283 57.2106C132.214 57.2799 132.101 57.2799 132.032 57.2106C131.963 57.1413 131.963 57.029 132.032 56.9597L133.424 55.5676L132.032 54.1754C131.977 54.1199 131.965 54.037 131.999 53.9705L132.032 53.9245Z" fill="black" fill-opacity="0.45"/>
</svg>
