<svg width="138" height="83" viewBox="0 0 138 83" fill="none" xmlns="http://www.w3.org/2000/svg">
<g clip-path="url(#clip0_75:18821)">
<path d="M19 36C27.8366 36 35 28.8366 35 20C35 11.1634 27.8366 4 19 4C10.1634 4 3 11.1634 3 20C3 28.8366 10.1634 36 19 36Z" fill="#0010F7"/>
<g filter="url(#filter0_d_75:18821)">
<path d="M27.121 25.8969C26.6788 24.8499 26.0373 23.8989 25.232 23.0969C24.4295 22.292 23.4786 21.6502 22.432 21.2069C22.422 21.2019 22.412 21.1999 22.403 21.1949C23.3995 20.4757 24.1424 19.4591 24.5248 18.2912C24.9072 17.1232 24.9095 15.8642 24.5314 14.6948C24.1533 13.5255 23.4141 12.5062 22.4203 11.7834C21.4264 11.0605 20.229 10.6714 19 10.6719C17.7703 10.6705 16.5718 11.0593 15.5771 11.7823C14.5824 12.5053 13.8426 13.5252 13.4643 14.6953C13.0861 15.8654 13.0887 17.1253 13.472 18.2938C13.8552 19.4623 14.5992 20.4791 15.597 21.1979L15.569 21.2089C14.5212 21.6504 13.5697 22.2924 12.768 23.0989C11.9632 23.9015 11.3214 24.8523 10.878 25.8989C10.4433 26.9239 10.2091 28.0227 10.188 29.1359C10.1875 29.1608 10.1919 29.1856 10.2011 29.2088C10.2102 29.232 10.2239 29.2532 10.2413 29.2711C10.2587 29.2889 10.2795 29.3031 10.3025 29.3129C10.3254 29.3227 10.3501 29.3277 10.375 29.3279H11.781C11.8301 29.3281 11.8773 29.3091 11.9125 29.2749C11.9477 29.2406 11.968 29.194 11.969 29.1449C12.0119 27.3432 12.7492 25.6277 14.027 24.3569C14.6785 23.7017 15.4535 23.1822 16.3071 22.8286C17.1608 22.475 18.0761 22.2943 19 22.2969C20.88 22.2969 22.645 23.0279 23.973 24.3569C25.2509 25.6277 25.9882 27.3432 26.031 29.1449C26.0318 29.194 26.052 29.2409 26.0873 29.2752C26.1225 29.3095 26.1699 29.3284 26.219 29.3279H27.625C27.73 29.3279 27.815 29.2409 27.813 29.1359C27.7912 28.0216 27.5563 26.9218 27.121 25.8959V25.8969ZM19 20.5159C18.4704 20.5171 17.9458 20.4132 17.4566 20.2103C16.9674 20.0075 16.5233 19.7095 16.15 19.3339C15.7745 18.9605 15.4768 18.5164 15.2741 18.0272C15.0714 17.538 14.9677 17.0134 14.969 16.4839C14.968 15.9544 15.0718 15.4299 15.2745 14.9408C15.4772 14.4516 15.7748 14.0074 16.15 13.6339C16.5235 13.2586 16.9677 12.961 17.4569 12.7585C17.9461 12.5559 18.4706 12.4524 19 12.4539C20.076 12.4539 21.088 12.8729 21.85 13.6339C22.2255 14.0073 22.5232 14.4514 22.726 14.9406C22.9287 15.4298 23.0324 15.9543 23.031 16.4839C23.031 17.5599 22.611 18.5729 21.85 19.3339C21.4767 19.7095 21.0326 20.0075 20.5434 20.2103C20.0542 20.4132 19.5296 20.5171 19 20.5159Z" fill="#0010F7"/>
</g>
<path d="M27.121 25.8969C26.6788 24.8499 26.0373 23.8989 25.232 23.0969C24.4295 22.292 23.4786 21.6502 22.432 21.2069C22.422 21.2019 22.412 21.1999 22.403 21.1949C23.3995 20.4757 24.1424 19.4591 24.5248 18.2912C24.9072 17.1232 24.9095 15.8642 24.5314 14.6948C24.1533 13.5255 23.4141 12.5062 22.4203 11.7834C21.4264 11.0605 20.229 10.6714 19 10.6719C17.7703 10.6705 16.5718 11.0593 15.5771 11.7823C14.5824 12.5053 13.8426 13.5252 13.4643 14.6953C13.0861 15.8654 13.0887 17.1253 13.472 18.2938C13.8552 19.4623 14.5992 20.4791 15.597 21.1979L15.569 21.2089C14.5212 21.6504 13.5697 22.2924 12.768 23.0989C11.9632 23.9015 11.3214 24.8523 10.878 25.8989C10.4433 26.9239 10.2091 28.0227 10.188 29.1359C10.1875 29.1608 10.1919 29.1856 10.2011 29.2088C10.2102 29.232 10.2239 29.2532 10.2413 29.2711C10.2587 29.2889 10.2795 29.3031 10.3025 29.3129C10.3254 29.3227 10.3501 29.3277 10.375 29.3279H11.781C11.8301 29.3281 11.8773 29.3091 11.9125 29.2749C11.9477 29.2406 11.968 29.194 11.969 29.1449C12.0119 27.3432 12.7492 25.6277 14.027 24.3569C14.6785 23.7017 15.4535 23.1822 16.3071 22.8286C17.1608 22.475 18.0761 22.2943 19 22.2969C20.88 22.2969 22.645 23.0279 23.973 24.3569C25.2509 25.6277 25.9882 27.3432 26.031 29.1449C26.0318 29.194 26.052 29.2409 26.0873 29.2752C26.1225 29.3095 26.1699 29.3284 26.219 29.3279H27.625C27.73 29.3279 27.815 29.2409 27.813 29.1359C27.7912 28.0216 27.5563 26.9218 27.121 25.8959V25.8969ZM19 20.5159C18.4704 20.5171 17.9458 20.4132 17.4566 20.2103C16.9674 20.0075 16.5233 19.7095 16.15 19.3339C15.7745 18.9605 15.4768 18.5164 15.2741 18.0272C15.0714 17.538 14.9677 17.0134 14.969 16.4839C14.968 15.9544 15.0718 15.4299 15.2745 14.9408C15.4772 14.4516 15.7748 14.0074 16.15 13.6339C16.5235 13.2586 16.9677 12.961 17.4569 12.7585C17.9461 12.5559 18.4706 12.4524 19 12.4539C20.076 12.4539 21.088 12.8729 21.85 13.6339C22.2255 14.0073 22.5232 14.4514 22.726 14.9406C22.9287 15.4298 23.0324 15.9543 23.031 16.4839C23.031 17.5599 22.611 18.5729 21.85 19.3339C21.4767 19.7095 21.0326 20.0075 20.5434 20.2103C20.0542 20.4132 19.5296 20.5171 19 20.5159Z" fill="white"/>
<path d="M59 32C65.6274 32 71 26.6274 71 20C71 13.3726 65.6274 8 59 8C52.3726 8 47 13.3726 47 20C47 26.6274 52.3726 32 59 32Z" fill="#0010F7"/>
<g filter="url(#filter1_d_75:18821)">
<path d="M65.0902 24.423C64.7588 23.6379 64.2778 22.9246 63.6742 22.323C63.0723 21.7192 62.3592 21.2377 61.5742 20.905C61.5662 20.902 61.5592 20.9 61.5522 20.896C62.1571 20.4589 62.6396 19.8739 62.9536 19.1968C63.2676 18.5198 63.4025 17.7734 63.3454 17.0293C63.2883 16.2852 63.0411 15.5682 62.6274 14.947C62.2138 14.3258 61.6476 13.8212 60.9831 13.4815C60.3186 13.1419 59.5779 12.9785 58.8322 13.0071C58.0864 13.0357 57.3605 13.2553 56.7239 13.6448C56.0873 14.0344 55.5614 14.5808 55.1966 15.2319C54.8317 15.8829 54.6401 16.6167 54.6402 17.363C54.6402 18.817 55.3532 20.105 56.4482 20.898L56.4272 20.907C55.6412 21.238 54.9275 21.7194 54.3262 22.324C53.1215 23.5274 52.4282 25.1497 52.3912 26.852C52.3906 26.8708 52.3939 26.8894 52.4007 26.9069C52.4075 26.9243 52.4177 26.9402 52.4307 26.9536C52.4438 26.9671 52.4594 26.9777 52.4767 26.985C52.4939 26.9923 52.5124 26.9961 52.5312 26.996H53.5862C53.6228 26.9961 53.6579 26.9817 53.6841 26.9561C53.7103 26.9305 53.7254 26.8957 53.7262 26.859C53.7584 25.5077 54.3116 24.2211 55.2702 23.268C55.7588 22.7766 56.3401 22.387 56.9804 22.1218C57.6206 21.8566 58.3072 21.7211 59.0002 21.723C60.4102 21.723 61.7332 22.271 62.7302 23.268C63.6884 24.2213 64.2412 25.5078 64.2732 26.859C64.274 26.8958 64.2892 26.9308 64.3156 26.9565C64.342 26.9821 64.3774 26.9963 64.4142 26.996H65.4692C65.4879 26.9961 65.5064 26.9923 65.5237 26.985C65.5409 26.9777 65.5566 26.9671 65.5696 26.9536C65.5827 26.9402 65.5929 26.9243 65.5997 26.9069C65.6065 26.8894 65.6097 26.8708 65.6092 26.852C65.5931 26.0164 65.4173 25.1916 65.0912 24.422L65.0902 24.423ZM59.0002 20.387C58.6028 20.3879 58.2093 20.31 57.8423 20.1577C57.4753 20.0055 57.1422 19.7819 56.8622 19.5C56.5806 19.2199 56.3575 18.8867 56.2056 18.5197C56.0536 18.1527 55.976 17.7592 55.9772 17.362C55.9772 16.555 56.2912 15.796 56.8622 15.225C57.1423 14.9435 57.4756 14.7203 57.8425 14.5684C58.2095 14.4165 58.603 14.3389 59.0002 14.34C59.8072 14.34 60.5662 14.654 61.1372 15.226C61.7092 15.797 62.0232 16.556 62.0232 17.363C62.0232 18.17 61.7092 18.929 61.1372 19.501C60.8572 19.7826 60.5242 20.0059 60.1574 20.158C59.7906 20.3101 59.3973 20.3879 59.0002 20.387Z" fill="#0010F7"/>
</g>
<path d="M65.0902 24.423C64.7588 23.6379 64.2778 22.9246 63.6742 22.323C63.0723 21.7192 62.3592 21.2377 61.5742 20.905C61.5662 20.902 61.5592 20.9 61.5522 20.896C62.1571 20.4589 62.6396 19.8739 62.9536 19.1968C63.2676 18.5198 63.4025 17.7734 63.3454 17.0293C63.2883 16.2852 63.0411 15.5682 62.6274 14.947C62.2138 14.3258 61.6476 13.8212 60.9831 13.4815C60.3186 13.1419 59.5779 12.9785 58.8322 13.0071C58.0864 13.0357 57.3605 13.2553 56.7239 13.6448C56.0873 14.0344 55.5614 14.5808 55.1966 15.2319C54.8317 15.8829 54.6401 16.6167 54.6402 17.363C54.6402 18.817 55.3532 20.105 56.4482 20.898L56.4272 20.907C55.6412 21.238 54.9275 21.7194 54.3262 22.324C53.1215 23.5274 52.4282 25.1497 52.3912 26.852C52.3906 26.8708 52.3939 26.8894 52.4007 26.9069C52.4075 26.9243 52.4177 26.9402 52.4307 26.9536C52.4438 26.9671 52.4594 26.9777 52.4767 26.985C52.4939 26.9923 52.5124 26.9961 52.5312 26.996H53.5862C53.6228 26.9961 53.6579 26.9817 53.6841 26.9561C53.7103 26.9305 53.7254 26.8957 53.7262 26.859C53.7584 25.5077 54.3116 24.2211 55.2702 23.268C55.7588 22.7766 56.3401 22.387 56.9804 22.1218C57.6206 21.8566 58.3072 21.7211 59.0002 21.723C60.4102 21.723 61.7332 22.271 62.7302 23.268C63.6884 24.2213 64.2412 25.5078 64.2732 26.859C64.274 26.8958 64.2892 26.9308 64.3156 26.9565C64.342 26.9821 64.3774 26.9963 64.4142 26.996H65.4692C65.4879 26.9961 65.5064 26.9923 65.5237 26.985C65.5409 26.9777 65.5566 26.9671 65.5696 26.9536C65.5827 26.9402 65.5929 26.9243 65.5997 26.9069C65.6065 26.8894 65.6097 26.8708 65.6092 26.852C65.5931 26.0164 65.4173 25.1916 65.0912 24.422L65.0902 24.423ZM59.0002 20.387C58.6028 20.3879 58.2093 20.31 57.8423 20.1577C57.4753 20.0055 57.1422 19.7819 56.8622 19.5C56.5806 19.2199 56.3575 18.8867 56.2056 18.5197C56.0536 18.1527 55.976 17.7592 55.9772 17.362C55.9772 16.555 56.2912 15.796 56.8622 15.225C57.1423 14.9435 57.4756 14.7203 57.8425 14.5684C58.2095 14.4165 58.603 14.3389 59.0002 14.34C59.8072 14.34 60.5662 14.654 61.1372 15.226C61.7092 15.797 62.0232 16.556 62.0232 17.363C62.0232 18.17 61.7092 18.929 61.1372 19.501C60.8572 19.7826 60.5242 20.0059 60.1574 20.158C59.7906 20.3101 59.3973 20.3879 59.0002 20.387Z" fill="white"/>
<path d="M123 28C127.418 28 131 24.4183 131 20C131 15.5817 127.418 12 123 12C118.582 12 115 15.5817 115 20C115 24.4183 118.582 28 123 28Z" fill="#0010F7"/>
<g filter="url(#filter2_d_75:18821)">
<path d="M127.06 22.948C126.839 22.4245 126.518 21.949 126.116 21.548C125.714 21.1459 125.239 20.8253 124.716 20.604L124.702 20.598C125.2 20.2381 125.571 19.7296 125.762 19.1457C125.953 18.5617 125.954 17.9323 125.764 17.3477C125.575 16.7632 125.206 16.2537 124.709 15.8924C124.212 15.531 123.613 15.3365 122.999 15.3367C122.384 15.3369 121.786 15.5317 121.289 15.8934C120.792 16.255 120.423 16.7647 120.234 17.3494C120.045 17.934 120.047 18.5634 120.238 19.1473C120.429 19.7312 120.801 20.2394 121.299 20.599L121.284 20.605C120.76 20.8253 120.284 21.146 119.884 21.549C119.081 22.3513 118.618 23.4329 118.594 24.568C118.594 24.5804 118.596 24.5927 118.6 24.6043C118.605 24.6159 118.612 24.6264 118.62 24.6354C118.629 24.6443 118.639 24.6514 118.651 24.6563C118.662 24.6612 118.674 24.6638 118.687 24.664H119.391C119.415 24.6637 119.438 24.6541 119.456 24.6371C119.473 24.6202 119.483 24.5972 119.484 24.573C119.506 23.672 119.875 22.8143 120.514 22.179C120.839 21.8514 121.227 21.5917 121.654 21.4149C122.08 21.2381 122.538 21.1477 123 21.149C123.94 21.149 124.822 21.514 125.487 22.179C126.126 22.8144 126.494 23.6721 126.516 24.573C126.516 24.5973 126.526 24.6204 126.544 24.6374C126.561 24.6544 126.584 24.664 126.609 24.664H127.313C127.325 24.6638 127.337 24.6612 127.349 24.6563C127.36 24.6514 127.371 24.6443 127.379 24.6354C127.388 24.6264 127.395 24.6159 127.399 24.6043C127.404 24.5927 127.406 24.5804 127.406 24.568C127.395 24.0109 127.278 23.461 127.061 22.948H127.06ZM123 20.258C122.462 20.258 121.956 20.048 121.575 19.668C121.387 19.4809 121.239 19.2586 121.137 19.0138C121.036 18.7691 120.984 18.5068 120.985 18.242C120.985 17.704 121.195 17.198 121.575 16.817C121.955 16.437 122.462 16.227 123 16.227C123.538 16.227 124.044 16.437 124.425 16.817C124.805 17.198 125.015 17.704 125.015 18.242C125.015 18.78 124.805 19.286 124.425 19.667C124.045 20.048 123.538 20.257 123 20.257V20.258Z" fill="#0010F7"/>
</g>
<path d="M127.06 22.948C126.839 22.4245 126.518 21.949 126.116 21.548C125.714 21.1459 125.239 20.8253 124.716 20.604L124.702 20.598C125.2 20.2381 125.571 19.7296 125.762 19.1457C125.953 18.5617 125.954 17.9323 125.764 17.3477C125.575 16.7632 125.206 16.2537 124.709 15.8924C124.212 15.531 123.613 15.3365 122.999 15.3367C122.384 15.3369 121.786 15.5317 121.289 15.8934C120.792 16.255 120.423 16.7647 120.234 17.3494C120.045 17.934 120.047 18.5634 120.238 19.1473C120.429 19.7312 120.801 20.2394 121.299 20.599L121.284 20.605C120.76 20.8253 120.284 21.146 119.884 21.549C119.081 22.3513 118.618 23.4329 118.594 24.568C118.594 24.5804 118.596 24.5927 118.6 24.6043C118.605 24.6159 118.612 24.6264 118.62 24.6354C118.629 24.6443 118.639 24.6514 118.651 24.6563C118.662 24.6612 118.674 24.6638 118.687 24.664H119.391C119.415 24.6637 119.438 24.6541 119.456 24.6371C119.473 24.6202 119.483 24.5972 119.484 24.573C119.506 23.672 119.875 22.8143 120.514 22.179C120.839 21.8514 121.227 21.5917 121.654 21.4149C122.08 21.2381 122.538 21.1477 123 21.149C123.94 21.149 124.822 21.514 125.487 22.179C126.126 22.8144 126.494 23.6721 126.516 24.573C126.516 24.5973 126.526 24.6204 126.544 24.6374C126.561 24.6544 126.584 24.664 126.609 24.664H127.313C127.325 24.6638 127.337 24.6612 127.349 24.6563C127.36 24.6514 127.371 24.6443 127.379 24.6354C127.388 24.6264 127.395 24.6159 127.399 24.6043C127.404 24.5927 127.406 24.5804 127.406 24.568C127.395 24.0109 127.278 23.461 127.061 22.948H127.06ZM123 20.258C122.462 20.258 121.956 20.048 121.575 19.668C121.387 19.4809 121.239 19.2586 121.137 19.0138C121.036 18.7691 120.984 18.5068 120.985 18.242C120.985 17.704 121.195 17.198 121.575 16.817C121.955 16.437 122.462 16.227 123 16.227C123.538 16.227 124.044 16.437 124.425 16.817C124.805 17.198 125.015 17.704 125.015 18.242C125.015 18.78 124.805 19.286 124.425 19.667C124.045 20.048 123.538 20.257 123 20.257V20.258Z" fill="white"/>
<path d="M93 30C98.5228 30 103 25.5228 103 20C103 14.4772 98.5228 10 93 10C87.4772 10 83 14.4772 83 20C83 25.5228 87.4772 30 93 30Z" fill="#0010F7"/>
<g filter="url(#filter3_d_75:18821)">
<path d="M98.0762 23.6859C97.7997 23.0315 97.3986 22.4372 96.8952 21.9359C96.3937 21.4326 95.7994 21.0312 95.1452 20.7539L95.1272 20.7469C95.7495 20.2971 96.2132 19.6617 96.4518 18.9318C96.6903 18.202 96.6915 17.4153 96.455 16.6848C96.2185 15.9543 95.7566 15.3175 95.1356 14.866C94.5146 14.4144 93.7665 14.1712 92.9987 14.1714C92.2309 14.1716 91.4828 14.4151 90.8621 14.867C90.2413 15.3188 89.7797 15.9558 89.5435 16.6865C89.3074 17.4171 89.3089 18.2037 89.5478 18.9334C89.7867 19.6632 90.2507 20.2984 90.8732 20.7479L90.8552 20.7559C90.2006 21.0316 89.6062 21.4324 89.1052 21.9359C88.1009 22.9388 87.523 24.291 87.4922 25.7099C87.4918 25.7255 87.4946 25.7411 87.5003 25.7556C87.506 25.7702 87.5145 25.7834 87.5254 25.7946C87.5363 25.8058 87.5494 25.8147 87.5637 25.8207C87.5781 25.8268 87.5936 25.8299 87.6092 25.8299H88.4892C88.5196 25.8297 88.5486 25.8176 88.5703 25.7964C88.5919 25.7751 88.6044 25.7462 88.6052 25.7159C88.6325 24.5897 89.0936 23.5174 89.8922 22.7229C90.2994 22.3135 90.7838 21.9889 91.3173 21.768C91.8508 21.5471 92.4228 21.4342 93.0002 21.4359C94.1752 21.4359 95.2782 21.8929 96.1082 22.7229C96.9072 23.5172 97.3684 24.5896 97.3952 25.7159C97.3958 25.7465 97.4083 25.7756 97.4303 25.797C97.4522 25.8184 97.4816 25.8302 97.5122 25.8299H98.3912C98.4068 25.8299 98.4223 25.8268 98.4367 25.8207C98.4511 25.8147 98.4641 25.8058 98.475 25.7946C98.4859 25.7834 98.4945 25.7702 98.5002 25.7556C98.5059 25.7411 98.5086 25.7255 98.5082 25.7099C98.4946 25.0139 98.3479 24.3269 98.0762 23.6859ZM93.0002 20.3219C92.6693 20.3227 92.3415 20.2579 92.0358 20.1313C91.7301 20.0046 91.4526 19.8185 91.2192 19.5839C90.9844 19.3507 90.7982 19.0731 90.6713 18.7674C90.5445 18.4617 90.4795 18.1339 90.4802 17.8029C90.4802 17.1299 90.7432 16.4979 91.2192 16.0209C91.4526 15.7863 91.7301 15.6002 92.0358 15.4736C92.3415 15.3469 92.6693 15.2821 93.0002 15.2829C93.6722 15.2829 94.3052 15.5449 94.7812 16.0209C95.2572 16.4979 95.5202 17.1309 95.5202 17.8029C95.5202 18.4749 95.2572 19.1079 94.7812 19.5839C94.5479 19.8185 94.2703 20.0046 93.9646 20.1313C93.6589 20.2579 93.3311 20.3227 93.0002 20.3219Z" fill="#0010F7"/>
</g>
<path d="M98.0762 23.6859C97.7997 23.0315 97.3986 22.4372 96.8952 21.9359C96.3937 21.4326 95.7994 21.0312 95.1452 20.7539L95.1272 20.7469C95.7495 20.2971 96.2132 19.6617 96.4518 18.9318C96.6903 18.202 96.6915 17.4153 96.455 16.6848C96.2185 15.9543 95.7566 15.3175 95.1356 14.866C94.5146 14.4144 93.7665 14.1712 92.9987 14.1714C92.2309 14.1716 91.4828 14.4151 90.8621 14.867C90.2413 15.3188 89.7797 15.9558 89.5435 16.6865C89.3074 17.4171 89.3089 18.2037 89.5478 18.9334C89.7867 19.6632 90.2507 20.2984 90.8732 20.7479L90.8552 20.7559C90.2006 21.0316 89.6062 21.4324 89.1052 21.9359C88.1009 22.9388 87.523 24.291 87.4922 25.7099C87.4918 25.7255 87.4946 25.7411 87.5003 25.7556C87.506 25.7702 87.5145 25.7834 87.5254 25.7946C87.5363 25.8058 87.5494 25.8147 87.5637 25.8207C87.5781 25.8268 87.5936 25.8299 87.6092 25.8299H88.4892C88.5196 25.8297 88.5486 25.8176 88.5703 25.7964C88.5919 25.7751 88.6044 25.7462 88.6052 25.7159C88.6325 24.5897 89.0936 23.5174 89.8922 22.7229C90.2994 22.3135 90.7838 21.9889 91.3173 21.768C91.8508 21.5471 92.4228 21.4342 93.0002 21.4359C94.1752 21.4359 95.2782 21.8929 96.1082 22.7229C96.9072 23.5172 97.3684 24.5896 97.3952 25.7159C97.3958 25.7465 97.4083 25.7756 97.4303 25.797C97.4522 25.8184 97.4816 25.8302 97.5122 25.8299H98.3912C98.4068 25.8299 98.4223 25.8268 98.4367 25.8207C98.4511 25.8147 98.4641 25.8058 98.475 25.7946C98.4859 25.7834 98.4945 25.7702 98.5002 25.7556C98.5059 25.7411 98.5086 25.7255 98.5082 25.7099C98.4946 25.0139 98.3479 24.3269 98.0762 23.6859ZM93.0002 20.3219C92.6693 20.3227 92.3415 20.2579 92.0358 20.1313C91.7301 20.0046 91.4526 19.8185 91.2192 19.5839C90.9844 19.3507 90.7982 19.0731 90.6713 18.7674C90.5445 18.4617 90.4795 18.1339 90.4802 17.8029C90.4802 17.1299 90.7432 16.4979 91.2192 16.0209C91.4526 15.7863 91.7301 15.6002 92.0358 15.4736C92.3415 15.3469 92.6693 15.2821 93.0002 15.2829C93.6722 15.2829 94.3052 15.5449 94.7812 16.0209C95.2572 16.4979 95.5202 17.1309 95.5202 17.8029C95.5202 18.4749 95.2572 19.1079 94.7812 19.5839C94.5479 19.8185 94.2703 20.0046 93.9646 20.1313C93.6589 20.2579 93.3311 20.3227 93.0002 20.3219Z" fill="white"/>
<path d="M33 48H5C3.89543 48 3 48.8954 3 50V78C3 79.1046 3.89543 80 5 80H33C34.1046 80 35 79.1046 35 78V50C35 48.8954 34.1046 48 33 48Z" fill="#0010F7"/>
<g filter="url(#filter4_d_75:18821)">
<path d="M27.121 69.8969C26.6788 68.8499 26.0373 67.8989 25.232 67.0969C24.4295 66.292 23.4786 65.6502 22.432 65.2069C22.422 65.2019 22.412 65.1999 22.403 65.1949C23.3995 64.4757 24.1424 63.4591 24.5248 62.2912C24.9072 61.1232 24.9095 59.8642 24.5314 58.6948C24.1533 57.5255 23.4141 56.5062 22.4203 55.7834C21.4264 55.0605 20.229 54.6714 19 54.6719C17.7703 54.6705 16.5718 55.0593 15.5771 55.7823C14.5824 56.5053 13.8426 57.5252 13.4643 58.6953C13.0861 59.8654 13.0887 61.1253 13.472 62.2938C13.8552 63.4623 14.5992 64.4791 15.597 65.1979L15.569 65.2089C14.5212 65.6504 13.5697 66.2924 12.768 67.0989C11.9632 67.9015 11.3214 68.8523 10.878 69.8989C10.4433 70.9239 10.2091 72.0227 10.188 73.1359C10.1875 73.1608 10.1919 73.1856 10.2011 73.2088C10.2102 73.232 10.2239 73.2532 10.2413 73.2711C10.2587 73.2889 10.2795 73.3031 10.3025 73.3129C10.3254 73.3227 10.3501 73.3277 10.375 73.3279H11.781C11.8301 73.3281 11.8773 73.3091 11.9125 73.2749C11.9477 73.2406 11.968 73.194 11.969 73.1449C12.0119 71.3432 12.7492 69.6277 14.027 68.3569C14.6785 67.7017 15.4535 67.1822 16.3071 66.8286C17.1608 66.475 18.0761 66.2943 19 66.2969C20.88 66.2969 22.645 67.0279 23.973 68.3569C25.2509 69.6277 25.9882 71.3432 26.031 73.1449C26.0318 73.194 26.052 73.2409 26.0873 73.2752C26.1225 73.3095 26.1699 73.3284 26.219 73.3279H27.625C27.73 73.3279 27.815 73.2409 27.813 73.1359C27.7912 72.0216 27.5563 70.9218 27.121 69.8959V69.8969ZM19 64.5159C18.4704 64.5171 17.9458 64.4132 17.4566 64.2103C16.9674 64.0075 16.5233 63.7095 16.15 63.3339C15.7745 62.9605 15.4768 62.5164 15.2741 62.0272C15.0714 61.538 14.9677 61.0134 14.969 60.4839C14.968 59.9544 15.0718 59.4299 15.2745 58.9408C15.4772 58.4516 15.7748 58.0074 16.15 57.6339C16.5235 57.2586 16.9677 56.961 17.4569 56.7585C17.9461 56.5559 18.4706 56.4524 19 56.4539C20.076 56.4539 21.088 56.8729 21.85 57.6339C22.2255 58.0073 22.5232 58.4514 22.726 58.9406C22.9287 59.4298 23.0324 59.9543 23.031 60.4839C23.031 61.5599 22.611 62.5729 21.85 63.3339C21.4767 63.7095 21.0326 64.0075 20.5434 64.2103C20.0542 64.4132 19.5296 64.5171 19 64.5159Z" fill="#0010F7"/>
</g>
<path d="M27.121 69.8969C26.6788 68.8499 26.0373 67.8989 25.232 67.0969C24.4295 66.292 23.4786 65.6502 22.432 65.2069C22.422 65.2019 22.412 65.1999 22.403 65.1949C23.3995 64.4757 24.1424 63.4591 24.5248 62.2912C24.9072 61.1232 24.9095 59.8642 24.5314 58.6948C24.1533 57.5255 23.4141 56.5062 22.4203 55.7834C21.4264 55.0605 20.229 54.6714 19 54.6719C17.7703 54.6705 16.5718 55.0593 15.5771 55.7823C14.5824 56.5053 13.8426 57.5252 13.4643 58.6953C13.0861 59.8654 13.0887 61.1253 13.472 62.2938C13.8552 63.4623 14.5992 64.4791 15.597 65.1979L15.569 65.2089C14.5212 65.6504 13.5697 66.2924 12.768 67.0989C11.9632 67.9015 11.3214 68.8523 10.878 69.8989C10.4433 70.9239 10.2091 72.0227 10.188 73.1359C10.1875 73.1608 10.1919 73.1856 10.2011 73.2088C10.2102 73.232 10.2239 73.2532 10.2413 73.2711C10.2587 73.2889 10.2795 73.3031 10.3025 73.3129C10.3254 73.3227 10.3501 73.3277 10.375 73.3279H11.781C11.8301 73.3281 11.8773 73.3091 11.9125 73.2749C11.9477 73.2406 11.968 73.194 11.969 73.1449C12.0119 71.3432 12.7492 69.6277 14.027 68.3569C14.6785 67.7017 15.4535 67.1822 16.3071 66.8286C17.1608 66.475 18.0761 66.2943 19 66.2969C20.88 66.2969 22.645 67.0279 23.973 68.3569C25.2509 69.6277 25.9882 71.3432 26.031 73.1449C26.0318 73.194 26.052 73.2409 26.0873 73.2752C26.1225 73.3095 26.1699 73.3284 26.219 73.3279H27.625C27.73 73.3279 27.815 73.2409 27.813 73.1359C27.7912 72.0216 27.5563 70.9218 27.121 69.8959V69.8969ZM19 64.5159C18.4704 64.5171 17.9458 64.4132 17.4566 64.2103C16.9674 64.0075 16.5233 63.7095 16.15 63.3339C15.7745 62.9605 15.4768 62.5164 15.2741 62.0272C15.0714 61.538 14.9677 61.0134 14.969 60.4839C14.968 59.9544 15.0718 59.4299 15.2745 58.9408C15.4772 58.4516 15.7748 58.0074 16.15 57.6339C16.5235 57.2586 16.9677 56.961 17.4569 56.7585C17.9461 56.5559 18.4706 56.4524 19 56.4539C20.076 56.4539 21.088 56.8729 21.85 57.6339C22.2255 58.0073 22.5232 58.4514 22.726 58.9406C22.9287 59.4298 23.0324 59.9543 23.031 60.4839C23.031 61.5599 22.611 62.5729 21.85 63.3339C21.4767 63.7095 21.0326 64.0075 20.5434 64.2103C20.0542 64.4132 19.5296 64.5171 19 64.5159Z" fill="white"/>
<path d="M69.5 52H48.5C47.6716 52 47 52.6716 47 53.5V74.5C47 75.3284 47.6716 76 48.5 76H69.5C70.3284 76 71 75.3284 71 74.5V53.5C71 52.6716 70.3284 52 69.5 52Z" fill="#0010F7"/>
<g filter="url(#filter5_d_75:18821)">
<path d="M65.0902 68.423C64.7588 67.6379 64.2778 66.9246 63.6742 66.323C63.0723 65.7192 62.3592 65.2377 61.5742 64.905C61.5662 64.902 61.5592 64.9 61.5522 64.896C62.1571 64.4589 62.6396 63.8739 62.9536 63.1968C63.2676 62.5198 63.4025 61.7734 63.3454 61.0293C63.2883 60.2852 63.0411 59.5682 62.6274 58.947C62.2138 58.3258 61.6476 57.8212 60.9831 57.4815C60.3186 57.1419 59.5779 56.9785 58.8322 57.0071C58.0864 57.0357 57.3605 57.2553 56.7239 57.6448C56.0873 58.0344 55.5614 58.5808 55.1966 59.2319C54.8317 59.8829 54.6401 60.6167 54.6402 61.363C54.6402 62.817 55.3532 64.105 56.4482 64.898L56.4272 64.907C55.6412 65.238 54.9275 65.7194 54.3262 66.324C53.1215 67.5274 52.4282 69.1497 52.3912 70.852C52.3906 70.8708 52.3939 70.8894 52.4007 70.9069C52.4075 70.9243 52.4177 70.9402 52.4307 70.9536C52.4438 70.9671 52.4594 70.9777 52.4767 70.985C52.4939 70.9923 52.5124 70.9961 52.5312 70.996H53.5862C53.6228 70.9961 53.6579 70.9817 53.6841 70.9561C53.7103 70.9305 53.7254 70.8957 53.7262 70.859C53.7584 69.5077 54.3116 68.2211 55.2702 67.268C55.7588 66.7766 56.3401 66.387 56.9804 66.1218C57.6206 65.8566 58.3072 65.7211 59.0002 65.723C60.4102 65.723 61.7332 66.271 62.7302 67.268C63.6884 68.2213 64.2412 69.5078 64.2732 70.859C64.274 70.8958 64.2892 70.9308 64.3156 70.9565C64.342 70.9821 64.3774 70.9963 64.4142 70.996H65.4692C65.4879 70.9961 65.5064 70.9923 65.5237 70.985C65.5409 70.9777 65.5566 70.9671 65.5696 70.9536C65.5827 70.9402 65.5929 70.9243 65.5997 70.9069C65.6065 70.8894 65.6097 70.8708 65.6092 70.852C65.5931 70.0164 65.4173 69.1916 65.0912 68.422L65.0902 68.423ZM59.0002 64.387C58.6028 64.3879 58.2093 64.31 57.8423 64.1577C57.4753 64.0055 57.1422 63.7819 56.8622 63.5C56.5806 63.2199 56.3575 62.8867 56.2056 62.5197C56.0536 62.1527 55.976 61.7592 55.9772 61.362C55.9772 60.555 56.2912 59.796 56.8622 59.225C57.1423 58.9435 57.4756 58.7203 57.8425 58.5684C58.2095 58.4165 58.603 58.3389 59.0002 58.34C59.8072 58.34 60.5662 58.654 61.1372 59.226C61.7092 59.797 62.0232 60.556 62.0232 61.363C62.0232 62.17 61.7092 62.929 61.1372 63.501C60.8572 63.7826 60.5242 64.0059 60.1574 64.158C59.7906 64.3101 59.3973 64.3879 59.0002 64.387Z" fill="#0010F7"/>
</g>
<path d="M65.0902 68.423C64.7588 67.6379 64.2778 66.9246 63.6742 66.323C63.0723 65.7192 62.3592 65.2377 61.5742 64.905C61.5662 64.902 61.5592 64.9 61.5522 64.896C62.1571 64.4589 62.6396 63.8739 62.9536 63.1968C63.2676 62.5198 63.4025 61.7734 63.3454 61.0293C63.2883 60.2852 63.0411 59.5682 62.6274 58.947C62.2138 58.3258 61.6476 57.8212 60.9831 57.4815C60.3186 57.1419 59.5779 56.9785 58.8322 57.0071C58.0864 57.0357 57.3605 57.2553 56.7239 57.6448C56.0873 58.0344 55.5614 58.5808 55.1966 59.2319C54.8317 59.8829 54.6401 60.6167 54.6402 61.363C54.6402 62.817 55.3532 64.105 56.4482 64.898L56.4272 64.907C55.6412 65.238 54.9275 65.7194 54.3262 66.324C53.1215 67.5274 52.4282 69.1497 52.3912 70.852C52.3906 70.8708 52.3939 70.8894 52.4007 70.9069C52.4075 70.9243 52.4177 70.9402 52.4307 70.9536C52.4438 70.9671 52.4594 70.9777 52.4767 70.985C52.4939 70.9923 52.5124 70.9961 52.5312 70.996H53.5862C53.6228 70.9961 53.6579 70.9817 53.6841 70.9561C53.7103 70.9305 53.7254 70.8957 53.7262 70.859C53.7584 69.5077 54.3116 68.2211 55.2702 67.268C55.7588 66.7766 56.3401 66.387 56.9804 66.1218C57.6206 65.8566 58.3072 65.7211 59.0002 65.723C60.4102 65.723 61.7332 66.271 62.7302 67.268C63.6884 68.2213 64.2412 69.5078 64.2732 70.859C64.274 70.8958 64.2892 70.9308 64.3156 70.9565C64.342 70.9821 64.3774 70.9963 64.4142 70.996H65.4692C65.4879 70.9961 65.5064 70.9923 65.5237 70.985C65.5409 70.9777 65.5566 70.9671 65.5696 70.9536C65.5827 70.9402 65.5929 70.9243 65.5997 70.9069C65.6065 70.8894 65.6097 70.8708 65.6092 70.852C65.5931 70.0164 65.4173 69.1916 65.0912 68.422L65.0902 68.423ZM59.0002 64.387C58.6028 64.3879 58.2093 64.31 57.8423 64.1577C57.4753 64.0055 57.1422 63.7819 56.8622 63.5C56.5806 63.2199 56.3575 62.8867 56.2056 62.5197C56.0536 62.1527 55.976 61.7592 55.9772 61.362C55.9772 60.555 56.2912 59.796 56.8622 59.225C57.1423 58.9435 57.4756 58.7203 57.8425 58.5684C58.2095 58.4165 58.603 58.3389 59.0002 58.34C59.8072 58.34 60.5662 58.654 61.1372 59.226C61.7092 59.797 62.0232 60.556 62.0232 61.363C62.0232 62.17 61.7092 62.929 61.1372 63.501C60.8572 63.7826 60.5242 64.0059 60.1574 64.158C59.7906 64.3101 59.3973 64.3879 59.0002 64.387Z" fill="white"/>
<path d="M101.75 54H84.25C83.5596 54 83 54.5596 83 55.25V72.75C83 73.4404 83.5596 74 84.25 74H101.75C102.44 74 103 73.4404 103 72.75V55.25C103 54.5596 102.44 54 101.75 54Z" fill="#0010F7"/>
<g filter="url(#filter6_d_75:18821)">
<path d="M98.0762 67.6859C97.7997 67.0315 97.3986 66.4372 96.8952 65.9359C96.3937 65.4326 95.7994 65.0312 95.1452 64.7539L95.1272 64.7469C95.7495 64.2971 96.2132 63.6617 96.4518 62.9318C96.6903 62.202 96.6915 61.4153 96.455 60.6848C96.2185 59.9543 95.7566 59.3175 95.1356 58.866C94.5146 58.4144 93.7665 58.1712 92.9987 58.1714C92.2309 58.1716 91.4828 58.4151 90.8621 58.867C90.2413 59.3188 89.7797 59.9558 89.5435 60.6865C89.3074 61.4171 89.3089 62.2037 89.5478 62.9334C89.7867 63.6632 90.2507 64.2984 90.8732 64.7479L90.8552 64.7559C90.2006 65.0316 89.6062 65.4324 89.1052 65.9359C88.1009 66.9388 87.523 68.291 87.4922 69.7099C87.4918 69.7255 87.4946 69.7411 87.5003 69.7556C87.506 69.7702 87.5145 69.7834 87.5254 69.7946C87.5363 69.8058 87.5494 69.8147 87.5637 69.8207C87.5781 69.8268 87.5936 69.8299 87.6092 69.8299H88.4892C88.5196 69.8297 88.5486 69.8176 88.5703 69.7964C88.5919 69.7751 88.6044 69.7462 88.6052 69.7159C88.6325 68.5897 89.0936 67.5174 89.8922 66.7229C90.2994 66.3135 90.7838 65.9889 91.3173 65.768C91.8508 65.5471 92.4228 65.4342 93.0002 65.4359C94.1752 65.4359 95.2782 65.8929 96.1082 66.7229C96.9072 67.5172 97.3684 68.5896 97.3952 69.7159C97.3958 69.7465 97.4083 69.7756 97.4303 69.797C97.4522 69.8184 97.4816 69.8302 97.5122 69.8299H98.3912C98.4068 69.8299 98.4223 69.8268 98.4367 69.8207C98.4511 69.8147 98.4641 69.8058 98.475 69.7946C98.4859 69.7834 98.4945 69.7702 98.5002 69.7556C98.5059 69.7411 98.5086 69.7255 98.5082 69.7099C98.4946 69.0139 98.3479 68.3269 98.0762 67.6859ZM93.0002 64.3219C92.6693 64.3227 92.3415 64.2579 92.0358 64.1313C91.7301 64.0046 91.4526 63.8185 91.2192 63.5839C90.9844 63.3507 90.7982 63.0731 90.6713 62.7674C90.5445 62.4617 90.4795 62.1339 90.4802 61.8029C90.4802 61.1299 90.7432 60.4979 91.2192 60.0209C91.4526 59.7863 91.7301 59.6002 92.0358 59.4736C92.3415 59.3469 92.6693 59.2821 93.0002 59.2829C93.6722 59.2829 94.3052 59.5449 94.7812 60.0209C95.2572 60.4979 95.5202 61.1309 95.5202 61.8029C95.5202 62.4749 95.2572 63.1079 94.7812 63.5839C94.5479 63.8185 94.2703 64.0046 93.9646 64.1313C93.6589 64.2579 93.3311 64.3227 93.0002 64.3219Z" fill="#0010F7"/>
</g>
<path d="M98.0762 67.6859C97.7997 67.0315 97.3986 66.4372 96.8952 65.9359C96.3937 65.4326 95.7994 65.0312 95.1452 64.7539L95.1272 64.7469C95.7495 64.2971 96.2132 63.6617 96.4518 62.9318C96.6903 62.202 96.6915 61.4153 96.455 60.6848C96.2185 59.9543 95.7566 59.3175 95.1356 58.866C94.5146 58.4144 93.7665 58.1712 92.9987 58.1714C92.2309 58.1716 91.4828 58.4151 90.8621 58.867C90.2413 59.3188 89.7797 59.9558 89.5435 60.6865C89.3074 61.4171 89.3089 62.2037 89.5478 62.9334C89.7867 63.6632 90.2507 64.2984 90.8732 64.7479L90.8552 64.7559C90.2006 65.0316 89.6062 65.4324 89.1052 65.9359C88.1009 66.9388 87.523 68.291 87.4922 69.7099C87.4918 69.7255 87.4946 69.7411 87.5003 69.7556C87.506 69.7702 87.5145 69.7834 87.5254 69.7946C87.5363 69.8058 87.5494 69.8147 87.5637 69.8207C87.5781 69.8268 87.5936 69.8299 87.6092 69.8299H88.4892C88.5196 69.8297 88.5486 69.8176 88.5703 69.7964C88.5919 69.7751 88.6044 69.7462 88.6052 69.7159C88.6325 68.5897 89.0936 67.5174 89.8922 66.7229C90.2994 66.3135 90.7838 65.9889 91.3173 65.768C91.8508 65.5471 92.4228 65.4342 93.0002 65.4359C94.1752 65.4359 95.2782 65.8929 96.1082 66.7229C96.9072 67.5172 97.3684 68.5896 97.3952 69.7159C97.3958 69.7465 97.4083 69.7756 97.4303 69.797C97.4522 69.8184 97.4816 69.8302 97.5122 69.8299H98.3912C98.4068 69.8299 98.4223 69.8268 98.4367 69.8207C98.4511 69.8147 98.4641 69.8058 98.475 69.7946C98.4859 69.7834 98.4945 69.7702 98.5002 69.7556C98.5059 69.7411 98.5086 69.7255 98.5082 69.7099C98.4946 69.0139 98.3479 68.3269 98.0762 67.6859ZM93.0002 64.3219C92.6693 64.3227 92.3415 64.2579 92.0358 64.1313C91.7301 64.0046 91.4526 63.8185 91.2192 63.5839C90.9844 63.3507 90.7982 63.0731 90.6713 62.7674C90.5445 62.4617 90.4795 62.1339 90.4802 61.8029C90.4802 61.1299 90.7432 60.4979 91.2192 60.0209C91.4526 59.7863 91.7301 59.6002 92.0358 59.4736C92.3415 59.3469 92.6693 59.2821 93.0002 59.2829C93.6722 59.2829 94.3052 59.5449 94.7812 60.0209C95.2572 60.4979 95.5202 61.1309 95.5202 61.8029C95.5202 62.4749 95.2572 63.1079 94.7812 63.5839C94.5479 63.8185 94.2703 64.0046 93.9646 64.1313C93.6589 64.2579 93.3311 64.3227 93.0002 64.3219Z" fill="white"/>
<path d="M130 56H116C115.448 56 115 56.4477 115 57V71C115 71.5523 115.448 72 116 72H130C130.552 72 131 71.5523 131 71V57C131 56.4477 130.552 56 130 56Z" fill="#0010F7"/>
<g filter="url(#filter7_d_75:18821)">
<path d="M127.06 66.948C126.839 66.4245 126.518 65.949 126.116 65.548C125.714 65.1459 125.239 64.8253 124.716 64.604L124.702 64.598C125.2 64.2381 125.571 63.7296 125.762 63.1457C125.953 62.5617 125.954 61.9323 125.764 61.3477C125.575 60.7632 125.206 60.2537 124.709 59.8924C124.212 59.531 123.613 59.3365 122.999 59.3367C122.384 59.3369 121.786 59.5317 121.289 59.8934C120.792 60.255 120.423 60.7647 120.234 61.3494C120.045 61.934 120.047 62.5634 120.238 63.1473C120.429 63.7312 120.801 64.2394 121.299 64.599L121.284 64.605C120.76 64.8253 120.284 65.146 119.884 65.549C119.081 66.3513 118.618 67.4329 118.594 68.568C118.594 68.5804 118.596 68.5927 118.6 68.6043C118.605 68.6159 118.612 68.6264 118.62 68.6354C118.629 68.6443 118.639 68.6514 118.651 68.6563C118.662 68.6612 118.674 68.6638 118.687 68.664H119.391C119.415 68.6637 119.438 68.6541 119.456 68.6371C119.473 68.6202 119.483 68.5972 119.484 68.573C119.506 67.672 119.875 66.8143 120.514 66.179C120.839 65.8514 121.227 65.5917 121.654 65.4149C122.08 65.2381 122.538 65.1477 123 65.149C123.94 65.149 124.822 65.514 125.487 66.179C126.126 66.8144 126.494 67.6721 126.516 68.573C126.516 68.5973 126.526 68.6204 126.544 68.6374C126.561 68.6544 126.584 68.664 126.609 68.664H127.313C127.325 68.6638 127.337 68.6612 127.349 68.6563C127.36 68.6514 127.371 68.6443 127.379 68.6354C127.388 68.6264 127.395 68.6159 127.399 68.6043C127.404 68.5927 127.406 68.5804 127.406 68.568C127.395 68.0109 127.278 67.461 127.061 66.948H127.06ZM123 64.258C122.462 64.258 121.956 64.048 121.575 63.668C121.387 63.4809 121.239 63.2586 121.137 63.0138C121.036 62.7691 120.984 62.5068 120.985 62.242C120.985 61.704 121.195 61.198 121.575 60.817C121.955 60.437 122.462 60.227 123 60.227C123.538 60.227 124.044 60.437 124.425 60.817C124.805 61.198 125.015 61.704 125.015 62.242C125.015 62.78 124.805 63.286 124.425 63.667C124.045 64.048 123.538 64.257 123 64.257V64.258Z" fill="#0010F7"/>
</g>
<path d="M127.06 66.948C126.839 66.4245 126.518 65.949 126.116 65.548C125.714 65.1459 125.239 64.8253 124.716 64.604L124.702 64.598C125.2 64.2381 125.571 63.7296 125.762 63.1457C125.953 62.5617 125.954 61.9323 125.764 61.3477C125.575 60.7632 125.206 60.2537 124.709 59.8924C124.212 59.531 123.613 59.3365 122.999 59.3367C122.384 59.3369 121.786 59.5317 121.289 59.8934C120.792 60.255 120.423 60.7647 120.234 61.3494C120.045 61.934 120.047 62.5634 120.238 63.1473C120.429 63.7312 120.801 64.2394 121.299 64.599L121.284 64.605C120.76 64.8253 120.284 65.146 119.884 65.549C119.081 66.3513 118.618 67.4329 118.594 68.568C118.594 68.5804 118.596 68.5927 118.6 68.6043C118.605 68.6159 118.612 68.6264 118.62 68.6354C118.629 68.6443 118.639 68.6514 118.651 68.6563C118.662 68.6612 118.674 68.6638 118.687 68.664H119.391C119.415 68.6637 119.438 68.6541 119.456 68.6371C119.473 68.6202 119.483 68.5972 119.484 68.573C119.506 67.672 119.875 66.8143 120.514 66.179C120.839 65.8514 121.227 65.5917 121.654 65.4149C122.08 65.2381 122.538 65.1477 123 65.149C123.94 65.149 124.822 65.514 125.487 66.179C126.126 66.8144 126.494 67.6721 126.516 68.573C126.516 68.5973 126.526 68.6204 126.544 68.6374C126.561 68.6544 126.584 68.664 126.609 68.664H127.313C127.325 68.6638 127.337 68.6612 127.349 68.6563C127.36 68.6514 127.371 68.6443 127.379 68.6354C127.388 68.6264 127.395 68.6159 127.399 68.6043C127.404 68.5927 127.406 68.5804 127.406 68.568C127.395 68.0109 127.278 67.461 127.061 66.948H127.06ZM123 64.258C122.462 64.258 121.956 64.048 121.575 63.668C121.387 63.4809 121.239 63.2586 121.137 63.0138C121.036 62.7691 120.984 62.5068 120.985 62.242C120.985 61.704 121.195 61.198 121.575 60.817C121.955 60.437 122.462 60.227 123 60.227C123.538 60.227 124.044 60.437 124.425 60.817C124.805 61.198 125.015 61.704 125.015 62.242C125.015 62.78 124.805 63.286 124.425 63.667C124.045 64.048 123.538 64.257 123 64.257V64.258Z" fill="white"/>
</g>
<defs>
<filter id="filter0_d_75:18821" x="-0.812012" y="-0.328125" width="39.625" height="40.656" filterUnits="userSpaceOnUse" color-interpolation-filters="sRGB">
<feFlood flood-opacity="0" result="BackgroundImageFix"/>
<feColorMatrix in="SourceAlpha" type="matrix" values="0 0 0 0 0 0 0 0 0 0 0 0 0 0 0 0 0 0 127 0" result="hardAlpha"/>
<feOffset/>
<feGaussianBlur stdDeviation="5.5"/>
<feColorMatrix type="matrix" values="0 0 0 0 0 0 0 0 0 0 0 0 0 0 0 0 0 0 0.06 0"/>
<feBlend mode="normal" in2="BackgroundImageFix" result="effect1_dropShadow_75:18821"/>
<feBlend mode="normal" in="SourceGraphic" in2="effect1_dropShadow_75:18821" result="shape"/>
</filter>
<filter id="filter1_d_75:18821" x="41.3911" y="2.00391" width="35.2183" height="35.9922" filterUnits="userSpaceOnUse" color-interpolation-filters="sRGB">
<feFlood flood-opacity="0" result="BackgroundImageFix"/>
<feColorMatrix in="SourceAlpha" type="matrix" values="0 0 0 0 0 0 0 0 0 0 0 0 0 0 0 0 0 0 127 0" result="hardAlpha"/>
<feOffset/>
<feGaussianBlur stdDeviation="5.5"/>
<feColorMatrix type="matrix" values="0 0 0 0 0 0 0 0 0 0 0 0 0 0 0 0 0 0 0.06 0"/>
<feBlend mode="normal" in2="BackgroundImageFix" result="effect1_dropShadow_75:18821"/>
<feBlend mode="normal" in="SourceGraphic" in2="effect1_dropShadow_75:18821" result="shape"/>
</filter>
<filter id="filter2_d_75:18821" x="107.594" y="4.33667" width="30.812" height="31.3274" filterUnits="userSpaceOnUse" color-interpolation-filters="sRGB">
<feFlood flood-opacity="0" result="BackgroundImageFix"/>
<feColorMatrix in="SourceAlpha" type="matrix" values="0 0 0 0 0 0 0 0 0 0 0 0 0 0 0 0 0 0 127 0" result="hardAlpha"/>
<feOffset/>
<feGaussianBlur stdDeviation="5.5"/>
<feColorMatrix type="matrix" values="0 0 0 0 0 0 0 0 0 0 0 0 0 0 0 0 0 0 0.06 0"/>
<feBlend mode="normal" in2="BackgroundImageFix" result="effect1_dropShadow_75:18821"/>
<feBlend mode="normal" in="SourceGraphic" in2="effect1_dropShadow_75:18821" result="shape"/>
</filter>
<filter id="filter3_d_75:18821" x="76.4922" y="3.17139" width="33.0161" height="33.6584" filterUnits="userSpaceOnUse" color-interpolation-filters="sRGB">
<feFlood flood-opacity="0" result="BackgroundImageFix"/>
<feColorMatrix in="SourceAlpha" type="matrix" values="0 0 0 0 0 0 0 0 0 0 0 0 0 0 0 0 0 0 127 0" result="hardAlpha"/>
<feOffset/>
<feGaussianBlur stdDeviation="5.5"/>
<feColorMatrix type="matrix" values="0 0 0 0 0 0 0 0 0 0 0 0 0 0 0 0 0 0 0.06 0"/>
<feBlend mode="normal" in2="BackgroundImageFix" result="effect1_dropShadow_75:18821"/>
<feBlend mode="normal" in="SourceGraphic" in2="effect1_dropShadow_75:18821" result="shape"/>
</filter>
<filter id="filter4_d_75:18821" x="-0.812012" y="43.6719" width="39.625" height="40.656" filterUnits="userSpaceOnUse" color-interpolation-filters="sRGB">
<feFlood flood-opacity="0" result="BackgroundImageFix"/>
<feColorMatrix in="SourceAlpha" type="matrix" values="0 0 0 0 0 0 0 0 0 0 0 0 0 0 0 0 0 0 127 0" result="hardAlpha"/>
<feOffset/>
<feGaussianBlur stdDeviation="5.5"/>
<feColorMatrix type="matrix" values="0 0 0 0 0 0 0 0 0 0 0 0 0 0 0 0 0 0 0.06 0"/>
<feBlend mode="normal" in2="BackgroundImageFix" result="effect1_dropShadow_75:18821"/>
<feBlend mode="normal" in="SourceGraphic" in2="effect1_dropShadow_75:18821" result="shape"/>
</filter>
<filter id="filter5_d_75:18821" x="41.3911" y="46.0039" width="35.2183" height="35.9922" filterUnits="userSpaceOnUse" color-interpolation-filters="sRGB">
<feFlood flood-opacity="0" result="BackgroundImageFix"/>
<feColorMatrix in="SourceAlpha" type="matrix" values="0 0 0 0 0 0 0 0 0 0 0 0 0 0 0 0 0 0 127 0" result="hardAlpha"/>
<feOffset/>
<feGaussianBlur stdDeviation="5.5"/>
<feColorMatrix type="matrix" values="0 0 0 0 0 0 0 0 0 0 0 0 0 0 0 0 0 0 0.06 0"/>
<feBlend mode="normal" in2="BackgroundImageFix" result="effect1_dropShadow_75:18821"/>
<feBlend mode="normal" in="SourceGraphic" in2="effect1_dropShadow_75:18821" result="shape"/>
</filter>
<filter id="filter6_d_75:18821" x="76.4922" y="47.1714" width="33.0161" height="33.6584" filterUnits="userSpaceOnUse" color-interpolation-filters="sRGB">
<feFlood flood-opacity="0" result="BackgroundImageFix"/>
<feColorMatrix in="SourceAlpha" type="matrix" values="0 0 0 0 0 0 0 0 0 0 0 0 0 0 0 0 0 0 127 0" result="hardAlpha"/>
<feOffset/>
<feGaussianBlur stdDeviation="5.5"/>
<feColorMatrix type="matrix" values="0 0 0 0 0 0 0 0 0 0 0 0 0 0 0 0 0 0 0.06 0"/>
<feBlend mode="normal" in2="BackgroundImageFix" result="effect1_dropShadow_75:18821"/>
<feBlend mode="normal" in="SourceGraphic" in2="effect1_dropShadow_75:18821" result="shape"/>
</filter>
<filter id="filter7_d_75:18821" x="107.594" y="48.3367" width="30.812" height="31.3274" filterUnits="userSpaceOnUse" color-interpolation-filters="sRGB">
<feFlood flood-opacity="0" result="BackgroundImageFix"/>
<feColorMatrix in="SourceAlpha" type="matrix" values="0 0 0 0 0 0 0 0 0 0 0 0 0 0 0 0 0 0 127 0" result="hardAlpha"/>
<feOffset/>
<feGaussianBlur stdDeviation="5.5"/>
<feColorMatrix type="matrix" values="0 0 0 0 0 0 0 0 0 0 0 0 0 0 0 0 0 0 0.06 0"/>
<feBlend mode="normal" in2="BackgroundImageFix" result="effect1_dropShadow_75:18821"/>
<feBlend mode="normal" in="SourceGraphic" in2="effect1_dropShadow_75:18821" result="shape"/>
</filter>
<clipPath id="clip0_75:18821">
<rect width="138" height="83" fill="white"/>
</clipPath>
</defs>
</svg>
