<svg width="81" height="112" viewBox="0 0 81 112" fill="none" xmlns="http://www.w3.org/2000/svg">
<path d="M78 1H3C1.89543 1 1 1.89543 1 3V30C1 31.1046 1.89543 32 3 32H78C79.1046 32 80 31.1046 80 30V3C80 1.89543 79.1046 1 78 1Z" fill="#0010F7" stroke="#0413E8"/>
<path d="M62 14H18V20H62V14Z" fill="white"/>
<path d="M78 41H4C2.89543 41 2 41.8954 2 43V69C2 70.1046 2.89543 71 4 71H78C79.1046 71 80 70.1046 80 69V43C80 41.8954 79.1046 41 78 41Z" fill="white"/>
<path opacity="0.15" d="M78.5 40.5H3.5C2.39543 40.5 1.5 41.3954 1.5 42.5V69.5C1.5 70.6046 2.39543 71.5 3.5 71.5H78.5C79.6046 71.5 80.5 70.6046 80.5 69.5V42.5C80.5 41.3954 79.6046 40.5 78.5 40.5Z" stroke="black"/>
<g opacity="0.65">
<path d="M62 54H18V60H62V54Z" fill="#939393"/>
</g>
<path d="M78.5 80.5H3.5C2.39543 80.5 1.5 81.3954 1.5 82.5V109.5C1.5 110.605 2.39543 111.5 3.5 111.5H78.5C79.6046 111.5 80.5 110.605 80.5 109.5V82.5C80.5 81.3954 79.6046 80.5 78.5 80.5Z" stroke="#F5222D"/>
<path d="M61 94H17V100H61V94Z" fill="#F5222D"/>
</svg>
