<svg width="104" height="75" viewBox="0 0 104 75" fill="none" xmlns="http://www.w3.org/2000/svg">
<path d="M14 0H2C1.44772 0 1 0.447715 1 1V13C1 13.5523 1.44772 14 2 14H14C14.5523 14 15 13.5523 15 13V1C15 0.447715 14.5523 0 14 0Z" fill="#0010F7"/>
<path fill-rule="evenodd" clip-rule="evenodd" d="M11.9064 3.85547H11.2238C11.1281 3.85547 11.0373 3.89941 10.9787 3.97461L6.95231 9.0752L5.02164 6.62891C4.96207 6.55371 4.87223 6.50977 4.77653 6.50977H4.09391C4.02848 6.50977 3.99235 6.58496 4.03238 6.63574L6.70719 10.0244C6.83219 10.1826 7.07242 10.1826 7.1984 10.0244L11.9679 3.98047C12.008 3.93066 11.9718 3.85547 11.9064 3.85547Z" fill="white" stroke="white" stroke-width="0.833333"/>
<path d="M14 30H2C1.44772 30 1 30.4477 1 31V43C1 43.5523 1.44772 44 2 44H14C14.5523 44 15 43.5523 15 43V31C15 30.4477 14.5523 30 14 30Z" fill="white" stroke="#D9D9D9"/>
<path d="M14 60H2C1.44772 60 1 60.4477 1 61V73C1 73.5523 1.44772 74 2 74H14C14.5523 74 15 73.5523 15 73V61C15 60.4477 14.5523 60 14 60Z" fill="#F5F5F5" stroke="#D9D9D9"/>
<path d="M104 30H24V44H104V30Z" fill="white"/>
<path d="M104 0H24V14H104V0Z" fill="white"/>
<path d="M104 60H24V74H104V60Z" fill="white"/>
</svg>
