<svg width="150" height="102" viewBox="0 0 150 102" fill="none" xmlns="http://www.w3.org/2000/svg">
<path fill-rule="evenodd" clip-rule="evenodd" d="M2 0H148C149.105 0 150 0.89543 150 2V24H0V2C0 0.89543 0.89543 0 2 0Z" fill="#F5F5F5"/>
<path fill-rule="evenodd" clip-rule="evenodd" d="M0 78H150V100C150 101.105 149.105 102 148 102H2C0.89543 102 0 101.105 0 100V78Z" fill="#F5F5F5"/>
<path d="M149.5 23.5H0.5V77.5H149.5V23.5Z" fill="white" stroke="#F5F5F5"/>
<path d="M92 7H28V17H92V7Z" fill="#EBEBEB"/>
<path d="M92 85H28V95H92V85Z" fill="#EBEBEB"/>
<g opacity="0.65">
<path opacity="0.65" d="M18.9056 9H18.0174C17.957 9 17.9001 9.01953 17.8646 9.05156L14.5002 12.1109L11.1358 9.05156C11.1003 9.01953 11.0435 9 10.9831 9H10.0949C10.0179 9 9.97291 9.05781 10.0179 9.09922L14.1935 12.8969C14.3451 13.0344 14.6554 13.0344 14.8058 12.8969L18.9814 9.09922C19.0275 9.05781 18.9825 9 18.9056 9Z" fill="black"/>
</g>
<g opacity="0.65">
<path opacity="0.65" d="M11 85.0944V85.9826C11 86.043 11.0195 86.0999 11.0516 86.1354L14.1109 89.4998L11.0516 92.8642C11.0195 92.8997 11 92.9565 11 93.0169V93.9051C11 93.9821 11.0578 94.0271 11.0992 93.9821L14.8969 89.8065C15.0344 89.6549 15.0344 89.3446 14.8969 89.1942L11.0992 85.0186C11.0578 84.9725 11 85.0175 11 85.0944Z" fill="black"/>
</g>
<path d="M139 34H11V40H139V34Z" fill="#F5F5F5"/>
<path d="M139 48H11V54H139V48Z" fill="#F5F5F5"/>
<path d="M91 62H11V68H91V62Z" fill="#F5F5F5"/>
</svg>
