<svg width="155" height="104" viewBox="0 0 155 104" fill="none" xmlns="http://www.w3.org/2000/svg">
<path d="M153 0H2C0.89543 0 0 0.89543 0 2V102C0 103.105 0.89543 104 2 104H153C154.105 104 155 103.105 155 102V2C155 0.89543 154.105 0 153 0Z" fill="#F5F5F5"/>
<path fill-rule="evenodd" clip-rule="evenodd" d="M71 1H152C153.105 1 154 1.89543 154 3V101C154 102.105 153.105 103 152 103H71V1Z" fill="white"/>
<path d="M110 8H79V14H110V8Z" fill="#EBEBEB"/>
<path d="M110 35H79V41H110V35Z" fill="#F5F5F5"/>
<path d="M146 49H79V55H146V49Z" fill="#F5F5F5"/>
<path d="M146 63H79V69H146V63Z" fill="#F5F5F5"/>
<path d="M144.8 84H123.2C122.537 84 122 84.5373 122 85.2V92.8C122 93.4627 122.537 94 123.2 94H144.8C145.463 94 146 93.4627 146 92.8V85.2C146 84.5373 145.463 84 144.8 84Z" fill="#0010F7"/>
<path d="M154 21H71V22H154V21Z" fill="#E8E8E8"/>
<g opacity="0.45">
<path opacity="0.45" d="M142.405 11L144.456 8.55547C144.49 8.51484 144.461 8.45312 144.408 8.45312H143.784C143.748 8.45312 143.713 8.46953 143.688 8.49766L141.997 10.5141L140.306 8.49766C140.282 8.46953 140.247 8.45312 140.209 8.45312H139.586C139.533 8.45312 139.504 8.51484 139.538 8.55547L141.589 11L139.538 13.4445C139.504 13.4852 139.533 13.5469 139.586 13.5469H140.209C140.246 13.5469 140.281 13.5305 140.306 13.5023L141.997 11.4859L143.688 13.5023C143.712 13.5305 143.747 13.5469 143.784 13.5469H144.408C144.461 13.5469 144.49 13.4852 144.456 13.4445L142.405 11Z" fill="black"/>
</g>
</svg>
