<svg width="120" height="95" viewBox="0 0 120 95" fill="none" xmlns="http://www.w3.org/2000/svg">
<path d="M118 24H2C1.44772 24 1 24.4477 1 25V93C1 93.5523 1.44772 94 2 94H118C118.552 94 119 93.5523 119 93V25C119 24.4477 118.552 24 118 24Z" fill="white"/>
<path opacity="0.15" d="M117.5 23.5H2.5C1.39543 23.5 0.5 24.3954 0.5 25.5V92.5C0.5 93.6046 1.39543 94.5 2.5 94.5H117.5C118.605 94.5 119.5 93.6046 119.5 92.5V25.5C119.5 24.3954 118.605 23.5 117.5 23.5Z" stroke="black"/>
<path d="M119 28H1V58H119V28Z" fill="white"/>
<path opacity="0.65" d="M13.008 38.004V48H14.156V40.048H14.198L17.656 48H18.692L22.15 40.048H22.192V48H23.34V38.004H21.912L18.202 46.53H18.16L14.436 38.004H13.008ZM28.1957 40.566C27.1457 40.566 26.3197 40.944 25.7037 41.7C25.0877 42.414 24.7937 43.31 24.7937 44.374C24.7937 45.55 25.1017 46.474 25.7457 47.174C26.3617 47.846 27.2017 48.196 28.2377 48.196C29.1757 48.196 29.9457 47.916 30.5477 47.384C31.0377 46.936 31.3597 46.376 31.5277 45.676H30.4077C30.2257 46.18 29.9877 46.558 29.6797 46.81C29.3157 47.104 28.8257 47.258 28.2377 47.258C27.5517 47.258 27.0057 47.034 26.6137 46.586C26.2217 46.138 26.0117 45.508 25.9557 44.696H31.6677C31.6397 43.436 31.3597 42.442 30.8277 41.742C30.2397 40.958 29.3577 40.566 28.1957 40.566ZM28.2237 41.504C29.5957 41.504 30.3657 42.274 30.5057 43.828H25.9837C26.0537 43.114 26.2777 42.554 26.6697 42.134C27.0617 41.714 27.5797 41.504 28.2237 41.504ZM36.3673 40.566C35.8913 40.566 35.4573 40.678 35.0653 40.902C34.6733 41.112 34.3513 41.42 34.0993 41.826V40.762H32.9793V48H34.0993V43.632C34.1413 42.974 34.3513 42.456 34.7433 42.064C35.1073 41.7 35.5413 41.518 36.0453 41.518C37.3053 41.518 37.9493 42.218 37.9493 43.632V48H39.0693V43.548C39.0693 41.56 38.1593 40.566 36.3673 40.566ZM40.7996 40.762V45.242C40.7996 47.202 41.6676 48.196 43.4316 48.196C44.4116 48.196 45.1956 47.748 45.7836 46.88V48H46.9036V40.762H45.7836V45.172C45.6996 45.788 45.4616 46.292 45.0696 46.684C44.6916 47.048 44.2576 47.244 43.7816 47.244C43.1236 47.244 42.6476 47.062 42.3536 46.726C42.0596 46.39 41.9196 45.872 41.9196 45.186V40.762H40.7996ZM54.2197 38.032C53.9817 38.032 53.7857 38.102 53.6177 38.27C53.4497 38.41 53.3797 38.606 53.3797 38.858C53.3797 39.096 53.4497 39.292 53.6177 39.46C53.7857 39.614 53.9817 39.698 54.2197 39.698C54.4577 39.698 54.6537 39.614 54.8217 39.46C54.9897 39.292 55.0737 39.096 55.0737 38.858C55.0737 38.606 54.9897 38.41 54.8217 38.27C54.6537 38.102 54.4577 38.032 54.2197 38.032ZM53.6597 40.762V48H54.7797V40.762H53.6597ZM58.8098 38.424L57.7038 38.886V40.762H56.2478V41.7H57.7038V46.306C57.7038 46.852 57.8158 47.258 58.0538 47.538C58.3058 47.846 58.7398 48 59.3278 48H60.4198V47.062H59.4958C59.2438 47.062 59.0618 46.992 58.9638 46.88C58.8518 46.768 58.8098 46.572 58.8098 46.306V41.7H60.6018V40.762H58.8098V38.424ZM64.8363 40.566C63.7863 40.566 62.9603 40.944 62.3443 41.7C61.7283 42.414 61.4343 43.31 61.4343 44.374C61.4343 45.55 61.7423 46.474 62.3863 47.174C63.0023 47.846 63.8423 48.196 64.8783 48.196C65.8163 48.196 66.5863 47.916 67.1883 47.384C67.6783 46.936 68.0003 46.376 68.1683 45.676H67.0483C66.8663 46.18 66.6283 46.558 66.3203 46.81C65.9563 47.104 65.4663 47.258 64.8783 47.258C64.1923 47.258 63.6463 47.034 63.2543 46.586C62.8623 46.138 62.6523 45.508 62.5963 44.696H68.3083C68.2803 43.436 68.0003 42.442 67.4683 41.742C66.8803 40.958 65.9983 40.566 64.8363 40.566ZM64.8643 41.504C66.2363 41.504 67.0063 42.274 67.1463 43.828H62.6243C62.6943 43.114 62.9183 42.554 63.3103 42.134C63.7023 41.714 64.2203 41.504 64.8643 41.504ZM72.784 40.566C71.972 40.566 71.286 40.944 70.74 41.728V40.762H69.62V48H70.74V43.59C70.74 43.016 70.908 42.526 71.244 42.134C71.58 41.714 72 41.518 72.518 41.518C73.624 41.518 74.184 42.148 74.184 43.436V48H75.304V43.464C75.304 42.876 75.458 42.414 75.794 42.05C76.102 41.686 76.508 41.518 76.984 41.518C77.6 41.518 78.048 41.672 78.328 42.008C78.594 42.316 78.734 42.792 78.734 43.436V48H79.854V43.254C79.854 42.428 79.616 41.77 79.168 41.28C78.692 40.804 78.09 40.566 77.334 40.566C76.83 40.566 76.41 40.678 76.06 40.902C75.668 41.112 75.332 41.462 75.052 41.938C74.646 41.014 73.89 40.566 72.784 40.566Z" fill="black"/>
<path d="M1.008 5.004V15H4.48C6.048 15 7.252 14.538 8.092 13.628C8.89 12.76 9.296 11.542 9.296 10.002C9.296 8.434 8.918 7.216 8.176 6.376C7.364 5.452 6.174 5.004 4.592 5.004H1.008ZM2.156 5.998H4.41C5.726 5.998 6.678 6.334 7.294 7.02C7.868 7.664 8.162 8.658 8.162 10.002C8.162 11.304 7.84 12.298 7.224 12.97C6.566 13.656 5.586 14.006 4.284 14.006H2.156V5.998ZM13.9308 7.566C13.4268 7.566 12.9928 7.72 12.6148 8.028C12.3068 8.266 12.0548 8.602 11.8588 9.022V7.762H10.7528V15H11.8588V11.164C11.8588 10.492 12.0408 9.918 12.4328 9.442C12.8108 8.938 13.2868 8.7 13.8468 8.7C14.1968 8.7 14.5608 8.742 14.9248 8.854V7.734C14.6588 7.622 14.3228 7.566 13.9308 7.566ZM19.1 7.566C18.008 7.566 17.154 7.93 16.51 8.686C15.894 9.4 15.586 10.296 15.586 11.388C15.586 12.466 15.894 13.362 16.51 14.062C17.154 14.818 18.008 15.196 19.1 15.196C20.178 15.196 21.046 14.818 21.704 14.062C22.306 13.362 22.614 12.466 22.614 11.388C22.614 10.296 22.306 9.4 21.69 8.686C21.046 7.93 20.178 7.566 19.1 7.566ZM19.1 8.504C19.856 8.504 20.458 8.798 20.906 9.386C21.284 9.918 21.48 10.576 21.48 11.388C21.48 12.172 21.284 12.844 20.906 13.376C20.458 13.964 19.856 14.258 19.1 14.258C18.33 14.258 17.728 13.964 17.308 13.376C16.916 12.844 16.734 12.186 16.734 11.388C16.734 10.576 16.916 9.918 17.308 9.386C17.728 8.798 18.33 8.504 19.1 8.504ZM27.5272 7.566C26.4352 7.566 25.6372 8.028 25.1192 8.952V7.762H24.0692V17.772H25.1892V13.684C25.7492 14.692 26.5472 15.196 27.5832 15.196C28.6192 15.196 29.4172 14.804 30.0052 14.048C30.5372 13.348 30.8172 12.466 30.8172 11.402C30.8172 10.31 30.5372 9.428 29.9912 8.728C29.3892 7.944 28.5632 7.566 27.5272 7.566ZM27.3872 8.49C28.1572 8.49 28.7452 8.77 29.1512 9.358C29.4872 9.862 29.6692 10.548 29.6692 11.402C29.6692 12.27 29.4872 12.956 29.1232 13.46C28.7172 13.992 28.1292 14.272 27.3452 14.272C26.6732 14.272 26.1552 14.006 25.7632 13.502C25.3432 12.984 25.1472 12.312 25.1472 11.472V11.332C25.1472 10.52 25.3292 9.848 25.6932 9.344C26.0852 8.77 26.6592 8.49 27.3872 8.49ZM37.6203 4.808V9.092C37.0603 8.07 36.2623 7.566 35.2263 7.566C34.1903 7.566 33.3923 7.944 32.8043 8.728C32.2583 9.428 31.9923 10.296 31.9923 11.36C31.9923 12.452 32.2583 13.348 32.8043 14.048C33.3923 14.804 34.2183 15.196 35.2823 15.196C36.3743 15.196 37.1863 14.734 37.6903 13.81V15H38.7403V4.808H37.6203ZM35.4643 8.49C36.1083 8.49 36.6403 8.742 37.0463 9.274C37.4383 9.792 37.6483 10.478 37.6483 11.318V11.458C37.6483 12.27 37.4663 12.928 37.1163 13.432C36.7103 13.992 36.1503 14.272 35.4223 14.272C34.6383 14.272 34.0503 13.978 33.6583 13.418C33.3083 12.914 33.1403 12.228 33.1403 11.36C33.1403 10.492 33.3083 9.82 33.6723 9.33C34.0643 8.77 34.6663 8.49 35.4643 8.49ZM43.7094 7.566C42.6174 7.566 41.7634 7.93 41.1194 8.686C40.5034 9.4 40.1954 10.296 40.1954 11.388C40.1954 12.466 40.5034 13.362 41.1194 14.062C41.7634 14.818 42.6174 15.196 43.7094 15.196C44.7874 15.196 45.6554 14.818 46.3134 14.062C46.9154 13.362 47.2234 12.466 47.2234 11.388C47.2234 10.296 46.9154 9.4 46.2994 8.686C45.6554 7.93 44.7874 7.566 43.7094 7.566ZM43.7094 8.504C44.4654 8.504 45.0674 8.798 45.5154 9.386C45.8934 9.918 46.0894 10.576 46.0894 11.388C46.0894 12.172 45.8934 12.844 45.5154 13.376C45.0674 13.964 44.4654 14.258 43.7094 14.258C42.9394 14.258 42.3374 13.964 41.9174 13.376C41.5254 12.844 41.3434 12.186 41.3434 11.388C41.3434 10.576 41.5254 9.918 41.9174 9.386C42.3374 8.798 42.9394 8.504 43.7094 8.504ZM47.8805 7.762L50.3445 15H51.3945L53.1025 9.176L54.7825 15H55.8465L58.3105 7.762H57.0785L55.3005 13.628L53.6205 7.762H52.5705L50.8905 13.628L49.1125 7.762H47.8805ZM62.6349 7.566C62.1589 7.566 61.7249 7.678 61.3329 7.902C60.9409 8.112 60.6189 8.42 60.3669 8.826V7.762H59.2469V15H60.3669V10.632C60.4089 9.974 60.6189 9.456 61.0109 9.064C61.3749 8.7 61.8089 8.518 62.3129 8.518C63.5729 8.518 64.2169 9.218 64.2169 10.632V15H65.3369V10.548C65.3369 8.56 64.4269 7.566 62.6349 7.566Z" fill="#0010F7"/>
<path d="M82.8951 8H81.9082C81.8411 8 81.7779 8.01953 81.7385 8.05156L78.0002 11.1109L74.262 8.05156C74.2226 8.01953 74.1594 8 74.0923 8H73.1054C73.0199 8 72.9699 8.05781 73.0199 8.09922L77.6595 11.8969C77.8279 12.0344 78.1726 12.0344 78.3397 11.8969L82.9793 8.09922C83.0306 8.05781 82.9806 8 82.8951 8Z" fill="#0010F7"/>
<path d="M108 35H12V51H108V35Z" fill="#EBEBEB"/>
<path d="M108 68H12V84H108V68Z" fill="#EBEBEB"/>
</svg>
