<svg width="156" height="80" viewBox="0 0 156 80" fill="none" xmlns="http://www.w3.org/2000/svg">
<path d="M32.0395 7.28987C31.8978 7.28987 31.7875 7.33712 31.7009 7.43162C31.6064 7.52612 31.5591 7.63637 31.5591 7.77025C31.5591 7.90412 31.6064 8.02225 31.7009 8.11675C31.7875 8.20337 31.8978 8.25062 32.0395 8.25062C32.1655 8.25062 32.2836 8.20337 32.3781 8.11675C32.4726 8.02225 32.5199 7.90412 32.5199 7.77025C32.5199 7.63637 32.4726 7.52612 32.3781 7.43162C32.2836 7.33712 32.1655 7.28987 32.0395 7.28987ZM32.0395 10.1721C31.8978 10.1721 31.7875 10.2194 31.7009 10.3139C31.6064 10.4084 31.5591 10.5186 31.5591 10.6525C31.5591 10.7864 31.6064 10.9045 31.7009 10.999C31.7875 11.0856 31.8978 11.1329 32.0395 11.1329C32.1655 11.1329 32.2836 11.0856 32.3781 10.999C32.4726 10.9045 32.5199 10.7864 32.5199 10.6525C32.5199 10.5186 32.4726 10.4084 32.3781 10.3139C32.2836 10.2194 32.1655 10.1721 32.0395 10.1721Z" fill="black" fill-opacity="0.85"/>
<path d="M29 5H0V15H29V5Z" fill="white"/>
<path d="M32.0395 37.2899C31.8978 37.2899 31.7875 37.3371 31.7009 37.4316C31.6064 37.5261 31.5591 37.6364 31.5591 37.7702C31.5591 37.9041 31.6064 38.0222 31.7009 38.1167C31.7875 38.2034 31.8978 38.2506 32.0395 38.2506C32.1655 38.2506 32.2836 38.2034 32.3781 38.1167C32.4726 38.0222 32.5199 37.9041 32.5199 37.7702C32.5199 37.6364 32.4726 37.5261 32.3781 37.4316C32.2836 37.3371 32.1655 37.2899 32.0395 37.2899ZM32.0395 40.1721C31.8978 40.1721 31.7875 40.2194 31.7009 40.3139C31.6064 40.4084 31.5591 40.5186 31.5591 40.6525C31.5591 40.7864 31.6064 40.9045 31.7009 40.999C31.7875 41.0856 31.8978 41.1329 32.0395 41.1329C32.1655 41.1329 32.2836 41.0856 32.3781 40.999C32.4726 40.9045 32.5199 40.7864 32.5199 40.6525C32.5199 40.5186 32.4726 40.4084 32.3781 40.3139C32.2836 40.2194 32.1655 40.1721 32.0395 40.1721Z" fill="black" fill-opacity="0.85"/>
<path fill-rule="evenodd" clip-rule="evenodd" d="M154.368 0.28125H44.1317C43.8953 0.28125 43.6827 0.375182 43.5292 0.527927C43.3755 0.680816 43.2812 0.892363 43.2812 1.12598V16.874C43.2812 17.1082 43.3758 17.319 43.5289 17.4713C43.683 17.6247 43.8963 17.7188 44.1317 17.7188H154.368C154.605 17.7188 154.817 17.6248 154.971 17.4721C155.124 17.3192 155.219 17.1076 155.219 16.874V1.12598C155.219 0.891811 155.124 0.681008 154.971 0.528659C154.817 0.37529 154.604 0.28125 154.368 0.28125Z" fill="white" stroke="black" stroke-opacity="0.15" stroke-width="0.5625"/>
<path d="M54.5853 4.50362V5.0155H52.6795V5.48012H54.5853V6.00775H52.9945V6.4645H54.5853V7H52.459V7.4725H57.2785V7H55.1286V6.4645H56.7981V6.00775H55.1286V5.48012H57.0816V5.0155H55.1286V4.50362H54.5853ZM53.6009 9.457H56.1445V10.0319H53.6009V9.457ZM56.1445 9.016H53.6009V8.43325H56.1445V9.016ZM53.6009 10.4729H56.1445V10.9217C56.1445 11.1029 56.0421 11.1974 55.8531 11.1974L55.2231 11.1738L55.357 11.6778H56.0185C56.4595 11.6778 56.6879 11.4651 56.6879 11.0399V7.96862H53.0575V11.725H53.6009V10.4729ZM51.0336 4.59025L50.632 4.97612C51.199 5.40137 51.6479 5.803 51.9786 6.181L52.3645 5.78725C52.0023 5.38562 51.5613 4.984 51.0336 4.59025ZM50.0808 6.91337V7.45675H51.2069V10.5831C51.2069 10.717 51.1439 10.8351 51.0258 10.9454L51.2463 11.4494C51.7345 11.095 52.207 10.6855 52.648 10.2287L52.4984 9.63025C52.2306 9.90587 51.9865 10.15 51.7503 10.3705V6.91337H50.0808ZM59.4284 6.69287V7.86625H58.6488C58.8456 7.36225 59.0268 6.78737 59.2 6.14162H60.7199V5.60612H59.3339C59.4048 5.29112 59.4756 4.9525 59.5465 4.59812L59.0268 4.48C58.9559 4.87375 58.885 5.24387 58.8063 5.60612H58.0266V6.14162H58.6803C58.4991 6.8425 58.3023 7.43312 58.0818 7.90562L58.1999 8.37812H59.4284V9.5515C58.9716 9.63812 58.4834 9.71687 57.9636 9.77988L58.0345 10.3311C58.5149 10.2602 58.9795 10.1815 59.4284 10.0949V11.725H59.956V9.97675L60.7041 9.78775V9.25225C60.4679 9.31525 60.2238 9.37825 59.956 9.44125V8.37812H60.6805V7.86625H59.956V6.69287H59.4284ZM61.7515 6.29125V6.75587H64.0116V6.28337H61.7594C62.1531 5.90537 62.5311 5.488 62.9091 5.03125C63.5076 5.803 64.177 6.45662 64.9173 6.99212L65.2165 6.54325C64.4999 6.03925 63.799 5.36987 63.1139 4.51937H62.7044C62.0665 5.30687 61.342 5.99987 60.5388 6.5905L60.8459 7.063C61.153 6.82675 61.4523 6.56687 61.7515 6.29125ZM62.3028 11.6699C62.6886 11.6699 62.8855 11.4651 62.8855 11.0635V7.38587H61.027V11.725H61.5231V10.2524H62.4051V10.9611C62.4051 11.1344 62.3185 11.221 62.1453 11.221L61.7988 11.2053L61.9248 11.6699H62.3028ZM61.5231 9.81137V9.06325H62.4051V9.81137H61.5231ZM61.5231 8.62225V7.84262H62.4051V8.62225H61.5231ZM63.358 7.60637V10.4335H63.799V7.60637H63.358ZM64.2164 11.6856C64.5944 11.6856 64.7913 11.4572 64.7913 11.0084V7.252H64.2951V10.8824C64.2951 11.1029 64.2085 11.221 64.0431 11.221C63.8463 11.221 63.6415 11.2053 63.4289 11.1895L63.547 11.6856H64.2164ZM69.091 6.33062C68.587 8.42537 67.4924 10.0319 65.8071 11.1344L66.1458 11.6148C67.7995 10.5437 68.8863 9.00025 69.406 6.99212C69.4454 7.08662 69.4848 7.19687 69.532 7.32287C70.3431 9.40187 71.3826 10.8351 72.6584 11.6069L73.0128 11.1501C71.7685 10.3705 70.7841 9.03962 70.0439 7.1575C69.5556 5.88175 68.965 4.99187 68.2641 4.50362L67.7916 4.80287C68.2956 5.16512 68.7288 5.66912 69.091 6.33062ZM75.0524 7.252H77.0526V8.63012H75.0524V7.252ZM75.0209 9.14987H77.0526V11.4572H77.6354V9.14987H79.7774V10.5201C79.7774 10.8509 79.6278 11.0163 79.3443 11.0163C79.0765 11.0163 78.7851 11.0005 78.4701 10.9848L78.6198 11.5439H79.5254C80.0766 11.5439 80.3523 11.2683 80.3523 10.717V4.81862H74.4854V8.59862C74.4696 9.6775 74.2098 10.5674 73.7058 11.2683L74.1389 11.6541C74.6429 10.9926 74.9343 10.1579 75.0209 9.14987ZM79.7774 8.63012H77.6354V7.252H79.7774V8.63012ZM79.7774 6.72437H77.6354V5.36987H79.7774V6.72437ZM77.0526 5.36987V6.72437H75.0524V5.36987H77.0526ZM87.5421 6.03137V7.567H83.0455V6.03137H87.5421ZM83.0455 8.11825H88.117V5.47225H85.6285C85.4868 5.09425 85.345 4.75562 85.2033 4.45637L84.5969 4.55087C84.7623 4.83437 84.9119 5.1415 85.0536 5.47225H82.4864V7.93712C82.4706 9.34675 82.1478 10.4965 81.5099 11.3785L81.9273 11.7565C82.636 10.7406 83.0061 9.52787 83.0455 8.11825ZM91.9206 11.2368H95.4408V11.7014H96.0156V8.37812H92.7318C94.2123 7.693 95.2281 6.811 95.7951 5.73212V5.22812H92.7239C92.8814 5.0155 93.0231 4.795 93.1491 4.55875L92.527 4.48787C92.0545 5.32262 91.1489 6.03137 89.8023 6.60625L90.1803 7.0945C91.015 6.70075 91.6923 6.25975 92.2278 5.76362H95.1415C94.7714 6.40937 94.1886 6.9685 93.3854 7.44887C93.0468 7.1575 92.5743 6.82675 91.9758 6.45662L91.4875 6.76375C92.086 7.10237 92.5585 7.41737 92.905 7.70875C91.9994 8.1655 90.8654 8.52775 89.503 8.81125L89.8023 9.35462C90.3535 9.22075 90.8654 9.079 91.3536 8.9215V11.7014H91.9206V11.2368ZM95.4408 10.6855H91.9206V8.90575H95.4408V10.6855Z" fill="black" fill-opacity="0.25"/>
<path fill-rule="evenodd" clip-rule="evenodd" d="M154.368 31.2812H44.1317C43.8953 31.2812 43.6827 31.3752 43.5292 31.5279C43.3755 31.6808 43.2812 31.8924 43.2812 32.126V47.874C43.2812 48.1082 43.3758 48.319 43.5289 48.4713C43.683 48.6247 43.8963 48.7188 44.1317 48.7188H154.368C154.605 48.7188 154.817 48.6248 154.971 48.4721C155.124 48.3192 155.219 48.1076 155.219 47.874V32.126C155.219 31.8918 155.124 31.681 154.971 31.5287C154.817 31.3753 154.604 31.2812 154.368 31.2812Z" fill="white" stroke="#D9D9D9" stroke-width="0.5625"/>
<path d="M54.5853 35.5036V36.0155H52.6795V36.4801H54.5853V37.0077H52.9945V37.4645H54.5853V38H52.459V38.4725H57.2785V38H55.1286V37.4645H56.7981V37.0077H55.1286V36.4801H57.0816V36.0155H55.1286V35.5036H54.5853ZM53.6009 40.457H56.1445V41.0319H53.6009V40.457ZM56.1445 40.016H53.6009V39.4332H56.1445V40.016ZM53.6009 41.4729H56.1445V41.9217C56.1445 42.1029 56.0421 42.1974 55.8531 42.1974L55.2231 42.1738L55.357 42.6778H56.0185C56.4595 42.6778 56.6879 42.4651 56.6879 42.0399V38.9686H53.0575V42.725H53.6009V41.4729ZM51.0336 35.5902L50.632 35.9761C51.199 36.4014 51.6479 36.803 51.9786 37.181L52.3645 36.7872C52.0023 36.3856 51.5613 35.984 51.0336 35.5902ZM50.0808 37.9134V38.4567H51.2069V41.5831C51.2069 41.717 51.1439 41.8351 51.0258 41.9454L51.2463 42.4494C51.7345 42.095 52.207 41.6855 52.648 41.2287L52.4984 40.6302C52.2306 40.9059 51.9865 41.15 51.7503 41.3705V37.9134H50.0808ZM59.4284 37.6929V38.8662H58.6488C58.8456 38.3622 59.0268 37.7874 59.2 37.1416H60.7199V36.6061H59.3339C59.4048 36.2911 59.4756 35.9525 59.5465 35.5981L59.0268 35.48C58.9559 35.8737 58.885 36.2439 58.8063 36.6061H58.0266V37.1416H58.6803C58.4991 37.8425 58.3023 38.4331 58.0818 38.9056L58.1999 39.3781H59.4284V40.5515C58.9716 40.6381 58.4834 40.7169 57.9636 40.7799L58.0345 41.3311C58.5149 41.2602 58.9795 41.1815 59.4284 41.0949V42.725H59.956V40.9767L60.7041 40.7877V40.2522C60.4679 40.3152 60.2238 40.3782 59.956 40.4412V39.3781H60.6805V38.8662H59.956V37.6929H59.4284ZM61.7515 37.2912V37.7559H64.0116V37.2834H61.7594C62.1531 36.9054 62.5311 36.488 62.9091 36.0312C63.5076 36.803 64.177 37.4566 64.9173 37.9921L65.2165 37.5432C64.4999 37.0392 63.799 36.3699 63.1139 35.5194H62.7044C62.0665 36.3069 61.342 36.9999 60.5388 37.5905L60.8459 38.063C61.153 37.8267 61.4523 37.5669 61.7515 37.2912ZM62.3028 42.6699C62.6886 42.6699 62.8855 42.4651 62.8855 42.0635V38.3859H61.027V42.725H61.5231V41.2524H62.4051V41.9611C62.4051 42.1344 62.3185 42.221 62.1453 42.221L61.7988 42.2053L61.9248 42.6699H62.3028ZM61.5231 40.8114V40.0632H62.4051V40.8114H61.5231ZM61.5231 39.6223V38.8426H62.4051V39.6223H61.5231ZM63.358 38.6064V41.4335H63.799V38.6064H63.358ZM64.2164 42.6856C64.5944 42.6856 64.7913 42.4572 64.7913 42.0084V38.252H64.2951V41.8824C64.2951 42.1029 64.2085 42.221 64.0431 42.221C63.8463 42.221 63.6415 42.2053 63.4289 42.1895L63.547 42.6856H64.2164ZM69.091 37.3306C68.587 39.4254 67.4924 41.0319 65.8071 42.1344L66.1458 42.6148C67.7995 41.5437 68.8863 40.0002 69.406 37.9921C69.4454 38.0866 69.4848 38.1969 69.532 38.3229C70.3431 40.4019 71.3826 41.8351 72.6584 42.6069L73.0128 42.1501C71.7685 41.3705 70.7841 40.0396 70.0439 38.1575C69.5556 36.8817 68.965 35.9919 68.2641 35.5036L67.7916 35.8029C68.2956 36.1651 68.7288 36.6691 69.091 37.3306ZM80.6043 36.1494H77.6275C77.5488 35.8974 77.4621 35.669 77.3755 35.4721L76.777 35.5666C76.8715 35.7399 76.966 35.9367 77.0526 36.1494H74.0208V37.7559H74.572V36.6612H80.053V37.7559H80.6043V36.1494ZM77.0526 40.3231V41.8666H75.1548V40.583H74.5956V42.725H75.1548V42.3943H79.5884V42.7329H80.1475V40.5121H79.5884V41.8666H77.6196V40.3231H77.0526ZM76.9424 36.8266L76.525 37.0865C76.8715 37.433 77.1471 37.7559 77.3519 38.0472L77.7693 37.7559C77.5803 37.4881 77.3046 37.181 76.9424 36.8266ZM78.9505 37.0077C78.289 37.7952 77.4464 38.4646 76.4148 39.008V37.6771H75.8714V39.2757C75.2256 39.5671 74.5169 39.8191 73.7294 40.0317L73.9499 40.5121C74.6744 40.3152 75.3516 40.079 75.9816 39.8034C76.0919 39.9924 76.2966 40.0869 76.6038 40.0869H78.3993C78.7143 40.0869 78.9426 40.0239 79.0923 39.9057C79.2576 39.7719 79.3679 39.4017 79.4309 38.7875L78.8954 38.6142C78.8639 39.0867 78.793 39.3702 78.6906 39.4647C78.6119 39.5356 78.478 39.575 78.2969 39.575H76.7613C76.6825 39.575 76.6116 39.5592 76.5565 39.5277C77.6984 38.945 78.6355 38.2047 79.36 37.3227L78.9505 37.0077ZM79.6435 37.7952L79.234 38.0866C79.7223 38.6615 80.116 39.2049 80.431 39.7246L80.8799 39.4096C80.5885 38.945 80.179 38.4095 79.6435 37.7952ZM75.0918 37.3857C74.8949 38 74.572 38.5591 74.1231 39.0631L74.5878 39.3545C75.0209 38.8347 75.3595 38.2126 75.5958 37.496L75.0918 37.3857ZM84.2268 38.2677H82.7778C82.9825 37.7165 83.1321 37.1259 83.2424 36.4959H84.4315V35.9446H81.7461V36.4959H82.7069C82.5179 37.6692 82.1241 38.7166 81.5256 39.6301L81.8091 40.0869C81.9981 39.8191 82.1714 39.5435 82.3289 39.26V42.4651H82.8565V41.8666H83.707V42.3155H84.2268V38.2677ZM82.8565 41.3547V38.7875H83.707V41.3547H82.8565ZM85.2899 36.9211L84.8646 39.4726H88.0461C88.0461 40.7326 87.9831 41.4965 87.8571 41.7642C87.739 42.0163 87.3768 42.1501 86.7704 42.1501C86.6286 42.1501 86.3845 42.1344 86.038 42.1029L86.1955 42.6541C86.4475 42.6699 86.6838 42.6778 86.9043 42.6778C87.5973 42.6778 88.0461 42.5281 88.2666 42.2446C88.4714 41.9454 88.5816 40.8507 88.5816 38.945H87.7469L88.18 35.8344H84.7938V36.3699H87.5658L87.172 38.945H85.5025L85.849 36.9605L85.2899 36.9211ZM84.6205 40.4727V41.0082H87.5028V40.4727H84.6205Z" fill="black" fill-opacity="0.25"/>
<path d="M80.5 62H44.125C43.5037 62 43 62.5037 43 63.125V78.875C43 79.4963 43.5037 80 44.125 80H80.5C81.1213 80 81.625 79.4963 81.625 78.875V63.125C81.625 62.5037 81.1213 62 80.5 62Z" fill="#0010F7"/>
<path d="M100 35H49V45H100V35Z" fill="#F5F5F5"/>
<path d="M100 4H49V14H100V4Z" fill="#F5F5F5"/>
<path d="M29 35H0V45H29V35Z" fill="white"/>
</svg>
