<svg width="112" height="32" viewBox="0 0 112 32" fill="none" xmlns="http://www.w3.org/2000/svg">
<path d="M16 2C8.26875 2 2 8.26875 2 16C2 23.7313 8.26875 30 16 30C23.7313 30 30 23.7313 30 16C30 8.26875 23.7313 2 16 2ZM9 13.1562C9 12.3281 9.67188 11.6562 10.5 11.6562C11.3281 11.6562 12 12.3281 12 13.1562C12 13.9844 11.3281 14.6562 10.5 14.6562C9.67188 14.6562 9 13.9844 9 13.1562ZM16 21.6562C13.3281 21.6562 11.1375 19.5531 11 16.9188C10.9937 16.775 11.1062 16.6562 11.25 16.6562H12.7531C12.8844 16.6562 12.9969 16.7563 13.0063 16.8875C13.125 18.4344 14.4219 19.6562 16 19.6562C17.5781 19.6562 18.8781 18.4344 18.9937 16.8875C19.0031 16.7563 19.1156 16.6562 19.2469 16.6562H20.75C20.8937 16.6562 21.0063 16.775 21 16.9188C20.8625 19.5531 18.6719 21.6562 16 21.6562ZM21.5 14.6562C20.6719 14.6562 20 13.9844 20 13.1562C20 12.3281 20.6719 11.6562 21.5 11.6562C22.3281 11.6562 23 12.3281 23 13.1562C23 13.9844 22.3281 14.6562 21.5 14.6562Z" fill="#0010F7"/>
<path d="M68.8438 8.8625C68.425 7.89063 67.825 7.02188 67.0656 6.275C66.3062 5.53125 65.425 4.95 64.4406 4.54063C63.425 4.11875 62.35 3.90625 61.2406 3.90625C59.7 3.90625 58.1969 4.32812 56.8906 5.125C56.5781 5.31562 56.2812 5.525 56 5.75313C55.7188 5.525 55.4219 5.31562 55.1094 5.125C53.8031 4.32812 52.3 3.90625 50.7594 3.90625C49.65 3.90625 48.575 4.11875 47.5594 4.54063C46.5781 4.94688 45.6937 5.53125 44.9344 6.275C44.1719 7.02188 43.575 7.89063 43.1562 8.8625C42.7219 9.87188 42.5 10.9437 42.5 12.0469C42.5 13.0875 42.7125 14.1719 43.1344 15.275C43.4875 16.1969 43.9937 17.1531 44.6406 18.1187C45.6656 19.6469 47.075 21.2406 48.825 22.8563C51.725 25.5344 54.5969 27.3844 54.7188 27.4594L55.4594 27.9344C55.7875 28.1438 56.2094 28.1438 56.5375 27.9344L57.2781 27.4594C57.4 27.3813 60.2687 25.5344 63.1719 22.8563C64.9219 21.2406 66.3313 19.6469 67.3563 18.1187C68.0031 17.1531 68.5125 16.1969 68.8625 15.275C69.2844 14.1719 69.4969 13.0875 69.4969 12.0469C69.5 10.9437 69.2781 9.87188 68.8438 8.8625Z" fill="#0010F7"/>
<path d="M108.378 11.0343L100.444 9.88116L96.8967 2.69054C96.7998 2.49366 96.6404 2.33429 96.4435 2.23741C95.9498 1.99366 95.3498 2.19679 95.1029 2.69054L91.556 9.88116L83.6217 11.0343C83.4029 11.0655 83.2029 11.1687 83.0498 11.3249C82.6654 11.7218 82.6717 12.353 83.0685 12.7405L88.8092 18.3374L87.4529 26.2405C87.4154 26.4562 87.4498 26.6812 87.5529 26.8749C87.8092 27.3624 88.4154 27.553 88.9029 27.2937L95.9998 23.5624L103.097 27.2937C103.29 27.3968 103.515 27.4312 103.731 27.3937C104.275 27.2999 104.64 26.7843 104.547 26.2405L103.19 18.3374L108.931 12.7405C109.087 12.5874 109.19 12.3874 109.222 12.1687C109.306 11.6218 108.925 11.1155 108.378 11.0343Z" fill="#0010F7"/>
</svg>
