<svg width="120" height="76" viewBox="0 0 120 76" fill="none" xmlns="http://www.w3.org/2000/svg">
<path d="M118 1H2C1.44772 1 1 1.44772 1 2V30C1 30.5523 1.44772 31 2 31H118C118.552 31 119 30.5523 119 30V2C119 1.44772 118.552 1 118 1Z" fill="white"/>
<path opacity="0.15" d="M117.5 0.5H2.5C1.39543 0.5 0.5 1.39543 0.5 2.5V29.5C0.5 30.6046 1.39543 31.5 2.5 31.5H117.5C118.605 31.5 119.5 30.6046 119.5 29.5V2.5C119.5 1.39543 118.605 0.5 117.5 0.5Z" stroke="black"/>
<path opacity="0.25" d="M12.98 21V10.92H16.088C16.1907 10.92 16.3703 10.9223 16.627 10.927C16.8837 10.9317 17.1287 10.9503 17.362 10.983C18.1413 11.0857 18.7923 11.3703 19.315 11.837C19.8423 12.299 20.239 12.887 20.505 13.601C20.771 14.315 20.904 15.1013 20.904 15.96C20.904 16.8187 20.771 17.605 20.505 18.319C20.239 19.033 19.8423 19.6233 19.315 20.09C18.7923 20.552 18.1413 20.8343 17.362 20.937C17.1287 20.965 16.8813 20.9837 16.62 20.993C16.3633 20.9977 16.186 21 16.088 21H12.98ZM14.261 19.81H16.088C16.2653 19.81 16.4637 19.8053 16.683 19.796C16.9023 19.782 17.0937 19.761 17.257 19.733C17.8077 19.6303 18.2533 19.3993 18.594 19.04C18.9347 18.6807 19.1843 18.2327 19.343 17.696C19.5017 17.1593 19.581 16.5807 19.581 15.96C19.581 15.3253 19.4993 14.7397 19.336 14.203C19.1773 13.6663 18.9277 13.2207 18.587 12.866C18.2463 12.5113 17.803 12.285 17.257 12.187C17.0937 12.1543 16.9 12.1333 16.676 12.124C16.452 12.1147 16.256 12.11 16.088 12.11H14.261V19.81ZM25.7853 21.21C25.0433 21.21 24.3946 21.0467 23.8393 20.72C23.2886 20.3887 22.8593 19.929 22.5513 19.341C22.2433 18.7483 22.0893 18.0577 22.0893 17.269C22.0893 16.443 22.241 15.729 22.5443 15.127C22.8476 14.5203 23.27 14.0537 23.8113 13.727C24.3573 13.3957 24.9966 13.23 25.7293 13.23C26.49 13.23 27.1363 13.405 27.6683 13.755C28.205 14.105 28.6063 14.6043 28.8723 15.253C29.143 15.9017 29.2596 16.674 29.2223 17.57H27.9623V17.122C27.9483 16.1933 27.7593 15.5003 27.3953 15.043C27.0313 14.581 26.49 14.35 25.7713 14.35C25.0013 14.35 24.4156 14.5973 24.0143 15.092C23.613 15.5867 23.4123 16.296 23.4123 17.22C23.4123 18.1113 23.613 18.802 24.0143 19.292C24.4156 19.782 24.9873 20.027 25.7293 20.027C26.2286 20.027 26.6626 19.9127 27.0313 19.684C27.4 19.4553 27.6893 19.1263 27.8993 18.697L29.0963 19.11C28.8023 19.7773 28.359 20.2953 27.7663 20.664C27.1783 21.028 26.518 21.21 25.7853 21.21ZM22.9923 17.57V16.569H28.5783V17.57H22.9923ZM31.5018 21V13.027C31.5018 12.831 31.5111 12.6327 31.5298 12.432C31.5484 12.2267 31.5904 12.0283 31.6558 11.837C31.7211 11.641 31.8284 11.4613 31.9778 11.298C32.1504 11.1067 32.3394 10.9713 32.5448 10.892C32.7501 10.808 32.9578 10.7567 33.1678 10.738C33.3824 10.7193 33.5854 10.71 33.7768 10.71H34.7358V11.746H33.8468C33.4781 11.746 33.2028 11.837 33.0208 12.019C32.8388 12.1963 32.7478 12.467 32.7478 12.831V21H31.5018ZM30.2208 14.469V13.44H34.7358V14.469H30.2208ZM37.797 21.21C37.2323 21.21 36.7586 21.1073 36.376 20.902C35.998 20.692 35.711 20.4167 35.515 20.076C35.3236 19.7353 35.228 19.362 35.228 18.956C35.228 18.5593 35.3026 18.2163 35.452 17.927C35.606 17.633 35.8206 17.3903 36.096 17.199C36.3713 17.003 36.7003 16.849 37.083 16.737C37.4423 16.639 37.8436 16.555 38.287 16.485C38.735 16.4103 39.1876 16.3427 39.645 16.282C40.1023 16.2213 40.5293 16.163 40.926 16.107L40.478 16.366C40.492 15.694 40.3566 15.197 40.072 14.875C39.792 14.553 39.3066 14.392 38.616 14.392C38.1586 14.392 37.7573 14.497 37.412 14.707C37.0713 14.9123 36.831 15.2483 36.691 15.715L35.508 15.358C35.69 14.6953 36.0423 14.175 36.565 13.797C37.0876 13.419 37.776 13.23 38.63 13.23C39.316 13.23 39.904 13.3537 40.394 13.601C40.8886 13.8437 41.2433 14.2123 41.458 14.707C41.5653 14.9403 41.633 15.1947 41.661 15.47C41.689 15.7407 41.703 16.0253 41.703 16.324V21H40.597V19.187L40.856 19.355C40.5713 19.9663 40.1723 20.4283 39.659 20.741C39.1503 21.0537 38.5296 21.21 37.797 21.21ZM37.986 20.167C38.434 20.167 38.8213 20.0877 39.148 19.929C39.4793 19.7657 39.7453 19.5533 39.946 19.292C40.1466 19.026 40.2773 18.7367 40.338 18.424C40.408 18.1907 40.4453 17.9317 40.45 17.647C40.4593 17.3577 40.464 17.136 40.464 16.982L40.898 17.171C40.492 17.227 40.093 17.2807 39.701 17.332C39.309 17.3833 38.938 17.4393 38.588 17.5C38.238 17.556 37.923 17.6237 37.643 17.703C37.4376 17.7683 37.244 17.8523 37.062 17.955C36.8846 18.0577 36.74 18.1907 36.628 18.354C36.5206 18.5127 36.467 18.711 36.467 18.949C36.467 19.1543 36.5183 19.3503 36.621 19.537C36.7283 19.7237 36.8916 19.8753 37.111 19.992C37.335 20.1087 37.6266 20.167 37.986 20.167ZM46.393 21.196C45.9076 21.196 45.49 21.119 45.14 20.965C44.7946 20.811 44.5076 20.6057 44.279 20.349C44.0503 20.0923 43.8706 19.8077 43.74 19.495C43.6093 19.1823 43.516 18.8627 43.46 18.536C43.4086 18.2093 43.383 17.9037 43.383 17.619V13.44H44.643V17.227C44.643 17.5817 44.6756 17.9247 44.741 18.256C44.8063 18.5873 44.916 18.886 45.07 19.152C45.2286 19.418 45.4386 19.628 45.7 19.782C45.966 19.936 46.2973 20.013 46.694 20.013C47.0066 20.013 47.2913 19.9593 47.548 19.852C47.8046 19.7447 48.024 19.586 48.206 19.376C48.388 19.1613 48.528 18.8907 48.626 18.564C48.724 18.2373 48.773 17.857 48.773 17.423L49.592 17.675C49.592 18.403 49.459 19.0307 49.193 19.558C48.9316 20.0853 48.5606 20.4913 48.08 20.776C47.604 21.056 47.0416 21.196 46.393 21.196ZM48.913 21V18.977H48.773V13.44H50.026V21H48.913ZM52.1259 21V10.71H53.3719V21H52.1259ZM59.6932 21C59.2452 21.0887 58.8019 21.1237 58.3632 21.105C57.9292 21.091 57.5419 21.0047 57.2012 20.846C56.8605 20.6827 56.6015 20.4307 56.4242 20.09C56.2749 19.7913 56.1932 19.4903 56.1792 19.187C56.1699 18.879 56.1652 18.5313 56.1652 18.144V11.34H57.4112V18.088C57.4112 18.396 57.4135 18.6597 57.4182 18.879C57.4275 19.0983 57.4765 19.2873 57.5652 19.446C57.7332 19.7447 57.9992 19.9197 58.3632 19.971C58.7319 20.0223 59.1752 20.0083 59.6932 19.929V21ZM54.6322 14.469V13.44H59.6932V14.469H54.6322ZM67.6078 21.21C66.8938 21.21 66.2498 21.0887 65.6758 20.846C65.1064 20.6033 64.6351 20.258 64.2618 19.81C63.8931 19.3573 63.6528 18.823 63.5408 18.207L64.8288 18.004C64.9921 18.6387 65.3304 19.1357 65.8438 19.495C66.3618 19.8497 66.9708 20.027 67.6708 20.027C68.1234 20.027 68.5318 19.957 68.8958 19.817C69.2644 19.6723 69.5561 19.467 69.7708 19.201C69.9854 18.935 70.0928 18.62 70.0928 18.256C70.0928 18.032 70.0531 17.8407 69.9738 17.682C69.8991 17.5187 69.7941 17.381 69.6588 17.269C69.5281 17.1523 69.3788 17.0543 69.2108 16.975C69.0428 16.8957 68.8678 16.8303 68.6858 16.779L66.1168 16.016C65.8368 15.932 65.5661 15.827 65.3048 15.701C65.0434 15.5703 64.8101 15.4093 64.6048 15.218C64.3994 15.022 64.2361 14.7887 64.1148 14.518C63.9934 14.2427 63.9328 13.9183 63.9328 13.545C63.9328 12.9477 64.0868 12.439 64.3948 12.019C64.7074 11.5943 65.1298 11.27 65.6618 11.046C66.1938 10.822 66.7934 10.7123 67.4608 10.717C68.1374 10.7217 68.7418 10.843 69.2738 11.081C69.8104 11.3143 70.2538 11.6503 70.6038 12.089C70.9584 12.5277 71.1964 13.0527 71.3178 13.664L69.9948 13.895C69.9248 13.4843 69.7684 13.132 69.5258 12.838C69.2878 12.5393 68.9891 12.3107 68.6298 12.152C68.2704 11.9887 67.8761 11.9047 67.4468 11.9C67.0361 11.8953 66.6651 11.9607 66.3338 12.096C66.0024 12.2313 65.7388 12.4203 65.5428 12.663C65.3468 12.901 65.2488 13.1763 65.2488 13.489C65.2488 13.797 65.3374 14.0467 65.5148 14.238C65.6921 14.4247 65.9091 14.574 66.1658 14.686C66.4271 14.7933 66.6814 14.882 66.9288 14.952L68.8468 15.505C69.0661 15.5657 69.3181 15.6497 69.6028 15.757C69.8921 15.8643 70.1721 16.016 70.4428 16.212C70.7134 16.4033 70.9374 16.66 71.1148 16.982C71.2921 17.2993 71.3808 17.7007 71.3808 18.186C71.3808 18.6713 71.2828 19.103 71.0868 19.481C70.8954 19.859 70.6271 20.1763 70.2818 20.433C69.9364 20.685 69.5351 20.8763 69.0778 21.007C68.6204 21.1423 68.1304 21.21 67.6078 21.21ZM72.9891 12.103V10.815H74.2351V12.103H72.9891ZM72.9891 21V13.44H74.2351V21H72.9891ZM75.6355 21V20.776L80.2205 14.574H76.0135V13.44H82.2295V13.678L77.6515 19.866H81.9915V21H75.6355ZM86.4884 21.21C85.7464 21.21 85.0978 21.0467 84.5424 20.72C83.9918 20.3887 83.5624 19.929 83.2544 19.341C82.9464 18.7483 82.7924 18.0577 82.7924 17.269C82.7924 16.443 82.9441 15.729 83.2474 15.127C83.5508 14.5203 83.9731 14.0537 84.5144 13.727C85.0604 13.3957 85.6998 13.23 86.4324 13.23C87.1931 13.23 87.8394 13.405 88.3714 13.755C88.9081 14.105 89.3094 14.6043 89.5754 15.253C89.8461 15.9017 89.9628 16.674 89.9254 17.57H88.6654V17.122C88.6514 16.1933 88.4624 15.5003 88.0984 15.043C87.7344 14.581 87.1931 14.35 86.4744 14.35C85.7044 14.35 85.1188 14.5973 84.7174 15.092C84.3161 15.5867 84.1154 16.296 84.1154 17.22C84.1154 18.1113 84.3161 18.802 84.7174 19.292C85.1188 19.782 85.6904 20.027 86.4324 20.027C86.9318 20.027 87.3658 19.9127 87.7344 19.684C88.1031 19.4553 88.3924 19.1263 88.6024 18.697L89.7994 19.11C89.5054 19.7773 89.0621 20.2953 88.4694 20.664C87.8814 21.028 87.2211 21.21 86.4884 21.21ZM83.6954 17.57V16.569H89.2814V17.57H83.6954Z" fill="black"/>
<path d="M118 45H2C1.44772 45 1 45.4477 1 46V74C1 74.5523 1.44772 75 2 75H118C118.552 75 119 74.5523 119 74V46C119 45.4477 118.552 45 118 45Z" fill="white"/>
<path opacity="0.15" d="M117.5 44.5H2.5C1.39543 44.5 0.5 45.3954 0.5 46.5V73.5C0.5 74.6046 1.39543 75.5 2.5 75.5H117.5C118.605 75.5 119.5 74.6046 119.5 73.5V46.5C119.5 45.3954 118.605 44.5 117.5 44.5Z" stroke="black"/>
<path opacity="0.25" d="M12.98 65V54.92H16.088C16.1907 54.92 16.3703 54.9223 16.627 54.927C16.8837 54.9317 17.1287 54.9503 17.362 54.983C18.1413 55.0857 18.7923 55.3703 19.315 55.837C19.8423 56.299 20.239 56.887 20.505 57.601C20.771 58.315 20.904 59.1013 20.904 59.96C20.904 60.8187 20.771 61.605 20.505 62.319C20.239 63.033 19.8423 63.6233 19.315 64.09C18.7923 64.552 18.1413 64.8343 17.362 64.937C17.1287 64.965 16.8813 64.9837 16.62 64.993C16.3633 64.9977 16.186 65 16.088 65H12.98ZM14.261 63.81H16.088C16.2653 63.81 16.4637 63.8053 16.683 63.796C16.9023 63.782 17.0937 63.761 17.257 63.733C17.8077 63.6303 18.2533 63.3993 18.594 63.04C18.9347 62.6807 19.1843 62.2327 19.343 61.696C19.5017 61.1593 19.581 60.5807 19.581 59.96C19.581 59.3253 19.4993 58.7397 19.336 58.203C19.1773 57.6663 18.9277 57.2207 18.587 56.866C18.2463 56.5113 17.803 56.285 17.257 56.187C17.0937 56.1543 16.9 56.1333 16.676 56.124C16.452 56.1147 16.256 56.11 16.088 56.11H14.261V63.81ZM25.7853 65.21C25.0433 65.21 24.3946 65.0467 23.8393 64.72C23.2886 64.3887 22.8593 63.929 22.5513 63.341C22.2433 62.7483 22.0893 62.0577 22.0893 61.269C22.0893 60.443 22.241 59.729 22.5443 59.127C22.8476 58.5203 23.27 58.0537 23.8113 57.727C24.3573 57.3957 24.9966 57.23 25.7293 57.23C26.49 57.23 27.1363 57.405 27.6683 57.755C28.205 58.105 28.6063 58.6043 28.8723 59.253C29.143 59.9017 29.2596 60.674 29.2223 61.57H27.9623V61.122C27.9483 60.1933 27.7593 59.5003 27.3953 59.043C27.0313 58.581 26.49 58.35 25.7713 58.35C25.0013 58.35 24.4156 58.5973 24.0143 59.092C23.613 59.5867 23.4123 60.296 23.4123 61.22C23.4123 62.1113 23.613 62.802 24.0143 63.292C24.4156 63.782 24.9873 64.027 25.7293 64.027C26.2286 64.027 26.6626 63.9127 27.0313 63.684C27.4 63.4553 27.6893 63.1263 27.8993 62.697L29.0963 63.11C28.8023 63.7773 28.359 64.2953 27.7663 64.664C27.1783 65.028 26.518 65.21 25.7853 65.21ZM22.9923 61.57V60.569H28.5783V61.57H22.9923ZM31.5018 65V57.027C31.5018 56.831 31.5111 56.6327 31.5298 56.432C31.5484 56.2267 31.5904 56.0283 31.6558 55.837C31.7211 55.641 31.8284 55.4613 31.9778 55.298C32.1504 55.1067 32.3394 54.9713 32.5448 54.892C32.7501 54.808 32.9578 54.7567 33.1678 54.738C33.3824 54.7193 33.5854 54.71 33.7768 54.71H34.7358V55.746H33.8468C33.4781 55.746 33.2028 55.837 33.0208 56.019C32.8388 56.1963 32.7478 56.467 32.7478 56.831V65H31.5018ZM30.2208 58.469V57.44H34.7358V58.469H30.2208ZM37.797 65.21C37.2323 65.21 36.7586 65.1073 36.376 64.902C35.998 64.692 35.711 64.4167 35.515 64.076C35.3236 63.7353 35.228 63.362 35.228 62.956C35.228 62.5593 35.3026 62.2163 35.452 61.927C35.606 61.633 35.8206 61.3903 36.096 61.199C36.3713 61.003 36.7003 60.849 37.083 60.737C37.4423 60.639 37.8436 60.555 38.287 60.485C38.735 60.4103 39.1876 60.3427 39.645 60.282C40.1023 60.2213 40.5293 60.163 40.926 60.107L40.478 60.366C40.492 59.694 40.3566 59.197 40.072 58.875C39.792 58.553 39.3066 58.392 38.616 58.392C38.1586 58.392 37.7573 58.497 37.412 58.707C37.0713 58.9123 36.831 59.2483 36.691 59.715L35.508 59.358C35.69 58.6953 36.0423 58.175 36.565 57.797C37.0876 57.419 37.776 57.23 38.63 57.23C39.316 57.23 39.904 57.3537 40.394 57.601C40.8886 57.8437 41.2433 58.2123 41.458 58.707C41.5653 58.9403 41.633 59.1947 41.661 59.47C41.689 59.7407 41.703 60.0253 41.703 60.324V65H40.597V63.187L40.856 63.355C40.5713 63.9663 40.1723 64.4283 39.659 64.741C39.1503 65.0537 38.5296 65.21 37.797 65.21ZM37.986 64.167C38.434 64.167 38.8213 64.0877 39.148 63.929C39.4793 63.7657 39.7453 63.5533 39.946 63.292C40.1466 63.026 40.2773 62.7367 40.338 62.424C40.408 62.1907 40.4453 61.9317 40.45 61.647C40.4593 61.3577 40.464 61.136 40.464 60.982L40.898 61.171C40.492 61.227 40.093 61.2807 39.701 61.332C39.309 61.3833 38.938 61.4393 38.588 61.5C38.238 61.556 37.923 61.6237 37.643 61.703C37.4376 61.7683 37.244 61.8523 37.062 61.955C36.8846 62.0577 36.74 62.1907 36.628 62.354C36.5206 62.5127 36.467 62.711 36.467 62.949C36.467 63.1543 36.5183 63.3503 36.621 63.537C36.7283 63.7237 36.8916 63.8753 37.111 63.992C37.335 64.1087 37.6266 64.167 37.986 64.167ZM46.393 65.196C45.9076 65.196 45.49 65.119 45.14 64.965C44.7946 64.811 44.5076 64.6057 44.279 64.349C44.0503 64.0923 43.8706 63.8077 43.74 63.495C43.6093 63.1823 43.516 62.8627 43.46 62.536C43.4086 62.2093 43.383 61.9037 43.383 61.619V57.44H44.643V61.227C44.643 61.5817 44.6756 61.9247 44.741 62.256C44.8063 62.5873 44.916 62.886 45.07 63.152C45.2286 63.418 45.4386 63.628 45.7 63.782C45.966 63.936 46.2973 64.013 46.694 64.013C47.0066 64.013 47.2913 63.9593 47.548 63.852C47.8046 63.7447 48.024 63.586 48.206 63.376C48.388 63.1613 48.528 62.8907 48.626 62.564C48.724 62.2373 48.773 61.857 48.773 61.423L49.592 61.675C49.592 62.403 49.459 63.0307 49.193 63.558C48.9316 64.0853 48.5606 64.4913 48.08 64.776C47.604 65.056 47.0416 65.196 46.393 65.196ZM48.913 65V62.977H48.773V57.44H50.026V65H48.913ZM52.1259 65V54.71H53.3719V65H52.1259ZM59.6932 65C59.2452 65.0887 58.8019 65.1237 58.3632 65.105C57.9292 65.091 57.5419 65.0047 57.2012 64.846C56.8605 64.6827 56.6015 64.4307 56.4242 64.09C56.2749 63.7913 56.1932 63.4903 56.1792 63.187C56.1699 62.879 56.1652 62.5313 56.1652 62.144V55.34H57.4112V62.088C57.4112 62.396 57.4135 62.6597 57.4182 62.879C57.4275 63.0983 57.4765 63.2873 57.5652 63.446C57.7332 63.7447 57.9992 63.9197 58.3632 63.971C58.7319 64.0223 59.1752 64.0083 59.6932 63.929V65ZM54.6322 58.469V57.44H59.6932V58.469H54.6322ZM67.6078 65.21C66.8938 65.21 66.2498 65.0887 65.6758 64.846C65.1064 64.6033 64.6351 64.258 64.2618 63.81C63.8931 63.3573 63.6528 62.823 63.5408 62.207L64.8288 62.004C64.9921 62.6387 65.3304 63.1357 65.8438 63.495C66.3618 63.8497 66.9708 64.027 67.6708 64.027C68.1234 64.027 68.5318 63.957 68.8958 63.817C69.2644 63.6723 69.5561 63.467 69.7708 63.201C69.9854 62.935 70.0928 62.62 70.0928 62.256C70.0928 62.032 70.0531 61.8407 69.9738 61.682C69.8991 61.5187 69.7941 61.381 69.6588 61.269C69.5281 61.1523 69.3788 61.0543 69.2108 60.975C69.0428 60.8957 68.8678 60.8303 68.6858 60.779L66.1168 60.016C65.8368 59.932 65.5661 59.827 65.3048 59.701C65.0434 59.5703 64.8101 59.4093 64.6048 59.218C64.3994 59.022 64.2361 58.7887 64.1148 58.518C63.9934 58.2427 63.9328 57.9183 63.9328 57.545C63.9328 56.9477 64.0868 56.439 64.3948 56.019C64.7074 55.5943 65.1298 55.27 65.6618 55.046C66.1938 54.822 66.7934 54.7123 67.4608 54.717C68.1374 54.7217 68.7418 54.843 69.2738 55.081C69.8104 55.3143 70.2538 55.6503 70.6038 56.089C70.9584 56.5277 71.1964 57.0527 71.3178 57.664L69.9948 57.895C69.9248 57.4843 69.7684 57.132 69.5258 56.838C69.2878 56.5393 68.9891 56.3107 68.6298 56.152C68.2704 55.9887 67.8761 55.9047 67.4468 55.9C67.0361 55.8953 66.6651 55.9607 66.3338 56.096C66.0024 56.2313 65.7388 56.4203 65.5428 56.663C65.3468 56.901 65.2488 57.1763 65.2488 57.489C65.2488 57.797 65.3374 58.0467 65.5148 58.238C65.6921 58.4247 65.9091 58.574 66.1658 58.686C66.4271 58.7933 66.6814 58.882 66.9288 58.952L68.8468 59.505C69.0661 59.5657 69.3181 59.6497 69.6028 59.757C69.8921 59.8643 70.1721 60.016 70.4428 60.212C70.7134 60.4033 70.9374 60.66 71.1148 60.982C71.2921 61.2993 71.3808 61.7007 71.3808 62.186C71.3808 62.6713 71.2828 63.103 71.0868 63.481C70.8954 63.859 70.6271 64.1763 70.2818 64.433C69.9364 64.685 69.5351 64.8763 69.0778 65.007C68.6204 65.1423 68.1304 65.21 67.6078 65.21ZM72.9891 56.103V54.815H74.2351V56.103H72.9891ZM72.9891 65V57.44H74.2351V65H72.9891ZM75.6355 65V64.776L80.2205 58.574H76.0135V57.44H82.2295V57.678L77.6515 63.866H81.9915V65H75.6355ZM86.4884 65.21C85.7464 65.21 85.0978 65.0467 84.5424 64.72C83.9918 64.3887 83.5624 63.929 83.2544 63.341C82.9464 62.7483 82.7924 62.0577 82.7924 61.269C82.7924 60.443 82.9441 59.729 83.2474 59.127C83.5508 58.5203 83.9731 58.0537 84.5144 57.727C85.0604 57.3957 85.6998 57.23 86.4324 57.23C87.1931 57.23 87.8394 57.405 88.3714 57.755C88.9081 58.105 89.3094 58.6043 89.5754 59.253C89.8461 59.9017 89.9628 60.674 89.9254 61.57H88.6654V61.122C88.6514 60.1933 88.4624 59.5003 88.0984 59.043C87.7344 58.581 87.1931 58.35 86.4744 58.35C85.7044 58.35 85.1188 58.5973 84.7174 59.092C84.3161 59.5867 84.1154 60.296 84.1154 61.22C84.1154 62.1113 84.3161 62.802 84.7174 63.292C85.1188 63.782 85.6904 64.027 86.4324 64.027C86.9318 64.027 87.3658 63.9127 87.7344 63.684C88.1031 63.4553 88.3924 63.1263 88.6024 62.697L89.7994 63.11C89.5054 63.7773 89.0621 64.2953 88.4694 64.664C87.8814 65.028 87.2211 65.21 86.4884 65.21ZM83.6954 61.57V60.569H89.2814V61.57H83.6954Z" fill="black"/>
<g opacity="0.65">
<path opacity="0.65" d="M105.5 53.75C102.876 53.75 100.75 55.8766 100.75 58.5C100.75 59.5984 101.123 60.6094 101.748 61.4141L97.7858 65.3766C97.7374 65.425 97.7374 65.5047 97.7858 65.5531L98.4468 66.2141C98.4952 66.2625 98.5749 66.2625 98.6233 66.2141L102.586 62.2516C103.391 62.8766 104.401 63.25 105.5 63.25C108.123 63.25 110.25 61.1234 110.25 58.5C110.25 55.8766 108.123 53.75 105.5 53.75ZM108.019 61.0188C107.347 61.6922 106.451 62.0625 105.5 62.0625C104.548 62.0625 103.653 61.6922 102.981 61.0188C102.308 60.3469 101.937 59.4516 101.937 58.5C101.937 57.5484 102.308 56.6531 102.981 55.9813C103.653 55.3078 104.548 54.9375 105.5 54.9375C106.451 54.9375 107.347 55.3078 108.019 55.9813C108.692 56.6531 109.062 57.5484 109.062 58.5C109.062 59.4516 108.692 60.3469 108.019 61.0188Z" fill="black"/>
</g>
</svg>
