<svg width="120" height="32" viewBox="0 0 120 32" fill="none" xmlns="http://www.w3.org/2000/svg">
<path d="M118 1H2C1.44772 1 1 1.44772 1 2V30C1 30.5523 1.44772 31 2 31H118C118.552 31 119 30.5523 119 30V2C119 1.44772 118.552 1 118 1Z" fill="white"/>
<path opacity="0.15" d="M117.5 0.5H2.5C1.39543 0.5 0.5 1.39543 0.5 2.5V29.5C0.5 30.6046 1.39543 31.5 2.5 31.5H117.5C118.605 31.5 119.5 30.6046 119.5 29.5V2.5C119.5 1.39543 118.605 0.5 117.5 0.5Z" stroke="black"/>
<path opacity="0.25" d="M12.98 21V10.92H14.24L19.497 18.795V10.92H20.757V21H19.497L14.24 13.118V21H12.98ZM25.5844 21.196C25.099 21.196 24.6814 21.119 24.3314 20.965C23.986 20.811 23.699 20.6057 23.4704 20.349C23.2417 20.0923 23.062 19.8077 22.9314 19.495C22.8007 19.1823 22.7074 18.8627 22.6514 18.536C22.6 18.2093 22.5744 17.9037 22.5744 17.619V13.44H23.8344V17.227C23.8344 17.5817 23.867 17.9247 23.9324 18.256C23.9977 18.5873 24.1074 18.886 24.2614 19.152C24.42 19.418 24.63 19.628 24.8914 19.782C25.1574 19.936 25.4887 20.013 25.8854 20.013C26.198 20.013 26.4827 19.9593 26.7394 19.852C26.996 19.7447 27.2154 19.586 27.3974 19.376C27.5794 19.1613 27.7194 18.8907 27.8174 18.564C27.9154 18.2373 27.9644 17.857 27.9644 17.423L28.7834 17.675C28.7834 18.403 28.6504 19.0307 28.3844 19.558C28.123 20.0853 27.752 20.4913 27.2714 20.776C26.7954 21.056 26.233 21.196 25.5844 21.196ZM28.1044 21V18.977H27.9644V13.44H29.2174V21H28.1044ZM40.2143 21L40.2213 16.163C40.2213 15.5983 40.0696 15.1573 39.7663 14.84C39.4676 14.518 39.0779 14.357 38.5973 14.357C38.3173 14.357 38.0513 14.4223 37.7993 14.553C37.5473 14.679 37.3419 14.8797 37.1833 15.155C37.0246 15.4257 36.9453 15.7733 36.9453 16.198L36.2873 15.932C36.2779 15.3953 36.3876 14.9263 36.6163 14.525C36.8496 14.119 37.1669 13.804 37.5683 13.58C37.9696 13.356 38.4223 13.244 38.9263 13.244C39.7149 13.244 40.3356 13.4843 40.7883 13.965C41.2409 14.441 41.4673 15.0827 41.4673 15.89L41.4603 21H40.2143ZM31.1703 21V13.44H32.2833V15.463H32.4233V21H31.1703ZM35.6993 21L35.7063 16.212C35.7063 15.6333 35.5569 15.1807 35.2583 14.854C34.9596 14.5227 34.5629 14.357 34.0683 14.357C33.5783 14.357 33.1816 14.525 32.8783 14.861C32.5749 15.197 32.4233 15.6427 32.4233 16.198L31.7653 15.806C31.7653 15.316 31.8819 14.8773 32.1153 14.49C32.3486 14.1027 32.6659 13.7993 33.0673 13.58C33.4686 13.356 33.9236 13.244 34.4323 13.244C34.9409 13.244 35.3843 13.3513 35.7623 13.566C36.1403 13.7807 36.4319 14.0887 36.6373 14.49C36.8426 14.8867 36.9453 15.3603 36.9453 15.911L36.9383 21H35.6993ZM46.7625 21.21C46.0532 21.21 45.4559 21.035 44.9705 20.685C44.4852 20.3303 44.1165 19.852 43.8645 19.25C43.6172 18.6433 43.4935 17.9643 43.4935 17.213C43.4935 16.4523 43.6172 15.771 43.8645 15.169C44.1165 14.567 44.4852 14.0933 44.9705 13.748C45.4605 13.4027 46.0602 13.23 46.7695 13.23C47.4695 13.23 48.0715 13.405 48.5755 13.755C49.0842 14.1003 49.4739 14.574 49.7445 15.176C50.0152 15.778 50.1505 16.457 50.1505 17.213C50.1505 17.969 50.0152 18.648 49.7445 19.25C49.4739 19.852 49.0842 20.3303 48.5755 20.685C48.0715 21.035 47.4672 21.21 46.7625 21.21ZM43.2835 21V10.92H44.5365V15.435H44.3965V21H43.2835ZM46.6085 20.069C47.1079 20.069 47.5209 19.943 47.8475 19.691C48.1742 19.439 48.4192 19.0983 48.5825 18.669C48.7459 18.235 48.8275 17.7497 48.8275 17.213C48.8275 16.681 48.7459 16.2003 48.5825 15.771C48.4239 15.3417 48.1765 15.001 47.8405 14.749C47.5092 14.497 47.0869 14.371 46.5735 14.371C46.0835 14.371 45.6775 14.4923 45.3555 14.735C45.0335 14.973 44.7932 15.3067 44.6345 15.736C44.4759 16.1607 44.3965 16.653 44.3965 17.213C44.3965 17.7637 44.4735 18.256 44.6275 18.69C44.7862 19.1193 45.0289 19.4577 45.3555 19.705C45.6822 19.9477 46.0999 20.069 46.6085 20.069ZM54.9611 21.21C54.2191 21.21 53.5704 21.0467 53.0151 20.72C52.4644 20.3887 52.0351 19.929 51.7271 19.341C51.4191 18.7483 51.2651 18.0577 51.2651 17.269C51.2651 16.443 51.4167 15.729 51.7201 15.127C52.0234 14.5203 52.4457 14.0537 52.9871 13.727C53.5331 13.3957 54.1724 13.23 54.9051 13.23C55.6657 13.23 56.3121 13.405 56.8441 13.755C57.3807 14.105 57.7821 14.6043 58.0481 15.253C58.3187 15.9017 58.4354 16.674 58.3981 17.57H57.1381V17.122C57.1241 16.1933 56.9351 15.5003 56.5711 15.043C56.2071 14.581 55.6657 14.35 54.9471 14.35C54.1771 14.35 53.5914 14.5973 53.1901 15.092C52.7887 15.5867 52.5881 16.296 52.5881 17.22C52.5881 18.1113 52.7887 18.802 53.1901 19.292C53.5914 19.782 54.1631 20.027 54.9051 20.027C55.4044 20.027 55.8384 19.9127 56.2071 19.684C56.5757 19.4553 56.8651 19.1263 57.0751 18.697L58.2721 19.11C57.9781 19.7773 57.5347 20.2953 56.9421 20.664C56.3541 21.028 55.6937 21.21 54.9611 21.21ZM52.1681 17.57V16.569H57.7541V17.57H52.1681ZM59.9566 21V13.44H61.0696V15.267L60.8876 15.029C60.9762 14.7957 61.0906 14.581 61.2306 14.385C61.3752 14.189 61.5362 14.028 61.7136 13.902C61.9096 13.7433 62.1312 13.622 62.3786 13.538C62.6259 13.454 62.8779 13.405 63.1346 13.391C63.3912 13.3723 63.6316 13.3887 63.8556 13.44V14.609C63.5942 14.539 63.3072 14.5203 62.9946 14.553C62.6819 14.5857 62.3926 14.7 62.1266 14.896C61.8839 15.0687 61.6949 15.2787 61.5596 15.526C61.4289 15.7733 61.3379 16.0417 61.2866 16.331C61.2352 16.6157 61.2096 16.9073 61.2096 17.206V21H59.9566Z" fill="black"/>
<g opacity="0.09">
<path opacity="0.09" d="M104 0H103V32H104V0Z" fill="black"/>
</g>
<g opacity="0.09">
<path opacity="0.09" d="M120 15H104V16H120V15Z" fill="black"/>
</g>
<g opacity="0.65">
<path opacity="0.65" d="M114.988 9.92559L112.205 7.07734C112.103 6.97422 111.897 6.97422 111.796 7.07734L109.012 9.92559C108.982 9.95664 109.011 10 109.063 10H109.655C109.696 10 109.734 9.98535 109.757 9.96133L112 7.6668L114.243 9.96133C114.267 9.98535 114.304 10 114.345 10H114.937C114.988 10 115.018 9.95664 114.988 9.92559Z" fill="black"/>
</g>
<g opacity="0.65">
<path opacity="0.65" d="M114.937 22H114.345C114.305 22 114.267 22.0146 114.243 22.0387L112 24.3332L109.757 22.0387C109.734 22.0146 109.696 22 109.655 22H109.063C109.012 22 108.982 22.0434 109.012 22.0744L111.796 24.9227C111.897 25.0258 112.104 25.0258 112.204 24.9227L114.988 22.0744C115.018 22.0434 114.988 22 114.937 22Z" fill="black"/>
</g>
</svg>
