<svg width="155" height="104" viewBox="0 0 155 104" fill="none" xmlns="http://www.w3.org/2000/svg">
<rect width="155" height="104" fill="white"/>
<path d="M39 8H8V14H39V8Z" fill="#EBEBEB"/>
<path d="M83 35H8V41H83V35Z" fill="#F5F5F5"/>
<path d="M137 49H8V55H137V49Z" fill="#F5F5F5"/>
<path d="M137 63H8V69H137V63Z" fill="#F5F5F5"/>
<path d="M145.8 89H124.2C123.537 89 123 89.5373 123 90.2V97.8C123 98.4627 123.537 99 124.2 99H145.8C146.463 99 147 98.4627 147 97.8V90.2C147 89.5373 146.463 89 145.8 89Z" fill="#0010F7"/>
<path d="M117.55 89.25H96.45C95.7873 89.25 95.25 89.7873 95.25 90.45V97.55C95.25 98.2127 95.7873 98.75 96.45 98.75H117.55C118.213 98.75 118.75 98.2127 118.75 97.55V90.45C118.75 89.7873 118.213 89.25 117.55 89.25Z" stroke="#D9D9D9" stroke-width="0.5"/>
<path d="M155 22H0V23H155V22Z" fill="#E8E8E8"/>
<path d="M155 83H0V84H155V83Z" fill="#E8E8E8"/>
<g opacity="0.45">
<path opacity="0.45" d="M143.405 11L145.456 8.55547C145.49 8.51484 145.461 8.45312 145.408 8.45312H144.784C144.748 8.45312 144.713 8.46953 144.688 8.49766L142.997 10.5141L141.306 8.49766C141.282 8.46953 141.247 8.45312 141.209 8.45312H140.586C140.533 8.45312 140.504 8.51484 140.538 8.55547L142.589 11L140.538 13.4445C140.504 13.4852 140.533 13.5469 140.586 13.5469H141.209C141.246 13.5469 141.281 13.5305 141.306 13.5023L142.997 11.4859L144.688 13.5023C144.712 13.5305 144.747 13.5469 144.784 13.5469H145.408C145.461 13.5469 145.49 13.4852 145.456 13.4445L143.405 11Z" fill="black"/>
</g>
<path d="M152.5 0.5H2.5C1.39543 0.5 0.5 1.39543 0.5 2.5V101.5C0.5 102.605 1.39543 103.5 2.5 103.5H152.5C153.605 103.5 154.5 102.605 154.5 101.5V2.5C154.5 1.39543 153.605 0.5 152.5 0.5Z" stroke="#D9D9D9"/>
</svg>
