<svg width="188" height="96" viewBox="0 0 188 96" fill="none" xmlns="http://www.w3.org/2000/svg">
<path d="M185.76 0H2.24C1.00288 0 0 1.00288 0 2.24V92.96C0 94.1971 1.00288 95.2 2.24 95.2H185.76C186.997 95.2 188 94.1971 188 92.96V2.24C188 1.00288 186.997 0 185.76 0Z" fill="black"/>
<path d="M185.76 0H2.24C1.00288 0 0 1.00288 0 2.24V92.96C0 94.1971 1.00288 95.2 2.24 95.2H185.76C186.997 95.2 188 94.1971 188 92.96V2.24C188 1.00288 186.997 0 185.76 0Z" fill="white"/>
<path d="M100 63H13V69H100V63Z" fill="#F5F5F5"/>
<path d="M173 49H13V55H173V49Z" fill="#F5F5F5"/>
<path d="M173 35H13V41H173V35Z" fill="#F5F5F5"/>
<path d="M82 11H13V21H82V11Z" fill="#0010F7"/>
<path d="M169.354 73.3604H146.72C146.41 73.3604 146.16 73.6111 146.16 73.9204V85.1204C146.16 85.4296 146.41 85.6804 146.72 85.6804H169.354C169.663 85.6804 169.914 85.4296 169.914 85.1204V73.9204C169.914 73.6111 169.663 73.3604 169.354 73.3604Z" fill="white"/>
<path opacity="0.15" d="M169.074 73.0801H147C146.381 73.0801 145.88 73.5815 145.88 74.2001V84.8401C145.88 85.4586 146.381 85.9601 147 85.9601H169.074C169.692 85.9601 170.194 85.4586 170.194 84.8401V74.2001C170.194 73.5815 169.692 73.0801 169.074 73.0801Z" stroke="black" stroke-width="0.56"/>
<path d="M153.388 79.9733H154.399V80.9769H153.38C153.38 80.9063 153.388 80.8357 153.388 80.773V79.9733ZM153.341 81.4708H154.399V83.2034H154.909V81.4708H155.959V82.5213C155.959 82.6781 155.881 82.7644 155.724 82.7644C155.552 82.7644 155.371 82.7487 155.175 82.733L155.309 83.2426H155.889C156.289 83.2426 156.493 83.0623 156.493 82.7095V78.0133H155.175C155.411 77.7781 155.646 77.4802 155.881 77.1353V76.7354H153.992C154.07 76.5786 154.156 76.4218 154.235 76.2572L153.694 76.1396C153.294 76.9549 152.784 77.6213 152.165 78.1309L152.518 78.5465C152.627 78.4524 152.745 78.3426 152.863 78.2329V80.8044C152.847 81.6668 152.651 82.3881 152.259 82.9525L152.667 83.321C153.027 82.8193 153.247 82.2077 153.341 81.4708ZM154.564 78.0133H153.074C153.294 77.7703 153.506 77.5037 153.702 77.2137H155.23C155.011 77.5116 154.791 77.7781 154.564 78.0133ZM155.959 80.9769H154.909V79.9733H155.959V80.9769ZM155.959 79.4716H154.909V78.5151H155.959V79.4716ZM154.399 78.5151V79.4716H153.388V78.5151H154.399ZM149.805 76.5943V77.1431H150.691C150.511 78.2799 150.142 79.2913 149.578 80.1772L149.907 80.7025C150.048 80.4829 150.189 80.2556 150.323 80.0125V83.0858H150.856V82.49H152.228V78.9228H150.801C150.989 78.374 151.138 77.7781 151.24 77.1431H152.424V76.5943H149.805ZM150.856 81.9804V79.4402H151.71V81.9804H150.856ZM164.646 76.1945C164.646 77.7154 164.529 78.962 164.309 79.942C164.011 81.1101 163.4 82.0745 162.49 82.8428L162.874 83.3053C163.917 82.4429 164.584 81.3297 164.881 79.9812C164.921 79.7773 164.96 79.5735 164.999 79.354C165.438 80.9063 166.073 82.2234 166.912 83.2897L167.32 82.8193C166.293 81.6433 165.571 80.0439 165.156 78.0369C165.203 77.4724 165.226 76.853 165.226 76.1945H164.646ZM161.001 76.2337L160.609 76.6178C161.173 77.0412 161.628 77.4489 161.957 77.833L162.341 77.441C161.981 77.0333 161.534 76.6335 161.001 76.2337ZM160.083 78.5543V79.0953H161.236V82.1529C161.236 82.2783 161.173 82.3959 161.056 82.49L161.275 82.9917C161.824 82.6311 162.341 82.2156 162.827 81.753L162.686 81.1729C162.365 81.4786 162.059 81.7452 161.777 81.9804V78.5543H160.083Z" fill="white"/>
<g opacity="0.65">
<path opacity="0.65" d="M170.533 15.6796L172.83 12.9418C172.869 12.8963 172.836 12.8271 172.777 12.8271H172.078C172.037 12.8271 171.998 12.8455 171.971 12.877L170.076 15.1354L168.182 12.877C168.156 12.8455 168.116 12.8271 168.074 12.8271H167.376C167.317 12.8271 167.284 12.8963 167.323 12.9418L169.62 15.6796L167.323 18.4175C167.284 18.463 167.317 18.5321 167.376 18.5321H168.074C168.116 18.5321 168.155 18.5138 168.182 18.4823L170.076 16.2239L171.971 18.4823C171.997 18.5138 172.036 18.5321 172.078 18.5321H172.777C172.836 18.5321 172.869 18.463 172.83 18.4175L170.533 15.6796Z" fill="black"/>
</g>
</svg>
