<svg width="184" height="24" viewBox="0 0 184 24" fill="none" xmlns="http://www.w3.org/2000/svg">
<path d="M54 1H34C33.4477 1 33 1.44772 33 2V22C33 22.5523 33.4477 23 34 23H54C54.5523 23 55 22.5523 55 22V2C55 1.44772 54.5523 1 54 1Z" fill="white"/>
<path opacity="0.15" d="M53.5 0.5H34.5C33.3954 0.5 32.5 1.39543 32.5 2.5V21.5C32.5 22.6046 33.3954 23.5 34.5 23.5H53.5C54.6046 23.5 55.5 22.6046 55.5 21.5V2.5C55.5 1.39543 54.6046 0.5 53.5 0.5Z" stroke="black"/>
<path d="M43.9299 17V8.299L42.0329 9.447V8.054L43.9299 6.92H45.1969V17H43.9299Z" fill="#0010F7"/>
<path d="M86 1H66C65.4477 1 65 1.44772 65 2V22C65 22.5523 65.4477 23 66 23H86C86.5523 23 87 22.5523 87 22V2C87 1.44772 86.5523 1 86 1Z" fill="white"/>
<path opacity="0.15" d="M85.5 0.5H66.5C65.3954 0.5 64.5 1.39543 64.5 2.5V21.5C64.5 22.6046 65.3954 23.5 66.5 23.5H85.5C86.6046 23.5 87.5 22.6046 87.5 21.5V2.5C87.5 1.39543 86.6046 0.5 85.5 0.5Z" stroke="black"/>
<path opacity="0.65" d="M72.4998 16.993L72.5068 15.873L76.9798 11.848C77.3531 11.512 77.6028 11.1947 77.7288 10.896C77.8595 10.5927 77.9248 10.2823 77.9248 9.965C77.9248 9.57767 77.8361 9.22767 77.6588 8.915C77.4815 8.60233 77.2388 8.355 76.9308 8.173C76.6275 7.991 76.2821 7.9 75.8948 7.9C75.4935 7.9 75.1365 7.99567 74.8238 8.187C74.5111 8.37367 74.2638 8.62333 74.0818 8.936C73.9045 9.24867 73.8181 9.58933 73.8228 9.958H72.5488C72.5488 9.32333 72.6958 8.76333 72.9898 8.278C73.2838 7.788 73.6828 7.40533 74.1868 7.13C74.6955 6.85 75.2718 6.71 75.9158 6.71C76.5411 6.71 77.1011 6.85467 77.5958 7.144C78.0905 7.42867 78.4801 7.81833 78.7648 8.313C79.0541 8.803 79.1988 9.35833 79.1988 9.979C79.1988 10.4177 79.1428 10.798 79.0308 11.12C78.9235 11.442 78.7555 11.7407 78.5268 12.016C78.2981 12.2867 78.0111 12.576 77.6658 12.884L73.9488 16.223L73.7878 15.803H79.1988V16.993H72.4998Z" fill="black"/>
<path d="M118 1H98C97.4477 1 97 1.44772 97 2V22C97 22.5523 97.4477 23 98 23H118C118.552 23 119 22.5523 119 22V2C119 1.44772 118.552 1 118 1Z" fill="white"/>
<path opacity="0.15" d="M117.5 0.5H98.5C97.3954 0.5 96.5 1.39543 96.5 2.5V21.5C96.5 22.6046 97.3954 23.5 98.5 23.5H117.5C118.605 23.5 119.5 22.6046 119.5 21.5V2.5C119.5 1.39543 118.605 0.5 117.5 0.5Z" stroke="black"/>
<path opacity="0.65" d="M107.545 17.196C107.045 17.196 106.581 17.105 106.152 16.923C105.722 16.7363 105.351 16.475 105.039 16.139C104.731 15.7983 104.504 15.3947 104.36 14.928L105.557 14.585C105.711 15.0517 105.967 15.4063 106.327 15.649C106.686 15.8917 107.09 16.0107 107.538 16.006C107.948 15.9967 108.303 15.9033 108.602 15.726C108.905 15.544 109.138 15.2967 109.302 14.984C109.47 14.6713 109.554 14.3097 109.554 13.899C109.554 13.2737 109.367 12.7673 108.994 12.38C108.62 11.988 108.13 11.792 107.524 11.792C107.356 11.792 107.178 11.8153 106.992 11.862C106.81 11.9087 106.639 11.974 106.481 12.058L105.879 11.071L109.617 7.69L109.778 8.11H104.759V6.92H110.702V8.117L107.517 11.169L107.503 10.728C108.17 10.6813 108.753 10.791 109.253 11.057C109.752 11.323 110.139 11.7033 110.415 12.198C110.695 12.6927 110.835 13.2597 110.835 13.899C110.835 14.543 110.69 15.1123 110.401 15.607C110.111 16.1017 109.719 16.4913 109.225 16.776C108.73 17.056 108.17 17.196 107.545 17.196Z" fill="black"/>
<path d="M150 1H130C129.448 1 129 1.44772 129 2V22C129 22.5523 129.448 23 130 23H150C150.552 23 151 22.5523 151 22V2C151 1.44772 150.552 1 150 1Z" fill="white"/>
<path opacity="0.15" d="M149.5 0.5H130.5C129.395 0.5 128.5 1.39543 128.5 2.5V21.5C128.5 22.6046 129.395 23.5 130.5 23.5H149.5C150.605 23.5 151.5 22.6046 151.5 21.5V2.5C151.5 1.39543 150.605 0.5 149.5 0.5Z" stroke="black"/>
<path opacity="0.65" d="M141.134 17V15.145H136.5V13.962L139.825 6.92H141.239L137.914 13.962H141.134V11.127H142.394V13.962H143.444V15.145H142.394V17H141.134Z" fill="black"/>
<path d="M22 1H2C1.44772 1 1 1.44772 1 2V22C1 22.5523 1.44772 23 2 23H22C22.5523 23 23 22.5523 23 22V2C23 1.44772 22.5523 1 22 1Z" fill="white"/>
<path opacity="0.15" d="M21.5 0.5H2.5C1.39543 0.5 0.5 1.39543 0.5 2.5V21.5C0.5 22.6046 1.39543 23.5 2.5 23.5H21.5C22.6046 23.5 23.5 22.6046 23.5 21.5V2.5C23.5 1.39543 22.6046 0.5 21.5 0.5Z" stroke="black"/>
<g opacity="0.65">
<path opacity="0.65" d="M14.8984 7.98455V6.92771C14.8984 6.83611 14.7932 6.78552 14.7221 6.84158L8.55879 11.6554C8.33457 11.8304 8.33457 12.1681 8.55879 12.3431L14.7221 17.157C14.7945 17.2131 14.8984 17.1625 14.8984 17.0709V16.014C14.8984 15.947 14.867 15.8828 14.815 15.8418L9.89316 12L14.815 8.15681C14.867 8.1158 14.8984 8.05154 14.8984 7.98455Z" fill="black"/>
</g>
<path d="M182 1H162C161.448 1 161 1.44772 161 2V22C161 22.5523 161.448 23 162 23H182C182.552 23 183 22.5523 183 22V2C183 1.44772 182.552 1 182 1Z" fill="white"/>
<path opacity="0.15" d="M181.5 0.5H162.5C161.395 0.5 160.5 1.39543 160.5 2.5V21.5C160.5 22.6046 161.395 23.5 162.5 23.5H181.5C182.605 23.5 183.5 22.6046 183.5 21.5V2.5C183.5 1.39543 182.605 0.5 181.5 0.5Z" stroke="black"/>
<g opacity="0.65">
<path opacity="0.65" d="M175.469 11.6554L169.305 6.84158C169.233 6.78552 169.129 6.83611 169.129 6.92771V7.98455C169.129 8.05154 169.16 8.1158 169.212 8.15681L174.134 12L169.212 15.8431C169.159 15.8842 169.129 15.9484 169.129 16.0154V17.0722C169.129 17.1638 169.234 17.2144 169.305 17.1584L175.469 12.3445C175.693 12.1695 175.693 11.8304 175.469 11.6554Z" fill="black"/>
</g>
</svg>
