<svg width="124" height="107" viewBox="0 0 124 107" fill="none" xmlns="http://www.w3.org/2000/svg">
<path d="M34.6959 83H89.3041C90.2407 83 91 83.8954 91 85V104.04C91 105.145 90.2407 106.04 89.3041 106.04H34.6959C33.7593 106.04 33 105.145 33 104.04V85C33 83.8954 33.7593 83 34.6959 83Z" fill="#0010F7"/>
<path d="M79 90H46V100H79V90Z" fill="white"/>
<path d="M1.44 74.16C0.64471 74.16 0 73.5153 0 72.72V1.44C0 0.645 0.645 0 1.44 0H122.4C123.195 0 123.84 0.645 123.84 1.44V72.72C123.84 73.5153 123.195 74.16 122.4 74.16H64.8L62.28 77.04L59.76 74.16H1.44Z" fill="black"/>
<path d="M1.44 74.16C0.64471 74.16 0 73.5153 0 72.72V1.44C0 0.645 0.645 0 1.44 0H122.4C123.195 0 123.84 0.645 123.84 1.44V72.72C123.84 73.5153 123.195 74.16 122.4 74.16H64.8L62.28 77.04L59.76 74.16H1.44Z" fill="black"/>
<path d="M1.44 74.16C0.64471 74.16 0 73.5153 0 72.72V1.44C0 0.645 0.645 0 1.44 0H122.4C123.195 0 123.84 0.645 123.84 1.44V72.72C123.84 73.5153 123.195 74.16 122.4 74.16H64.8L62.28 77.04L59.76 74.16H1.44Z" fill="white"/>
<path d="M42 5H9V15H42V5Z" fill="#EBEBEB"/>
<path d="M0 21.6001H123.84V22.6001H0V21.6001Z" fill="#F0F0F0"/>
<path d="M85 48H9V56H85V48Z" fill="#F5F5F5"/>
<path d="M85 34H9V42H85V34Z" fill="#F5F5F5"/>
</svg>
