<svg width="165" height="48" viewBox="0 0 165 48" fill="none" xmlns="http://www.w3.org/2000/svg">
<path d="M151.746 31.6396H1.63951C0.734034 31.6396 0 32.3737 0 33.2792C0 34.1846 0.734034 34.9187 1.63951 34.9187H151.746C152.651 34.9187 153.385 34.1846 153.385 33.2792C153.385 32.3737 152.651 31.6396 151.746 31.6396Z" fill="white"/>
<path d="M66.8252 31.6396H1.63951C0.734034 31.6396 0 32.3737 0 33.2792C0 34.1846 0.734034 34.9187 1.63951 34.9187H66.8252C67.7307 34.9187 68.4647 34.1846 68.4647 33.2792C68.4647 32.3737 67.7307 31.6396 66.8252 31.6396Z" fill="#FF0022"/>
<path fill-rule="evenodd" clip-rule="evenodd" d="M161.036 30C159.225 30 157.757 31.4679 157.757 33.279C157.757 35.0902 159.225 36.558 161.036 36.558C162.847 36.558 164.315 35.0902 164.315 33.279C164.315 31.4679 162.847 30 161.036 30ZM162.613 34.553C162.695 34.6356 162.696 34.7701 162.616 34.8547C162.535 34.9386 162.403 34.9399 162.32 34.858L161.036 33.5774L159.753 34.8573C159.671 34.9399 159.538 34.9386 159.457 34.854C159.376 34.7701 159.377 34.6349 159.46 34.5523L160.737 33.279L159.46 32.005C159.378 31.9225 159.376 31.7879 159.457 31.7034C159.538 31.6195 159.67 31.6181 159.753 31.7L161.036 32.9807L162.32 31.7007C162.402 31.6181 162.535 31.6195 162.616 31.704C162.697 31.7879 162.696 31.9231 162.613 32.0057L161.335 33.279L162.613 34.553Z" fill="#FF0022"/>
<path d="M151.035 17.3721H1.63951C0.734034 17.3721 0 18.1061 0 19.0116C0 19.9171 0.734034 20.6511 1.63951 20.6511H151.035C151.941 20.6511 152.675 19.9171 152.675 19.0116C152.675 18.1061 151.941 17.3721 151.035 17.3721Z" fill="white"/>
<path d="M82.3605 17.3721H1.63951C0.734034 17.3721 0 18.1061 0 19.0116C0 19.9171 0.734034 20.6511 1.63951 20.6511H82.3605C83.266 20.6511 84 19.9171 84 19.0116C84 18.1061 83.266 17.3721 82.3605 17.3721Z" fill="#91D5FF"/>
<path d="M63.1605 17.3721H1.63951C0.734034 17.3721 0 18.1061 0 19.0116C0 19.9171 0.734034 20.6511 1.63951 20.6511H63.1605C64.066 20.6511 64.8 19.9171 64.8 19.0116C64.8 18.1061 64.066 17.3721 63.1605 17.3721Z" fill="#0010F7"/>
<path d="M151.618 0.918945H1.63951C0.734034 0.918945 0 1.65298 0 2.55846C0 3.46393 0.734034 4.19797 1.63951 4.19797H151.618C152.524 4.19797 153.258 3.46393 153.258 2.55846C153.258 1.65298 152.524 0.918945 151.618 0.918945Z" fill="white"/>
<path d="M61.413 0.918945H1.63951C0.734034 0.918945 0 1.65298 0 2.55846C0 3.46393 0.734034 4.19797 1.63951 4.19797H61.413C62.3185 4.19797 63.0525 3.46393 63.0525 2.55846C63.0525 1.65298 62.3185 0.918945 61.413 0.918945Z" fill="#0010F7"/>
<path d="M151.746 42.9131H1.6397C0.885132 42.9131 0.273438 43.5248 0.273438 44.2793C0.273438 45.0339 0.885132 45.6456 1.6397 45.6456H151.746C152.501 45.6456 153.112 45.0339 153.112 44.2793C153.112 43.5248 152.501 42.9131 151.746 42.9131Z" fill="#00F7BF" stroke="#00F7BF" stroke-width="0.546503"/>
<path fill-rule="evenodd" clip-rule="evenodd" d="M161.036 41C159.225 41 157.757 42.468 157.757 44.279C157.757 46.09 159.225 47.558 161.036 47.558C162.847 47.558 164.315 46.09 164.315 44.279C164.315 42.468 162.847 41 161.036 41ZM162.946 43.3502L160.385 46.1808C160.308 46.2683 160.182 46.2683 160.105 46.1808L159.127 45.1187C159.05 45.0312 159.05 44.8891 159.127 44.8015C159.204 44.714 159.329 44.714 159.406 44.8015L160.245 45.7054L162.667 43.033C162.744 42.9455 162.869 42.9455 162.946 43.033C163.023 43.1206 163.023 43.2627 162.946 43.3502Z" fill="#00F7BF"/>
</svg>
