<svg width="80" height="79" viewBox="0 0 80 79" fill="none" xmlns="http://www.w3.org/2000/svg">
<path d="M8 17.5C12.1421 17.5 15.5 14.1421 15.5 10C15.5 5.85786 12.1421 2.5 8 2.5C3.85786 2.5 0.5 5.85786 0.5 10C0.5 14.1421 3.85786 17.5 8 17.5Z" fill="white" stroke="#0010F7"/>
<path d="M8 14C10.2091 14 12 12.2091 12 10C12 7.79086 10.2091 6 8 6C5.79086 6 4 7.79086 4 10C4 12.2091 5.79086 14 8 14Z" fill="#0010F7"/>
<path d="M29.124 15.21C28.1207 15.21 27.269 14.9883 26.569 14.545C25.869 14.1017 25.3347 13.4857 24.966 12.697C24.602 11.9083 24.42 10.996 24.42 9.96C24.42 8.924 24.602 8.01167 24.966 7.223C25.3347 6.43433 25.869 5.81833 26.569 5.375C27.269 4.93167 28.1207 4.71 29.124 4.71C30.132 4.71 30.986 4.93167 31.686 5.375C32.386 5.81833 32.918 6.43433 33.282 7.223C33.646 8.01167 33.828 8.924 33.828 9.96C33.828 10.996 33.646 11.9083 33.282 12.697C32.918 13.4857 32.386 14.1017 31.686 14.545C30.986 14.9883 30.132 15.21 29.124 15.21ZM29.124 14.02C29.8753 14.0247 30.5007 13.8567 31 13.516C31.504 13.1707 31.8797 12.6923 32.127 12.081C32.379 11.4697 32.505 10.7627 32.505 9.96C32.505 9.15267 32.379 8.44567 32.127 7.839C31.8797 7.23233 31.504 6.75867 31 6.418C30.5007 6.07733 29.8753 5.90467 29.124 5.9C28.3727 5.89533 27.7473 6.06333 27.248 6.404C26.7533 6.74467 26.38 7.22067 26.128 7.832C25.876 8.44333 25.7477 9.15267 25.743 9.96C25.7383 10.7627 25.862 11.4673 26.114 12.074C26.366 12.6807 26.7417 13.1567 27.241 13.502C27.745 13.8427 28.3727 14.0153 29.124 14.02ZM38.7059 15.21C37.9966 15.21 37.3992 15.035 36.9139 14.685C36.4286 14.3303 36.0599 13.852 35.8079 13.25C35.5606 12.6433 35.4369 11.9643 35.4369 11.213C35.4369 10.4523 35.5606 9.771 35.8079 9.169C36.0599 8.567 36.4286 8.09333 36.9139 7.748C37.4039 7.40267 38.0036 7.23 38.7129 7.23C39.4129 7.23 40.0149 7.405 40.5189 7.755C41.0276 8.10033 41.4172 8.574 41.6879 9.176C41.9586 9.778 42.0939 10.457 42.0939 11.213C42.0939 11.969 41.9586 12.648 41.6879 13.25C41.4172 13.852 41.0276 14.3303 40.5189 14.685C40.0149 15.035 39.4106 15.21 38.7059 15.21ZM35.2269 18.36V7.44H36.3399V13.005H36.4799V18.36H35.2269ZM38.5519 14.069C39.0512 14.069 39.4642 13.943 39.7909 13.691C40.1176 13.439 40.3626 13.0983 40.5259 12.669C40.6892 12.235 40.7709 11.7497 40.7709 11.213C40.7709 10.681 40.6892 10.2003 40.5259 9.771C40.3672 9.34167 40.1199 9.001 39.7839 8.749C39.4526 8.497 39.0302 8.371 38.5169 8.371C38.0269 8.371 37.6209 8.49233 37.2989 8.735C36.9769 8.973 36.7366 9.30667 36.5779 9.736C36.4192 10.1607 36.3399 10.653 36.3399 11.213C36.3399 11.7637 36.4169 12.256 36.5709 12.69C36.7296 13.1193 36.9722 13.4577 37.2989 13.705C37.6256 13.9477 38.0432 14.069 38.5519 14.069ZM47.8494 15C47.4014 15.0887 46.9581 15.1237 46.5194 15.105C46.0854 15.091 45.6981 15.0047 45.3574 14.846C45.0168 14.6827 44.7578 14.4307 44.5804 14.09C44.4311 13.7913 44.3494 13.4903 44.3354 13.187C44.3261 12.879 44.3214 12.5313 44.3214 12.144V5.34H45.5674V12.088C45.5674 12.396 45.5698 12.6597 45.5744 12.879C45.5838 13.0983 45.6328 13.2873 45.7214 13.446C45.8894 13.7447 46.1554 13.9197 46.5194 13.971C46.8881 14.0223 47.3314 14.0083 47.8494 13.929V15ZM42.7884 8.469V7.44H47.8494V8.469H42.7884ZM49.5243 6.103V4.815H50.7703V6.103H49.5243ZM49.5243 15V7.44H50.7703V15H49.5243ZM56.0906 15.21C55.3393 15.21 54.6906 15.0397 54.1446 14.699C53.6033 14.3583 53.1856 13.887 52.8916 13.285C52.5976 12.683 52.4506 11.9923 52.4506 11.213C52.4506 10.4197 52.6 9.72433 52.8986 9.127C53.1973 8.52967 53.6196 8.06533 54.1656 7.734C54.7116 7.398 55.3533 7.23 56.0906 7.23C56.8466 7.23 57.4976 7.40033 58.0436 7.741C58.5896 8.077 59.0073 8.546 59.2966 9.148C59.5906 9.74533 59.7376 10.4337 59.7376 11.213C59.7376 12.0017 59.5906 12.697 59.2966 13.299C59.0026 13.8963 58.5826 14.3653 58.0366 14.706C57.4906 15.042 56.842 15.21 56.0906 15.21ZM56.0906 14.027C56.8746 14.027 57.458 13.7657 57.8406 13.243C58.2233 12.7203 58.4146 12.0437 58.4146 11.213C58.4146 10.359 58.221 9.68 57.8336 9.176C57.4463 8.66733 56.8653 8.413 56.0906 8.413C55.5633 8.413 55.1293 8.532 54.7886 8.77C54.448 9.008 54.1936 9.337 54.0256 9.757C53.8576 10.177 53.7736 10.6623 53.7736 11.213C53.7736 12.0623 53.9696 12.7437 54.3616 13.257C54.7536 13.7703 55.33 14.027 56.0906 14.027ZM66.6618 15V11.213C66.6618 10.8537 66.6292 10.5083 66.5638 10.177C66.5032 9.84567 66.3935 9.54933 66.2348 9.288C66.0808 9.022 65.8708 8.812 65.6048 8.658C65.3435 8.504 65.0122 8.427 64.6108 8.427C64.2982 8.427 64.0135 8.48067 63.7568 8.588C63.5048 8.69067 63.2878 8.84933 63.1058 9.064C62.9238 9.27867 62.7815 9.54933 62.6788 9.876C62.5808 10.198 62.5318 10.5783 62.5318 11.017L61.7128 10.765C61.7128 10.0323 61.8435 9.40467 62.1048 8.882C62.3708 8.35467 62.7418 7.951 63.2178 7.671C63.6985 7.38633 64.2632 7.244 64.9118 7.244C65.4018 7.244 65.8195 7.321 66.1648 7.475C66.5102 7.629 66.7972 7.83433 67.0258 8.091C67.2545 8.343 67.4342 8.62767 67.5648 8.945C67.6955 9.25767 67.7865 9.57733 67.8378 9.904C67.8938 10.226 67.9218 10.5317 67.9218 10.821V15H66.6618ZM61.2718 15V7.44H62.3918V9.463H62.5318V15H61.2718ZM74.3015 15V6.299L72.4045 7.447V6.054L74.3015 4.92H75.5685V15H74.3015Z" fill="black" fill-opacity="0.65"/>
<path d="M8 77.5C12.1421 77.5 15.5 74.1421 15.5 70C15.5 65.8579 12.1421 62.5 8 62.5C3.85786 62.5 0.5 65.8579 0.5 70C0.5 74.1421 3.85786 77.5 8 77.5Z" fill="#F5F5F5" stroke="#D9D9D9"/>
<path d="M29.124 75.21C28.1207 75.21 27.269 74.9883 26.569 74.545C25.869 74.1017 25.3347 73.4857 24.966 72.697C24.602 71.9083 24.42 70.996 24.42 69.96C24.42 68.924 24.602 68.0117 24.966 67.223C25.3347 66.4343 25.869 65.8183 26.569 65.375C27.269 64.9317 28.1207 64.71 29.124 64.71C30.132 64.71 30.986 64.9317 31.686 65.375C32.386 65.8183 32.918 66.4343 33.282 67.223C33.646 68.0117 33.828 68.924 33.828 69.96C33.828 70.996 33.646 71.9083 33.282 72.697C32.918 73.4857 32.386 74.1017 31.686 74.545C30.986 74.9883 30.132 75.21 29.124 75.21ZM29.124 74.02C29.8753 74.0247 30.5007 73.8567 31 73.516C31.504 73.1707 31.8797 72.6923 32.127 72.081C32.379 71.4697 32.505 70.7627 32.505 69.96C32.505 69.1527 32.379 68.4457 32.127 67.839C31.8797 67.2323 31.504 66.7587 31 66.418C30.5007 66.0773 29.8753 65.9047 29.124 65.9C28.3727 65.8953 27.7473 66.0633 27.248 66.404C26.7533 66.7447 26.38 67.2207 26.128 67.832C25.876 68.4433 25.7477 69.1527 25.743 69.96C25.7383 70.7627 25.862 71.4673 26.114 72.074C26.366 72.6807 26.7417 73.1567 27.241 73.502C27.745 73.8427 28.3727 74.0153 29.124 74.02ZM38.7059 75.21C37.9966 75.21 37.3992 75.035 36.9139 74.685C36.4286 74.3303 36.0599 73.852 35.8079 73.25C35.5606 72.6433 35.4369 71.9643 35.4369 71.213C35.4369 70.4523 35.5606 69.771 35.8079 69.169C36.0599 68.567 36.4286 68.0933 36.9139 67.748C37.4039 67.4027 38.0036 67.23 38.7129 67.23C39.4129 67.23 40.0149 67.405 40.5189 67.755C41.0276 68.1003 41.4172 68.574 41.6879 69.176C41.9586 69.778 42.0939 70.457 42.0939 71.213C42.0939 71.969 41.9586 72.648 41.6879 73.25C41.4172 73.852 41.0276 74.3303 40.5189 74.685C40.0149 75.035 39.4106 75.21 38.7059 75.21ZM35.2269 78.36V67.44H36.3399V73.005H36.4799V78.36H35.2269ZM38.5519 74.069C39.0512 74.069 39.4642 73.943 39.7909 73.691C40.1176 73.439 40.3626 73.0983 40.5259 72.669C40.6892 72.235 40.7709 71.7497 40.7709 71.213C40.7709 70.681 40.6892 70.2003 40.5259 69.771C40.3672 69.3417 40.1199 69.001 39.7839 68.749C39.4526 68.497 39.0302 68.371 38.5169 68.371C38.0269 68.371 37.6209 68.4923 37.2989 68.735C36.9769 68.973 36.7366 69.3067 36.5779 69.736C36.4192 70.1607 36.3399 70.653 36.3399 71.213C36.3399 71.7637 36.4169 72.256 36.5709 72.69C36.7296 73.1193 36.9722 73.4577 37.2989 73.705C37.6256 73.9477 38.0432 74.069 38.5519 74.069ZM47.8494 75C47.4014 75.0887 46.9581 75.1237 46.5194 75.105C46.0854 75.091 45.6981 75.0047 45.3574 74.846C45.0168 74.6827 44.7578 74.4307 44.5804 74.09C44.4311 73.7913 44.3494 73.4903 44.3354 73.187C44.3261 72.879 44.3214 72.5313 44.3214 72.144V65.34H45.5674V72.088C45.5674 72.396 45.5698 72.6597 45.5744 72.879C45.5838 73.0983 45.6328 73.2873 45.7214 73.446C45.8894 73.7447 46.1554 73.9197 46.5194 73.971C46.8881 74.0223 47.3314 74.0083 47.8494 73.929V75ZM42.7884 68.469V67.44H47.8494V68.469H42.7884ZM49.5243 66.103V64.815H50.7703V66.103H49.5243ZM49.5243 75V67.44H50.7703V75H49.5243ZM56.0906 75.21C55.3393 75.21 54.6906 75.0397 54.1446 74.699C53.6033 74.3583 53.1856 73.887 52.8916 73.285C52.5976 72.683 52.4506 71.9923 52.4506 71.213C52.4506 70.4197 52.6 69.7243 52.8986 69.127C53.1973 68.5297 53.6196 68.0653 54.1656 67.734C54.7116 67.398 55.3533 67.23 56.0906 67.23C56.8466 67.23 57.4976 67.4003 58.0436 67.741C58.5896 68.077 59.0073 68.546 59.2966 69.148C59.5906 69.7453 59.7376 70.4337 59.7376 71.213C59.7376 72.0017 59.5906 72.697 59.2966 73.299C59.0026 73.8963 58.5826 74.3653 58.0366 74.706C57.4906 75.042 56.842 75.21 56.0906 75.21ZM56.0906 74.027C56.8746 74.027 57.458 73.7657 57.8406 73.243C58.2233 72.7203 58.4146 72.0437 58.4146 71.213C58.4146 70.359 58.221 69.68 57.8336 69.176C57.4463 68.6673 56.8653 68.413 56.0906 68.413C55.5633 68.413 55.1293 68.532 54.7886 68.77C54.448 69.008 54.1936 69.337 54.0256 69.757C53.8576 70.177 53.7736 70.6623 53.7736 71.213C53.7736 72.0623 53.9696 72.7437 54.3616 73.257C54.7536 73.7703 55.33 74.027 56.0906 74.027ZM66.6618 75V71.213C66.6618 70.8537 66.6292 70.5083 66.5638 70.177C66.5032 69.8457 66.3935 69.5493 66.2348 69.288C66.0808 69.022 65.8708 68.812 65.6048 68.658C65.3435 68.504 65.0122 68.427 64.6108 68.427C64.2982 68.427 64.0135 68.4807 63.7568 68.588C63.5048 68.6907 63.2878 68.8493 63.1058 69.064C62.9238 69.2787 62.7815 69.5493 62.6788 69.876C62.5808 70.198 62.5318 70.5783 62.5318 71.017L61.7128 70.765C61.7128 70.0323 61.8435 69.4047 62.1048 68.882C62.3708 68.3547 62.7418 67.951 63.2178 67.671C63.6985 67.3863 64.2632 67.244 64.9118 67.244C65.4018 67.244 65.8195 67.321 66.1648 67.475C66.5102 67.629 66.7972 67.8343 67.0258 68.091C67.2545 68.343 67.4342 68.6277 67.5648 68.945C67.6955 69.2577 67.7865 69.5773 67.8378 69.904C67.8938 70.226 67.9218 70.5317 67.9218 70.821V75H66.6618ZM61.2718 75V67.44H62.3918V69.463H62.5318V75H61.2718ZM75.3095 75.196C74.8101 75.196 74.3458 75.105 73.9165 74.923C73.4871 74.7363 73.1161 74.475 72.8035 74.139C72.4955 73.7983 72.2691 73.3947 72.1245 72.928L73.3215 72.585C73.4755 73.0517 73.7321 73.4063 74.0915 73.649C74.4508 73.8917 74.8545 74.0107 75.3025 74.006C75.7131 73.9967 76.0678 73.9033 76.3665 73.726C76.6698 73.544 76.9031 73.2967 77.0665 72.984C77.2345 72.6713 77.3185 72.3097 77.3185 71.899C77.3185 71.2737 77.1318 70.7673 76.7585 70.38C76.3851 69.988 75.8951 69.792 75.2885 69.792C75.1205 69.792 74.9431 69.8153 74.7565 69.862C74.5745 69.9087 74.4041 69.974 74.2455 70.058L73.6435 69.071L77.3815 65.69L77.5425 66.11H72.5235V64.92H78.4665V66.117L75.2815 69.169L75.2675 68.728C75.9348 68.6813 76.5181 68.791 77.0175 69.057C77.5168 69.323 77.9041 69.7033 78.1795 70.198C78.4595 70.6927 78.5995 71.2597 78.5995 71.899C78.5995 72.543 78.4548 73.1123 78.1655 73.607C77.8761 74.1017 77.4841 74.4913 76.9895 74.776C76.4948 75.056 75.9348 75.196 75.3095 75.196Z" fill="black" fill-opacity="0.65"/>
<path d="M8 47.5C12.1421 47.5 15.5 44.1421 15.5 40C15.5 35.8579 12.1421 32.5 8 32.5C3.85786 32.5 0.5 35.8579 0.5 40C0.5 44.1421 3.85786 47.5 8 47.5Z" fill="white" stroke="#D9D9D9"/>
<path d="M29.124 45.21C28.1207 45.21 27.269 44.9883 26.569 44.545C25.869 44.1017 25.3347 43.4857 24.966 42.697C24.602 41.9083 24.42 40.996 24.42 39.96C24.42 38.924 24.602 38.0117 24.966 37.223C25.3347 36.4343 25.869 35.8183 26.569 35.375C27.269 34.9317 28.1207 34.71 29.124 34.71C30.132 34.71 30.986 34.9317 31.686 35.375C32.386 35.8183 32.918 36.4343 33.282 37.223C33.646 38.0117 33.828 38.924 33.828 39.96C33.828 40.996 33.646 41.9083 33.282 42.697C32.918 43.4857 32.386 44.1017 31.686 44.545C30.986 44.9883 30.132 45.21 29.124 45.21ZM29.124 44.02C29.8753 44.0247 30.5007 43.8567 31 43.516C31.504 43.1707 31.8797 42.6923 32.127 42.081C32.379 41.4697 32.505 40.7627 32.505 39.96C32.505 39.1527 32.379 38.4457 32.127 37.839C31.8797 37.2323 31.504 36.7587 31 36.418C30.5007 36.0773 29.8753 35.9047 29.124 35.9C28.3727 35.8953 27.7473 36.0633 27.248 36.404C26.7533 36.7447 26.38 37.2207 26.128 37.832C25.876 38.4433 25.7477 39.1527 25.743 39.96C25.7383 40.7627 25.862 41.4673 26.114 42.074C26.366 42.6807 26.7417 43.1567 27.241 43.502C27.745 43.8427 28.3727 44.0153 29.124 44.02ZM38.7059 45.21C37.9966 45.21 37.3992 45.035 36.9139 44.685C36.4286 44.3303 36.0599 43.852 35.8079 43.25C35.5606 42.6433 35.4369 41.9643 35.4369 41.213C35.4369 40.4523 35.5606 39.771 35.8079 39.169C36.0599 38.567 36.4286 38.0933 36.9139 37.748C37.4039 37.4027 38.0036 37.23 38.7129 37.23C39.4129 37.23 40.0149 37.405 40.5189 37.755C41.0276 38.1003 41.4172 38.574 41.6879 39.176C41.9586 39.778 42.0939 40.457 42.0939 41.213C42.0939 41.969 41.9586 42.648 41.6879 43.25C41.4172 43.852 41.0276 44.3303 40.5189 44.685C40.0149 45.035 39.4106 45.21 38.7059 45.21ZM35.2269 48.36V37.44H36.3399V43.005H36.4799V48.36H35.2269ZM38.5519 44.069C39.0512 44.069 39.4642 43.943 39.7909 43.691C40.1176 43.439 40.3626 43.0983 40.5259 42.669C40.6892 42.235 40.7709 41.7497 40.7709 41.213C40.7709 40.681 40.6892 40.2003 40.5259 39.771C40.3672 39.3417 40.1199 39.001 39.7839 38.749C39.4526 38.497 39.0302 38.371 38.5169 38.371C38.0269 38.371 37.6209 38.4923 37.2989 38.735C36.9769 38.973 36.7366 39.3067 36.5779 39.736C36.4192 40.1607 36.3399 40.653 36.3399 41.213C36.3399 41.7637 36.4169 42.256 36.5709 42.69C36.7296 43.1193 36.9722 43.4577 37.2989 43.705C37.6256 43.9477 38.0432 44.069 38.5519 44.069ZM47.8494 45C47.4014 45.0887 46.9581 45.1237 46.5194 45.105C46.0854 45.091 45.6981 45.0047 45.3574 44.846C45.0168 44.6827 44.7578 44.4307 44.5804 44.09C44.4311 43.7913 44.3494 43.4903 44.3354 43.187C44.3261 42.879 44.3214 42.5313 44.3214 42.144V35.34H45.5674V42.088C45.5674 42.396 45.5698 42.6597 45.5744 42.879C45.5838 43.0983 45.6328 43.2873 45.7214 43.446C45.8894 43.7447 46.1554 43.9197 46.5194 43.971C46.8881 44.0223 47.3314 44.0083 47.8494 43.929V45ZM42.7884 38.469V37.44H47.8494V38.469H42.7884ZM49.5243 36.103V34.815H50.7703V36.103H49.5243ZM49.5243 45V37.44H50.7703V45H49.5243ZM56.0906 45.21C55.3393 45.21 54.6906 45.0397 54.1446 44.699C53.6033 44.3583 53.1856 43.887 52.8916 43.285C52.5976 42.683 52.4506 41.9923 52.4506 41.213C52.4506 40.4197 52.6 39.7243 52.8986 39.127C53.1973 38.5297 53.6196 38.0653 54.1656 37.734C54.7116 37.398 55.3533 37.23 56.0906 37.23C56.8466 37.23 57.4976 37.4003 58.0436 37.741C58.5896 38.077 59.0073 38.546 59.2966 39.148C59.5906 39.7453 59.7376 40.4337 59.7376 41.213C59.7376 42.0017 59.5906 42.697 59.2966 43.299C59.0026 43.8963 58.5826 44.3653 58.0366 44.706C57.4906 45.042 56.842 45.21 56.0906 45.21ZM56.0906 44.027C56.8746 44.027 57.458 43.7657 57.8406 43.243C58.2233 42.7203 58.4146 42.0437 58.4146 41.213C58.4146 40.359 58.221 39.68 57.8336 39.176C57.4463 38.6673 56.8653 38.413 56.0906 38.413C55.5633 38.413 55.1293 38.532 54.7886 38.77C54.448 39.008 54.1936 39.337 54.0256 39.757C53.8576 40.177 53.7736 40.6623 53.7736 41.213C53.7736 42.0623 53.9696 42.7437 54.3616 43.257C54.7536 43.7703 55.33 44.027 56.0906 44.027ZM66.6618 45V41.213C66.6618 40.8537 66.6292 40.5083 66.5638 40.177C66.5032 39.8457 66.3935 39.5493 66.2348 39.288C66.0808 39.022 65.8708 38.812 65.6048 38.658C65.3435 38.504 65.0122 38.427 64.6108 38.427C64.2982 38.427 64.0135 38.4807 63.7568 38.588C63.5048 38.6907 63.2878 38.8493 63.1058 39.064C62.9238 39.2787 62.7815 39.5493 62.6788 39.876C62.5808 40.198 62.5318 40.5783 62.5318 41.017L61.7128 40.765C61.7128 40.0323 61.8435 39.4047 62.1048 38.882C62.3708 38.3547 62.7418 37.951 63.2178 37.671C63.6985 37.3863 64.2632 37.244 64.9118 37.244C65.4018 37.244 65.8195 37.321 66.1648 37.475C66.5102 37.629 66.7972 37.8343 67.0258 38.091C67.2545 38.343 67.4342 38.6277 67.5648 38.945C67.6955 39.2577 67.7865 39.5773 67.8378 39.904C67.8938 40.226 67.9218 40.5317 67.9218 40.821V45H66.6618ZM61.2718 45V37.44H62.3918V39.463H62.5318V45H61.2718ZM72.2645 44.993L72.2715 43.873L76.7445 39.848C77.1178 39.512 77.3675 39.1947 77.4935 38.896C77.6241 38.5927 77.6895 38.2823 77.6895 37.965C77.6895 37.5777 77.6008 37.2277 77.4235 36.915C77.2461 36.6023 77.0035 36.355 76.6955 36.173C76.3921 35.991 76.0468 35.9 75.6595 35.9C75.2581 35.9 74.9011 35.9957 74.5885 36.187C74.2758 36.3737 74.0285 36.6233 73.8465 36.936C73.6691 37.2487 73.5828 37.5893 73.5875 37.958H72.3135C72.3135 37.3233 72.4605 36.7633 72.7545 36.278C73.0485 35.788 73.4475 35.4053 73.9515 35.13C74.4601 34.85 75.0365 34.71 75.6805 34.71C76.3058 34.71 76.8658 34.8547 77.3605 35.144C77.8551 35.4287 78.2448 35.8183 78.5295 36.313C78.8188 36.803 78.9635 37.3583 78.9635 37.979C78.9635 38.4177 78.9075 38.798 78.7955 39.12C78.6881 39.442 78.5201 39.7407 78.2915 40.016C78.0628 40.2867 77.7758 40.576 77.4305 40.884L73.7135 44.223L73.5525 43.803H78.9635V44.993H72.2645Z" fill="black" fill-opacity="0.65"/>
</svg>
