<svg width="120" height="112" viewBox="0 0 120 112" fill="none" xmlns="http://www.w3.org/2000/svg">
<path d="M117 1H3C1.89543 1 1 1.89543 1 3V29C1 30.1046 1.89543 31 3 31H117C118.105 31 119 30.1046 119 29V3C119 1.89543 118.105 1 117 1Z" fill="white"/>
<path opacity="0.15" d="M117.5 0.5H2.5C1.39543 0.5 0.5 1.39543 0.5 2.5V29.5C0.5 30.6046 1.39543 31.5 2.5 31.5H117.5C118.605 31.5 119.5 30.6046 119.5 29.5V2.5C119.5 1.39543 118.605 0.5 117.5 0.5Z" stroke="black"/>
<g opacity="0.65">
<path opacity="0.65" d="M108.916 14H108.127C108.073 14 108.022 14.0195 107.991 14.0516L105 17.1109L102.01 14.0516C101.978 14.0195 101.928 14 101.874 14H101.084C101.016 14 100.976 14.0578 101.016 14.0992L104.728 17.8969C104.862 18.0344 105.138 18.0344 105.272 17.8969L108.983 14.0992C109.024 14.0578 108.984 14 108.916 14Z" fill="black"/>
</g>
<path d="M80 10H12V21H80V10Z" fill="#F5F5F5"/>
<path d="M117 41H3C1.89543 41 1 41.8954 1 43V69C1 70.1046 1.89543 71 3 71H117C118.105 71 119 70.1046 119 69V43C119 41.8954 118.105 41 117 41Z" fill="white"/>
<path opacity="0.15" d="M117.5 40.5H2.5C1.39543 40.5 0.5 41.3954 0.5 42.5V69.5C0.5 70.6046 1.39543 71.5 2.5 71.5H117.5C118.605 71.5 119.5 70.6046 119.5 69.5V42.5C119.5 41.3954 118.605 40.5 117.5 40.5Z" stroke="black"/>
<path d="M80 50H12V61H80V50Z" fill="#F5F5F5"/>
<g opacity="0.65">
<path opacity="0.65" d="M108.916 54H108.127C108.073 54 108.022 54.0195 107.991 54.0516L105 57.1109L102.01 54.0516C101.978 54.0195 101.928 54 101.874 54H101.084C101.016 54 100.976 54.0578 101.016 54.0992L104.728 57.8969C104.862 58.0344 105.138 58.0344 105.272 57.8969L108.983 54.0992C109.024 54.0578 108.984 54 108.916 54Z" fill="black"/>
</g>
<path d="M117 81H3C1.89543 81 1 81.8954 1 83V109C1 110.105 1.89543 111 3 111H117C118.105 111 119 110.105 119 109V83C119 81.8954 118.105 81 117 81Z" fill="white"/>
<g opacity="0.65">
<path opacity="0.65" d="M108.916 94H108.127C108.073 94 108.022 94.0195 107.991 94.0516L105 97.1109L102.01 94.0516C101.978 94.0195 101.928 94 101.874 94H101.084C101.016 94 100.976 94.0578 101.016 94.0992L104.728 97.8969C104.862 98.0344 105.138 98.0344 105.272 97.8969L108.983 94.0992C109.024 94.0578 108.984 94 108.916 94Z" fill="black"/>
</g>
<path opacity="0.15" d="M117.5 80.5H2.5C1.39543 80.5 0.5 81.3954 0.5 82.5V109.5C0.5 110.605 1.39543 111.5 2.5 111.5H117.5C118.605 111.5 119.5 110.605 119.5 109.5V82.5C119.5 81.3954 118.605 80.5 117.5 80.5Z" stroke="black"/>
<path d="M80 90H12V101H80V90Z" fill="#F5F5F5"/>
</svg>
