<svg width="108" height="36" viewBox="0 0 108 36" fill="none" xmlns="http://www.w3.org/2000/svg">
<path d="M91 10C93.7614 10 96 7.76142 96 5C96 2.23858 93.7614 0 91 0C88.2386 0 86 2.23858 86 5C86 7.76142 88.2386 10 91 10Z" fill="#EBFAFA"/>
<path d="M91 36C93.7614 36 96 33.7614 96 31C96 28.2386 93.7614 26 91 26C88.2386 26 86 28.2386 86 31C86 33.7614 88.2386 36 91 36Z" fill="#0010F7"/>
<path d="M77 23C79.7614 23 82 20.7614 82 18C82 15.2386 79.7614 13 77 13C74.2386 13 72 15.2386 72 18C72 20.7614 74.2386 23 77 23Z" fill="#0063F7"/>
<path d="M103 23C105.761 23 108 20.7614 108 18C108 15.2386 105.761 13 103 13C100.239 13 98 15.2386 98 18C98 20.7614 100.239 23 103 23Z" fill="#55B1F3"/>
<path d="M44.6668 12.6667C46.5078 12.6667 48.0002 11.1743 48.0002 9.33333C48.0002 7.49238 46.5078 6 44.6668 6C42.8259 6 41.3335 7.49238 41.3335 9.33333C41.3335 11.1743 42.8259 12.6667 44.6668 12.6667Z" fill="#EBFAFA"/>
<path d="M44.6668 29.9997C46.5078 29.9997 48.0002 28.5073 48.0002 26.6663C48.0002 24.8254 46.5078 23.333 44.6668 23.333C42.8259 23.333 41.3335 24.8254 41.3335 26.6663C41.3335 28.5073 42.8259 29.9997 44.6668 29.9997Z" fill="#0010F7"/>
<path d="M35.3333 21.3337C37.1743 21.3337 38.6667 19.8413 38.6667 18.0003C38.6667 16.1594 37.1743 14.667 35.3333 14.667C33.4924 14.667 32 16.1594 32 18.0003C32 19.8413 33.4924 21.3337 35.3333 21.3337Z" fill="#0063F7"/>
<path d="M52.6668 21.3337C54.5078 21.3337 56.0002 19.8413 56.0002 18.0003C56.0002 16.1594 54.5078 14.667 52.6668 14.667C50.8259 14.667 49.3335 16.1594 49.3335 18.0003C49.3335 19.8413 50.8259 21.3337 52.6668 21.3337Z" fill="#55B1F3"/>
<path d="M8.44439 14.4444C9.67169 14.4444 10.6666 13.4495 10.6666 12.2222C10.6666 10.9949 9.67169 10 8.44439 10C7.21709 10 6.22217 10.9949 6.22217 12.2222C6.22217 13.4495 7.21709 14.4444 8.44439 14.4444Z" fill="#EBFAFA"/>
<path d="M8.44439 26.0001C9.67169 26.0001 10.6666 25.0052 10.6666 23.7779C10.6666 22.5506 9.67169 21.5557 8.44439 21.5557C7.21709 21.5557 6.22217 22.5506 6.22217 23.7779C6.22217 25.0052 7.21709 26.0001 8.44439 26.0001Z" fill="#0010F7"/>
<path d="M2.22222 20.2218C3.44952 20.2218 4.44444 19.2269 4.44444 17.9996C4.44444 16.7723 3.44952 15.7773 2.22222 15.7773C0.994923 15.7773 0 16.7723 0 17.9996C0 19.2269 0.994923 20.2218 2.22222 20.2218Z" fill="#0063F7"/>
<path d="M13.7779 20.2218C15.0052 20.2218 16.0001 19.2269 16.0001 17.9996C16.0001 16.7723 15.0052 15.7773 13.7779 15.7773C12.5506 15.7773 11.5557 16.7723 11.5557 17.9996C11.5557 19.2269 12.5506 20.2218 13.7779 20.2218Z" fill="#55B1F3"/>
</svg>
