<svg width="100" height="118" viewBox="0 0 100 118" fill="none" xmlns="http://www.w3.org/2000/svg">
<g clip-path="url(#clip0_75:18499)">
<path d="M28.2909 101.968L26.3815 95.3584H27.0837L28.6306 100.816L30.1682 95.363L30.8751 95.3584L32.4219 100.816L33.9595 95.3584H34.6664L32.7616 101.968H32.0822L30.5216 96.5472L28.9702 101.968H28.2909ZM36.4668 102.106C36.0935 102.106 35.7799 102.038 35.5259 101.904C35.275 101.769 35.0868 101.59 34.9613 101.367C34.8358 101.143 34.7731 100.9 34.7731 100.637C34.7731 100.368 34.8267 100.138 34.9338 99.9484C35.0439 99.7556 35.1923 99.598 35.379 99.4756C35.5687 99.3532 35.7875 99.2599 36.0354 99.1957C36.2863 99.1345 36.5632 99.0809 36.8662 99.035C37.1722 98.986 37.4705 98.9447 37.7612 98.9111C38.055 98.8744 38.312 98.8392 38.5323 98.8055L38.2936 98.9524C38.3028 98.4628 38.208 98.1002 38.0091 97.8646C37.8102 97.6289 37.4644 97.5111 36.9717 97.5111C36.6321 97.5111 36.3444 97.5876 36.1088 97.7406C35.8762 97.8936 35.7125 98.1354 35.6177 98.4658L34.9613 98.2731C35.0745 97.8294 35.3025 97.4851 35.6452 97.2403C35.9879 96.9955 36.4332 96.8731 36.9809 96.8731C37.4338 96.8731 37.8178 96.9588 38.133 97.1302C38.4512 97.2985 38.6761 97.5433 38.8077 97.8646C38.8689 98.0084 38.9087 98.169 38.9271 98.3465C38.9454 98.524 38.9546 98.7045 38.9546 98.8881V101.968H38.3533V100.724L38.5277 100.798C38.3594 101.223 38.0978 101.547 37.7428 101.771C37.3879 101.994 36.9625 102.106 36.4668 102.106ZM36.5449 101.523C36.86 101.523 37.1354 101.466 37.3711 101.353C37.6067 101.24 37.7964 101.085 37.9402 100.889C38.084 100.69 38.1774 100.467 38.2202 100.219C38.2569 100.06 38.2768 99.8857 38.2799 99.696C38.2829 99.5032 38.2845 99.3594 38.2845 99.2645L38.5415 99.3976C38.312 99.4282 38.0626 99.4588 37.7933 99.4894C37.5271 99.52 37.264 99.5552 37.0039 99.595C36.7468 99.6348 36.5143 99.6822 36.3062 99.7373C36.1654 99.7771 36.0292 99.8337 35.8977 99.9071C35.7661 99.9775 35.6575 100.072 35.5718 100.192C35.4892 100.311 35.4478 100.459 35.4478 100.637C35.4478 100.781 35.483 100.92 35.5534 101.055C35.6269 101.189 35.7431 101.301 35.9023 101.39C36.0644 101.478 36.2786 101.523 36.5449 101.523ZM40.2413 96.0699V95.3125H40.916V96.0699H40.2413ZM40.2413 101.968V97.0108H40.916V101.968H40.2413ZM44.991 101.968C44.7126 102.026 44.4372 102.049 44.1648 102.037C43.8956 102.025 43.6538 101.966 43.4396 101.862C43.2285 101.758 43.0678 101.596 42.9577 101.376C42.8689 101.192 42.82 101.007 42.8108 100.821C42.8047 100.631 42.8016 100.415 42.8016 100.173V95.6338H43.4717V100.146C43.4717 100.354 43.4733 100.528 43.4763 100.669C43.4825 100.807 43.5146 100.929 43.5727 101.036C43.6829 101.241 43.8573 101.364 44.096 101.403C44.3377 101.443 44.6361 101.434 44.991 101.376V101.968ZM41.7413 97.5892V97.0108H44.991V97.5892H41.7413ZM46.0595 96.0699V95.3125H46.7342V96.0699H46.0595ZM46.0595 101.968V97.0108H46.7342V101.968H46.0595ZM51.6905 101.968V99.4389C51.6905 99.1635 51.6645 98.9111 51.6125 98.6816C51.5604 98.449 51.4763 98.2471 51.36 98.0757C51.2468 97.9013 51.0984 97.7666 50.9148 97.6718C50.7342 97.5769 50.5139 97.5295 50.2538 97.5295C50.0151 97.5295 49.804 97.5708 49.6204 97.6534C49.4399 97.736 49.2869 97.8554 49.1614 98.0114C49.039 98.1644 48.9457 98.3511 48.8814 98.5714C48.8172 98.7917 48.785 99.0427 48.785 99.3242L48.3077 99.2186C48.3077 98.7106 48.3964 98.2838 48.5739 97.938C48.7514 97.5922 48.9962 97.3306 49.3083 97.1531C49.6204 96.9756 49.9784 96.8869 50.3823 96.8869C50.6792 96.8869 50.9377 96.9328 51.1581 97.0246C51.3814 97.1164 51.5696 97.2403 51.7226 97.3964C51.8787 97.5524 52.0041 97.7314 52.099 97.9334C52.1939 98.1323 52.2627 98.345 52.3056 98.5714C52.3484 98.7948 52.3698 99.0182 52.3698 99.2416V101.968H51.6905ZM48.1057 101.968V97.0108H48.7162V98.2318H48.785V101.968H48.1057ZM55.53 104.309C55.2761 104.309 55.0251 104.271 54.7773 104.194C54.5325 104.121 54.306 104.003 54.098 103.841C53.8899 103.682 53.7155 103.474 53.5747 103.216L54.1852 102.877C54.3229 103.152 54.5156 103.35 54.7635 103.469C55.0144 103.591 55.2699 103.653 55.53 103.653C55.8881 103.653 56.1772 103.585 56.3975 103.451C56.6209 103.319 56.7831 103.123 56.8841 102.863C56.9851 102.603 57.034 102.279 57.031 101.89V100.568H57.109V97.0108H57.7103V101.899C57.7103 102.04 57.7057 102.175 57.6965 102.303C57.6904 102.435 57.6766 102.563 57.6552 102.689C57.5971 103.059 57.4762 103.363 57.2926 103.602C57.1121 103.841 56.8734 104.018 56.5766 104.134C56.2828 104.251 55.934 104.309 55.53 104.309ZM55.4841 102.106C55.0221 102.106 54.6273 101.991 54.2999 101.761C53.9725 101.529 53.7216 101.215 53.5472 100.821C53.3727 100.426 53.2855 99.9805 53.2855 99.4848C53.2855 98.9922 53.3712 98.5485 53.5426 98.1537C53.717 97.759 53.9664 97.4469 54.2907 97.2174C54.6151 96.9879 55.0037 96.8731 55.4566 96.8731C55.9217 96.8731 56.3134 96.9863 56.6316 97.2128C56.9499 97.4392 57.1901 97.7498 57.3523 98.1445C57.5175 98.5362 57.6001 98.983 57.6001 99.4848C57.6001 99.9775 57.519 100.423 57.3569 100.821C57.1947 101.215 56.956 101.529 56.6408 101.761C56.3256 101.991 55.9401 102.106 55.4841 102.106ZM55.553 101.477C55.9049 101.477 56.1956 101.391 56.4251 101.22C56.6546 101.048 56.8259 100.813 56.9392 100.513C57.0524 100.21 57.109 99.8673 57.109 99.4848C57.109 99.0962 57.0524 98.7535 56.9392 98.4567C56.8259 98.1568 56.6546 97.9227 56.4251 97.7544C56.1986 97.5861 55.9125 97.5019 55.5668 97.5019C55.2118 97.5019 54.918 97.5892 54.6855 97.7636C54.4529 97.938 54.28 98.1751 54.1668 98.475C54.0566 98.7749 54.0016 99.1115 54.0016 99.4848C54.0016 99.8612 54.0582 100.201 54.1714 100.504C54.2877 100.804 54.4606 101.041 54.6901 101.215C54.9196 101.39 55.2072 101.477 55.553 101.477Z" fill="black" fill-opacity="0.45"/>
<path d="M7.86912 105.902C12.0339 105.902 15.4101 102.526 15.4101 98.361C15.4101 94.1962 12.0339 90.82 7.86912 90.82C3.70435 90.82 0.328125 94.1962 0.328125 98.361C0.328125 102.526 3.70435 105.902 7.86912 105.902Z" stroke="black" stroke-opacity="0.15" stroke-width="0.656"/>
<path d="M7.86229 102.101C7.53487 102.101 7.23346 102.043 6.95806 101.927C6.68266 101.81 6.44551 101.645 6.24661 101.431C6.04771 101.214 5.90236 100.955 5.81056 100.655L6.45316 100.462C6.56332 100.79 6.74386 101.038 6.99478 101.206C7.24876 101.374 7.53487 101.455 7.85311 101.449C8.14687 101.443 8.39932 101.377 8.61046 101.252C8.82466 101.127 8.98837 100.952 9.10159 100.729C9.21481 100.505 9.27142 100.247 9.27142 99.953C9.27142 99.5032 9.13984 99.1421 8.87668 98.8698C8.61658 98.5944 8.27233 98.4567 7.84393 98.4567C7.72459 98.4567 7.59913 98.4735 7.46755 98.5072C7.33597 98.5378 7.21357 98.5821 7.10035 98.6403L6.76069 98.1032L9.33109 95.7302L9.44125 96.0056H6.07219V95.3584H9.89107V96.0148L7.65115 98.1537L7.64197 97.8875C8.10097 97.8294 8.50489 97.8814 8.85373 98.0436C9.20257 98.2057 9.47491 98.4536 9.67075 98.7871C9.86965 99.1176 9.9691 99.5062 9.9691 99.953C9.9691 100.375 9.8773 100.749 9.6937 101.073C9.51316 101.394 9.26377 101.647 8.94553 101.83C8.62729 102.011 8.26621 102.101 7.86229 102.101Z" fill="black" fill-opacity="0.25"/>
<path d="M28.2877 116.016V110.905H26.3087V110.35H30.8451V110.905H28.8661V116.016H28.2877ZM34.545 116.016V113.848C34.545 113.612 34.5227 113.396 34.4781 113.199C34.4335 113 34.3614 112.826 34.2617 112.68C34.1647 112.53 34.0374 112.415 33.8801 112.333C33.7253 112.252 33.5364 112.211 33.3135 112.211C33.1089 112.211 32.9279 112.247 32.7705 112.318C32.6158 112.388 32.4846 112.491 32.3771 112.625C32.2722 112.756 32.1922 112.916 32.1371 113.105C32.082 113.293 32.0545 113.508 32.0545 113.75L31.6453 113.659C31.6453 113.224 31.7213 112.858 31.8735 112.562C32.0256 112.265 32.2354 112.041 32.503 111.889C32.7705 111.737 33.0774 111.661 33.4237 111.661C33.6781 111.661 33.8997 111.7 34.0886 111.779C34.2801 111.857 34.4414 111.964 34.5725 112.097C34.7063 112.231 34.8139 112.385 34.8952 112.558C34.9765 112.728 35.0355 112.91 35.0722 113.105C35.1089 113.296 35.1273 113.487 35.1273 113.679V116.016H34.545ZM31.4721 116.016V110.35H31.9954V113.549H32.0545V116.016H31.4721ZM36.227 110.96V110.311H36.8054V110.96H36.227ZM36.227 116.016V111.767H36.8054V116.016H36.227ZM39.5705 116.13C39.0721 116.13 38.6616 116.023 38.339 115.808C38.019 115.592 37.8223 115.293 37.7488 114.91L38.339 114.812C38.402 115.053 38.5449 115.246 38.7679 115.39C38.9935 115.532 39.2715 115.603 39.602 115.603C39.9246 115.603 40.1791 115.536 40.3653 115.402C40.5515 115.266 40.6446 115.081 40.6446 114.848C40.6446 114.716 40.6145 114.61 40.5541 114.529C40.4964 114.445 40.3771 114.367 40.1961 114.297C40.0151 114.226 39.7449 114.142 39.3856 114.045C39 113.94 38.6984 113.835 38.4807 113.73C38.263 113.625 38.1082 113.505 38.0164 113.368C37.9246 113.229 37.8787 113.06 37.8787 112.861C37.8787 112.619 37.9469 112.408 38.0833 112.227C38.2197 112.044 38.4085 111.902 38.6498 111.802C38.8912 111.7 39.1718 111.649 39.4918 111.649C39.8118 111.649 40.0977 111.701 40.3495 111.806C40.604 111.908 40.8086 112.053 40.9633 112.239C41.1181 112.425 41.2099 112.642 41.2387 112.888L40.6486 112.994C40.6092 112.745 40.4846 112.548 40.2748 112.404C40.0676 112.257 39.804 112.181 39.484 112.176C39.1823 112.168 38.9371 112.226 38.7482 112.349C38.5594 112.47 38.4649 112.631 38.4649 112.833C38.4649 112.946 38.499 113.043 38.5672 113.124C38.6354 113.203 38.7587 113.278 38.9371 113.348C39.1181 113.419 39.3751 113.497 39.7082 113.581C40.0991 113.68 40.4059 113.785 40.6289 113.895C40.8519 114.006 41.0105 114.135 41.105 114.285C41.1994 114.434 41.2466 114.619 41.2466 114.84C41.2466 115.241 41.0971 115.557 40.7981 115.788C40.5017 116.016 40.0925 116.13 39.5705 116.13ZM43.7732 110.96V110.311H44.3516V110.96H43.7732ZM43.7732 116.016V111.767H44.3516V116.016H43.7732ZM47.1168 116.13C46.6184 116.13 46.2079 116.023 45.8853 115.808C45.5653 115.592 45.3685 115.293 45.2951 114.91L45.8853 114.812C45.9482 115.053 46.0912 115.246 46.3141 115.39C46.5397 115.532 46.8177 115.603 47.1482 115.603C47.4709 115.603 47.7253 115.536 47.9115 115.402C48.0978 115.266 48.1909 115.081 48.1909 114.848C48.1909 114.716 48.1607 114.61 48.1004 114.529C48.0427 114.445 47.9233 114.367 47.7424 114.297C47.5614 114.226 47.2912 114.142 46.9318 114.045C46.5463 113.94 46.2446 113.835 46.0269 113.73C45.8092 113.625 45.6544 113.505 45.5626 113.368C45.4708 113.229 45.4249 113.06 45.4249 112.861C45.4249 112.619 45.4931 112.408 45.6295 112.227C45.7659 112.044 45.9548 111.902 46.1961 111.802C46.4374 111.7 46.7181 111.649 47.0381 111.649C47.3581 111.649 47.644 111.701 47.8958 111.806C48.1502 111.908 48.3548 112.053 48.5096 112.239C48.6643 112.425 48.7561 112.642 48.785 112.888L48.1948 112.994C48.1555 112.745 48.0309 112.548 47.821 112.404C47.6138 112.257 47.3502 112.181 47.0302 112.176C46.7286 112.168 46.4833 112.226 46.2945 112.349C46.1056 112.47 46.0112 112.631 46.0112 112.833C46.0112 112.946 46.0453 113.043 46.1135 113.124C46.1817 113.203 46.3049 113.278 46.4833 113.348C46.6643 113.419 46.9214 113.497 47.2545 113.581C47.6453 113.68 47.9522 113.785 48.1751 113.895C48.3981 114.006 48.5568 114.135 48.6512 114.285C48.7456 114.434 48.7929 114.619 48.7929 114.84C48.7929 115.241 48.6434 115.557 48.3443 115.788C48.0479 116.016 47.6387 116.13 47.1168 116.13ZM52.4566 116.134C52.1366 116.134 51.8677 116.076 51.65 115.961C51.4349 115.846 51.2736 115.692 51.166 115.501C51.0585 115.309 51.0047 115.101 51.0047 114.875C51.0047 114.644 51.0506 114.447 51.1424 114.285C51.2369 114.12 51.3641 113.985 51.5241 113.88C51.6867 113.775 51.8743 113.695 52.0867 113.64C52.3018 113.587 52.5392 113.541 52.7989 113.502C53.0612 113.46 53.3169 113.425 53.5661 113.396C53.8179 113.364 54.0382 113.334 54.2271 113.305L54.0225 113.431C54.0304 113.011 53.949 112.701 53.7786 112.499C53.6081 112.297 53.3117 112.196 52.8894 112.196C52.5982 112.196 52.3516 112.261 52.1497 112.392C51.9503 112.524 51.81 112.731 51.7287 113.014L51.166 112.849C51.2631 112.468 51.4585 112.173 51.7523 111.964C52.0461 111.754 52.4277 111.649 52.8972 111.649C53.2854 111.649 53.6146 111.722 53.8848 111.869C54.1576 112.013 54.3504 112.223 54.4632 112.499C54.5156 112.622 54.5497 112.76 54.5655 112.912C54.5812 113.064 54.5891 113.219 54.5891 113.376V116.016H54.0736V114.95L54.2231 115.013C54.0789 115.377 53.8546 115.655 53.5503 115.847C53.2461 116.038 52.8815 116.134 52.4566 116.134ZM52.5234 115.634C52.7936 115.634 53.0297 115.586 53.2317 115.489C53.4336 115.392 53.5963 115.259 53.7195 115.091C53.8428 114.921 53.9228 114.729 53.9595 114.517C53.991 114.381 54.0081 114.231 54.0107 114.068C54.0133 113.903 54.0146 113.78 54.0146 113.699L54.235 113.813C54.0382 113.839 53.8245 113.865 53.5936 113.891C53.3654 113.918 53.1399 113.948 52.9169 113.982C52.6966 114.016 52.4972 114.057 52.3189 114.104C52.1982 114.138 52.0815 114.187 51.9687 114.249C51.8559 114.31 51.7628 114.391 51.6893 114.493C51.6185 114.596 51.5831 114.723 51.5831 114.875C51.5831 114.998 51.6133 115.118 51.6736 115.233C51.7365 115.348 51.8362 115.444 51.9726 115.52C52.1116 115.596 52.2952 115.634 52.5234 115.634ZM58.8372 116.134C58.4411 116.134 58.1028 116.036 57.8221 115.839C57.5414 115.64 57.3264 115.371 57.1769 115.032C57.0273 114.694 56.9526 114.312 56.9526 113.887C56.9526 113.465 57.026 113.085 57.1729 112.746C57.3224 112.408 57.5362 112.141 57.8142 111.944C58.0923 111.747 58.4254 111.649 58.8136 111.649C59.2123 111.649 59.548 111.746 59.8208 111.94C60.0936 112.134 60.2995 112.4 60.4386 112.739C60.5802 113.074 60.651 113.457 60.651 113.887C60.651 114.31 60.5815 114.691 60.4425 115.032C60.3035 115.371 60.0989 115.64 59.8287 115.839C59.5585 116.036 59.228 116.134 58.8372 116.134ZM58.8962 115.595C59.1979 115.595 59.4471 115.522 59.6438 115.375C59.8405 115.228 59.9874 115.026 60.0844 114.769C60.1815 114.509 60.23 114.215 60.23 113.887C60.23 113.554 60.1815 113.261 60.0844 113.006C59.9874 112.749 59.8405 112.548 59.6438 112.404C59.4497 112.26 59.2044 112.188 58.908 112.188C58.6038 112.188 58.352 112.263 58.1526 112.412C57.9533 112.562 57.8051 112.765 57.708 113.022C57.6136 113.279 57.5664 113.567 57.5664 113.887C57.5664 114.21 57.6149 114.501 57.7119 114.761C57.8116 115.018 57.9598 115.221 58.1565 115.371C58.3533 115.52 58.5998 115.595 58.8962 115.595ZM60.23 116.016V112.817H60.1671V110.35H60.7494V116.016H60.23ZM63.6513 116.134C63.2368 116.134 62.8775 116.042 62.5732 115.859C62.2716 115.675 62.0368 115.417 61.8689 115.084C61.7011 114.75 61.6171 114.36 61.6171 113.911C61.6171 113.447 61.6997 113.046 61.865 112.707C62.0302 112.369 62.2624 112.108 62.5614 111.924C62.863 111.741 63.2185 111.649 63.6277 111.649C64.0473 111.649 64.4054 111.746 64.7018 111.94C64.9982 112.131 65.2224 112.407 65.3746 112.766C65.5267 113.126 65.5962 113.554 65.5831 114.053H64.9929V113.848C64.9824 113.297 64.8631 112.882 64.6349 112.601C64.4093 112.32 64.0788 112.18 63.6434 112.18C63.187 112.18 62.8368 112.328 62.5929 112.625C62.3516 112.921 62.2309 113.343 62.2309 113.891C62.2309 114.427 62.3516 114.842 62.5929 115.139C62.8368 115.432 63.1817 115.579 63.6277 115.579C63.9319 115.579 64.1968 115.51 64.4224 115.371C64.6506 115.229 64.8303 115.026 64.9614 114.761L65.5005 114.969C65.3326 115.339 65.0847 115.627 64.7569 115.831C64.4316 116.033 64.0631 116.134 63.6513 116.134ZM62.0263 114.053V113.569H65.2723V114.053H62.0263ZM68.0419 116.13C67.5435 116.13 67.133 116.023 66.8104 115.808C66.4903 115.592 66.2936 115.293 66.2202 114.91L66.8104 114.812C66.8733 115.053 67.0163 115.246 67.2392 115.39C67.4648 115.532 67.7428 115.603 68.0733 115.603C68.396 115.603 68.6504 115.536 68.8366 115.402C69.0229 115.266 69.116 115.081 69.116 114.848C69.116 114.716 69.0858 114.61 69.0255 114.529C68.9678 114.445 68.8484 114.367 68.6674 114.297C68.4865 114.226 68.2163 114.142 67.8569 114.045C67.4713 113.94 67.1697 113.835 66.952 113.73C66.7343 113.625 66.5795 113.505 66.4877 113.368C66.3959 113.229 66.35 113.06 66.35 112.861C66.35 112.619 66.4182 112.408 66.5546 112.227C66.691 112.044 66.8799 111.902 67.1212 111.802C67.3625 111.7 67.6432 111.649 67.9632 111.649C68.2832 111.649 68.5691 111.701 68.8209 111.806C69.0753 111.908 69.2799 112.053 69.4347 112.239C69.5894 112.425 69.6812 112.642 69.7101 112.888L69.1199 112.994C69.0806 112.745 68.956 112.548 68.7461 112.404C68.5389 112.257 68.2753 112.181 67.9553 112.176C67.6536 112.168 67.4084 112.226 67.2195 112.349C67.0307 112.47 66.9363 112.631 66.9363 112.833C66.9363 112.946 66.9704 113.043 67.0386 113.124C67.1068 113.203 67.23 113.278 67.4084 113.348C67.5894 113.419 67.8464 113.497 68.1796 113.581C68.5704 113.68 68.8773 113.785 69.1002 113.895C69.3232 114.006 69.4819 114.135 69.5763 114.285C69.6707 114.434 69.7179 114.619 69.7179 114.84C69.7179 115.241 69.5684 115.557 69.2694 115.788C68.973 116.016 68.5638 116.13 68.0419 116.13ZM72.3532 116.134C71.9257 116.134 71.5637 116.038 71.2673 115.847C70.9709 115.655 70.7453 115.392 70.5905 115.056C70.4384 114.718 70.3597 114.329 70.3545 113.891C70.3597 113.446 70.441 113.055 70.5984 112.719C70.7558 112.381 70.9827 112.118 71.2791 111.932C71.5755 111.743 71.9348 111.649 72.3571 111.649C72.7873 111.649 73.1611 111.754 73.4785 111.964C73.7985 112.173 74.0175 112.461 74.1355 112.825L73.569 113.006C73.4693 112.752 73.3106 112.555 73.0929 112.416C72.8778 112.274 72.6312 112.204 72.3532 112.204C72.0411 112.204 71.7827 112.276 71.5781 112.42C71.3735 112.562 71.2214 112.76 71.1217 113.014C71.022 113.268 70.9709 113.561 70.9683 113.891C70.9735 114.4 71.0915 114.809 71.3224 115.119C71.5532 115.426 71.8968 115.579 72.3532 115.579C72.6417 115.579 72.887 115.514 73.089 115.383C73.2935 115.249 73.4483 115.055 73.5532 114.8L74.1355 114.973C73.9781 115.351 73.7473 115.64 73.4431 115.839C73.1388 116.036 72.7755 116.134 72.3532 116.134ZM74.9477 116.016V111.767H75.467V112.79L75.3648 112.656C75.412 112.53 75.4736 112.415 75.5497 112.31C75.6257 112.202 75.7084 112.114 75.7975 112.046C75.9077 111.949 76.0362 111.876 76.1831 111.826C76.33 111.773 76.4782 111.743 76.6277 111.735C76.7772 111.725 76.9136 111.735 77.0369 111.767V112.31C76.8822 112.27 76.713 112.261 76.5294 112.282C76.3458 112.303 76.1766 112.377 76.0218 112.503C75.8802 112.613 75.7739 112.745 75.7031 112.9C75.6323 113.052 75.5851 113.215 75.5615 113.388C75.5379 113.558 75.5261 113.727 75.5261 113.895V116.016H74.9477ZM77.862 110.96V110.311H78.4404V110.96H77.862ZM77.862 116.016V111.767H78.4404V116.016H77.862ZM81.5281 116.134C81.1373 116.134 80.8068 116.036 80.5367 115.839C80.2665 115.64 80.0619 115.371 79.9229 115.032C79.7839 114.691 79.7143 114.31 79.7143 113.887C79.7143 113.457 79.7839 113.074 79.9229 112.739C80.0645 112.4 80.2717 112.134 80.5445 111.94C80.8173 111.746 81.1531 111.649 81.5518 111.649C81.94 111.649 82.2731 111.747 82.5511 111.944C82.8292 112.141 83.0416 112.408 83.1885 112.746C83.338 113.085 83.4128 113.465 83.4128 113.887C83.4128 114.312 83.338 114.694 83.1885 115.032C83.039 115.371 82.8239 115.64 82.5432 115.839C82.2626 116.036 81.9242 116.134 81.5281 116.134ZM79.616 117.905V111.767H80.1353V114.966H80.1983V117.905H79.616ZM81.4691 115.595C81.7655 115.595 82.0121 115.52 82.2088 115.371C82.4055 115.221 82.5524 115.018 82.6495 114.761C82.7492 114.501 82.799 114.21 82.799 113.887C82.799 113.567 82.7505 113.279 82.6534 113.022C82.5564 112.765 82.4082 112.562 82.2088 112.412C82.0121 112.263 81.7616 112.188 81.4573 112.188C81.1609 112.188 80.9144 112.26 80.7176 112.404C80.5235 112.548 80.378 112.749 80.2809 113.006C80.1839 113.261 80.1353 113.554 80.1353 113.887C80.1353 114.215 80.1839 114.509 80.2809 114.769C80.378 115.026 80.5248 115.228 80.7216 115.375C80.9183 115.522 81.1675 115.595 81.4691 115.595ZM86.5903 116.016C86.3516 116.066 86.1155 116.086 85.882 116.075C85.6512 116.065 85.444 116.015 85.2604 115.926C85.0794 115.836 84.9417 115.697 84.8473 115.509C84.7712 115.351 84.7292 115.192 84.7214 115.032C84.7161 114.87 84.7135 114.685 84.7135 114.478V110.586H85.2879V114.454C85.2879 114.632 85.2892 114.782 85.2919 114.903C85.2971 115.021 85.3247 115.126 85.3745 115.217C85.4689 115.393 85.6184 115.498 85.823 115.532C86.0302 115.566 86.286 115.558 86.5903 115.509V116.016ZM83.8046 112.263V111.767H86.5903V112.263H83.8046ZM87.5061 110.96V110.311H88.0845V110.96H87.5061ZM87.5061 116.016V111.767H88.0845V116.016H87.5061ZM91.0385 116.134C90.6162 116.134 90.2555 116.038 89.9565 115.847C89.6575 115.655 89.428 115.39 89.268 115.052C89.108 114.714 89.028 114.326 89.028 113.887C89.028 113.442 89.1093 113.051 89.2719 112.715C89.4345 112.379 89.6654 112.118 89.9644 111.932C90.266 111.743 90.6241 111.649 91.0385 111.649C91.4634 111.649 91.8254 111.744 92.1244 111.936C92.4261 112.125 92.6556 112.388 92.813 112.727C92.973 113.063 93.053 113.449 93.053 113.887C93.053 114.333 92.973 114.726 92.813 115.064C92.653 115.4 92.4221 115.662 92.1205 115.851C91.8189 116.04 91.4582 116.134 91.0385 116.134ZM91.0385 115.579C91.5107 115.579 91.8621 115.423 92.093 115.111C92.3238 114.796 92.4392 114.388 92.4392 113.887C92.4392 113.373 92.3225 112.964 92.089 112.66C91.8582 112.356 91.508 112.204 91.0385 112.204C90.7211 112.204 90.4588 112.276 90.2516 112.42C90.047 112.562 89.8936 112.76 89.7913 113.014C89.6916 113.266 89.6418 113.557 89.6418 113.887C89.6418 114.399 89.7598 114.809 89.9959 115.119C90.2319 115.426 90.5795 115.579 91.0385 115.579ZM96.9898 116.016V113.848C96.9898 113.612 96.9675 113.396 96.9229 113.199C96.8783 113 96.8062 112.826 96.7065 112.68C96.6095 112.53 96.4823 112.415 96.3249 112.333C96.1701 112.252 95.9813 112.211 95.7583 112.211C95.5537 112.211 95.3727 112.247 95.2154 112.318C95.0606 112.388 94.9294 112.491 94.8219 112.625C94.717 112.756 94.637 112.916 94.5819 113.105C94.5268 113.293 94.4993 113.508 94.4993 113.75L94.0901 113.659C94.0901 113.224 94.1662 112.858 94.3183 112.562C94.4704 112.265 94.6803 112.041 94.9478 111.889C95.2154 111.737 95.5222 111.661 95.8685 111.661C96.1229 111.661 96.3446 111.7 96.5334 111.779C96.7249 111.857 96.8862 111.964 97.0174 112.097C97.1511 112.231 97.2587 112.385 97.34 112.558C97.4213 112.728 97.4803 112.91 97.517 113.105C97.5538 113.296 97.5721 113.487 97.5721 113.679V116.016H96.9898ZM93.917 116.016V111.767H94.4403V112.813H94.4993V116.016H93.917Z" fill="black" fill-opacity="0.45"/>
<path d="M28.2877 70.77V65.6591H26.3087V65.1043H30.8451V65.6591H28.8661V70.77H28.2877ZM34.545 70.77V68.6021C34.545 68.366 34.5227 68.1496 34.4781 67.9529C34.4335 67.7536 34.3614 67.5805 34.2617 67.4336C34.1647 67.2841 34.0374 67.1686 33.8801 67.0873C33.7253 67.006 33.5364 66.9654 33.3135 66.9654C33.1089 66.9654 32.9279 67.0008 32.7705 67.0716C32.6158 67.1424 32.4846 67.2447 32.3771 67.3785C32.2722 67.5096 32.1922 67.6696 32.1371 67.8585C32.082 68.0473 32.0545 68.2624 32.0545 68.5037L31.6453 68.4133C31.6453 67.9778 31.7213 67.6119 31.8735 67.3155C32.0256 67.0191 32.2354 66.7949 32.503 66.6427C32.7705 66.4906 33.0774 66.4145 33.4237 66.4145C33.6781 66.4145 33.8997 66.4539 34.0886 66.5326C34.2801 66.6113 34.4414 66.7175 34.5725 66.8513C34.7063 66.985 34.8139 67.1385 34.8952 67.3116C34.9765 67.4821 35.0355 67.6644 35.0722 67.8585C35.1089 68.05 35.1273 68.2414 35.1273 68.4329V70.77H34.545ZM31.4721 70.77V65.1043H31.9954V68.3031H32.0545V70.77H31.4721ZM36.227 65.7142V65.065H36.8054V65.7142H36.227ZM36.227 70.77V66.5208H36.8054V70.77H36.227ZM39.5705 70.8841C39.0721 70.8841 38.6616 70.7766 38.339 70.5615C38.019 70.3464 37.8223 70.0474 37.7488 69.6644L38.339 69.5661C38.402 69.8074 38.5449 70.0002 38.7679 70.1444C38.9935 70.2861 39.2715 70.3569 39.602 70.3569C39.9246 70.3569 40.1791 70.29 40.3653 70.1562C40.5515 70.0198 40.6446 69.8349 40.6446 69.6015C40.6446 69.4703 40.6145 69.3641 40.5541 69.2828C40.4964 69.1988 40.3771 69.1215 40.1961 69.0506C40.0151 68.9798 39.7449 68.8959 39.3856 68.7988C39 68.6939 38.6984 68.589 38.4807 68.4841C38.263 68.3792 38.1082 68.2585 38.0164 68.1221C37.9246 67.9831 37.8787 67.8139 37.8787 67.6146C37.8787 67.3732 37.9469 67.1621 38.0833 66.9811C38.2197 66.7975 38.4085 66.6558 38.6498 66.5562C38.8912 66.4539 39.1718 66.4027 39.4918 66.4027C39.8118 66.4027 40.0977 66.4552 40.3495 66.5601C40.604 66.6624 40.8086 66.8067 40.9633 66.9929C41.1181 67.1791 41.2099 67.3955 41.2387 67.6421L40.6486 67.7483C40.6092 67.4991 40.4846 67.3024 40.2748 67.1581C40.0676 67.0113 39.804 66.9352 39.484 66.9299C39.1823 66.9221 38.9371 66.9798 38.7482 67.1031C38.5594 67.2237 38.4649 67.385 38.4649 67.587C38.4649 67.6998 38.499 67.7968 38.5672 67.8782C38.6354 67.9569 38.7587 68.0316 38.9371 68.1024C39.1181 68.1732 39.3751 68.2506 39.7082 68.3346C40.0991 68.4342 40.4059 68.5392 40.6289 68.6493C40.8519 68.7595 41.0105 68.8893 41.105 69.0388C41.1994 69.1884 41.2466 69.3733 41.2466 69.5936C41.2466 69.9949 41.0971 70.311 40.7981 70.5418C40.5017 70.77 40.0925 70.8841 39.5705 70.8841ZM43.7732 65.7142V65.065H44.3516V65.7142H43.7732ZM43.7732 70.77V66.5208H44.3516V70.77H43.7732ZM47.1168 70.8841C46.6184 70.8841 46.2079 70.7766 45.8853 70.5615C45.5653 70.3464 45.3685 70.0474 45.2951 69.6644L45.8853 69.5661C45.9482 69.8074 46.0912 70.0002 46.3141 70.1444C46.5397 70.2861 46.8177 70.3569 47.1482 70.3569C47.4709 70.3569 47.7253 70.29 47.9115 70.1562C48.0978 70.0198 48.1909 69.8349 48.1909 69.6015C48.1909 69.4703 48.1607 69.3641 48.1004 69.2828C48.0427 69.1988 47.9233 69.1215 47.7424 69.0506C47.5614 68.9798 47.2912 68.8959 46.9318 68.7988C46.5463 68.6939 46.2446 68.589 46.0269 68.4841C45.8092 68.3792 45.6544 68.2585 45.5626 68.1221C45.4708 67.9831 45.4249 67.8139 45.4249 67.6146C45.4249 67.3732 45.4931 67.1621 45.6295 66.9811C45.7659 66.7975 45.9548 66.6558 46.1961 66.5562C46.4374 66.4539 46.7181 66.4027 47.0381 66.4027C47.3581 66.4027 47.644 66.4552 47.8958 66.5601C48.1502 66.6624 48.3548 66.8067 48.5096 66.9929C48.6643 67.1791 48.7561 67.3955 48.785 67.6421L48.1948 67.7483C48.1555 67.4991 48.0309 67.3024 47.821 67.1581C47.6138 67.0113 47.3502 66.9352 47.0302 66.9299C46.7286 66.9221 46.4833 66.9798 46.2945 67.1031C46.1056 67.2237 46.0112 67.385 46.0112 67.587C46.0112 67.6998 46.0453 67.7968 46.1135 67.8782C46.1817 67.9569 46.3049 68.0316 46.4833 68.1024C46.6643 68.1732 46.9214 68.2506 47.2545 68.3346C47.6453 68.4342 47.9522 68.5392 48.1751 68.6493C48.3981 68.7595 48.5568 68.8893 48.6512 69.0388C48.7456 69.1884 48.7929 69.3733 48.7929 69.5936C48.7929 69.9949 48.6434 70.311 48.3443 70.5418C48.0479 70.77 47.6387 70.8841 47.1168 70.8841ZM52.4566 70.8881C52.1366 70.8881 51.8677 70.8303 51.65 70.7149C51.4349 70.5995 51.2736 70.4461 51.166 70.2546C51.0585 70.0631 51.0047 69.8546 51.0047 69.629C51.0047 69.3982 51.0506 69.2015 51.1424 69.0388C51.2369 68.8736 51.3641 68.7385 51.5241 68.6336C51.6867 68.5287 51.8743 68.4487 52.0867 68.3936C52.3018 68.3411 52.5392 68.2952 52.7989 68.2559C53.0612 68.2139 53.3169 68.1785 53.5661 68.1496C53.8179 68.1182 54.0382 68.088 54.2271 68.0591L54.0225 68.1851C54.0304 67.7654 53.949 67.4545 53.7786 67.2526C53.6081 67.0506 53.3117 66.9496 52.8894 66.9496C52.5982 66.9496 52.3516 67.0152 52.1497 67.1463C51.9503 67.2775 51.81 67.4847 51.7287 67.768L51.166 67.6027C51.2631 67.2224 51.4585 66.9273 51.7523 66.7175C52.0461 66.5076 52.4277 66.4027 52.8972 66.4027C53.2854 66.4027 53.6146 66.4762 53.8848 66.6231C54.1576 66.7673 54.3504 66.9772 54.4632 67.2526C54.5156 67.3759 54.5497 67.5136 54.5655 67.6657C54.5812 67.8178 54.5891 67.9726 54.5891 68.13V70.77H54.0736V69.7038L54.2231 69.7667C54.0789 70.1313 53.8546 70.4094 53.5503 70.6008C53.2461 70.7923 52.8815 70.8881 52.4566 70.8881ZM52.5234 70.3884C52.7936 70.3884 53.0297 70.3398 53.2317 70.2428C53.4336 70.1457 53.5963 70.0133 53.7195 69.8454C53.8428 69.6749 53.9228 69.4834 53.9595 69.271C53.991 69.1346 54.0081 68.9851 54.0107 68.8224C54.0133 68.6572 54.0146 68.5339 54.0146 68.4526L54.235 68.5667C54.0382 68.5929 53.8245 68.6192 53.5936 68.6454C53.3654 68.6716 53.1399 68.7018 52.9169 68.7359C52.6966 68.77 52.4972 68.8106 52.3189 68.8579C52.1982 68.892 52.0815 68.9405 51.9687 69.0034C51.8559 69.0638 51.7628 69.1451 51.6893 69.2474C51.6185 69.3497 51.5831 69.4769 51.5831 69.629C51.5831 69.7523 51.6133 69.8716 51.6736 69.9871C51.7365 70.1025 51.8362 70.1982 51.9726 70.2743C52.1116 70.3503 52.2952 70.3884 52.5234 70.3884ZM58.8372 70.8881C58.4411 70.8881 58.1028 70.7897 57.8221 70.593C57.5414 70.3936 57.3264 70.1248 57.1769 69.7864C57.0273 69.448 56.9526 69.0664 56.9526 68.6415C56.9526 68.2192 57.026 67.8388 57.1729 67.5004C57.3224 67.1621 57.5362 66.8945 57.8142 66.6978C58.0923 66.5011 58.4254 66.4027 58.8136 66.4027C59.2123 66.4027 59.548 66.4998 59.8208 66.6939C60.0936 66.888 60.2995 67.1542 60.4386 67.4926C60.5802 67.8283 60.651 68.2113 60.651 68.6415C60.651 69.0638 60.5815 69.4454 60.4425 69.7864C60.3035 70.1248 60.0989 70.3936 59.8287 70.593C59.5585 70.7897 59.228 70.8881 58.8372 70.8881ZM58.8962 70.349C59.1979 70.349 59.4471 70.2756 59.6438 70.1287C59.8405 69.9818 59.9874 69.7798 60.0844 69.5228C60.1815 69.2631 60.23 68.9693 60.23 68.6415C60.23 68.3083 60.1815 68.0146 60.0844 67.7601C59.9874 67.5031 59.8405 67.3024 59.6438 67.1581C59.4497 67.0139 59.2044 66.9418 58.908 66.9418C58.6038 66.9418 58.352 67.0165 58.1526 67.166C57.9533 67.3155 57.8051 67.5188 57.708 67.7759C57.6136 68.0329 57.5664 68.3214 57.5664 68.6415C57.5664 68.9641 57.6149 69.2552 57.7119 69.5149C57.8116 69.772 57.9598 69.9753 58.1565 70.1248C58.3533 70.2743 58.5998 70.349 58.8962 70.349ZM60.23 70.77V67.5713H60.1671V65.1043H60.7494V70.77H60.23ZM63.6513 70.8881C63.2368 70.8881 62.8775 70.7962 62.5732 70.6126C62.2716 70.429 62.0368 70.1707 61.8689 69.8375C61.7011 69.5044 61.6171 69.1136 61.6171 68.6651C61.6171 68.2008 61.6997 67.7995 61.865 67.4611C62.0302 67.1227 62.2624 66.8617 62.5614 66.6781C62.863 66.4945 63.2185 66.4027 63.6277 66.4027C64.0473 66.4027 64.4054 66.4998 64.7018 66.6939C64.9982 66.8854 65.2224 67.1608 65.3746 67.5201C65.5267 67.8795 65.5962 68.3083 65.5831 68.8067H64.9929V68.6021C64.9824 68.0513 64.8631 67.6355 64.6349 67.3549C64.4093 67.0742 64.0788 66.9339 63.6434 66.9339C63.187 66.9339 62.8368 67.0821 62.5929 67.3785C62.3516 67.6749 62.2309 68.0972 62.2309 68.6454C62.2309 69.1805 62.3516 69.5962 62.5929 69.8926C62.8368 70.1864 63.1817 70.3333 63.6277 70.3333C63.9319 70.3333 64.1968 70.2638 64.4224 70.1248C64.6506 69.9831 64.8303 69.7798 64.9614 69.5149L65.5005 69.7234C65.3326 70.0933 65.0847 70.3805 64.7569 70.5851C64.4316 70.7871 64.0631 70.8881 63.6513 70.8881ZM62.0263 68.8067V68.3228H65.2723V68.8067H62.0263ZM68.0419 70.8841C67.5435 70.8841 67.133 70.7766 66.8104 70.5615C66.4903 70.3464 66.2936 70.0474 66.2202 69.6644L66.8104 69.5661C66.8733 69.8074 67.0163 70.0002 67.2392 70.1444C67.4648 70.2861 67.7428 70.3569 68.0733 70.3569C68.396 70.3569 68.6504 70.29 68.8366 70.1562C69.0229 70.0198 69.116 69.8349 69.116 69.6015C69.116 69.4703 69.0858 69.3641 69.0255 69.2828C68.9678 69.1988 68.8484 69.1215 68.6674 69.0506C68.4865 68.9798 68.2163 68.8959 67.8569 68.7988C67.4713 68.6939 67.1697 68.589 66.952 68.4841C66.7343 68.3792 66.5795 68.2585 66.4877 68.1221C66.3959 67.9831 66.35 67.8139 66.35 67.6146C66.35 67.3732 66.4182 67.1621 66.5546 66.9811C66.691 66.7975 66.8799 66.6558 67.1212 66.5562C67.3625 66.4539 67.6432 66.4027 67.9632 66.4027C68.2832 66.4027 68.5691 66.4552 68.8209 66.5601C69.0753 66.6624 69.2799 66.8067 69.4347 66.9929C69.5894 67.1791 69.6812 67.3955 69.7101 67.6421L69.1199 67.7483C69.0806 67.4991 68.956 67.3024 68.7461 67.1581C68.5389 67.0113 68.2753 66.9352 67.9553 66.9299C67.6536 66.9221 67.4084 66.9798 67.2195 67.1031C67.0307 67.2237 66.9363 67.385 66.9363 67.587C66.9363 67.6998 66.9704 67.7968 67.0386 67.8782C67.1068 67.9569 67.23 68.0316 67.4084 68.1024C67.5894 68.1732 67.8464 68.2506 68.1796 68.3346C68.5704 68.4342 68.8773 68.5392 69.1002 68.6493C69.3232 68.7595 69.4819 68.8893 69.5763 69.0388C69.6707 69.1884 69.7179 69.3733 69.7179 69.5936C69.7179 69.9949 69.5684 70.311 69.2694 70.5418C68.973 70.77 68.5638 70.8841 68.0419 70.8841ZM72.3532 70.8881C71.9257 70.8881 71.5637 70.7923 71.2673 70.6008C70.9709 70.4094 70.7453 70.1457 70.5905 69.81C70.4384 69.4716 70.3597 69.0834 70.3545 68.6454C70.3597 68.1995 70.441 67.8087 70.5984 67.4729C70.7558 67.1345 70.9827 66.8722 71.2791 66.686C71.5755 66.4972 71.9348 66.4027 72.3571 66.4027C72.7873 66.4027 73.1611 66.5076 73.4785 66.7175C73.7985 66.9273 74.0175 67.2145 74.1355 67.5791L73.569 67.7601C73.4693 67.5057 73.3106 67.309 73.0929 67.17C72.8778 67.0283 72.6312 66.9575 72.3532 66.9575C72.0411 66.9575 71.7827 67.0296 71.5781 67.1739C71.3735 67.3155 71.2214 67.5136 71.1217 67.768C71.022 68.0224 70.9709 68.3149 70.9683 68.6454C70.9735 69.1543 71.0915 69.5634 71.3224 69.873C71.5532 70.1798 71.8968 70.3333 72.3532 70.3333C72.6417 70.3333 72.887 70.2677 73.089 70.1366C73.2935 70.0028 73.4483 69.8087 73.5532 69.5543L74.1355 69.7274C73.9781 70.1051 73.7473 70.3936 73.4431 70.593C73.1388 70.7897 72.7755 70.8881 72.3532 70.8881ZM74.9477 70.77V66.5208H75.467V67.5437L75.3648 67.41C75.412 67.2841 75.4736 67.1686 75.5497 67.0637C75.6257 66.9562 75.7084 66.8683 75.7975 66.8001C75.9077 66.7031 76.0362 66.6296 76.1831 66.5798C76.33 66.5273 76.4782 66.4972 76.6277 66.4893C76.7772 66.4788 76.9136 66.4893 77.0369 66.5208V67.0637C76.8822 67.0244 76.713 67.0152 76.5294 67.0362C76.3458 67.0572 76.1766 67.1306 76.0218 67.2565C75.8802 67.3667 75.7739 67.4991 75.7031 67.6539C75.6323 67.806 75.5851 67.9687 75.5615 68.1418C75.5379 68.3123 75.5261 68.4815 75.5261 68.6493V70.77H74.9477ZM77.862 65.7142V65.065H78.4404V65.7142H77.862ZM77.862 70.77V66.5208H78.4404V70.77H77.862ZM81.5281 70.8881C81.1373 70.8881 80.8068 70.7897 80.5367 70.593C80.2665 70.3936 80.0619 70.1248 79.9229 69.7864C79.7839 69.4454 79.7143 69.0638 79.7143 68.6415C79.7143 68.2113 79.7839 67.8283 79.9229 67.4926C80.0645 67.1542 80.2717 66.888 80.5445 66.6939C80.8173 66.4998 81.1531 66.4027 81.5518 66.4027C81.94 66.4027 82.2731 66.5011 82.5511 66.6978C82.8292 66.8945 83.0416 67.1621 83.1885 67.5004C83.338 67.8388 83.4128 68.2192 83.4128 68.6415C83.4128 69.0664 83.338 69.448 83.1885 69.7864C83.039 70.1248 82.8239 70.3936 82.5432 70.593C82.2626 70.7897 81.9242 70.8881 81.5281 70.8881ZM79.616 72.6586V66.5208H80.1353V69.7195H80.1983V72.6586H79.616ZM81.4691 70.349C81.7655 70.349 82.0121 70.2743 82.2088 70.1248C82.4055 69.9753 82.5524 69.772 82.6495 69.5149C82.7492 69.2552 82.799 68.9641 82.799 68.6415C82.799 68.3214 82.7505 68.0329 82.6534 67.7759C82.5564 67.5188 82.4082 67.3155 82.2088 67.166C82.0121 67.0165 81.7616 66.9418 81.4573 66.9418C81.1609 66.9418 80.9144 67.0139 80.7176 67.1581C80.5235 67.3024 80.378 67.5031 80.2809 67.7601C80.1839 68.0146 80.1353 68.3083 80.1353 68.6415C80.1353 68.9693 80.1839 69.2631 80.2809 69.5228C80.378 69.7798 80.5248 69.9818 80.7216 70.1287C80.9183 70.2756 81.1675 70.349 81.4691 70.349ZM86.5903 70.77C86.3516 70.8199 86.1155 70.8395 85.882 70.829C85.6512 70.8185 85.444 70.7687 85.2604 70.6795C85.0794 70.5903 84.9417 70.4513 84.8473 70.2625C84.7712 70.1051 84.7292 69.9464 84.7214 69.7864C84.7161 69.6238 84.7135 69.4388 84.7135 69.2316V65.3404H85.2879V69.208C85.2879 69.3864 85.2892 69.5359 85.2919 69.6566C85.2971 69.7746 85.3247 69.8795 85.3745 69.9713C85.4689 70.1471 85.6184 70.252 85.823 70.2861C86.0302 70.3202 86.286 70.3123 86.5903 70.2625V70.77ZM83.8046 67.0165V66.5208H86.5903V67.0165H83.8046ZM87.5061 65.7142V65.065H88.0845V65.7142H87.5061ZM87.5061 70.77V66.5208H88.0845V70.77H87.5061ZM91.0385 70.8881C90.6162 70.8881 90.2555 70.7923 89.9565 70.6008C89.6575 70.4094 89.428 70.1444 89.268 69.8061C89.108 69.4677 89.028 69.0795 89.028 68.6415C89.028 68.1955 89.1093 67.8047 89.2719 67.469C89.4345 67.1332 89.6654 66.8722 89.9644 66.686C90.266 66.4972 90.6241 66.4027 91.0385 66.4027C91.4634 66.4027 91.8254 66.4985 92.1244 66.6899C92.4261 66.8788 92.6556 67.1424 92.813 67.4808C92.973 67.8165 93.053 68.2034 93.053 68.6415C93.053 69.0874 92.973 69.4795 92.813 69.8179C92.653 70.1536 92.4221 70.4159 92.1205 70.6048C91.8189 70.7936 91.4582 70.8881 91.0385 70.8881ZM91.0385 70.3333C91.5107 70.3333 91.8621 70.1772 92.093 69.8651C92.3238 69.5503 92.4392 69.1424 92.4392 68.6415C92.4392 68.1273 92.3225 67.7182 92.089 67.4139C91.8582 67.1096 91.508 66.9575 91.0385 66.9575C90.7211 66.9575 90.4588 67.0296 90.2516 67.1739C90.047 67.3155 89.8936 67.5136 89.7913 67.768C89.6916 68.0198 89.6418 68.311 89.6418 68.6415C89.6418 69.1529 89.7598 69.5634 89.9959 69.873C90.2319 70.1798 90.5795 70.3333 91.0385 70.3333ZM96.9898 70.77V68.6021C96.9898 68.366 96.9675 68.1496 96.9229 67.9529C96.8783 67.7536 96.8062 67.5805 96.7065 67.4336C96.6095 67.2841 96.4823 67.1686 96.3249 67.0873C96.1701 67.006 95.9813 66.9654 95.7583 66.9654C95.5537 66.9654 95.3727 67.0008 95.2154 67.0716C95.0606 67.1424 94.9294 67.2447 94.8219 67.3785C94.717 67.5096 94.637 67.6696 94.5819 67.8585C94.5268 68.0473 94.4993 68.2624 94.4993 68.5037L94.0901 68.4133C94.0901 67.9778 94.1662 67.6119 94.3183 67.3155C94.4704 67.0191 94.6803 66.7949 94.9478 66.6427C95.2154 66.4906 95.5222 66.4145 95.8685 66.4145C96.1229 66.4145 96.3446 66.4539 96.5334 66.5326C96.7249 66.6113 96.8862 66.7175 97.0174 66.8513C97.1511 66.985 97.2587 67.1385 97.34 67.3116C97.4213 67.4821 97.4803 67.6644 97.517 67.8585C97.5538 68.05 97.5721 68.2414 97.5721 68.4329V70.77H96.9898ZM93.917 70.77V66.5208H94.4403V67.5673H94.4993V70.77H93.917Z" fill="black" fill-opacity="0.45"/>
<path d="M26.9644 56.722V50.1124H27.6391V56.722H26.9644ZM32.5954 56.722V54.193C32.5954 53.9176 32.5694 53.6651 32.5173 53.4356C32.4653 53.203 32.3812 53.0011 32.2649 52.8297C32.1517 52.6553 32.0033 52.5207 31.8197 52.4258C31.6391 52.3309 31.4188 52.2835 31.1587 52.2835C30.92 52.2835 30.7089 52.3248 30.5253 52.4074C30.3447 52.4901 30.1917 52.6094 30.0663 52.7655C29.9439 52.9185 29.8506 53.1051 29.7863 53.3254C29.722 53.5458 29.6899 53.7967 29.6899 54.0782L29.2125 53.9726C29.2125 53.4647 29.3013 53.0378 29.4788 52.692C29.6562 52.3462 29.901 52.0846 30.2132 51.9071C30.5253 51.7297 30.8833 51.6409 31.2872 51.6409C31.584 51.6409 31.8426 51.6868 32.0629 51.7786C32.2863 51.8704 32.4745 51.9943 32.6275 52.1504C32.7836 52.3065 32.909 52.4855 33.0039 52.6874C33.0987 52.8863 33.1676 53.099 33.2104 53.3254C33.2533 53.5488 33.2747 53.7722 33.2747 53.9956V56.722H32.5954ZM29.0106 56.722V51.7648H29.6211V52.9858H29.6899V56.722H29.0106ZM36.3036 56.722V50.1124H38.8556C38.9199 50.1124 38.9918 50.1155 39.0714 50.1216C39.154 50.1247 39.2366 50.1339 39.3192 50.1492C39.665 50.2012 39.9572 50.3221 40.1959 50.5118C40.4377 50.6984 40.6197 50.9341 40.7421 51.2186C40.8676 51.5032 40.9303 51.8184 40.9303 52.1642C40.9303 52.5069 40.8676 52.8205 40.7421 53.1051C40.6167 53.3897 40.4331 53.6269 40.1913 53.8166C39.9526 54.0032 39.6619 54.1226 39.3192 54.1746C39.2366 54.1868 39.154 54.196 39.0714 54.2021C38.9918 54.2083 38.9199 54.2113 38.8556 54.2113H36.9783V56.722H36.3036ZM36.9783 53.5687H38.8373C38.8924 53.5687 38.9566 53.5657 39.0301 53.5595C39.1035 53.5534 39.1754 53.5427 39.2458 53.5274C39.4722 53.4784 39.6574 53.3851 39.8012 53.2474C39.9481 53.1097 40.0567 52.946 40.1271 52.7563C40.2005 52.5666 40.2372 52.3692 40.2372 52.1642C40.2372 51.9592 40.2005 51.7618 40.1271 51.5721C40.0567 51.3793 39.9481 51.214 39.8012 51.0763C39.6574 50.9386 39.4722 50.8453 39.2458 50.7964C39.1754 50.7811 39.1035 50.7719 39.0301 50.7688C38.9566 50.7627 38.8924 50.7596 38.8373 50.7596H36.9783V53.5687ZM41.8439 56.722V51.7648H42.4498V52.9582L42.3304 52.8022C42.3855 52.6553 42.4574 52.5207 42.5461 52.3983C42.6349 52.2728 42.7313 52.1703 42.8353 52.0907C42.9638 51.9775 43.1138 51.8918 43.2851 51.8337C43.4565 51.7725 43.6294 51.7373 43.8038 51.7281C43.9782 51.7159 44.1373 51.7281 44.2812 51.7648V52.3983C44.1006 52.3524 43.9033 52.3417 43.6891 52.3661C43.4749 52.3906 43.2775 52.4763 43.0969 52.6232C42.9317 52.7517 42.8078 52.9062 42.7252 53.0868C42.6425 53.2642 42.5875 53.454 42.5599 53.6559C42.5324 53.8548 42.5186 54.0522 42.5186 54.248V56.722H41.8439ZM47.1323 56.8597C46.6397 56.8597 46.2189 56.7481 45.8701 56.5247C45.5212 56.3013 45.2535 55.9922 45.0668 55.5975C44.8802 55.2028 44.7868 54.7499 44.7868 54.2389C44.7868 53.7187 44.8817 53.2627 45.0714 52.871C45.2611 52.4794 45.5304 52.1749 45.8793 51.9576C46.2312 51.7373 46.6489 51.6271 47.1323 51.6271C47.6281 51.6271 48.0503 51.7388 48.3992 51.9622C48.7511 52.1825 49.0188 52.4901 49.2024 52.8848C49.3891 53.2765 49.4824 53.7278 49.4824 54.2389C49.4824 54.7591 49.3891 55.2165 49.2024 55.6113C49.0158 56.0029 48.7465 56.3089 48.3946 56.5293C48.0427 56.7496 47.6219 56.8597 47.1323 56.8597ZM47.1323 56.2126C47.6831 56.2126 48.0932 56.0305 48.3625 55.6663C48.6317 55.2991 48.7664 54.8233 48.7664 54.2389C48.7664 53.6391 48.6302 53.1617 48.3579 52.8068C48.0886 52.4518 47.6801 52.2743 47.1323 52.2743C46.7621 52.2743 46.4561 52.3585 46.2143 52.5268C45.9757 52.692 45.7966 52.9231 45.6773 53.2199C45.561 53.5136 45.5029 53.8533 45.5029 54.2389C45.5029 54.8356 45.6406 55.3144 45.916 55.6755C46.1914 56.0335 46.5968 56.2126 47.1323 56.2126ZM52.4641 59.0629C52.2101 59.0629 51.9592 59.0247 51.7113 58.9482C51.4665 58.8748 51.2401 58.7569 51.032 58.5948C50.8239 58.4356 50.6495 58.2276 50.5087 57.9705L51.1192 57.6309C51.2569 57.9063 51.4497 58.1036 51.6975 58.223C51.9484 58.3454 52.204 58.4066 52.4641 58.4066C52.8221 58.4066 53.1112 58.3393 53.3316 58.2046C53.5549 58.073 53.7171 57.8772 53.8181 57.6171C53.9191 57.357 53.968 57.0326 53.965 56.644V55.3221H54.043V51.7648H54.6443V56.6532C54.6443 56.794 54.6397 56.9286 54.6305 57.0571C54.6244 57.1887 54.6106 57.3172 54.5892 57.4427C54.5311 57.8129 54.4102 58.1174 54.2266 58.3561C54.0461 58.5948 53.8074 58.7722 53.5106 58.8885C53.2168 59.0048 52.868 59.0629 52.4641 59.0629ZM52.4182 56.8597C51.9561 56.8597 51.5614 56.745 51.2339 56.5155C50.9065 56.2829 50.6556 55.9693 50.4812 55.5745C50.3068 55.1798 50.2195 54.7346 50.2195 54.2389C50.2195 53.7462 50.3052 53.3025 50.4766 52.9078C50.651 52.513 50.9004 52.2009 51.2248 51.9714C51.5491 51.7419 51.9377 51.6271 52.3906 51.6271C52.8557 51.6271 53.2474 51.7404 53.5657 51.9668C53.8839 52.1932 54.1241 52.5038 54.2863 52.8986C54.4515 53.2903 54.5341 53.737 54.5341 54.2389C54.5341 54.7315 54.4531 55.1767 54.2909 55.5745C54.1287 55.9693 53.89 56.2829 53.5748 56.5155C53.2597 56.745 52.8741 56.8597 52.4182 56.8597ZM52.487 56.2309C52.8389 56.2309 53.1296 56.1452 53.3591 55.9739C53.5886 55.8025 53.76 55.5669 53.8732 55.267C53.9864 54.9641 54.043 54.6214 54.043 54.2389C54.043 53.8502 53.9864 53.5075 53.8732 53.2107C53.76 52.9108 53.5886 52.6767 53.3591 52.5084C53.1327 52.3401 52.8466 52.256 52.5008 52.256C52.1458 52.256 51.8521 52.3432 51.6195 52.5176C51.3869 52.692 51.214 52.9292 51.1008 53.2291C50.9907 53.5289 50.9356 53.8655 50.9356 54.2389C50.9356 54.6152 50.9922 54.9549 51.1054 55.2578C51.2217 55.5577 51.3946 55.7949 51.6241 55.9693C51.8536 56.1437 52.1412 56.2309 52.487 56.2309ZM55.9276 56.722V51.7648H56.5335V52.9582L56.4142 52.8022C56.4693 52.6553 56.5412 52.5207 56.6299 52.3983C56.7187 52.2728 56.815 52.1703 56.9191 52.0907C57.0476 51.9775 57.1975 51.8918 57.3689 51.8337C57.5403 51.7725 57.7132 51.7373 57.8876 51.7281C58.062 51.7159 58.2211 51.7281 58.3649 51.7648V52.3983C58.1844 52.3524 57.987 52.3417 57.7728 52.3661C57.5586 52.3906 57.3613 52.4763 57.1807 52.6232C57.0155 52.7517 56.8915 52.9062 56.8089 53.0868C56.7263 53.2642 56.6712 53.454 56.6437 53.6559C56.6161 53.8548 56.6024 54.0522 56.6024 54.248V56.722H55.9276ZM61.2436 56.8597C60.7602 56.8597 60.3409 56.7526 59.986 56.5384C59.6341 56.3242 59.3602 56.0228 59.1644 55.6342C58.9685 55.2456 58.8706 54.7897 58.8706 54.2664C58.8706 53.7248 58.967 53.2566 59.1598 52.8619C59.3526 52.4671 59.6234 52.1626 59.9722 51.9484C60.3241 51.7342 60.7387 51.6271 61.2161 51.6271C61.7057 51.6271 62.1234 51.7404 62.4692 51.9668C62.815 52.1902 63.0766 52.5115 63.2541 52.9307C63.4315 53.3499 63.5126 53.8502 63.4973 54.4316H62.8088V54.193C62.7966 53.5504 62.6574 53.0653 62.3911 52.7379C62.128 52.4105 61.7424 52.2468 61.2345 52.2468C60.702 52.2468 60.2935 52.4197 60.0089 52.7655C59.7274 53.1112 59.5867 53.6039 59.5867 54.2434C59.5867 54.8677 59.7274 55.3527 60.0089 55.6985C60.2935 56.0412 60.6959 56.2126 61.2161 56.2126C61.5711 56.2126 61.8801 56.1315 62.1433 55.9693C62.4095 55.804 62.6191 55.5669 62.7721 55.2578L63.4009 55.5011C63.2051 55.9326 62.9159 56.2676 62.5334 56.5063C62.154 56.7419 61.7241 56.8597 61.2436 56.8597ZM59.348 54.4316V53.8671H63.1347V54.4316H59.348ZM66.3657 56.8552C65.7843 56.8552 65.3054 56.7297 64.9291 56.4788C64.5557 56.2279 64.3262 55.879 64.2406 55.4323L64.9291 55.3175C65.0025 55.599 65.1693 55.8239 65.4294 55.9922C65.6925 56.1575 66.0169 56.2401 66.4024 56.2401C66.7788 56.2401 67.0756 56.1621 67.2929 56.006C67.5102 55.8469 67.6188 55.6312 67.6188 55.3588C67.6188 55.2058 67.5836 55.0819 67.5132 54.987C67.4459 54.8891 67.3067 54.7988 67.0955 54.7162C66.8844 54.6336 66.5692 54.5357 66.15 54.4225C65.7002 54.3001 65.3483 54.1777 65.0943 54.0553C64.8403 53.9329 64.6598 53.7921 64.5527 53.633C64.4456 53.4708 64.392 53.2734 64.392 53.0409C64.392 52.7593 64.4716 52.513 64.6307 52.3019C64.7898 52.0877 65.0101 51.9224 65.2917 51.8062C65.5732 51.6868 65.9006 51.6271 66.2739 51.6271C66.6472 51.6271 66.9808 51.6883 67.2746 51.8107C67.5714 51.9301 67.8101 52.0984 67.9906 52.3156C68.1711 52.5329 68.2782 52.7854 68.3119 53.073L67.6234 53.1969C67.5775 52.9062 67.4321 52.6767 67.1873 52.5084C66.9456 52.3371 66.6381 52.2483 66.2647 52.2422C65.9128 52.233 65.6267 52.3003 65.4064 52.4442C65.1861 52.5849 65.0759 52.7731 65.0759 53.0087C65.0759 53.1403 65.1157 53.2535 65.1953 53.3484C65.2748 53.4402 65.4187 53.5274 65.6267 53.61C65.8379 53.6926 66.1378 53.7829 66.5264 53.8808C66.9823 53.9971 67.3403 54.1195 67.6004 54.248C67.8605 54.3766 68.0457 54.528 68.1558 54.7024C68.266 54.8769 68.3211 55.0926 68.3211 55.3496C68.3211 55.8178 68.1466 56.1865 67.7978 56.4558C67.452 56.722 66.9747 56.8552 66.3657 56.8552ZM71.1888 56.8552C70.6074 56.8552 70.1285 56.7297 69.7521 56.4788C69.3788 56.2279 69.1493 55.879 69.0636 55.4323L69.7521 55.3175C69.8256 55.599 69.9924 55.8239 70.2525 55.9922C70.5156 56.1575 70.84 56.2401 71.2255 56.2401C71.6019 56.2401 71.8987 56.1621 72.116 56.006C72.3333 55.8469 72.4419 55.6312 72.4419 55.3588C72.4419 55.2058 72.4067 55.0819 72.3363 54.987C72.269 54.8891 72.1298 54.7988 71.9186 54.7162C71.7075 54.6336 71.3923 54.5357 70.9731 54.4225C70.5233 54.3001 70.1714 54.1777 69.9174 54.0553C69.6634 53.9329 69.4829 53.7921 69.3758 53.633C69.2687 53.4708 69.2151 53.2734 69.2151 53.0409C69.2151 52.7593 69.2947 52.513 69.4538 52.3019C69.6129 52.0877 69.8332 51.9224 70.1148 51.8062C70.3963 51.6868 70.7237 51.6271 71.097 51.6271C71.4703 51.6271 71.8039 51.6883 72.0976 51.8107C72.3945 51.9301 72.6331 52.0984 72.8137 52.3156C72.9942 52.5329 73.1013 52.7854 73.135 53.073L72.4465 53.1969C72.4006 52.9062 72.2552 52.6767 72.0104 52.5084C71.7687 52.3371 71.4612 52.2483 71.0878 52.2422C70.7359 52.233 70.4498 52.3003 70.2295 52.4442C70.0092 52.5849 69.899 52.7731 69.899 53.0087C69.899 53.1403 69.9388 53.2535 70.0184 53.3484C70.0979 53.4402 70.2417 53.5274 70.4498 53.61C70.661 53.6926 70.9608 53.7829 71.3495 53.8808C71.8054 53.9971 72.1634 54.1195 72.4235 54.248C72.6836 54.3766 72.8688 54.528 72.9789 54.7024C73.0891 54.8769 73.1442 55.0926 73.1442 55.3496C73.1442 55.8178 72.9697 56.1865 72.6209 56.4558C72.2751 56.722 71.7978 56.8552 71.1888 56.8552Z" fill="black" fill-opacity="0.85"/>
<path fill-rule="evenodd" clip-rule="evenodd" d="M7.86914 64.918H8.86914V86.557H7.86914V64.918Z" fill="black" fill-opacity="0.15"/>
<path d="M7.869 60.984C12.2149 60.984 15.738 57.461 15.738 53.115C15.738 48.7691 12.2149 45.246 7.869 45.246C3.52307 45.246 0 48.7691 0 53.115C0 57.461 3.52307 60.984 7.869 60.984Z" fill="#0010F7"/>
<path d="M5.90187 56.7175L5.90646 56.1024L8.89455 53.4035C9.15159 53.1709 9.32142 52.9506 9.40404 52.7425C9.48972 52.5314 9.53256 52.3111 9.53256 52.0816C9.53256 51.8092 9.4683 51.5629 9.33978 51.3426C9.21126 51.1222 9.03837 50.9478 8.82111 50.8193C8.60385 50.6877 8.36058 50.6219 8.0913 50.6219C7.80978 50.6219 7.55886 50.6893 7.33854 50.8239C7.11822 50.9585 6.9438 51.136 6.81528 51.3563C6.68982 51.5767 6.62862 51.8169 6.63168 52.077H5.94318C5.94318 51.6761 6.03804 51.3166 6.22776 50.9983C6.41748 50.6801 6.67452 50.4307 6.99888 50.2501C7.32324 50.0665 7.69044 49.9747 8.10048 49.9747C8.50134 49.9747 8.86089 50.0696 9.17913 50.2593C9.50043 50.446 9.75288 50.7 9.93648 51.0213C10.1231 51.3395 10.2165 51.6945 10.2165 52.0861C10.2165 52.3615 10.1828 52.6048 10.1155 52.816C10.0512 53.024 9.94872 53.2183 9.80796 53.3989C9.67026 53.5764 9.49431 53.76 9.28011 53.9497L6.62709 56.3457L6.52152 56.0703H10.2165V56.7175H5.90187Z" fill="white"/>
<path d="M26.8726 11.476V4.86641H30.6685V5.54114H27.5473V7.83614H30.1177V8.50628H27.5473V11.476H26.8726ZM31.5902 5.57786V4.82051H32.265V5.57786H31.5902ZM31.5902 11.476V6.51881H32.265V11.476H31.5902ZM37.2212 11.476V8.94692C37.2212 8.67152 37.1952 8.41907 37.1432 8.18957C37.0912 7.95701 37.007 7.75505 36.8908 7.58369C36.7775 7.40927 36.6291 7.27463 36.4455 7.17977C36.265 7.08491 36.0447 7.03748 35.7846 7.03748C35.5459 7.03748 35.3347 7.07879 35.1511 7.16141C34.9706 7.24403 34.8176 7.36337 34.6921 7.51943C34.5697 7.67243 34.4764 7.85909 34.4122 8.07941C34.3479 8.29973 34.3158 8.55065 34.3158 8.83217L33.8384 8.7266C33.8384 8.21864 33.9271 7.79177 34.1046 7.44599C34.2821 7.10021 34.5269 6.83858 34.839 6.6611C35.1511 6.48362 35.5092 6.39488 35.9131 6.39488C36.2099 6.39488 36.4685 6.44078 36.6888 6.53258C36.9122 6.62438 37.1004 6.74831 37.2534 6.90437C37.4094 7.06043 37.5349 7.23944 37.6297 7.4414C37.7246 7.6403 37.7935 7.85297 37.8363 8.07941C37.8791 8.30279 37.9006 8.52617 37.9006 8.74955V11.476H37.2212ZM33.6364 11.476V6.51881H34.2469V7.73975H34.3158V11.476H33.6364ZM39.1835 5.57786V4.82051H39.8582V5.57786H39.1835ZM39.1835 11.476V6.51881H39.8582V11.476H39.1835ZM43.084 11.6091C42.5026 11.6091 42.0237 11.4837 41.6474 11.2327C41.274 10.9818 41.0445 10.633 40.9589 10.1862L41.6474 10.0715C41.7208 10.353 41.8876 10.5779 42.1477 10.7462C42.4108 10.9114 42.7352 10.9941 43.1208 10.9941C43.4971 10.9941 43.794 10.916 44.0112 10.76C44.2285 10.6009 44.3371 10.3851 44.3371 10.1128C44.3371 9.95978 44.3019 9.83585 44.2315 9.74099C44.1642 9.64307 44.025 9.5528 43.8138 9.47018C43.6027 9.38756 43.2875 9.28964 42.8683 9.17642C42.4185 9.05402 42.0666 8.93162 41.8126 8.80922C41.5586 8.68682 41.3781 8.54606 41.271 8.38694C41.1639 8.22476 41.1103 8.02739 41.1103 7.79483C41.1103 7.51331 41.1899 7.26698 41.349 7.05584C41.5081 6.84164 41.7285 6.6764 42.01 6.56012C42.2915 6.44078 42.6189 6.38111 42.9922 6.38111C43.3656 6.38111 43.6991 6.44231 43.9929 6.56471C44.2897 6.68405 44.5284 6.85235 44.7089 7.06961C44.8894 7.28687 44.9965 7.53932 45.0302 7.82696L44.3417 7.95089C44.2958 7.66019 44.1504 7.43069 43.9056 7.26239C43.6639 7.09103 43.3564 7.00229 42.9831 6.99617C42.6312 6.98699 42.345 7.05431 42.1247 7.19813C41.9044 7.33889 41.7942 7.52708 41.7942 7.7627C41.7942 7.89428 41.834 8.0075 41.9136 8.10236C41.9931 8.19416 42.137 8.28137 42.345 8.36399C42.5562 8.44661 42.8561 8.53688 43.2447 8.6348C43.7006 8.75108 44.0586 8.87348 44.3187 9.002C44.5788 9.13052 44.764 9.28199 44.8741 9.45641C44.9843 9.63083 45.0394 9.84656 45.0394 10.1036C45.0394 10.5718 44.865 10.9405 44.5161 11.2098C44.1703 11.476 43.693 11.6091 43.084 11.6091ZM49.6375 11.476V8.94692C49.6375 8.67152 49.6115 8.41907 49.5595 8.18957C49.5075 7.95701 49.4233 7.75505 49.3071 7.58369C49.1938 7.40927 49.0454 7.27463 48.8618 7.17977C48.6813 7.08491 48.461 7.03748 48.2009 7.03748C47.9622 7.03748 47.7511 7.07879 47.5675 7.16141C47.3869 7.24403 47.2339 7.36337 47.1085 7.51943C46.9861 7.67243 46.8927 7.85909 46.8285 8.07941C46.7642 8.29973 46.7321 8.55065 46.7321 8.83217L46.2547 8.7266C46.2547 8.21864 46.3435 7.79177 46.5209 7.44599C46.6984 7.10021 46.9432 6.83858 47.2553 6.6611C47.5675 6.48362 47.9255 6.39488 48.3294 6.39488C48.6262 6.39488 48.8848 6.44078 49.1051 6.53258C49.3285 6.62438 49.5167 6.74831 49.6697 6.90437C49.8257 7.06043 49.9512 7.23944 50.0461 7.4414C50.1409 7.6403 50.2098 7.85297 50.2526 8.07941C50.2954 8.30279 50.3169 8.52617 50.3169 8.74955V11.476H49.6375ZM46.0528 11.476V4.86641H46.6632V8.59808H46.7321V11.476H46.0528ZM53.6056 11.6137C53.1221 11.6137 52.7029 11.5066 52.3479 11.2924C51.996 11.0782 51.7222 10.7768 51.5263 10.3882C51.3305 9.99956 51.2326 9.54362 51.2326 9.02036C51.2326 8.47874 51.329 8.01056 51.5217 7.61582C51.7145 7.22108 51.9853 6.91661 52.3342 6.70241C52.6861 6.48821 53.1007 6.38111 53.5781 6.38111C54.0677 6.38111 54.4854 6.49433 54.8311 6.72077C55.1769 6.94415 55.4385 7.26545 55.616 7.68467C55.7935 8.10389 55.8746 8.6042 55.8593 9.1856H55.1708V8.94692C55.1586 8.30432 55.0193 7.81931 54.7531 7.49189C54.4899 7.16447 54.1044 7.00076 53.5964 7.00076C53.064 7.00076 52.6555 7.17365 52.3709 7.51943C52.0894 7.86521 51.9486 8.35787 51.9486 8.99741C51.9486 9.62165 52.0894 10.1067 52.3709 10.4524C52.6555 10.7952 53.0579 10.9665 53.5781 10.9665C53.933 10.9665 54.2421 10.8854 54.5052 10.7233C54.7715 10.558 54.9811 10.3209 55.1341 10.0118L55.7629 10.2551C55.5671 10.6865 55.2779 11.0216 54.8954 11.2603C54.516 11.4959 54.086 11.6137 53.6056 11.6137ZM51.7099 9.1856V8.62103H55.4967V9.1856H51.7099ZM58.8011 11.6137C58.3391 11.6137 57.9443 11.499 57.6169 11.2695C57.2895 11.0369 57.0386 10.7233 56.8641 10.3285C56.6897 9.93377 56.6025 9.48854 56.6025 8.99282C56.6025 8.50016 56.6882 8.05646 56.8596 7.66172C57.034 7.26698 57.2834 6.95486 57.6077 6.72536C57.9321 6.49586 58.3207 6.38111 58.7736 6.38111C59.2387 6.38111 59.6304 6.49433 59.9486 6.72077C60.2669 6.94721 60.5071 7.2578 60.6693 7.65254C60.8345 8.04422 60.9171 8.49098 60.9171 8.99282C60.9171 9.48548 60.836 9.93071 60.6738 10.3285C60.5117 10.7233 60.273 11.0369 59.9578 11.2695C59.6426 11.499 59.2571 11.6137 58.8011 11.6137ZM58.87 10.9849C59.2219 10.9849 59.5126 10.8992 59.7421 10.7278C59.9716 10.5565 60.1429 10.3209 60.2562 10.021C60.3694 9.71804 60.426 9.37532 60.426 8.99282C60.426 8.6042 60.3694 8.26148 60.2562 7.96466C60.1429 7.66478 59.9716 7.43069 59.7421 7.26239C59.5156 7.09409 59.2295 7.00994 58.8837 7.00994C58.5288 7.00994 58.235 7.09715 58.0025 7.27157C57.7699 7.44599 57.597 7.68314 57.4838 7.98302C57.3736 8.2829 57.3186 8.6195 57.3186 8.99282C57.3186 9.3692 57.3752 9.70886 57.4884 10.0118C57.6047 10.3117 57.7776 10.5488 58.0071 10.7233C58.2366 10.8977 58.5242 10.9849 58.87 10.9849ZM60.426 11.476V7.74434H60.3525V4.86641H61.0319V11.476H60.426Z" fill="black" fill-opacity="0.65"/>
<path fill-rule="evenodd" clip-rule="evenodd" d="M7.86914 19.6721H8.86914V41.3111H7.86914V19.6721Z" fill="#0010F7"/>
<path fill-rule="evenodd" clip-rule="evenodd" d="M7.86915 0.328029C6.87869 0.326796 5.89775 0.521316 4.9827 0.900411C4.06766 1.27951 3.23655 1.8357 2.53715 2.53703C1.83564 3.23635 1.27927 4.06741 0.899997 4.98246C0.520729 5.89751 0.326051 6.8785 0.327153 7.86903C0.327153 9.95103 1.17215 11.836 2.53715 13.201C3.23655 13.9024 4.06766 14.4586 4.9827 14.8376C5.89775 15.2167 6.87869 15.4113 7.86915 15.41C8.85952 15.411 9.84031 15.2163 10.7552 14.837C11.6701 14.4577 12.501 13.9014 13.2002 13.2C13.9014 12.5009 14.4577 11.6702 14.8369 10.7555C15.2162 9.84083 15.411 8.86023 15.4102 7.87003C15.4114 6.87933 15.2168 5.89815 14.8375 4.98292C14.4582 4.06769 13.9018 3.23646 13.2002 2.53703C12.5011 1.83576 11.6703 1.27952 10.7556 0.900257C9.84096 0.520996 8.86035 0.32619 7.87015 0.327029L7.86915 0.328029Z" stroke="#0010F7" stroke-width="0.656"/>
<path fill-rule="evenodd" clip-rule="evenodd" d="M11.193 5.25001C11.229 5.28229 11.2583 5.32136 11.2792 5.36498C11.3001 5.4086 11.3122 5.45591 11.3148 5.5042C11.3174 5.5525 11.3105 5.60083 11.2944 5.64644C11.2783 5.69205 11.2533 5.73404 11.221 5.77001L6.821 10.656C6.76779 10.7158 6.69651 10.7565 6.618 10.772L6.598 10.774C6.53653 10.7855 6.47314 10.7809 6.41394 10.7608C6.35473 10.7406 6.30172 10.7056 6.26 10.659L4.522 8.73001C4.48855 8.69414 4.46259 8.65197 4.44563 8.60595C4.42866 8.55993 4.42104 8.511 4.42321 8.462C4.42538 8.413 4.4373 8.36493 4.45826 8.3206C4.47923 8.27626 4.50882 8.23654 4.54531 8.20378C4.5818 8.17101 4.62445 8.14584 4.67078 8.12975C4.71711 8.11366 4.76618 8.10697 4.81513 8.11006C4.86408 8.11315 4.91192 8.12597 4.95585 8.14777C4.99978 8.16957 5.03893 8.1999 5.071 8.23701L6.539 9.86701L10.672 5.27701C10.7375 5.20436 10.8292 5.16071 10.9269 5.15565C11.0246 5.15058 11.1203 5.18452 11.193 5.25001Z" fill="#0010F7"/>
<path d="M28.2877 25.524V20.4131H26.3087V19.8584H30.8451V20.4131H28.8661V25.524H28.2877ZM34.545 25.524V23.3561C34.545 23.1201 34.5227 22.9037 34.4781 22.7069C34.4335 22.5076 34.3614 22.3345 34.2617 22.1876C34.1647 22.0381 34.0374 21.9227 33.8801 21.8414C33.7253 21.76 33.5364 21.7194 33.3135 21.7194C33.1089 21.7194 32.9279 21.7548 32.7705 21.8256C32.6158 21.8964 32.4846 21.9987 32.3771 22.1325C32.2722 22.2637 32.1922 22.4237 32.1371 22.6125C32.082 22.8014 32.0545 23.0165 32.0545 23.2578L31.6453 23.1673C31.6453 22.7319 31.7213 22.366 31.8735 22.0696C32.0256 21.7732 32.2354 21.5489 32.503 21.3968C32.7705 21.2446 33.0774 21.1686 33.4237 21.1686C33.6781 21.1686 33.8997 21.2079 34.0886 21.2866C34.2801 21.3653 34.4414 21.4715 34.5725 21.6053C34.7063 21.7391 34.8139 21.8925 34.8952 22.0656C34.9765 22.2361 35.0355 22.4184 35.0722 22.6125C35.1089 22.804 35.1273 22.9955 35.1273 23.187V25.524H34.545ZM31.4721 25.524V19.8584H31.9954V23.0571H32.0545V25.524H31.4721ZM36.227 20.4682V19.819H36.8054V20.4682H36.227ZM36.227 25.524V21.2748H36.8054V25.524H36.227ZM39.5705 25.6381C39.0721 25.6381 38.6616 25.5306 38.339 25.3155C38.019 25.1004 37.8223 24.8014 37.7488 24.4185L38.339 24.3201C38.402 24.5614 38.5449 24.7542 38.7679 24.8985C38.9935 25.0401 39.2715 25.1109 39.602 25.1109C39.9246 25.1109 40.1791 25.044 40.3653 24.9103C40.5515 24.7739 40.6446 24.5889 40.6446 24.3555C40.6446 24.2244 40.6145 24.1181 40.5541 24.0368C40.4964 23.9529 40.3771 23.8755 40.1961 23.8047C40.0151 23.7339 39.7449 23.6499 39.3856 23.5529C39 23.4479 38.6984 23.343 38.4807 23.2381C38.263 23.1332 38.1082 23.0125 38.0164 22.8761C37.9246 22.7371 37.8787 22.5679 37.8787 22.3686C37.8787 22.1273 37.9469 21.9161 38.0833 21.7351C38.2197 21.5515 38.4085 21.4099 38.6498 21.3102C38.8912 21.2079 39.1718 21.1568 39.4918 21.1568C39.8118 21.1568 40.0977 21.2092 40.3495 21.3141C40.604 21.4164 40.8086 21.5607 40.9633 21.7469C41.1181 21.9332 41.2099 22.1496 41.2387 22.3961L40.6486 22.5024C40.6092 22.2532 40.4846 22.0564 40.2748 21.9122C40.0676 21.7653 39.804 21.6892 39.484 21.684C39.1823 21.6761 38.9371 21.7338 38.7482 21.8571C38.5594 21.9778 38.4649 22.1391 38.4649 22.341C38.4649 22.4538 38.499 22.5509 38.5672 22.6322C38.6354 22.7109 38.7587 22.7856 38.9371 22.8565C39.1181 22.9273 39.3751 23.0047 39.7082 23.0886C40.0991 23.1883 40.4059 23.2932 40.6289 23.4034C40.8519 23.5135 41.0105 23.6434 41.105 23.7929C41.1994 23.9424 41.2466 24.1273 41.2466 24.3476C41.2466 24.749 41.0971 25.065 40.7981 25.2958C40.5017 25.524 40.0925 25.6381 39.5705 25.6381ZM43.7732 20.4682V19.819H44.3516V20.4682H43.7732ZM43.7732 25.524V21.2748H44.3516V25.524H43.7732ZM47.1168 25.6381C46.6184 25.6381 46.2079 25.5306 45.8853 25.3155C45.5653 25.1004 45.3685 24.8014 45.2951 24.4185L45.8853 24.3201C45.9482 24.5614 46.0912 24.7542 46.3141 24.8985C46.5397 25.0401 46.8177 25.1109 47.1482 25.1109C47.4709 25.1109 47.7253 25.044 47.9115 24.9103C48.0978 24.7739 48.1909 24.5889 48.1909 24.3555C48.1909 24.2244 48.1607 24.1181 48.1004 24.0368C48.0427 23.9529 47.9233 23.8755 47.7424 23.8047C47.5614 23.7339 47.2912 23.6499 46.9318 23.5529C46.5463 23.4479 46.2446 23.343 46.0269 23.2381C45.8092 23.1332 45.6544 23.0125 45.5626 22.8761C45.4708 22.7371 45.4249 22.5679 45.4249 22.3686C45.4249 22.1273 45.4931 21.9161 45.6295 21.7351C45.7659 21.5515 45.9548 21.4099 46.1961 21.3102C46.4374 21.2079 46.7181 21.1568 47.0381 21.1568C47.3581 21.1568 47.644 21.2092 47.8958 21.3141C48.1502 21.4164 48.3548 21.5607 48.5096 21.7469C48.6643 21.9332 48.7561 22.1496 48.785 22.3961L48.1948 22.5024C48.1555 22.2532 48.0309 22.0564 47.821 21.9122C47.6138 21.7653 47.3502 21.6892 47.0302 21.684C46.7286 21.6761 46.4833 21.7338 46.2945 21.8571C46.1056 21.9778 46.0112 22.1391 46.0112 22.341C46.0112 22.4538 46.0453 22.5509 46.1135 22.6322C46.1817 22.7109 46.3049 22.7856 46.4833 22.8565C46.6643 22.9273 46.9214 23.0047 47.2545 23.0886C47.6453 23.1883 47.9522 23.2932 48.1751 23.4034C48.3981 23.5135 48.5568 23.6434 48.6512 23.7929C48.7456 23.9424 48.7929 24.1273 48.7929 24.3476C48.7929 24.749 48.6434 25.065 48.3443 25.2958C48.0479 25.524 47.6387 25.6381 47.1168 25.6381ZM52.4566 25.6421C52.1366 25.6421 51.8677 25.5844 51.65 25.469C51.4349 25.3536 51.2736 25.2001 51.166 25.0086C51.0585 24.8171 51.0047 24.6086 51.0047 24.383C51.0047 24.1522 51.0506 23.9555 51.1424 23.7929C51.2369 23.6276 51.3641 23.4925 51.5241 23.3876C51.6867 23.2827 51.8743 23.2027 52.0867 23.1476C52.3018 23.0951 52.5392 23.0492 52.7989 23.0099C53.0612 22.9679 53.3169 22.9325 53.5661 22.9037C53.8179 22.8722 54.0382 22.842 54.2271 22.8132L54.0225 22.9391C54.0304 22.5194 53.949 22.2086 53.7786 22.0066C53.6081 21.8046 53.3117 21.7036 52.8894 21.7036C52.5982 21.7036 52.3516 21.7692 52.1497 21.9004C51.9503 22.0315 51.81 22.2387 51.7287 22.522L51.166 22.3568C51.2631 21.9764 51.4585 21.6814 51.7523 21.4715C52.0461 21.2617 52.4277 21.1568 52.8972 21.1568C53.2854 21.1568 53.6146 21.2302 53.8848 21.3771C54.1576 21.5213 54.3504 21.7312 54.4632 22.0066C54.5156 22.1299 54.5497 22.2676 54.5655 22.4197C54.5812 22.5719 54.5891 22.7266 54.5891 22.884V25.524H54.0736V24.4578L54.2231 24.5208C54.0789 24.8853 53.8546 25.1634 53.5503 25.3549C53.2461 25.5463 52.8815 25.6421 52.4566 25.6421ZM52.5234 25.1424C52.7936 25.1424 53.0297 25.0939 53.2317 24.9968C53.4336 24.8998 53.5963 24.7673 53.7195 24.5994C53.8428 24.4289 53.9228 24.2375 53.9595 24.025C53.991 23.8886 54.0081 23.7391 54.0107 23.5765C54.0133 23.4112 54.0146 23.2879 54.0146 23.2066L54.235 23.3207C54.0382 23.347 53.8245 23.3732 53.5936 23.3994C53.3654 23.4256 53.1399 23.4558 52.9169 23.4899C52.6966 23.524 52.4972 23.5647 52.3189 23.6119C52.1982 23.646 52.0815 23.6945 51.9687 23.7575C51.8559 23.8178 51.7628 23.8991 51.6893 24.0014C51.6185 24.1037 51.5831 24.2309 51.5831 24.383C51.5831 24.5063 51.6133 24.6257 51.6736 24.7411C51.7365 24.8565 51.8362 24.9522 51.9726 25.0283C52.1116 25.1044 52.2952 25.1424 52.5234 25.1424ZM58.8372 25.6421C58.4411 25.6421 58.1028 25.5437 57.8221 25.347C57.5414 25.1476 57.3264 24.8788 57.1769 24.5404C57.0273 24.2021 56.9526 23.8204 56.9526 23.3955C56.9526 22.9732 57.026 22.5928 57.1729 22.2545C57.3224 21.9161 57.5362 21.6486 57.8142 21.4518C58.0923 21.2551 58.4254 21.1568 58.8136 21.1568C59.2123 21.1568 59.548 21.2538 59.8208 21.4479C60.0936 21.642 60.2995 21.9082 60.4386 22.2466C60.5802 22.5824 60.651 22.9653 60.651 23.3955C60.651 23.8178 60.5815 24.1994 60.4425 24.5404C60.3035 24.8788 60.0989 25.1476 59.8287 25.347C59.5585 25.5437 59.228 25.6421 58.8372 25.6421ZM58.8962 25.1031C59.1979 25.1031 59.4471 25.0296 59.6438 24.8827C59.8405 24.7358 59.9874 24.5339 60.0844 24.2768C60.1815 24.0171 60.23 23.7234 60.23 23.3955C60.23 23.0624 60.1815 22.7686 60.0844 22.5142C59.9874 22.2571 59.8405 22.0564 59.6438 21.9122C59.4497 21.7679 59.2044 21.6958 58.908 21.6958C58.6038 21.6958 58.352 21.7705 58.1526 21.92C57.9533 22.0696 57.8051 22.2728 57.708 22.5299C57.6136 22.7869 57.5664 23.0755 57.5664 23.3955C57.5664 23.7181 57.6149 24.0093 57.7119 24.2689C57.8116 24.526 57.9598 24.7293 58.1565 24.8788C58.3533 25.0283 58.5998 25.1031 58.8962 25.1031ZM60.23 25.524V22.3253H60.1671V19.8584H60.7494V25.524H60.23ZM63.6513 25.6421C63.2368 25.6421 62.8775 25.5503 62.5732 25.3667C62.2716 25.1831 62.0368 24.9247 61.8689 24.5916C61.7011 24.2585 61.6171 23.8676 61.6171 23.4191C61.6171 22.9548 61.6997 22.5535 61.865 22.2151C62.0302 21.8768 62.2624 21.6158 62.5614 21.4322C62.863 21.2486 63.2185 21.1568 63.6277 21.1568C64.0473 21.1568 64.4054 21.2538 64.7018 21.4479C64.9982 21.6394 65.2224 21.9148 65.3746 22.2742C65.5267 22.6335 65.5962 23.0624 65.5831 23.5607H64.9929V23.3561C64.9824 22.8053 64.8631 22.3896 64.6349 22.1089C64.4093 21.8282 64.0788 21.6879 63.6434 21.6879C63.187 21.6879 62.8368 21.8361 62.5929 22.1325C62.3516 22.4289 62.2309 22.8512 62.2309 23.3994C62.2309 23.9345 62.3516 24.3503 62.5929 24.6467C62.8368 24.9404 63.1817 25.0873 63.6277 25.0873C63.9319 25.0873 64.1968 25.0178 64.4224 24.8788C64.6506 24.7371 64.8303 24.5339 64.9614 24.2689L65.5005 24.4775C65.3326 24.8473 65.0847 25.1345 64.7569 25.3391C64.4316 25.5411 64.0631 25.6421 63.6513 25.6421ZM62.0263 23.5607V23.0768H65.2723V23.5607H62.0263ZM68.0419 25.6381C67.5435 25.6381 67.133 25.5306 66.8104 25.3155C66.4903 25.1004 66.2936 24.8014 66.2202 24.4185L66.8104 24.3201C66.8733 24.5614 67.0163 24.7542 67.2392 24.8985C67.4648 25.0401 67.7428 25.1109 68.0733 25.1109C68.396 25.1109 68.6504 25.044 68.8366 24.9103C69.0229 24.7739 69.116 24.5889 69.116 24.3555C69.116 24.2244 69.0858 24.1181 69.0255 24.0368C68.9678 23.9529 68.8484 23.8755 68.6674 23.8047C68.4865 23.7339 68.2163 23.6499 67.8569 23.5529C67.4713 23.4479 67.1697 23.343 66.952 23.2381C66.7343 23.1332 66.5795 23.0125 66.4877 22.8761C66.3959 22.7371 66.35 22.5679 66.35 22.3686C66.35 22.1273 66.4182 21.9161 66.5546 21.7351C66.691 21.5515 66.8799 21.4099 67.1212 21.3102C67.3625 21.2079 67.6432 21.1568 67.9632 21.1568C68.2832 21.1568 68.5691 21.2092 68.8209 21.3141C69.0753 21.4164 69.2799 21.5607 69.4347 21.7469C69.5894 21.9332 69.6812 22.1496 69.7101 22.3961L69.1199 22.5024C69.0806 22.2532 68.956 22.0564 68.7461 21.9122C68.5389 21.7653 68.2753 21.6892 67.9553 21.684C67.6536 21.6761 67.4084 21.7338 67.2195 21.8571C67.0307 21.9778 66.9363 22.1391 66.9363 22.341C66.9363 22.4538 66.9704 22.5509 67.0386 22.6322C67.1068 22.7109 67.23 22.7856 67.4084 22.8565C67.5894 22.9273 67.8464 23.0047 68.1796 23.0886C68.5704 23.1883 68.8773 23.2932 69.1002 23.4034C69.3232 23.5135 69.4819 23.6434 69.5763 23.7929C69.6707 23.9424 69.7179 24.1273 69.7179 24.3476C69.7179 24.749 69.5684 25.065 69.2694 25.2958C68.973 25.524 68.5638 25.6381 68.0419 25.6381ZM72.3532 25.6421C71.9257 25.6421 71.5637 25.5463 71.2673 25.3549C70.9709 25.1634 70.7453 24.8998 70.5905 24.564C70.4384 24.2257 70.3597 23.8375 70.3545 23.3994C70.3597 22.9535 70.441 22.5627 70.5984 22.2269C70.7558 21.8886 70.9827 21.6263 71.2791 21.44C71.5755 21.2512 71.9348 21.1568 72.3571 21.1568C72.7873 21.1568 73.1611 21.2617 73.4785 21.4715C73.7985 21.6814 74.0175 21.9686 74.1355 22.3332L73.569 22.5142C73.4693 22.2597 73.3106 22.063 73.0929 21.924C72.8778 21.7823 72.6312 21.7115 72.3532 21.7115C72.0411 21.7115 71.7827 21.7836 71.5781 21.9279C71.3735 22.0696 71.2214 22.2676 71.1217 22.522C71.022 22.7765 70.9709 23.0689 70.9683 23.3994C70.9735 23.9083 71.0915 24.3175 71.3224 24.627C71.5532 24.9339 71.8968 25.0873 72.3532 25.0873C72.6417 25.0873 72.887 25.0217 73.089 24.8906C73.2935 24.7568 73.4483 24.5627 73.5532 24.3083L74.1355 24.4814C73.9781 24.8591 73.7473 25.1476 73.4431 25.347C73.1388 25.5437 72.7755 25.6421 72.3532 25.6421ZM74.9477 25.524V21.2748H75.467V22.2978L75.3648 22.164C75.412 22.0381 75.4736 21.9227 75.5497 21.8177C75.6257 21.7102 75.7084 21.6223 75.7975 21.5541C75.9077 21.4571 76.0362 21.3836 76.1831 21.3338C76.33 21.2813 76.4782 21.2512 76.6277 21.2433C76.7772 21.2328 76.9136 21.2433 77.0369 21.2748V21.8177C76.8822 21.7784 76.713 21.7692 76.5294 21.7902C76.3458 21.8112 76.1766 21.8846 76.0218 22.0105C75.8802 22.1207 75.7739 22.2532 75.7031 22.4079C75.6323 22.5601 75.5851 22.7227 75.5615 22.8958C75.5379 23.0663 75.5261 23.2355 75.5261 23.4034V25.524H74.9477ZM77.862 20.4682V19.819H78.4404V20.4682H77.862ZM77.862 25.524V21.2748H78.4404V25.524H77.862ZM81.5281 25.6421C81.1373 25.6421 80.8068 25.5437 80.5367 25.347C80.2665 25.1476 80.0619 24.8788 79.9229 24.5404C79.7839 24.1994 79.7143 23.8178 79.7143 23.3955C79.7143 22.9653 79.7839 22.5824 79.9229 22.2466C80.0645 21.9082 80.2717 21.642 80.5445 21.4479C80.8173 21.2538 81.1531 21.1568 81.5518 21.1568C81.94 21.1568 82.2731 21.2551 82.5511 21.4518C82.8292 21.6486 83.0416 21.9161 83.1885 22.2545C83.338 22.5928 83.4128 22.9732 83.4128 23.3955C83.4128 23.8204 83.338 24.2021 83.1885 24.5404C83.039 24.8788 82.8239 25.1476 82.5432 25.347C82.2626 25.5437 81.9242 25.6421 81.5281 25.6421ZM79.616 27.4126V21.2748H80.1353V24.4735H80.1983V27.4126H79.616ZM81.4691 25.1031C81.7655 25.1031 82.0121 25.0283 82.2088 24.8788C82.4055 24.7293 82.5524 24.526 82.6495 24.2689C82.7492 24.0093 82.799 23.7181 82.799 23.3955C82.799 23.0755 82.7505 22.7869 82.6534 22.5299C82.5564 22.2728 82.4082 22.0696 82.2088 21.92C82.0121 21.7705 81.7616 21.6958 81.4573 21.6958C81.1609 21.6958 80.9144 21.7679 80.7176 21.9122C80.5235 22.0564 80.378 22.2571 80.2809 22.5142C80.1839 22.7686 80.1353 23.0624 80.1353 23.3955C80.1353 23.7234 80.1839 24.0171 80.2809 24.2768C80.378 24.5339 80.5248 24.7358 80.7216 24.8827C80.9183 25.0296 81.1675 25.1031 81.4691 25.1031ZM86.5903 25.524C86.3516 25.5739 86.1155 25.5936 85.882 25.5831C85.6512 25.5726 85.444 25.5227 85.2604 25.4336C85.0794 25.3444 84.9417 25.2054 84.8473 25.0165C84.7712 24.8591 84.7292 24.7004 84.7214 24.5404C84.7161 24.3778 84.7135 24.1929 84.7135 23.9857V20.0944H85.2879V23.9621C85.2879 24.1404 85.2892 24.2899 85.2919 24.4106C85.2971 24.5286 85.3247 24.6335 85.3745 24.7253C85.4689 24.9011 85.6184 25.006 85.823 25.0401C86.0302 25.0742 86.286 25.0663 86.5903 25.0165V25.524ZM83.8046 21.7705V21.2748H86.5903V21.7705H83.8046ZM87.5061 20.4682V19.819H88.0845V20.4682H87.5061ZM87.5061 25.524V21.2748H88.0845V25.524H87.5061ZM91.0385 25.6421C90.6162 25.6421 90.2555 25.5463 89.9565 25.3549C89.6575 25.1634 89.428 24.8985 89.268 24.5601C89.108 24.2217 89.028 23.8335 89.028 23.3955C89.028 22.9496 89.1093 22.5587 89.2719 22.223C89.4345 21.8873 89.6654 21.6263 89.9644 21.44C90.266 21.2512 90.6241 21.1568 91.0385 21.1568C91.4634 21.1568 91.8254 21.2525 92.1244 21.444C92.4261 21.6328 92.6556 21.8964 92.813 22.2348C92.973 22.5705 93.053 22.9574 93.053 23.3955C93.053 23.8414 92.973 24.2335 92.813 24.5719C92.653 24.9076 92.4221 25.1699 92.1205 25.3588C91.8189 25.5477 91.4582 25.6421 91.0385 25.6421ZM91.0385 25.0873C91.5107 25.0873 91.8621 24.9312 92.093 24.6191C92.3238 24.3044 92.4392 23.8965 92.4392 23.3955C92.4392 22.8814 92.3225 22.4722 92.089 22.1679C91.8582 21.8637 91.508 21.7115 91.0385 21.7115C90.7211 21.7115 90.4588 21.7836 90.2516 21.9279C90.047 22.0696 89.8936 22.2676 89.7913 22.522C89.6916 22.7738 89.6418 23.065 89.6418 23.3955C89.6418 23.907 89.7598 24.3175 89.9959 24.627C90.2319 24.9339 90.5795 25.0873 91.0385 25.0873ZM96.9898 25.524V23.3561C96.9898 23.1201 96.9675 22.9037 96.9229 22.7069C96.8783 22.5076 96.8062 22.3345 96.7065 22.1876C96.6095 22.0381 96.4823 21.9227 96.3249 21.8414C96.1701 21.76 95.9813 21.7194 95.7583 21.7194C95.5537 21.7194 95.3727 21.7548 95.2154 21.8256C95.0606 21.8964 94.9294 21.9987 94.8219 22.1325C94.717 22.2637 94.637 22.4237 94.5819 22.6125C94.5268 22.8014 94.4993 23.0165 94.4993 23.2578L94.0901 23.1673C94.0901 22.7319 94.1662 22.366 94.3183 22.0696C94.4704 21.7732 94.6803 21.5489 94.9478 21.3968C95.2154 21.2446 95.5222 21.1686 95.8685 21.1686C96.1229 21.1686 96.3446 21.2079 96.5334 21.2866C96.7249 21.3653 96.8862 21.4715 97.0174 21.6053C97.1511 21.7391 97.2587 21.8925 97.34 22.0656C97.4213 22.2361 97.4803 22.4184 97.517 22.6125C97.5538 22.804 97.5721 22.9955 97.5721 23.187V25.524H96.9898ZM93.917 25.524V21.2748H94.4403V22.3214H94.4993V25.524H93.917Z" fill="black" fill-opacity="0.45"/>
</g>
<defs>
<clipPath id="clip0_75:18499">
<rect width="100" height="118" fill="white"/>
</clipPath>
</defs>
</svg>
