<svg width="80" height="56" viewBox="0 0 80 56" fill="none" xmlns="http://www.w3.org/2000/svg">
<path d="M0 8C0 3.58172 3.57466 0 8.00493 0H19.9951C24.4161 0 28 3.59071 28 8C28 12.4183 24.4253 16 19.9951 16H8.00493C3.58393 16 0 12.4212 0 8Z" fill="#0010F7"/>
<path fill-rule="evenodd" clip-rule="evenodd" d="M20 14C23.3137 14 26 11.3137 26 8C26 4.68629 23.3137 2 20 2C16.6863 2 14 4.68629 14 8C14 11.3137 16.6863 14 20 14Z" fill="white"/>
<path opacity="0.35" d="M52 8C52 3.58172 55.5747 0 60.0049 0H71.9951C76.4161 0 80 3.59071 80 8C80 12.4183 76.4253 16 71.9951 16H60.0049C55.5839 16 52 12.4212 52 8Z" fill="#0010F7"/>
<path fill-rule="evenodd" clip-rule="evenodd" d="M72 14C75.3137 14 78 11.3137 78 8C78 4.68629 75.3137 2 72 2C68.6863 2 66 4.68629 66 8C66 11.3137 68.6863 14 72 14Z" fill="white"/>
<path opacity="0.25" d="M0 48C0 43.5817 3.57466 40 8.00493 40H19.9951C24.4161 40 28 43.5907 28 48C28 52.4183 24.4253 56 19.9951 56H8.00493C3.58393 56 0 52.4212 0 48Z" fill="black"/>
<path fill-rule="evenodd" clip-rule="evenodd" d="M8 54C11.3137 54 14 51.3137 14 48C14 44.6863 11.3137 42 8 42C4.68629 42 2 44.6863 2 48C2 51.3137 4.68629 54 8 54Z" fill="white"/>
<path opacity="0.15" d="M52 48C52 43.5817 55.5747 40 60.0049 40H71.9951C76.4161 40 80 43.5907 80 48C80 52.4183 76.4253 56 71.9951 56H60.0049C55.5839 56 52 52.4212 52 48Z" fill="black"/>
<path opacity="0.85" d="M60 54C63.3137 54 66 51.3137 66 48C66 44.6863 63.3137 42 60 42C56.6863 42 54 44.6863 54 48C54 51.3137 56.6863 54 60 54Z" fill="white"/>
</svg>
