<svg width="208" height="56" viewBox="0 0 208 56" fill="none" xmlns="http://www.w3.org/2000/svg">
<g clip-path="url(#clip0_75:19507)">
<path d="M88.577 11V2.103H85.14V0.92H93.26V2.103H89.823V11H88.577ZM93.4011 11L96.7751 0.92H98.5111L101.885 11H100.59L97.4331 1.648H97.8251L94.6961 11H93.4011ZM95.0251 8.641V7.472H100.261V8.641H95.0251ZM103.138 11V0.92H107.065C107.667 0.92 108.181 1.04367 108.605 1.291C109.035 1.53833 109.361 1.865 109.585 2.271C109.814 2.67233 109.928 3.10633 109.928 3.573C109.928 4.119 109.788 4.59733 109.508 5.008C109.228 5.41867 108.85 5.701 108.374 5.855L108.36 5.512C109.009 5.68467 109.513 6.002 109.872 6.464C110.232 6.926 110.411 7.47667 110.411 8.116C110.411 8.704 110.29 9.21267 110.047 9.642C109.809 10.0713 109.464 10.405 109.011 10.643C108.563 10.881 108.031 11 107.415 11H103.138ZM104.398 9.81H107.177C107.551 9.81 107.884 9.74233 108.178 9.607C108.472 9.467 108.703 9.271 108.871 9.019C109.044 8.767 109.13 8.46367 109.13 8.109C109.13 7.76833 109.053 7.46267 108.899 7.192C108.75 6.92133 108.538 6.70667 108.262 6.548C107.992 6.38467 107.677 6.303 107.317 6.303H104.398V9.81ZM104.398 5.127H107.051C107.35 5.127 107.618 5.064 107.856 4.938C108.099 4.80733 108.29 4.62533 108.43 4.392C108.575 4.15867 108.647 3.88567 108.647 3.573C108.647 3.139 108.5 2.78433 108.206 2.509C107.912 2.23367 107.527 2.096 107.051 2.096H104.398V5.127ZM114.329 10.993L114.336 9.873L118.809 5.848C119.182 5.512 119.432 5.19467 119.558 4.896C119.689 4.59267 119.754 4.28233 119.754 3.965C119.754 3.57767 119.665 3.22767 119.488 2.915C119.311 2.60233 119.068 2.355 118.76 2.173C118.457 1.991 118.111 1.9 117.724 1.9C117.323 1.9 116.966 1.99567 116.653 2.187C116.34 2.37367 116.093 2.62333 115.911 2.936C115.734 3.24867 115.647 3.58933 115.652 3.958H114.378C114.378 3.32333 114.525 2.76333 114.819 2.278C115.113 1.788 115.512 1.40533 116.016 1.13C116.525 0.85 117.101 0.71 117.745 0.71C118.37 0.71 118.93 0.854666 119.425 1.144C119.92 1.42867 120.309 1.81833 120.594 2.313C120.883 2.803 121.028 3.35833 121.028 3.979C121.028 4.41767 120.972 4.798 120.86 5.12C120.753 5.442 120.585 5.74067 120.356 6.016C120.127 6.28667 119.84 6.576 119.495 6.884L115.778 10.223L115.617 9.803H121.028V10.993H114.329Z" fill="black" fill-opacity="0.85"/>
<path d="M5.124 55.21C4.12067 55.21 3.269 54.9883 2.569 54.545C1.869 54.1017 1.33467 53.4857 0.966 52.697C0.602 51.9083 0.42 50.996 0.42 49.96C0.42 48.924 0.602 48.0117 0.966 47.223C1.33467 46.4343 1.869 45.8183 2.569 45.375C3.269 44.9317 4.12067 44.71 5.124 44.71C6.29067 44.71 7.24967 45.0063 8.001 45.599C8.757 46.1917 9.27733 46.9897 9.562 47.993L8.295 48.329C8.08967 47.5777 7.72333 46.985 7.196 46.551C6.66867 46.117 5.978 45.9 5.124 45.9C4.37267 45.9 3.74733 46.0703 3.248 46.411C2.74867 46.7517 2.373 47.2277 2.121 47.839C1.869 48.4457 1.74067 49.1527 1.736 49.96C1.73133 50.7627 1.855 51.4697 2.107 52.081C2.359 52.6877 2.737 53.1637 3.241 53.509C3.745 53.8497 4.37267 54.02 5.124 54.02C5.978 54.02 6.66867 53.803 7.196 53.369C7.72333 52.9303 8.08967 52.3377 8.295 51.591L9.562 51.927C9.27733 52.9257 8.757 53.7237 8.001 54.321C7.24967 54.9137 6.29067 55.21 5.124 55.21ZM14.3172 55.21C13.5659 55.21 12.9172 55.0397 12.3712 54.699C11.8299 54.3583 11.4122 53.887 11.1182 53.285C10.8242 52.683 10.6772 51.9923 10.6772 51.213C10.6772 50.4197 10.8265 49.7243 11.1252 49.127C11.4239 48.5297 11.8462 48.0653 12.3922 47.734C12.9382 47.398 13.5799 47.23 14.3172 47.23C15.0732 47.23 15.7242 47.4003 16.2702 47.741C16.8162 48.077 17.2339 48.546 17.5232 49.148C17.8172 49.7453 17.9642 50.4337 17.9642 51.213C17.9642 52.0017 17.8172 52.697 17.5232 53.299C17.2292 53.8963 16.8092 54.3653 16.2632 54.706C15.7172 55.042 15.0685 55.21 14.3172 55.21ZM14.3172 54.027C15.1012 54.027 15.6845 53.7657 16.0672 53.243C16.4499 52.7203 16.6412 52.0437 16.6412 51.213C16.6412 50.359 16.4475 49.68 16.0602 49.176C15.6729 48.6673 15.0919 48.413 14.3172 48.413C13.7899 48.413 13.3559 48.532 13.0152 48.77C12.6745 49.008 12.4202 49.337 12.2522 49.757C12.0842 50.177 12.0002 50.6623 12.0002 51.213C12.0002 52.0623 12.1962 52.7437 12.5882 53.257C12.9802 53.7703 13.5565 54.027 14.3172 54.027ZM24.8884 55V51.213C24.8884 50.8537 24.8557 50.5083 24.7904 50.177C24.7297 49.8457 24.6201 49.5493 24.4614 49.288C24.3074 49.022 24.0974 48.812 23.8314 48.658C23.5701 48.504 23.2387 48.427 22.8374 48.427C22.5247 48.427 22.2401 48.4807 21.9834 48.588C21.7314 48.6907 21.5144 48.8493 21.3324 49.064C21.1504 49.2787 21.0081 49.5493 20.9054 49.876C20.8074 50.198 20.7584 50.5783 20.7584 51.017L19.9394 50.765C19.9394 50.0323 20.0701 49.4047 20.3314 48.882C20.5974 48.3547 20.9684 47.951 21.4444 47.671C21.9251 47.3863 22.4897 47.244 23.1384 47.244C23.6284 47.244 24.0461 47.321 24.3914 47.475C24.7367 47.629 25.0237 47.8343 25.2524 48.091C25.4811 48.343 25.6607 48.6277 25.7914 48.945C25.9221 49.2577 26.0131 49.5773 26.0644 49.904C26.1204 50.226 26.1484 50.5317 26.1484 50.821V55H24.8884ZM19.4984 55V47.44H20.6184V49.463H20.7584V55H19.4984ZM32.1893 55C31.7413 55.0887 31.2979 55.1237 30.8593 55.105C30.4253 55.091 30.0379 55.0047 29.6973 54.846C29.3566 54.6827 29.0976 54.4307 28.9203 54.09C28.7709 53.7913 28.6893 53.4903 28.6753 53.187C28.6659 52.879 28.6613 52.5313 28.6613 52.144V45.34H29.9073V52.088C29.9073 52.396 29.9096 52.6597 29.9143 52.879C29.9236 53.0983 29.9726 53.2873 30.0613 53.446C30.2293 53.7447 30.4953 53.9197 30.8593 53.971C31.2279 54.0223 31.6713 54.0083 32.1893 53.929V55ZM27.1283 48.469V47.44H32.1893V48.469H27.1283ZM36.6857 55.21C35.9437 55.21 35.295 55.0467 34.7397 54.72C34.189 54.3887 33.7597 53.929 33.4517 53.341C33.1437 52.7483 32.9897 52.0577 32.9897 51.269C32.9897 50.443 33.1414 49.729 33.4447 49.127C33.748 48.5203 34.1704 48.0537 34.7117 47.727C35.2577 47.3957 35.897 47.23 36.6297 47.23C37.3904 47.23 38.0367 47.405 38.5687 47.755C39.1054 48.105 39.5067 48.6043 39.7727 49.253C40.0434 49.9017 40.16 50.674 40.1227 51.57H38.8627V51.122C38.8487 50.1933 38.6597 49.5003 38.2957 49.043C37.9317 48.581 37.3904 48.35 36.6717 48.35C35.9017 48.35 35.316 48.5973 34.9147 49.092C34.5134 49.5867 34.3127 50.296 34.3127 51.22C34.3127 52.1113 34.5134 52.802 34.9147 53.292C35.316 53.782 35.8877 54.027 36.6297 54.027C37.129 54.027 37.563 53.9127 37.9317 53.684C38.3004 53.4553 38.5897 53.1263 38.7997 52.697L39.9967 53.11C39.7027 53.7773 39.2594 54.2953 38.6667 54.664C38.0787 55.028 37.4184 55.21 36.6857 55.21ZM33.8927 51.57V50.569H39.4787V51.57H33.8927ZM46.8591 55V51.213C46.8591 50.8537 46.8264 50.5083 46.7611 50.177C46.7004 49.8457 46.5908 49.5493 46.4321 49.288C46.2781 49.022 46.0681 48.812 45.8021 48.658C45.5408 48.504 45.2094 48.427 44.8081 48.427C44.4954 48.427 44.2108 48.4807 43.9541 48.588C43.7021 48.6907 43.4851 48.8493 43.3031 49.064C43.1211 49.2787 42.9788 49.5493 42.8761 49.876C42.7781 50.198 42.7291 50.5783 42.7291 51.017L41.9101 50.765C41.9101 50.0323 42.0408 49.4047 42.3021 48.882C42.5681 48.3547 42.9391 47.951 43.4151 47.671C43.8958 47.3863 44.4604 47.244 45.1091 47.244C45.5991 47.244 46.0168 47.321 46.3621 47.475C46.7074 47.629 46.9944 47.8343 47.2231 48.091C47.4518 48.343 47.6314 48.6277 47.7621 48.945C47.8928 49.2577 47.9838 49.5773 48.0351 49.904C48.0911 50.226 48.1191 50.5317 48.1191 50.821V55H46.8591ZM41.4691 55V47.44H42.5891V49.463H42.7291V55H41.4691ZM54.16 55C53.712 55.0887 53.2687 55.1237 52.83 55.105C52.396 55.091 52.0087 55.0047 51.668 54.846C51.3273 54.6827 51.0683 54.4307 50.891 54.09C50.7417 53.7913 50.66 53.4903 50.646 53.187C50.6367 52.879 50.632 52.5313 50.632 52.144V45.34H51.878V52.088C51.878 52.396 51.8803 52.6597 51.885 52.879C51.8943 53.0983 51.9433 53.2873 52.032 53.446C52.2 53.7447 52.466 53.9197 52.83 53.971C53.1987 54.0223 53.642 54.0083 54.16 53.929V55ZM49.099 48.469V47.44H54.16V48.469H49.099ZM61.7176 55.21C60.9662 55.21 60.3176 55.0397 59.7716 54.699C59.2302 54.3583 58.8126 53.887 58.5186 53.285C58.2246 52.683 58.0776 51.9923 58.0776 51.213C58.0776 50.4197 58.2269 49.7243 58.5256 49.127C58.8242 48.5297 59.2466 48.0653 59.7926 47.734C60.3386 47.398 60.9802 47.23 61.7176 47.23C62.4736 47.23 63.1246 47.4003 63.6706 47.741C64.2166 48.077 64.6342 48.546 64.9236 49.148C65.2176 49.7453 65.3646 50.4337 65.3646 51.213C65.3646 52.0017 65.2176 52.697 64.9236 53.299C64.6296 53.8963 64.2096 54.3653 63.6636 54.706C63.1176 55.042 62.4689 55.21 61.7176 55.21ZM61.7176 54.027C62.5016 54.027 63.0849 53.7657 63.4676 53.243C63.8502 52.7203 64.0416 52.0437 64.0416 51.213C64.0416 50.359 63.8479 49.68 63.4606 49.176C63.0732 48.6673 62.4922 48.413 61.7176 48.413C61.1902 48.413 60.7562 48.532 60.4156 48.77C60.0749 49.008 59.8206 49.337 59.6526 49.757C59.4846 50.177 59.4006 50.6623 59.4006 51.213C59.4006 52.0623 59.5966 52.7437 59.9886 53.257C60.3806 53.7703 60.9569 54.027 61.7176 54.027ZM67.6268 55V47.027C67.6268 46.831 67.6361 46.6327 67.6548 46.432C67.6734 46.2267 67.7154 46.0283 67.7808 45.837C67.8461 45.641 67.9534 45.4613 68.1028 45.298C68.2754 45.1067 68.4644 44.9713 68.6698 44.892C68.8751 44.808 69.0828 44.7567 69.2928 44.738C69.5074 44.7193 69.7104 44.71 69.9018 44.71H70.8608V45.746H69.9718C69.6031 45.746 69.3278 45.837 69.1458 46.019C68.9638 46.1963 68.8728 46.467 68.8728 46.831V55H67.6268ZM66.3458 48.469V47.44H70.8608V48.469H66.3458ZM77.3778 55V46.103H73.9408V44.92H82.0608V46.103H78.6238V55H77.3778ZM84.3399 55.21C83.7753 55.21 83.3016 55.1073 82.9189 54.902C82.5409 54.692 82.2539 54.4167 82.0579 54.076C81.8666 53.7353 81.7709 53.362 81.7709 52.956C81.7709 52.5593 81.8456 52.2163 81.9949 51.927C82.1489 51.633 82.3636 51.3903 82.6389 51.199C82.9143 51.003 83.2433 50.849 83.6259 50.737C83.9853 50.639 84.3866 50.555 84.8299 50.485C85.2779 50.4103 85.7306 50.3427 86.1879 50.282C86.6453 50.2213 87.0723 50.163 87.4689 50.107L87.0209 50.366C87.0349 49.694 86.8996 49.197 86.6149 48.875C86.3349 48.553 85.8496 48.392 85.1589 48.392C84.7016 48.392 84.3003 48.497 83.9549 48.707C83.6143 48.9123 83.3739 49.2483 83.2339 49.715L82.0509 49.358C82.2329 48.6953 82.5853 48.175 83.1079 47.797C83.6306 47.419 84.3189 47.23 85.1729 47.23C85.8589 47.23 86.4469 47.3537 86.9369 47.601C87.4316 47.8437 87.7863 48.2123 88.0009 48.707C88.1083 48.9403 88.1759 49.1947 88.2039 49.47C88.2319 49.7407 88.2459 50.0253 88.2459 50.324V55H87.1399V53.187L87.3989 53.355C87.1143 53.9663 86.7153 54.4283 86.2019 54.741C85.6933 55.0537 85.0726 55.21 84.3399 55.21ZM84.5289 54.167C84.9769 54.167 85.3643 54.0877 85.6909 53.929C86.0223 53.7657 86.2883 53.5533 86.4889 53.292C86.6896 53.026 86.8203 52.7367 86.8809 52.424C86.9509 52.1907 86.9883 51.9317 86.9929 51.647C87.0023 51.3577 87.0069 51.136 87.0069 50.982L87.4409 51.171C87.0349 51.227 86.6359 51.2807 86.2439 51.332C85.8519 51.3833 85.4809 51.4393 85.1309 51.5C84.7809 51.556 84.4659 51.6237 84.1859 51.703C83.9806 51.7683 83.7869 51.8523 83.6049 51.955C83.4276 52.0577 83.2829 52.1907 83.1709 52.354C83.0636 52.5127 83.0099 52.711 83.0099 52.949C83.0099 53.1543 83.0613 53.3503 83.1639 53.537C83.2713 53.7237 83.4346 53.8753 83.6539 53.992C83.8779 54.1087 84.1696 54.167 84.5289 54.167ZM93.5379 55.21C92.8286 55.21 92.2313 55.035 91.7459 54.685C91.2606 54.3303 90.8919 53.852 90.6399 53.25C90.3926 52.6433 90.2689 51.9643 90.2689 51.213C90.2689 50.4523 90.3926 49.771 90.6399 49.169C90.8919 48.567 91.2606 48.0933 91.7459 47.748C92.2359 47.4027 92.8356 47.23 93.5449 47.23C94.2449 47.23 94.8469 47.405 95.3509 47.755C95.8596 48.1003 96.2493 48.574 96.5199 49.176C96.7906 49.778 96.9259 50.457 96.9259 51.213C96.9259 51.969 96.7906 52.648 96.5199 53.25C96.2493 53.852 95.8596 54.3303 95.3509 54.685C94.8469 55.035 94.2426 55.21 93.5379 55.21ZM90.0589 55V44.92H91.3119V49.435H91.1719V55H90.0589ZM93.3839 54.069C93.8833 54.069 94.2963 53.943 94.6229 53.691C94.9496 53.439 95.1946 53.0983 95.3579 52.669C95.5213 52.235 95.6029 51.7497 95.6029 51.213C95.6029 50.681 95.5213 50.2003 95.3579 49.771C95.1993 49.3417 94.9519 49.001 94.6159 48.749C94.2846 48.497 93.8623 48.371 93.3489 48.371C92.8589 48.371 92.4529 48.4923 92.1309 48.735C91.8089 48.973 91.5686 49.3067 91.4099 49.736C91.2513 50.1607 91.1719 50.653 91.1719 51.213C91.1719 51.7637 91.2489 52.256 91.4029 52.69C91.5616 53.1193 91.8043 53.4577 92.1309 53.705C92.4576 53.9477 92.8753 54.069 93.3839 54.069ZM101.263 55V44.92H105.246C105.344 44.92 105.461 44.9247 105.596 44.934C105.732 44.9387 105.862 44.9527 105.988 44.976C106.534 45.06 106.992 45.2467 107.36 45.536C107.734 45.8253 108.014 46.1917 108.2 46.635C108.387 47.0737 108.48 47.5613 108.48 48.098C108.48 48.63 108.385 49.1177 108.193 49.561C108.007 49.9997 107.727 50.366 107.353 50.66C106.985 50.9493 106.53 51.136 105.988 51.22C105.862 51.2387 105.732 51.2527 105.596 51.262C105.461 51.2713 105.344 51.276 105.246 51.276H102.509V55H101.263ZM102.509 50.093H105.204C105.293 50.093 105.393 50.0883 105.505 50.079C105.622 50.0697 105.732 50.0533 105.834 50.03C106.156 49.9553 106.418 49.82 106.618 49.624C106.824 49.4233 106.973 49.19 107.066 48.924C107.16 48.6533 107.206 48.378 107.206 48.098C107.206 47.818 107.16 47.545 107.066 47.279C106.973 47.0083 106.824 46.7727 106.618 46.572C106.418 46.3713 106.156 46.236 105.834 46.166C105.732 46.138 105.622 46.1217 105.505 46.117C105.393 46.1077 105.293 46.103 105.204 46.103H102.509V50.093ZM111.752 55.21C111.187 55.21 110.714 55.1073 110.331 54.902C109.953 54.692 109.666 54.4167 109.47 54.076C109.279 53.7353 109.183 53.362 109.183 52.956C109.183 52.5593 109.258 52.2163 109.407 51.927C109.561 51.633 109.776 51.3903 110.051 51.199C110.326 51.003 110.655 50.849 111.038 50.737C111.397 50.639 111.799 50.555 112.242 50.485C112.69 50.4103 113.143 50.3427 113.6 50.282C114.057 50.2213 114.484 50.163 114.881 50.107L114.433 50.366C114.447 49.694 114.312 49.197 114.027 48.875C113.747 48.553 113.262 48.392 112.571 48.392C112.114 48.392 111.712 48.497 111.367 48.707C111.026 48.9123 110.786 49.2483 110.646 49.715L109.463 49.358C109.645 48.6953 109.997 48.175 110.52 47.797C111.043 47.419 111.731 47.23 112.585 47.23C113.271 47.23 113.859 47.3537 114.349 47.601C114.844 47.8437 115.198 48.2123 115.413 48.707C115.52 48.9403 115.588 49.1947 115.616 49.47C115.644 49.7407 115.658 50.0253 115.658 50.324V55H114.552V53.187L114.811 53.355C114.526 53.9663 114.127 54.4283 113.614 54.741C113.105 55.0537 112.485 55.21 111.752 55.21ZM111.941 54.167C112.389 54.167 112.776 54.0877 113.103 53.929C113.434 53.7657 113.7 53.5533 113.901 53.292C114.102 53.026 114.232 52.7367 114.293 52.424C114.363 52.1907 114.4 51.9317 114.405 51.647C114.414 51.3577 114.419 51.136 114.419 50.982L114.853 51.171C114.447 51.227 114.048 51.2807 113.656 51.332C113.264 51.3833 112.893 51.4393 112.543 51.5C112.193 51.556 111.878 51.6237 111.598 51.703C111.393 51.7683 111.199 51.8523 111.017 51.955C110.84 52.0577 110.695 52.1907 110.583 52.354C110.476 52.5127 110.422 52.711 110.422 52.949C110.422 53.1543 110.473 53.3503 110.576 53.537C110.683 53.7237 110.847 53.8753 111.066 53.992C111.29 54.1087 111.582 54.167 111.941 54.167ZM122.861 55V51.213C122.861 50.8537 122.828 50.5083 122.763 50.177C122.702 49.8457 122.593 49.5493 122.434 49.288C122.28 49.022 122.07 48.812 121.804 48.658C121.543 48.504 121.211 48.427 120.81 48.427C120.497 48.427 120.213 48.4807 119.956 48.588C119.704 48.6907 119.487 48.8493 119.305 49.064C119.123 49.2787 118.981 49.5493 118.878 49.876C118.78 50.198 118.731 50.5783 118.731 51.017L117.912 50.765C117.912 50.0323 118.043 49.4047 118.304 48.882C118.57 48.3547 118.941 47.951 119.417 47.671C119.898 47.3863 120.462 47.244 121.111 47.244C121.601 47.244 122.019 47.321 122.364 47.475C122.709 47.629 122.996 47.8343 123.225 48.091C123.454 48.343 123.633 48.6277 123.764 48.945C123.895 49.2577 123.986 49.5773 124.037 49.904C124.093 50.226 124.121 50.5317 124.121 50.821V55H122.861ZM117.471 55V47.44H118.591V49.463H118.731V55H117.471ZM129.149 55.21C128.407 55.21 127.758 55.0467 127.203 54.72C126.652 54.3887 126.223 53.929 125.915 53.341C125.607 52.7483 125.453 52.0577 125.453 51.269C125.453 50.443 125.604 49.729 125.908 49.127C126.211 48.5203 126.633 48.0537 127.175 47.727C127.721 47.3957 128.36 47.23 129.093 47.23C129.853 47.23 130.5 47.405 131.032 47.755C131.568 48.105 131.97 48.6043 132.236 49.253C132.506 49.9017 132.623 50.674 132.586 51.57H131.326V51.122C131.312 50.1933 131.123 49.5003 130.759 49.043C130.395 48.581 129.853 48.35 129.135 48.35C128.365 48.35 127.779 48.5973 127.378 49.092C126.976 49.5867 126.776 50.296 126.776 51.22C126.776 52.1113 126.976 52.802 127.378 53.292C127.779 53.782 128.351 54.027 129.093 54.027C129.592 54.027 130.026 53.9127 130.395 53.684C130.763 53.4553 131.053 53.1263 131.263 52.697L132.46 53.11C132.166 53.7773 131.722 54.2953 131.13 54.664C130.542 55.028 129.881 55.21 129.149 55.21ZM126.356 51.57V50.569H131.942V51.57H126.356ZM138.704 55V46.299L136.807 47.447V46.054L138.704 44.92H139.971V55H138.704Z" fill="black" fill-opacity="0.85"/>
<path d="M168.577 11V2.103H165.14V0.92H173.26V2.103H169.823V11H168.577ZM173.401 11L176.775 0.92H178.511L181.885 11H180.59L177.433 1.648H177.825L174.696 11H173.401ZM175.025 8.641V7.472H180.261V8.641H175.025ZM183.138 11V0.92H187.065C187.667 0.92 188.181 1.04367 188.605 1.291C189.035 1.53833 189.361 1.865 189.585 2.271C189.814 2.67233 189.928 3.10633 189.928 3.573C189.928 4.119 189.788 4.59733 189.508 5.008C189.228 5.41867 188.85 5.701 188.374 5.855L188.36 5.512C189.009 5.68467 189.513 6.002 189.872 6.464C190.232 6.926 190.411 7.47667 190.411 8.116C190.411 8.704 190.29 9.21267 190.047 9.642C189.809 10.0713 189.464 10.405 189.011 10.643C188.563 10.881 188.031 11 187.415 11H183.138ZM184.398 9.81H187.177C187.551 9.81 187.884 9.74233 188.178 9.607C188.472 9.467 188.703 9.271 188.871 9.019C189.044 8.767 189.13 8.46367 189.13 8.109C189.13 7.76833 189.053 7.46267 188.899 7.192C188.75 6.92133 188.538 6.70667 188.262 6.548C187.992 6.38467 187.677 6.303 187.317 6.303H184.398V9.81ZM184.398 5.127H187.051C187.35 5.127 187.618 5.064 187.856 4.938C188.099 4.80733 188.29 4.62533 188.43 4.392C188.575 4.15867 188.647 3.88567 188.647 3.573C188.647 3.139 188.5 2.78433 188.206 2.509C187.912 2.23367 187.527 2.096 187.051 2.096H184.398V5.127ZM197.374 11.196C196.875 11.196 196.41 11.105 195.981 10.923C195.552 10.7363 195.181 10.475 194.868 10.139C194.56 9.79833 194.334 9.39467 194.189 8.928L195.386 8.585C195.54 9.05167 195.797 9.40633 196.156 9.649C196.515 9.89167 196.919 10.0107 197.367 10.006C197.778 9.99667 198.132 9.90333 198.431 9.726C198.734 9.544 198.968 9.29667 199.131 8.984C199.299 8.67133 199.383 8.30967 199.383 7.899C199.383 7.27367 199.196 6.76733 198.823 6.38C198.45 5.988 197.96 5.792 197.353 5.792C197.185 5.792 197.008 5.81533 196.821 5.862C196.639 5.90867 196.469 5.974 196.31 6.058L195.708 5.071L199.446 1.69L199.607 2.11H194.588V0.92H200.531V2.117L197.346 5.169L197.332 4.728C197.999 4.68133 198.583 4.791 199.082 5.057C199.581 5.323 199.969 5.70333 200.244 6.198C200.524 6.69267 200.664 7.25967 200.664 7.899C200.664 8.543 200.519 9.11233 200.23 9.607C199.941 10.1017 199.549 10.4913 199.054 10.776C198.559 11.056 197.999 11.196 197.374 11.196Z" fill="black" fill-opacity="0.85"/>
<path fill-rule="evenodd" clip-rule="evenodd" d="M0 26H208V27H0V26Z" fill="white"/>
<path d="M9.493 11V2.299H6.14V0.92H14.309V2.299H10.956V11H9.493ZM14.4558 11L17.7318 0.92H19.8388L23.1148 11H21.5958L18.5788 1.802H18.9568L15.9748 11H14.4558ZM16.1568 8.725V7.353H21.4208V8.725H16.1568ZM24.3706 11V0.92H28.3326C28.972 0.92 29.5086 1.05067 29.9426 1.312C30.3766 1.57333 30.7033 1.91167 30.9226 2.327C31.142 2.73767 31.2516 3.17167 31.2516 3.629C31.2516 4.18433 31.114 4.66033 30.8386 5.057C30.568 5.45367 30.2016 5.72433 29.7396 5.869L29.7256 5.526C30.3696 5.68467 30.8643 5.995 31.2096 6.457C31.555 6.91433 31.7276 7.44867 31.7276 8.06C31.7276 8.65267 31.6086 9.16833 31.3706 9.607C31.1373 10.0457 30.7943 10.3887 30.3416 10.636C29.8936 10.8787 29.35 11 28.7106 11H24.3706ZM25.8546 9.607H28.4866C28.818 9.607 29.1143 9.544 29.3756 9.418C29.6416 9.292 29.8493 9.11233 29.9986 8.879C30.1526 8.641 30.2296 8.35867 30.2296 8.032C30.2296 7.72867 30.162 7.45567 30.0266 7.213C29.896 6.96567 29.7046 6.772 29.4526 6.632C29.2053 6.48733 28.9136 6.415 28.5776 6.415H25.8546V9.607ZM25.8546 5.036H28.3116C28.5823 5.036 28.825 4.98233 29.0396 4.875C29.259 4.763 29.4316 4.60433 29.5576 4.399C29.6883 4.189 29.7536 3.937 29.7536 3.643C29.7536 3.251 29.623 2.929 29.3616 2.677C29.1003 2.425 28.7503 2.299 28.3116 2.299H25.8546V5.036ZM37.6804 11V2.53L35.7834 3.685V2.054L37.6804 0.92H39.1714V11H37.6804Z" fill="#0010F7"/>
<path fill-rule="evenodd" clip-rule="evenodd" d="M0 25H48V27H0V25Z" fill="#0010F7"/>
</g>
<defs>
<clipPath id="clip0_75:19507">
<rect width="208" height="56" fill="white"/>
</clipPath>
</defs>
</svg>
