<svg width="150" height="105" viewBox="0 0 150 105" fill="none" xmlns="http://www.w3.org/2000/svg">
<path d="M143 7H6V97H143V7Z" fill="white"/>
<path d="M150 19H0V20H150V19Z" fill="#E0E0E0"/>
<path d="M19.5 104.5L19.5 0.5L18.5 0.5L18.5 104.5H19.5Z" fill="#E0E0E0"/>
<path d="M131.5 104.5L131.5 0.5L130.5 0.5L130.5 104.5H131.5Z" fill="#E0E0E0"/>
<path d="M150 84H0V85H150V84Z" fill="#E0E0E0"/>
<path d="M24.96 73L36.192 38.44H43.416L54.648 73H49.44L39.096 41.464H40.392L30.168 73H24.96ZM30.792 65.2V60.496H48.84V65.2H30.792ZM66.2738 73.72C64.3538 73.72 62.7458 73.368 61.4498 72.664C60.1538 71.944 59.1698 71 58.4978 69.832C57.8418 68.648 57.5138 67.352 57.5138 65.944C57.5138 64.632 57.7458 63.48 58.2098 62.488C58.6738 61.496 59.3618 60.656 60.2738 59.968C61.1858 59.264 62.3058 58.696 63.6338 58.264C64.7858 57.928 66.0898 57.632 67.5458 57.376C69.0018 57.12 70.5298 56.88 72.1298 56.656C73.7458 56.432 75.3458 56.208 76.9298 55.984L75.1058 56.992C75.1378 54.96 74.7058 53.456 73.8098 52.48C72.9298 51.488 71.4098 50.992 69.2498 50.992C67.8898 50.992 66.6418 51.312 65.5058 51.952C64.3698 52.576 63.5778 53.616 63.1298 55.072L58.4498 53.632C59.0898 51.408 60.3058 49.64 62.0978 48.328C63.9058 47.016 66.3058 46.36 69.2978 46.36C71.6178 46.36 73.6338 46.76 75.3458 47.56C77.0738 48.344 78.3378 49.592 79.1378 51.304C79.5538 52.152 79.8098 53.048 79.9058 53.992C80.0018 54.936 80.0498 55.952 80.0498 57.04V73H75.6098V67.072L76.4738 67.84C75.4018 69.824 74.0338 71.304 72.3698 72.28C70.7218 73.24 68.6898 73.72 66.2738 73.72ZM67.1618 69.616C68.5858 69.616 69.8098 69.368 70.8338 68.872C71.8578 68.36 72.6818 67.712 73.3058 66.928C73.9298 66.144 74.3378 65.328 74.5298 64.48C74.8018 63.712 74.9538 62.848 74.9858 61.888C75.0338 60.928 75.0578 60.16 75.0578 59.584L76.6898 60.184C75.1058 60.424 73.6658 60.64 72.3698 60.832C71.0738 61.024 69.8978 61.216 68.8418 61.408C67.8018 61.584 66.8738 61.8 66.0578 62.056C65.3698 62.296 64.7538 62.584 64.2098 62.92C63.6818 63.256 63.2578 63.664 62.9378 64.144C62.6338 64.624 62.4818 65.208 62.4818 65.896C62.4818 66.568 62.6498 67.192 62.9858 67.768C63.3218 68.328 63.8338 68.776 64.5218 69.112C65.2098 69.448 66.0898 69.616 67.1618 69.616Z" fill="#0010F7"/>
<g style="mix-blend-mode:multiply">
<path d="M123 32H53V38H123V32Z" fill="#E0E0E0"/>
</g>
<g style="mix-blend-mode:multiply">
<path d="M123 43H87V49H123V43Z" fill="#E0E0E0"/>
</g>
<g style="mix-blend-mode:multiply">
<path d="M123 53H87V59H123V53Z" fill="#E0E0E0"/>
</g>
<g style="mix-blend-mode:multiply">
<path d="M123 64H87V70H123V64Z" fill="#E0E0E0"/>
</g>
</svg>
