<svg width="54" height="51" viewBox="0 0 54 51" fill="none" xmlns="http://www.w3.org/2000/svg">
<path d="M53.656 40.6133C53.656 42.552 52.576 46.2853 50.152 48.336C49.6666 48.7093 49.1786 48.4987 49.392 47.9547C50.0986 46.2267 51.7173 42.2293 50.9573 41.3093C50.424 40.6107 48.2106 40.6613 46.3226 40.824C45.4586 40.9333 44.704 40.984 44.1146 41.104C43.5733 41.1493 43.4613 40.6693 44.0053 40.296C44.704 39.8027 45.4586 39.4293 46.3253 39.1547C49.392 38.2373 52.9386 38.7893 53.4453 39.376C53.5413 39.488 53.6586 39.8027 53.6586 40.6107L53.656 40.6133ZM48.5333 44.064C47.8292 44.6019 47.0897 45.0918 46.32 45.5307C40.6613 48.9307 33.3333 50.712 26.9653 50.712C16.7173 50.712 7.55198 46.9333 0.597312 40.6107C0.00264566 40.1253 0.495979 39.4213 1.19198 39.8027C8.68531 44.176 17.96 46.8213 27.5626 46.8213C33.6026 46.8213 40.1173 45.6907 46.3226 43.2587C46.7546 43.096 47.24 42.8747 47.664 42.72C48.6426 42.28 49.504 43.368 48.5333 44.064V44.064ZM32.08 14.6507C32.08 11.8747 32.1893 10.24 31.2693 8.83733C30.4533 7.68267 29.048 6.98933 27.088 7.09867C24.96 7.216 22.6746 8.61067 22.0906 11.168C21.9786 11.7547 21.6346 12.3307 20.928 12.456L14.432 11.6293C13.968 11.5227 13.264 11.168 13.4933 10.24C14.888 2.90133 21.16 0.344 27.088 0H28.4826C31.736 0 35.9146 0.930666 38.5893 3.37067C41.8346 6.4 41.4906 10.4693 41.4906 14.8907V25.3627C41.4906 28.504 42.7626 29.896 44.0453 31.5333C44.392 32.1173 44.5093 32.8053 43.9253 33.28C42.6453 34.44 40.208 36.5307 38.8133 37.6907C38.3493 38.0453 37.512 38.0827 37.1866 37.8107C35.1333 36.0907 34.632 35.136 33.36 33.3893C31.1466 35.712 29.2906 36.9947 27.08 37.6907C25.5253 38.0852 23.9265 38.2788 22.3226 38.2667C16.7493 38.2667 12.3333 34.792 12.3333 27.92C12.3333 22.456 15.24 18.7413 19.5333 16.984C23.8266 15.224 30.0666 14.664 32.0773 14.6533L32.08 14.6507ZM30.8053 28.496C32.192 26.1707 32.0773 24.2667 32.0773 20.0027C30.3413 20.0027 28.5946 20.1227 27.088 20.4773C24.3013 21.2853 22.0906 23.04 22.0906 26.7573C22.0906 29.664 23.6026 31.6427 26.1573 31.6427C26.5093 31.6427 26.8186 31.6 27.088 31.5227C28.8746 31.0267 29.9893 30.1307 30.8053 28.496V28.496Z" fill="white"/>
</svg>
