<svg width="199" height="202" viewBox="0 0 199 202" fill="none" xmlns="http://www.w3.org/2000/svg">
<path d="M47.6749 105.015C52.2672 101.233 58.4848 100.685 64.1607 101.728C70.2235 102.824 75.7446 105.771 81.3431 108.249C87.1221 110.832 93.0044 112.683 99.351 112.996C105.672 113.336 111.993 112.423 118.133 110.858C130.955 107.597 142.72 101.337 155.026 96.6161C161.192 94.2425 167.564 92.1819 174.117 91.2429C177.678 90.7213 181.264 90.5909 184.85 90.9821C188.256 91.3473 191.584 92.1559 194.912 92.9905C202.265 94.8424 209.592 96.4596 217.125 97.3725C224.891 98.3115 232.734 98.6245 240.551 98.3637C241.041 98.3376 241.041 97.5551 240.551 97.5812C226.361 98.1028 212.172 96.5639 198.395 93.0948C191.816 91.4255 185.289 89.704 178.452 90.0431C171.821 90.3822 165.268 92.1559 159.025 94.3208C146.512 98.6767 134.748 105.067 122.054 108.954C115.605 110.91 108.923 112.266 102.163 112.292C95.3005 112.318 88.8507 110.701 82.5814 107.936C76.3896 105.224 70.3267 101.859 63.5931 100.816C57.8657 99.9287 51.7512 100.633 47.1331 104.441C46.7461 104.78 47.2879 105.354 47.6749 105.015Z" fill="#DFE6E9"/>
<path d="M121.714 17.42C139.593 25.219 159.897 23.9148 178.188 18.2547C188.095 15.1769 197.951 11.0557 208.503 11.0818C219.132 11.1078 229.219 14.8639 239.617 16.5332C249.059 18.046 259.456 17.8634 267.557 12.1251C267.97 11.8382 267.583 11.16 267.17 11.4469C259.688 16.7419 250.194 17.2114 241.423 16.0115C231.49 14.6552 221.944 11.16 211.908 10.4297C201.872 9.69935 192.404 12.7511 182.987 15.8811C173.596 18.985 164.102 21.4108 154.221 21.9846C143.282 22.6367 132.214 21.15 122.126 16.7419C121.662 16.5332 121.275 17.2114 121.714 17.42Z" fill="#DFE6E9"/>
<path d="M89.9834 193.471C95.6334 189.402 102.315 186.898 109.23 186.22C112.687 185.881 116.17 186.011 119.575 186.611C123.11 187.237 126.515 188.437 129.895 189.637C136.164 191.828 142.382 193.497 148.986 191.958C154.688 190.628 159.848 187.628 164.905 184.785C170.864 181.42 177.056 177.977 183.97 177.351C184.461 177.299 184.461 176.517 183.97 176.569C171.638 177.69 162.376 187.054 150.87 190.628C147.955 191.541 144.91 192.01 141.866 191.828C138.125 191.593 134.487 190.419 130.979 189.193C127.444 187.967 123.91 186.637 120.194 185.933C116.995 185.333 113.719 185.15 110.494 185.359C103.012 185.828 95.7108 188.411 89.5964 192.819C89.1836 193.08 89.5706 193.758 89.9834 193.471Z" fill="#DFE6E9"/>
<path d="M88.7743 157.252C98.8102 146.532 113.567 142.15 127.834 142.019C136.116 141.941 144.372 143.141 152.447 144.888C160.135 146.532 167.591 148.671 175.537 147.601C183.845 146.48 191.61 142.88 199.041 139.098C199.479 138.863 199.092 138.185 198.654 138.42C191.585 142.019 184.232 145.436 176.363 146.688C172.338 147.314 168.288 147.262 164.263 146.61C160.187 145.958 156.214 144.862 152.163 144.002C137.406 140.872 121.694 139.541 107.195 144.628C100.049 147.132 93.444 151.122 88.2325 156.678C87.8971 157.069 88.4389 157.617 88.7743 157.252Z" fill="#DFE6E9"/>
<path d="M86.6433 49.0732C90.3842 45.4737 95.9311 44.0652 100.91 45.4476C106.122 46.8822 109.476 51.4207 113.655 54.5507C121.988 60.7846 133.34 59.7934 142.499 56.1157C153.309 51.7859 162.313 43.9609 173.097 39.5528C178.36 37.3879 184.062 36.0055 189.789 36.3967C195.362 36.788 200.109 39.2137 204.52 42.5002C208.906 45.7606 213.034 49.6209 218.168 51.6815C223.664 53.8725 229.855 53.403 235.015 50.5078C235.454 50.273 235.067 49.5948 234.628 49.8296C229.365 52.777 223.07 53.0378 217.575 50.586C212.983 48.5254 209.216 45.0824 205.217 42.0568C201.115 38.9529 196.755 36.5271 191.595 35.7968C186.28 35.0665 180.862 35.9794 175.832 37.6748C164.815 41.4047 155.734 49.0993 145.285 54.029C135.636 58.5936 123.227 60.7324 114.068 53.8725C109.502 50.4556 105.915 45.578 100.033 44.4304C95.0539 43.4653 89.765 44.9781 86.1015 48.5254C85.7403 48.8645 86.2821 49.4384 86.6433 49.0732Z" fill="#DFE6E9"/>
<path d="M189.928 196.983C191.889 191.792 195.217 188.401 198.648 184.88C203.163 180.263 211.548 171.682 220.088 173.038C227.363 174.186 226.563 181.254 236.548 186.393C245.964 191.27 249.576 186.445 258.967 191.688C260.36 192.47 270.19 198.13 272.435 208.824C273.363 213.259 273.131 219.336 271.196 219.91C269.003 220.562 268.255 207.781 259.483 202.773C252.775 198.939 243.539 200.791 242.791 203.53C241.991 206.425 251.253 208.329 256.491 218.397C258.787 222.779 259.277 226.77 259.973 232.247C260.618 237.412 261.341 248.002 258.967 248.628C257.007 249.149 255.949 242.081 248.751 236.29C244.958 233.239 240.908 231.986 232.807 229.482C225.506 227.239 221.816 226.144 219.83 227.97C216.889 230.682 219.159 237.568 219.572 238.794C222.461 247.558 229.84 251.21 229.298 252.149C228.576 253.323 215.108 249.932 204.118 239.055C194.727 229.743 184.227 212.033 189.928 196.983Z" fill="#0010F7"/>
<path d="M124.116 50.9121C123.394 52.8944 122.517 55.6071 121.665 58.8936C120.788 62.3105 118.724 71.3093 118.93 83.1511C119.137 94.5756 121.356 102.974 123.394 110.46C126.567 122.146 130.437 130.545 132.733 135.422C132.733 135.422 140.034 151.046 152.134 167.792C154.276 170.739 157.01 174.469 157.01 174.469C158.997 177.155 160.7 179.399 161.886 181.016C162.841 182.111 164.053 183.337 165.627 184.511C168.568 186.728 171.484 187.85 173.522 188.423C176.876 185.528 180.23 182.607 183.584 179.712C185.106 181.172 186.654 182.607 188.176 184.068C190.291 181.877 192.175 180.129 193.645 178.851C200.044 173.243 205.332 170.374 206.571 169.696C207.629 169.122 208.532 168.678 209.151 168.391C208.196 166.461 207.242 164.531 206.287 162.575C207.835 161.219 209.615 159.784 211.602 158.375C214.285 156.471 216.865 154.932 219.212 153.733C219.187 151.542 218.903 148.229 217.484 144.577C216.426 141.839 215.162 139.987 214.62 139.204C208.661 130.518 226.23 154.463 203.268 121.337C194.368 108.504 189.93 102.062 187.892 99.401C181.52 90.9761 176.515 85.2117 172.954 81.1166C166.143 73.2655 163.073 70.3442 160.596 68.2054C157.217 65.2319 153.476 62.0236 147.826 59.0501C144.265 57.1982 141.324 56.1809 137.042 54.6942C131.753 52.8684 127.289 51.6685 124.116 50.9121Z" fill="#F7FAFC"/>
<path d="M123.316 51.3849C117.718 68.8346 117.718 87.6668 121.743 105.456C122.749 109.916 124.013 114.324 125.509 118.628C126.257 120.819 127.16 122.958 127.96 125.122C128.244 125.879 128.296 126.635 128.631 127.392C129.121 128.565 129.637 129.739 130.153 130.913C131.108 133.104 132.114 135.269 133.172 137.434C134.229 139.573 135.519 141.607 136.474 143.772C136.835 144.581 137.145 145.441 137.558 146.224C138.099 147.215 138.899 147.971 139.467 148.937C140.653 150.945 141.789 153.006 143.027 154.988C148.677 164.195 155.101 172.881 161.68 181.41C161.989 181.802 162.531 181.254 162.222 180.863C156.417 173.324 150.741 165.682 145.633 157.674C144.369 155.692 143.156 153.71 141.969 151.675C141.402 150.71 140.834 149.719 140.292 148.728C139.75 147.763 139.028 147.085 138.46 146.146C137.996 145.363 137.661 144.528 137.325 143.694C136.861 142.572 136.242 141.555 135.674 140.486C134.591 138.477 133.584 136.443 132.63 134.382C131.624 132.217 130.669 130.026 129.715 127.835C129.302 126.87 129.147 125.853 128.76 124.862C128.347 123.792 127.909 122.723 127.496 121.627C125.922 117.428 124.555 113.15 123.419 108.794C121.149 99.9781 119.833 90.9272 119.704 81.7981C119.575 71.5473 120.969 61.2966 124.116 51.5153C124.193 51.1241 123.445 50.9154 123.316 51.3849Z" fill="#111314"/>
<path d="M123.679 51.3848C127.987 51.7238 132.373 53.2367 136.424 54.6713C140.423 56.1058 144.37 57.6708 148.034 59.8097C155.335 64.0873 161.785 69.6953 167.667 75.7988C173.73 82.0848 179.251 88.9969 184.591 95.909C189.906 102.795 194.988 109.916 199.89 117.115C205.308 125.122 210.52 133.286 215.628 141.529C215.886 141.946 216.557 141.555 216.299 141.137C206.933 126.087 197.259 111.22 186.5 97.1349C176.103 83.4933 164.958 69.5648 150.355 60.3053C146.382 57.7752 142.125 55.9493 137.74 54.3061C133.302 52.6628 128.452 50.9674 123.705 50.5762C123.189 50.5762 123.189 51.3587 123.679 51.3848Z" fill="#111314"/>
<path d="M162.79 181.177C174.812 168.788 188.331 157.911 202.959 148.834C207.087 146.278 211.267 143.878 215.549 141.635C215.988 141.4 215.601 140.722 215.162 140.957C199.967 148.991 185.725 158.876 172.903 170.379C169.24 173.665 165.679 177.082 162.248 180.63C161.887 180.995 162.429 181.542 162.79 181.177Z" fill="#111314"/>
<path d="M162.041 181.777C165.111 185.246 169.11 187.698 173.573 188.793C174.064 188.924 174.27 188.167 173.78 188.037C169.42 186.941 165.576 184.594 162.583 181.203C162.247 180.838 161.706 181.412 162.041 181.777Z" fill="#111314"/>
<path d="M174.038 188.584C187.995 175.699 203.114 164.17 219.238 154.18C219.651 153.919 219.264 153.241 218.851 153.502C202.701 163.518 187.505 175.099 173.496 188.036C173.135 188.375 173.677 188.923 174.038 188.584Z" fill="#111314"/>
<path d="M183.764 180.187C185.183 181.596 186.602 183.004 188.021 184.439C188.175 184.595 188.433 184.595 188.562 184.439C192.742 179.952 197.437 175.988 202.571 172.675C203.81 171.866 205.074 171.11 206.364 170.38C207.189 169.91 208.763 169.467 209.253 168.58C209.769 167.693 208.995 166.493 208.583 165.737C207.86 164.407 207.009 163.181 206.08 162.033C205.77 161.642 205.229 162.19 205.538 162.581C206.441 163.702 207.241 164.876 207.912 166.128C208.067 166.389 208.402 166.832 208.428 167.145C208.325 167.615 208.221 168.058 208.118 168.528C207.989 168.606 207.86 168.658 207.731 168.736C207.215 169.128 206.544 169.362 205.977 169.702C203.732 170.98 201.539 172.362 199.424 173.849C195.296 176.796 191.478 180.161 188.021 183.865C188.201 183.865 188.382 183.865 188.562 183.865C187.143 182.456 185.724 181.048 184.305 179.613C183.944 179.274 183.402 179.822 183.764 180.187Z" fill="#111314"/>
<path d="M125.149 115.886C131.496 108.322 138.926 101.775 146.537 95.541C154.174 89.3071 162.171 83.4644 171.124 79.3172C171.588 79.1085 171.175 78.4303 170.737 78.639C161.862 82.7341 153.941 88.5246 146.356 94.6803C138.617 100.992 131.057 107.644 124.607 115.312C124.272 115.729 124.814 116.277 125.149 115.886Z" fill="#111314"/>
<path d="M171.276 82.9685C170.425 83.0207 170.063 81.5861 171.018 81.5079C171.353 81.4818 171.74 81.6383 171.869 81.9774C172.05 82.473 171.585 82.9946 171.095 82.9946C170.734 82.9946 170.708 83.5945 171.095 83.5945C171.895 83.5945 172.592 82.8381 172.463 82.0296C172.359 81.3514 171.663 80.9341 171.018 80.9601C170.321 81.0123 169.78 81.5861 169.857 82.2904C169.934 82.9946 170.554 83.6467 171.276 83.5945C171.663 83.5424 171.663 82.9425 171.276 82.9685Z" fill="#111314"/>
<path opacity="0.15" d="M124.113 51.0703C128.19 53.7308 133.711 57.6433 139.748 62.8861C143.489 66.1465 153.189 74.8844 165.315 91.8386C178.472 110.227 185.051 119.409 186.367 129.659C187.038 135.006 187.967 150.239 174.68 168.967C180.175 164.741 185.696 160.49 191.192 156.264C193.591 160.255 195.964 164.246 198.364 168.237C195.784 170.167 193.204 172.071 190.624 174.001C191.888 175.54 193.152 177.053 194.416 178.592C195.964 177.079 197.822 175.462 199.963 173.871C203.266 171.419 206.439 169.671 209.174 168.393C208.142 166.385 207.136 164.35 206.104 162.342C210.541 159.394 214.979 156.421 219.416 153.473C219.184 151.256 218.642 148.048 217.223 144.449C215.572 140.223 213.482 137.406 212.682 136.311C206.903 128.407 209.715 130.311 197.616 113.123C188.921 100.759 184.123 93.847 176.434 84.9004C171.507 79.1621 168.23 75.38 162.993 70.7111C157.42 65.7291 150.661 59.8082 140.341 55.4784C133.762 52.7657 127.983 51.6181 124.113 51.0703Z" fill="#636E72"/>
<path opacity="0.11" d="M206.959 126.844C206.727 128.513 206.262 131.069 205.101 133.964C202.418 140.668 198.29 143.589 189.673 152.405C185.597 156.579 179.534 162.76 180.102 163.439C180.643 164.091 187.274 158.926 198.858 151.206C205.643 146.667 211.345 143.146 215.086 140.85C212.377 136.182 209.668 131.513 206.959 126.844Z" fill="#636E72"/>
<path d="M160.29 169.309C155.543 172.648 152.472 175.882 149.738 178.803C148.628 179.977 143.314 185.689 137.715 194.662C135.239 198.627 133.407 202.122 132.143 204.756C132.297 205.826 132.659 207.365 133.613 208.904C134.671 210.625 135.858 211.382 137.715 213.051C139.986 215.085 140.811 216.285 142.127 217.642C144.681 220.302 148.267 222.31 155.336 226.249C164.211 231.179 168.984 232.979 170.455 233.526C172.261 234.178 173.783 234.674 174.866 235.013C175.382 232.587 176.001 230.005 176.775 227.292C177.472 224.867 178.22 222.597 178.968 220.485C173.473 216.416 167.823 211.851 162.096 206.687C160.109 204.913 158.2 203.113 156.368 201.339C158.226 199.07 160.831 196.097 164.134 192.888C165.088 191.949 167.101 190.019 169.552 187.985C172.648 185.455 177.317 182.064 183.767 178.934C184.876 171.448 183.561 164.458 179.51 162.188C174.454 159.371 166.765 164.771 160.29 169.309Z" fill="#F7FAFC"/>
<path d="M155.076 173.193C145.943 181.018 138.384 190.695 133.018 201.519C132.476 202.641 131.702 203.893 131.599 205.145C131.496 206.475 132.295 207.492 133.018 208.51C134.746 210.883 136.707 213.1 138.797 215.161C143.234 219.465 148.343 223.012 153.709 226.012C160.314 229.715 167.305 232.663 174.271 235.584C174.735 235.767 174.942 235.01 174.477 234.828C163.074 230.028 151.439 225.125 141.919 216.961C139.777 215.109 137.739 213.126 135.907 210.962C134.953 209.814 133.998 208.64 133.173 207.414C132.657 206.658 132.27 205.954 132.399 204.988C132.528 204.049 133.069 203.163 133.482 202.302C135.959 197.216 138.926 192.39 142.331 187.878C146.227 182.687 150.69 177.966 155.618 173.767C156.005 173.428 155.463 172.88 155.076 173.193Z" fill="#111314"/>
<path d="M176.954 182.194C168.105 187.984 160.365 195.313 154.096 203.869C153.812 204.286 154.483 204.677 154.767 204.26C160.959 195.809 168.621 188.558 177.341 182.846C177.754 182.611 177.367 181.933 176.954 182.194Z" fill="#111314"/>
<path d="M155.928 201.735C163.177 208.36 170.633 214.724 178.322 220.802C178.709 221.115 179.25 220.567 178.863 220.254C171.175 214.176 163.693 207.812 156.47 201.187C156.108 200.848 155.567 201.395 155.928 201.735Z" fill="#111314"/>
<path opacity="0.11" d="M170.271 179.272C166.71 179.585 164.027 182.219 155.746 193.852C152.572 198.312 149.915 202.199 147.877 205.277C150.818 207.363 153.14 209.085 154.611 210.206C162.841 216.44 166.298 219.935 173.289 223.744C174.811 224.578 176.076 225.178 176.824 225.517C177.417 223.874 178.011 222.231 178.578 220.588C176.617 218.866 174.657 217.171 172.67 215.449C167.201 210.754 161.783 206.216 156.391 201.808C158.635 198.625 160.751 196.226 162.299 194.582C166.865 189.757 171.406 186.497 174.94 183.993C176.153 183.132 177.185 182.454 177.856 182.01C174.528 179.428 171.922 179.115 170.271 179.272Z" fill="#636E72"/>
<path opacity="0.08" d="M171.301 186.08C169.083 186.602 166.116 187.619 163.097 189.653C155.719 194.635 153.242 202.252 152.52 204.86C156.493 207.99 160.595 211.146 164.852 214.302C168.98 217.38 173.082 220.301 177.08 223.118C177.674 222.258 178.267 221.371 178.835 220.51C173.34 216.467 167.638 211.798 161.936 206.451C160.13 204.782 158.402 203.086 156.751 201.417C157.654 200.217 158.634 198.991 159.666 197.739C163.536 193.096 167.509 189.262 171.301 186.08Z" fill="#636E72"/>
<path d="M166.454 171.551C166.686 175.881 169.679 178.515 169.679 178.515C171.536 180.159 173.626 180.602 174.658 180.732C175.484 181.072 176.309 181.437 177.161 181.776C178.451 183.654 180.36 186.314 182.888 189.34C186.242 193.409 190.757 198.26 201.799 207.442C207.243 211.954 214.26 217.51 222.748 223.613C223.961 223.014 225.405 222.127 226.85 220.823C230.024 217.979 231.494 214.667 232.165 212.789C230.668 211.328 228.45 209.137 225.87 206.425C214.415 194.452 206.778 184.202 200.948 176.324C197.104 171.134 192.176 164.222 186.732 155.875C174.271 159.318 166.144 165.995 166.454 171.551Z" fill="#F7FAFC"/>
<path d="M170.453 179.508C172.517 180.238 174.555 180.943 176.619 181.673C177.084 181.829 177.29 181.073 176.826 180.917C174.762 180.186 172.724 179.482 170.66 178.752C170.195 178.595 169.989 179.352 170.453 179.508Z" fill="#111314"/>
<path d="M175.766 180.889C185.466 194.374 198.031 205.277 211.059 215.371C214.8 218.267 218.593 221.136 222.385 223.979C222.798 224.292 223.159 223.588 222.772 223.301C209.718 213.52 196.586 203.608 185.492 191.557C182.267 188.062 179.249 184.358 176.462 180.498C176.153 180.107 175.482 180.498 175.766 180.889Z" fill="#111314"/>
<path d="M190.991 162.71C200.124 176.874 210.417 190.228 221.769 202.644C225.046 206.243 228.425 209.739 231.857 213.155C232.218 213.521 232.76 212.947 232.399 212.608C220.453 200.766 209.515 187.907 199.711 174.213C196.924 170.327 194.241 166.362 191.636 162.319C191.378 161.902 190.707 162.293 190.991 162.71Z" fill="#111314"/>
<path opacity="0.09" d="M191.014 162.293C189.543 160.285 188.305 158.642 187.479 157.572C186.654 159.111 185.519 161.693 185.416 164.902C185.183 172.153 190.446 175.257 205.539 192.159C212.118 199.514 215.601 203.948 224.089 212.712C226.075 214.747 227.752 216.442 228.965 217.642C229.894 215.999 230.822 214.356 231.777 212.712C223.599 204.418 217.123 196.932 212.273 191.011C207.603 185.299 203.423 180.187 199.115 173.822C198.006 172.231 195.193 167.98 191.014 162.293Z" fill="#636E72"/>
<path opacity="0.09" d="M195.584 169.619C195.945 171.419 196.693 174.471 198.164 178.018C202.421 188.138 208.716 192.416 220.042 205.066C222.209 207.492 225.563 211.326 229.484 216.282C230.387 214.978 231.29 213.7 232.193 212.396C231.368 211.613 230.052 210.387 228.452 208.822C225.511 205.953 217.539 197.946 202.318 178.409C200.666 176.323 198.345 173.297 195.584 169.619Z" fill="#636E72"/>
<path d="M84.5934 140.747C84.0516 141.06 83.0455 141.607 82.8391 142.755C82.5811 144.033 83.4841 145.076 83.6131 145.207C83.4583 145.389 82.9939 145.937 82.9423 146.772C82.8907 148.154 84.1032 148.963 84.1548 149.015C84.1032 149.067 83.3551 149.85 83.6131 150.919C83.8195 151.832 84.6192 152.223 84.7224 152.249C84.6708 152.406 84.4902 153.084 84.8256 153.71C85.3416 154.649 86.58 154.597 86.709 154.597C87.5862 154.545 88.4117 153.945 88.7987 153.032C89.2889 153.319 90.5789 153.997 92.3332 153.814C93.52 153.684 94.3972 153.214 94.8616 152.927C95.7903 154.571 97.2351 156.788 99.3764 159.057C101.26 161.039 104.769 164.769 109.98 166.308C116.481 168.238 122.235 165.734 125.537 164.3C134.412 160.439 138.824 153.345 140.449 150.684C143.184 146.146 144.138 142.259 144.964 138.738C146.305 133.156 145.841 130.965 145.402 129.687C145.144 128.905 143.622 124.418 140.114 123.897C137.25 123.453 134.876 125.931 134.593 126.244C133.612 127.288 133.096 128.67 132.064 131.383C131.548 132.765 131.213 133.808 131.058 134.278C129.381 139.781 128.53 142.52 128.297 143.094C127.678 144.659 126.208 148.232 122.673 151.023C119.294 153.684 115.759 154.258 114.185 154.492C111.812 154.832 108.896 155.249 105.8 153.71C102.343 151.988 100.795 148.858 100.383 148.024C99.1443 145.442 98.9121 142.572 98.7315 140.538C98.4993 137.93 98.6799 135.895 97.1835 134.278C96.8997 133.991 96.2289 133.261 95.5324 133.391C94.5262 133.6 93.9586 135.556 93.4426 137.408C93.004 138.973 93.133 139.155 92.7718 139.521C92.0236 140.277 91.0691 139.886 87.7926 140.068C85.8834 140.199 85.2126 140.407 84.5934 140.747Z" fill="#F7FAFC"/>
<path d="M89.9322 139.624C87.1459 139.102 82.244 139.832 82.631 143.693C82.9664 147.162 87.0427 147.762 89.4936 146.249C89.9064 145.988 89.5194 145.31 89.1066 145.571C87.0685 146.823 83.3792 146.484 83.3792 143.354C83.3792 140.328 87.5845 139.989 89.7258 140.38C90.216 140.484 90.4224 139.728 89.9322 139.624Z" fill="#111314"/>
<path d="M83.3026 144.969C80.5163 148.412 87.2241 152.742 89.2106 148.412C89.417 147.969 88.7462 147.551 88.5398 148.021C86.9919 151.359 81.832 148.021 83.8702 145.517C84.1798 145.152 83.638 144.578 83.3026 144.969Z" fill="#111314"/>
<path d="M83.4552 148.465C82.8618 149.821 83.2746 151.542 84.642 152.247C85.9835 152.951 87.6605 152.299 88.3571 150.995C88.5893 150.551 87.9185 150.16 87.6863 150.603C87.1703 151.516 86.0093 152.038 85.029 151.568C84.0486 151.099 83.6874 149.821 84.126 148.856C84.3324 148.412 83.6616 148.021 83.4552 148.465Z" fill="#111314"/>
<path d="M84.0773 151.962C83.9741 153.344 84.7738 154.596 86.167 154.883C87.457 155.144 88.6438 154.283 89.0823 153.109C89.2629 152.64 88.5148 152.431 88.3342 152.901C87.9988 153.787 87.07 154.361 86.1412 154.074C85.1866 153.787 84.7996 152.901 84.8512 151.962C84.877 151.466 84.1031 151.466 84.0773 151.962Z" fill="#111314"/>
<path d="M86.5272 143.429C87.198 143.35 87.8946 143.377 88.4621 143.768C89.0039 144.133 89.3135 144.863 89.0039 145.463C88.7717 145.907 89.4425 146.298 89.6747 145.854C90.0875 145.046 89.9069 144.107 89.2877 143.455C88.5911 142.698 87.4818 142.542 86.5014 142.646C86.037 142.724 86.037 143.507 86.5272 143.429Z" fill="#111314"/>
<path d="M88.9267 153.634C90.2683 153.138 91.5582 154.26 92.9514 154.103C94.0092 153.973 94.938 153.399 95.8151 152.877C96.2279 152.617 95.8409 151.938 95.4281 152.199C94.1124 153.008 92.9772 153.582 91.4035 153.112C90.4489 152.825 89.7007 152.512 88.7203 152.877C88.2559 153.06 88.4365 153.816 88.9267 153.634Z" fill="#111314"/>
<path d="M89.7275 140.3C91.069 140.769 92.875 140.847 93.6232 139.361C94.0359 138.526 93.778 137.509 93.9585 136.622C94.1649 135.422 94.8357 134.431 95.7645 133.674C96.1515 133.361 95.6097 132.814 95.2227 133.127C94.2165 133.961 93.4942 135.109 93.2362 136.413C93.1072 137.143 93.2878 138.004 93.0814 138.708C92.617 140.117 91.069 139.934 89.9854 139.543C89.4695 139.387 89.2631 140.143 89.7275 140.3Z" fill="#111314"/>
<path d="M95.1927 133.729C97.3857 134.016 97.6695 137.746 98.0307 139.441C98.4692 141.658 98.7014 143.901 99.1142 146.118C99.785 149.666 101.823 152.483 105.074 154.074C108.479 155.717 112.349 155.639 115.91 154.648C119.573 153.604 123.366 151.726 125.739 148.622C126.049 148.231 125.507 147.683 125.197 148.075C122.721 151.309 118.696 153.213 114.826 154.126C110.93 155.039 106.673 154.7 103.423 152.144C99.914 149.405 99.8366 145.284 99.14 141.189C98.8046 139.259 98.5208 137.172 97.8243 135.346C97.3857 134.198 96.6891 133.155 95.4249 132.972C94.9089 132.894 94.7025 133.651 95.1927 133.729Z" fill="#111314"/>
<path d="M94.6296 153.395C97.7513 157.255 100.77 161.663 104.898 164.506C108.948 167.271 113.953 167.558 118.649 166.775C128.194 165.158 136.295 158.611 140.939 150.16C143.597 145.361 145.17 140.04 145.867 134.588C145.919 134.093 145.145 134.093 145.093 134.588C143.906 143.9 139.882 153.029 132.709 159.185C129.175 162.211 124.97 164.48 120.455 165.575C115.785 166.723 110.393 166.88 106.136 164.35C101.595 161.663 98.422 156.864 95.1713 152.821C94.8617 152.456 94.32 153.003 94.6296 153.395Z" fill="#111314"/>
<path d="M140.475 123.792C138.333 122.932 136.063 124.053 134.567 125.644C132.812 127.47 131.935 129.896 131.29 132.295C130.542 135.086 129.871 137.851 128.813 140.538C127.678 143.433 126.233 146.172 124.582 148.78C124.298 149.197 124.969 149.589 125.253 149.171C127.91 145.024 129.948 140.512 131.213 135.738C131.883 133.234 132.322 130.626 133.56 128.357C134.799 126.062 137.43 123.401 140.268 124.549C140.733 124.731 140.939 123.975 140.475 123.792Z" fill="#111314"/>
<path d="M87.6899 151.543C88.4123 151.595 88.2575 152.821 88.1285 153.264C87.9737 153.734 88.7219 153.943 88.8767 153.473C89.2121 152.482 88.9799 150.865 87.6899 150.76C87.1997 150.734 87.1997 151.517 87.6899 151.543Z" fill="#111314"/>
<path d="M88.1269 149.146C88.2817 149.772 88.0495 150.424 87.5593 150.79C87.1465 151.077 87.5335 151.755 87.9463 151.468C88.7461 150.894 89.1331 149.903 88.8751 148.938C88.7719 148.442 88.0237 148.651 88.1269 149.146Z" fill="#111314"/>
<path d="M88.566 146.434C89.2626 146.773 88.7982 147.895 88.4628 148.338C88.1532 148.73 88.824 149.121 89.1336 148.73C89.727 147.947 90.0366 146.278 88.953 145.756C88.5144 145.548 88.1274 146.226 88.566 146.434Z" fill="#111314"/>
<path opacity="0.11" d="M83.248 146.534C83.6608 146.299 84.3316 147.76 86.0601 148.49C86.7051 148.751 87.5049 148.934 91.1684 148.49C92.3552 148.334 93.9031 148.125 95.7607 147.786C96.1219 149.273 96.8701 151.516 98.3922 153.837C99.0372 154.802 101.643 158.558 106.674 160.776C112.066 163.175 116.942 162.367 118.825 162.028C120.425 161.741 124.888 160.88 128.861 157.385C131.519 155.063 133.221 152.246 135.724 144.917C137.427 139.935 139.491 133.023 141.013 124.441C142.045 125.511 143.644 127.441 144.547 130.31C144.986 131.693 145.399 133.727 145.063 136.909C144.367 143.769 140.961 149.481 138.897 152.403C136.756 155.455 132.938 160.723 125.869 163.984C124.914 164.427 119.522 166.801 112.659 166.488C111.085 166.41 109.641 166.331 107.861 165.679C105.926 164.975 103.991 163.149 100.147 159.55C98.547 158.063 96.9733 156.498 95.3737 154.229C95.0641 153.785 94.8061 153.394 94.6255 153.133C94.0837 153.498 93.2839 153.916 92.381 153.811C91.1684 153.707 90.7556 152.82 89.7494 152.977C88.8723 153.107 88.8723 153.837 87.8145 154.229C86.9889 154.516 85.8279 154.489 85.054 153.89C84.4864 153.446 84.409 152.951 83.764 150.134C83.1448 147.369 82.9642 146.691 83.248 146.534Z" fill="#636E72"/>
<path d="M137.248 124.393C137.609 126.897 138.306 130.862 139.751 135.557C142.795 145.364 146.381 149.564 151.128 160.936C152.315 163.779 153.992 168.057 155.643 173.456C158.713 174.473 164.415 175.856 171.381 174.63C182.835 172.621 189.569 164.953 191.452 162.631C187.531 155.328 183.584 147.425 179.74 138.948C175.921 130.549 172.593 122.463 169.704 114.769C167.278 113.856 160.932 111.821 153.14 113.751C143.827 116.021 138.693 122.463 137.248 124.393Z" fill="#F7FAFC" stroke="#111314"/>
<path opacity="0.13" d="M159.898 112.863C160.879 114.95 162.117 117.793 163.433 121.236C167.561 132.191 169.057 141.19 169.599 144.398C170.76 151.023 171.766 161.3 170.115 174.498C173.701 174.394 176.358 173.559 178.035 172.907C182.834 170.977 186.317 167.612 189.671 164.352C190.445 163.621 191.038 162.969 191.425 162.578C190.316 160.648 188.639 157.622 186.678 153.84C181.002 142.937 177.287 133.886 174.165 126.218C173.056 123.531 171.534 119.671 169.754 115.002C168.335 114.402 166.555 113.802 164.465 113.411C162.762 113.072 161.214 112.915 159.898 112.863Z" fill="#636E72"/>
<path opacity="0.1" d="M176.982 133.549C177.421 138.218 177.782 142.13 178.04 144.947C179.021 155.98 179.201 159.032 179.279 160.988C179.485 165.605 179.485 169.387 179.459 171.865C181.059 171.291 183.123 170.352 185.264 168.84C187.947 166.935 189.753 164.849 190.914 163.31C186.27 153.372 181.626 143.46 176.982 133.549Z" fill="#636E72"/>
<path d="M158.665 108.271C157.427 108.636 156.756 110.436 156.343 112.287C155.518 116.07 155.956 119.304 156.111 120.425C156.859 125.407 158.201 129.137 158.639 130.363C159.774 133.389 161.322 137.432 164.702 141.736C166.637 144.187 168.288 146.3 171.332 147.865C173.113 148.804 176.802 150.708 180.594 149.195C180.775 149.117 184.49 147.578 185.445 144.292C185.651 143.561 185.703 142.831 185.78 141.396C185.832 140.536 185.857 139.023 185.677 137.145C185.419 134.667 184.877 132.737 184.464 131.354C182.633 125.225 181.73 122.173 179.82 119.513C178.247 117.322 176.467 114.818 173.525 114.478C173.267 114.452 170.301 114.165 168.546 116.252C167.334 117.713 167.411 119.513 167.437 120.712C167.514 123.008 168.391 124.651 169.759 127.181C171.126 129.685 171.668 129.998 173.293 132.972C175.512 137.041 175.28 137.432 175.177 137.536C174.738 137.927 172.984 136.701 172.597 136.415C172.235 136.154 171.719 135.789 171.074 135.084C169.062 132.815 167.875 129.398 167.875 129.398C166.818 127.285 165.424 124.286 164.005 120.478C164.444 118.782 165.115 117.582 165.657 116.8C166.534 115.548 167.514 114.687 167.746 113.122C167.85 112.522 167.798 112.001 167.746 111.661C168.185 111.244 168.314 110.618 168.082 110.096C167.798 109.497 167.101 109.21 166.431 109.418C166.431 109.34 166.353 108.662 165.76 108.297C165.27 107.984 164.599 108.036 164.109 108.401C163.335 107.801 162.69 107.645 162.225 107.619C161.684 107.592 161.426 107.723 160.136 107.958C159.052 108.245 158.975 108.192 158.665 108.271Z" fill="#F7FAFC"/>
<path d="M165.139 119.276C165.836 117.528 166.713 115.937 167.668 114.32C168.158 113.485 168.725 112.442 168.055 111.529C166.532 109.547 164.469 112.077 163.824 113.381C163.591 113.824 164.262 114.216 164.494 113.772C164.881 112.99 165.32 112.025 166.223 111.764C166.481 111.633 166.739 111.633 167.023 111.712C167.1 112.311 167.177 112.911 167.281 113.511C167.203 113.85 166.739 114.398 166.558 114.711C165.733 116.094 165.062 117.554 164.443 119.041C164.211 119.537 164.959 119.719 165.139 119.276Z" fill="#111314"/>
<path d="M156.703 122.642C156.316 119.851 156.265 117.008 156.574 114.217C156.858 111.661 157.4 107.774 160.909 108.505C161.399 108.609 161.605 107.852 161.115 107.748C158.355 107.174 156.626 109.157 156.162 111.687C155.465 115.364 155.439 119.12 155.955 122.85C156.033 123.346 156.781 123.137 156.703 122.642Z" fill="#111314"/>
<path d="M159.924 110.618C160.208 109.94 160.518 109.235 161.059 108.714C161.988 107.801 163.175 108.296 164.181 108.792C164.62 109.027 165.007 108.349 164.568 108.114C163.51 107.566 162.324 107.044 161.188 107.644C160.208 108.166 159.692 109.235 159.279 110.2C159.073 110.696 159.744 111.087 159.924 110.618Z" fill="#111314"/>
<path d="M162.222 110.851C163.177 109.599 164.441 108.295 166.092 109.286C166.531 109.547 166.918 108.868 166.479 108.608C164.518 107.434 162.867 108.712 161.68 110.277C161.371 110.694 161.913 111.242 162.222 110.851Z" fill="#111314"/>
<path d="M163.95 111.429C164.44 110.907 164.956 110.36 165.627 110.099C166.427 109.76 167.897 109.968 167.588 111.194C167.485 111.69 168.207 111.899 168.336 111.403C168.594 110.334 167.897 109.342 166.84 109.16C165.421 108.899 164.311 109.942 163.408 110.881C163.073 111.246 163.615 111.794 163.95 111.429Z" fill="#111314"/>
<path d="M164.265 118.888C163.362 120.845 164.472 122.827 165.246 124.627C166.329 127.157 167.464 129.687 168.858 132.034C170.664 135.112 174.585 140.642 178.687 137.486C179.074 137.173 178.687 136.495 178.3 136.808C174.353 139.859 170.689 133.704 169.09 130.861C168.161 129.191 167.335 127.47 166.561 125.722C165.788 123.975 164.059 121.236 164.962 119.28C165.143 118.836 164.472 118.419 164.265 118.888Z" fill="#111314"/>
<path d="M167.593 116.904C165.322 124.703 172.288 130.755 174.842 137.432C175.023 137.902 175.771 137.693 175.59 137.223C173.114 130.755 166.148 124.651 168.341 117.113C168.47 116.618 167.722 116.409 167.593 116.904Z" fill="#111314"/>
<path d="M155.927 122.435C157.243 129.739 160.313 136.651 164.828 142.52C167.021 145.337 169.524 148.075 172.981 149.223C175.922 150.188 179.972 150.684 182.707 148.884C185.7 146.954 186.087 143.015 186.216 139.755C186.242 139.259 185.468 139.259 185.442 139.755C185.287 143.954 184.358 148.597 179.431 149.197C174.89 149.745 170.659 147.919 167.589 144.606C161.887 138.477 158.146 130.469 156.65 122.227C156.598 121.731 155.85 121.94 155.927 122.435Z" fill="#111314"/>
<path d="M168.108 117.949C168.934 114.61 172.907 114.375 175.383 115.836C177.912 117.323 179.64 120.009 180.904 122.592C182.22 125.304 183.175 128.226 184.104 131.095C185.161 134.381 185.961 137.824 185.419 141.293C185.342 141.789 186.09 141.997 186.168 141.502C186.787 137.537 185.806 133.703 184.542 129.947C183.381 126.53 182.246 123.009 180.311 119.931C178.686 117.323 176.261 114.61 173.061 114.167C170.585 113.828 167.953 115.184 167.334 117.74C167.231 118.236 167.979 118.444 168.108 117.949Z" fill="#111314"/>
<path opacity="0.1" d="M159.619 107.931C161.683 107.096 163.695 108.009 164.186 108.244C162.741 110.174 159.671 114.843 159.413 121.442C159.026 130.832 164.573 137.066 166.533 139.283C169.062 142.126 172.364 145.83 176.621 145.308C179.02 145.021 181.291 143.404 182.452 141.344C183.613 139.283 183.535 137.04 182.142 131.249C180.001 122.485 177.653 117.347 177.988 117.19C178.324 117.034 181.11 121.442 183.2 126.972C183.406 127.545 185.135 132.188 185.754 138.579C186.141 142.517 185.806 144.134 185.006 145.569C183.767 147.786 181.755 148.777 180.981 149.116C177.859 150.447 174.867 149.508 173.448 149.012C168.365 147.291 165.656 143.117 162.922 138.918C158.716 132.423 157.555 126.867 156.446 121.52C155.672 117.816 155.156 113.513 157.091 110.357C157.426 109.704 158.174 108.531 159.619 107.931Z" fill="#636E72"/>
<path d="M122.36 95.2304C122.283 96.4563 122.721 97.8387 123.65 100.604C124.682 103.707 125.792 107.02 128.578 110.28C130.358 112.367 132.525 114.923 136.215 115.654C139.13 116.227 141.581 115.393 142.819 114.871C143.103 115.654 143.49 116.488 143.98 117.349C145.27 119.644 146.87 121.262 148.134 122.331C149.088 122.227 150.946 121.835 152.546 120.375C153.784 119.227 154.377 117.871 154.739 116.984C155.177 115.941 155.409 115.028 155.513 114.376C154.739 113.906 153.887 113.28 153.062 112.419C150.482 109.759 149.785 106.603 149.579 105.09C149.914 102.09 150.275 99.0646 150.611 96.065C150.998 96.1172 151.823 96.1694 152.546 95.6738C153.345 95.126 153.5 94.2131 153.707 93.1959C153.913 92.1786 154.145 90.8744 153.578 89.3877C153.32 88.7356 152.494 86.6489 150.74 86.5185C149.553 86.4142 148.34 87.2228 147.644 88.4748C146.147 87.0141 142.948 84.4319 138.459 84.0145C130.693 83.2842 122.799 89.4138 122.36 95.2304Z" fill="#F7FAFC"/>
<path d="M133.814 107.15C133.607 107.698 134.201 108.48 134.639 108.872C135.852 109.941 137.993 109.889 139.541 109.159C141.708 108.141 142.405 105.95 142.715 104.959C143.076 103.864 143.54 102.429 142.792 101.151C142.147 100.029 141.012 99.6382 140.573 99.5078C140.135 100.421 139.799 101.099 139.541 101.542C139.232 102.09 139.128 102.273 138.948 102.69C138.69 103.238 138.664 103.446 138.303 103.942C136.832 105.872 134.82 106.576 134.82 106.576C134.356 106.681 133.943 106.785 133.814 107.15Z" fill="#111314"/>
<path d="M122.775 98.3606C124.813 104.803 127.367 112.315 133.946 115.341C136.629 116.567 139.829 116.802 142.563 115.602C145.633 114.271 147.439 111.194 148.678 108.22C150.303 104.334 151 100.108 150.742 95.9088C150.716 95.4132 149.942 95.4132 149.968 95.9088C150.226 100.291 149.452 104.699 147.62 108.69C145.84 112.576 143.028 115.68 138.513 115.628C129.431 115.523 125.742 105.403 123.472 98.178C123.369 97.6564 122.646 97.865 122.775 98.3606Z" fill="#111314"/>
<path d="M147.93 89.2064C147.956 87.6414 149.556 86.7024 150.975 87.1459C152.29 87.5893 153.116 88.8934 153.4 90.1976C153.658 91.4496 153.554 92.9103 153.168 94.1101C152.858 95.1013 152.471 95.623 151.284 95.623C150.871 95.623 150.459 95.4665 150.02 95.4665C149.53 95.4665 149.53 96.249 150.02 96.249C150.897 96.249 151.749 96.6663 152.6 96.2229C153.219 95.9099 153.58 95.2839 153.838 94.6318C154.509 92.8581 154.586 90.4585 153.735 88.7109C153.039 87.2763 151.542 86.0504 149.891 86.2329C148.369 86.3894 147.182 87.6414 147.156 89.1804C147.156 89.702 147.93 89.702 147.93 89.2064Z" fill="#111314"/>
<path d="M149.45 103.501C149.372 107.804 151.256 111.926 154.609 114.612C154.996 114.925 155.538 114.377 155.151 114.064C151.952 111.508 150.146 107.648 150.224 103.501C150.224 103.005 149.45 103.005 149.45 103.501Z" fill="#111314"/>
<path d="M142.796 115.184C143.776 117.923 145.375 120.323 147.517 122.253C147.878 122.592 148.446 122.044 148.059 121.705C145.995 119.853 144.472 117.584 143.518 114.976C143.363 114.506 142.615 114.715 142.796 115.184Z" fill="#111314"/>
<path d="M147.697 122.515C149.916 123.323 152.134 121.419 153.502 119.828C154.947 118.159 156.211 115.994 155.592 113.725C155.463 113.229 154.714 113.438 154.843 113.933C155.359 115.916 154.198 117.846 152.934 119.281C151.747 120.637 149.812 122.463 147.878 121.758C147.439 121.576 147.233 122.332 147.697 122.515Z" fill="#111314"/>
<path d="M125.665 95.6245C125.33 94.6594 126.104 93.6161 126.671 92.9379C127.523 91.8685 128.839 91.5816 129.819 92.6771C130.954 93.9291 131.264 96.1722 131.419 97.7894C131.522 98.911 131.135 100.346 131.78 101.337C132.476 102.406 133.766 103.032 134.979 103.267C135.469 103.371 135.675 102.615 135.185 102.51C134.54 102.38 133.973 102.171 133.405 101.806C132.476 101.18 132.27 100.502 132.244 99.3805C132.218 98.4154 132.193 97.4764 132.038 96.5113C131.78 94.9202 131.341 92.8857 130.051 91.8163C128.968 90.9034 127.626 90.9295 126.568 91.8424C125.562 92.7292 124.401 94.4246 124.891 95.8071C125.098 96.3026 125.846 96.094 125.665 95.6245Z" fill="#111314"/>
<path d="M132.808 89.9898C132.988 86.8337 136.884 85.686 138.69 88.2683C138.974 88.6856 139.645 88.2943 139.361 87.877C137.116 84.6427 132.266 86.0251 132.034 89.9898C132.008 90.4853 132.782 90.4853 132.808 89.9898Z" fill="#111314"/>
<path d="M129.301 97.7072C128.94 97.2116 128.733 96.6638 128.708 96.0639C128.501 96.1682 128.321 96.2986 128.114 96.403C128.708 96.7942 129.017 97.4202 128.991 98.1245C129.146 97.9941 129.327 97.8636 129.482 97.7593C128.837 97.5246 128.424 96.7942 128.553 96.1161C128.372 96.1943 128.166 96.2726 127.985 96.3508C128.295 96.5334 128.553 96.7942 128.733 97.1333C128.811 97.2898 128.862 97.4463 128.888 97.6289C128.888 97.7593 128.888 97.6028 128.862 97.5507C128.811 97.4463 128.759 97.3681 128.708 97.2637C128.501 96.7942 127.831 97.2116 128.037 97.655C128.192 98.0202 128.45 98.4114 128.914 98.4375C129.301 98.4636 129.636 98.2027 129.688 97.8115C129.765 96.9507 129.095 96.09 128.398 95.6987C128.192 95.5683 127.882 95.6726 127.831 95.9335C127.624 97.0551 128.243 98.1506 129.301 98.5418C129.559 98.6201 129.791 98.4114 129.791 98.1767C129.817 97.1855 129.353 96.2986 128.527 95.777C128.295 95.6205 127.934 95.8291 127.934 96.1161C127.959 96.8464 128.192 97.5506 128.63 98.1506C128.94 98.5157 129.611 98.1245 129.301 97.7072Z" fill="#111314"/>
<path d="M136.524 92.6745C136.395 92.518 136.292 92.3354 136.241 92.1267C136.241 92.0746 136.189 91.7616 136.241 91.7355C136.292 91.7094 136.421 92.1267 136.447 92.1528C136.499 92.3615 136.473 92.5962 136.37 92.7788C136.55 92.7266 136.731 92.6745 136.911 92.6484C136.266 92.2832 135.957 91.6051 136.06 90.8747C135.854 90.9791 135.673 91.1095 135.467 91.2138C136.189 91.5268 136.602 92.2832 136.421 93.0657C136.576 92.9875 136.731 92.8831 136.886 92.8049C136.499 92.6745 136.189 92.3354 136.112 91.9181C136.112 91.892 136.112 91.6572 136.086 91.6572C136.034 91.6833 135.983 91.7094 135.905 91.7355C135.931 91.7877 135.983 91.8659 136.008 91.9181C136.112 92.205 136.112 92.4919 136.086 92.8049C136.318 92.7006 136.524 92.6223 136.757 92.518C136.524 92.3354 136.344 92.1267 136.215 91.8398C135.983 91.3964 135.312 91.7877 135.544 92.2311C135.699 92.5441 135.931 92.831 136.215 93.0657C136.499 93.3005 136.834 93.144 136.886 92.7788C136.937 92.2571 136.886 91.5529 136.499 91.1617C136.189 90.8487 135.621 90.8226 135.415 91.2921C135.002 92.205 135.879 93.2744 136.679 93.5613C136.886 93.6395 137.118 93.4831 137.144 93.3005C137.427 92.205 136.886 91.0052 135.828 90.5617C135.544 90.4313 135.286 90.5878 135.235 90.9008C135.106 91.892 135.622 92.8571 136.473 93.3526C136.628 93.457 136.911 93.4048 137.015 93.2222C137.221 92.7266 137.273 92.2311 137.092 91.7355C136.937 91.3442 136.602 90.9269 136.163 90.9791C135.028 91.1095 135.518 92.7527 135.983 93.2744C136.318 93.6135 136.86 93.0396 136.524 92.6745Z" fill="#111314"/>
<path d="M143.262 115.108C143.262 115.134 143.262 115.134 143.236 115.16C143.391 115.082 143.546 114.978 143.7 114.899C143.675 114.899 143.649 114.873 143.623 114.873C143.7 115.056 143.778 115.264 143.855 115.447C143.907 115.343 144.603 115.004 144.81 114.821C145.274 114.43 145.661 113.908 146.022 113.413C146.822 112.343 147.416 111.169 147.906 109.943C147.648 109.865 147.416 109.813 147.158 109.735C146.384 111.978 145.842 115.108 143.675 116.438C143.855 116.621 144.036 116.803 144.216 116.986C144.732 116.203 145.248 115.395 145.764 114.612C145.997 114.247 145.455 113.804 145.145 114.143C144.732 114.586 144.294 115.056 143.881 115.499C144.062 115.682 144.242 115.864 144.423 116.047C144.81 115.577 145.171 115.082 145.506 114.586C145.764 114.221 145.197 113.778 144.887 114.117C144.526 114.508 144.165 114.795 143.7 115.03C143.907 115.134 144.087 115.264 144.294 115.369C144.294 115.291 144.268 115.212 144.268 115.134C144.216 114.638 143.442 114.638 143.494 115.134C143.494 115.212 143.52 115.291 143.52 115.369C143.546 115.656 143.829 115.864 144.113 115.708C144.629 115.421 145.042 115.108 145.455 114.665C145.248 114.508 145.042 114.352 144.836 114.195C144.526 114.638 144.216 115.082 143.881 115.499C143.571 115.89 144.087 116.438 144.423 116.047C144.836 115.604 145.274 115.134 145.687 114.691C145.481 114.534 145.274 114.378 145.068 114.221C144.552 115.004 144.036 115.812 143.52 116.595C143.313 116.934 143.726 117.325 144.062 117.142C146.435 115.682 147.054 112.447 147.906 109.97C148.061 109.474 147.338 109.317 147.158 109.761C146.616 111.091 145.919 112.395 144.99 113.491C144.552 114.012 143.855 114.299 143.442 114.769C143.339 114.873 143.236 114.899 143.184 115.03C143.055 115.264 143.159 115.499 143.417 115.604C143.442 115.604 143.468 115.63 143.494 115.63C143.7 115.708 143.907 115.551 143.958 115.369C143.958 115.343 143.958 115.343 143.984 115.317C144.191 114.847 143.442 114.638 143.262 115.108Z" fill="#111314"/>
<path d="M146.123 114.322C146.355 114.061 146.51 113.801 146.587 113.488C146.716 113.018 146.123 112.862 145.891 113.175C145.349 113.905 144.807 114.635 144.265 115.366C143.956 115.757 144.626 116.148 144.936 115.757C145.478 115.026 146.02 114.296 146.561 113.566C146.329 113.461 146.097 113.357 145.865 113.253C145.813 113.435 145.736 113.592 145.607 113.748C145.246 114.166 145.813 114.713 146.123 114.322Z" fill="#111314"/>
<path d="M134.202 107.853C133.48 106.392 134.254 105.844 135.699 105.453C135.879 105.401 136.06 105.375 136.215 105.296C136.834 105.009 137.195 104.383 137.453 103.784C137.866 102.897 138.098 101.932 138.64 101.123C139.775 99.3755 141.787 99.4537 142.432 101.54C143.077 103.627 142.277 105.948 140.91 107.54C140.239 108.322 139.414 109.052 138.433 109.391C137.582 109.704 136.834 109.6 136.008 109.235C135.415 108.974 134.331 108.452 134.177 107.774C134.073 107.279 133.325 107.487 133.428 107.983C133.712 109.339 135.725 110.174 136.937 110.357C138.253 110.565 139.491 109.913 140.497 109.078C142.742 107.2 144.135 103.888 143.051 101.019C141.891 97.9148 138.743 99.0625 137.582 101.514C137.221 102.271 137.04 103.549 136.447 104.097C135.699 104.801 134.744 104.54 133.97 105.088C132.887 105.87 132.99 107.253 133.532 108.322C133.764 108.713 134.435 108.322 134.202 107.853Z" fill="#111314"/>
<path d="M133.686 107.047C137.685 106.943 139.62 103.187 140.497 99.744C140.626 99.2484 139.878 99.0397 139.749 99.5353C138.975 102.613 137.298 106.16 133.686 106.265C133.196 106.291 133.196 107.073 133.686 107.047Z" fill="#111314"/>
<path d="M123.083 97.9434C122.618 98.2042 119.806 95.1003 118.62 90.953C117.742 87.9274 118 85.2408 118.31 83.5454C118.749 82.189 119.368 80.7284 120.219 79.2416C123.883 72.8773 129.662 69.8777 132.654 68.5996C132.035 69.1995 131.313 69.982 130.642 70.9732C129.713 72.2774 129.12 73.5033 128.733 74.5205C129.61 73.7641 130.616 73.0077 131.7 72.2774C134.125 70.6341 136.473 69.4604 138.511 68.6257C138.201 69.9559 137.866 71.2862 137.556 72.5904C138.279 72.173 139.285 71.5731 140.523 70.9732C141.891 70.3211 144.703 68.9648 145.141 69.5647C145.27 69.7473 145.115 69.9559 144.883 70.7124C144.574 71.7035 144.47 72.5382 144.419 73.0859C145.219 72.9555 146.122 72.8512 147.102 72.8251C148.186 72.7729 149.166 72.8251 150.043 72.9034C149.734 74.1032 149.424 75.2769 149.114 76.4768C149.734 76.7115 150.611 77.1549 151.514 77.8853C153.939 79.8937 154.635 82.6064 154.816 83.6758C155.203 86.2319 154.584 88.3708 154.119 89.5445C152.881 86.884 150.43 85.8407 149.037 86.4928C148.186 86.884 147.205 88.136 147.308 89.4141C147.334 89.701 147.412 89.9619 147.489 90.1445C146.586 89.3098 145.219 88.1882 143.439 87.1449C141.658 86.1015 139.672 84.9278 137.04 84.5887C132.087 83.9366 128.217 86.6754 127.185 87.4318C125.585 88.5795 122.98 90.4314 122.515 93.3788C122.051 95.8567 123.444 97.7608 123.083 97.9434Z" fill="#0010F7"/>
<path opacity="0.11" d="M142.717 86.4897C143.517 88.3155 144.6 91.1586 145.194 94.732C145.813 98.2794 146.587 102.844 144.704 107.904C144.059 109.626 142.536 112.938 138.925 116.042C139.776 116.016 141.246 115.86 142.794 115.025C145.323 113.695 146.432 111.478 146.768 110.695C147.98 111.895 149.605 113.773 150.844 116.433C151.54 117.92 151.979 119.303 152.237 120.45C152.934 119.824 154.224 118.468 154.817 116.329C155.049 115.494 155.126 114.738 155.126 114.112C153.63 113.277 152.676 112.26 152.134 111.608C151.902 111.321 149.605 108.4 149.734 104.357C149.786 102.896 150.096 102.87 150.328 100.627C150.534 98.6185 150.431 96.923 150.328 95.8015C151.644 96.3492 152.314 96.0884 152.624 95.9058C153.217 95.5406 153.372 94.8885 153.914 91.576C154.198 89.8023 154.353 88.9155 154.404 88.446C154.714 85.9159 154.868 84.6378 154.714 83.6205C154.275 80.7253 152.443 78.7951 151.824 78.1952C150.792 77.1779 149.734 76.6041 149.038 76.2911C149.347 75.1956 149.631 74.074 149.941 72.9785C148.47 74.7261 147.103 75.9259 146.174 76.7084C143.852 78.5864 142.511 79.0299 140.911 80.8296C139.647 82.2381 138.925 83.6727 138.512 84.6378C139.931 85.2899 141.324 85.8898 142.717 86.4897Z" fill="#636E72"/>
<path opacity="0.17" d="M132.087 68.8867C131.21 69.278 129.146 70.3735 127.701 72.6949C127.34 73.2687 126.54 74.7033 126.308 76.7117C126.05 78.9288 126.592 80.6764 126.901 81.5372C127.004 79.3722 127.52 75.8771 129.584 72.2776C130.384 70.9212 131.261 69.7996 132.087 68.8867Z" fill="#636E72"/>
<path opacity="0.08" d="M150.324 95.9332C150.247 95.9071 150.092 96.194 149.524 98.1764C148.75 100.863 148.337 102.845 148.105 103.836C147.77 105.271 147.202 107.306 146.145 109.757C147.976 110.123 149.808 110.488 151.64 110.827C150.969 109.34 150.169 107.201 149.86 104.541C149.369 99.9761 150.582 95.9853 150.324 95.9332Z" fill="#636E72"/>
</svg>
