<svg width="30" height="30" viewBox="0 0 30 30" fill="none" xmlns="http://www.w3.org/2000/svg">
<path fill-rule="evenodd" clip-rule="evenodd" d="M15 30C6.71531 30 0 23.2847 0 15C0 6.71531 6.71531 0 15 0C23.2847 0 30 6.71531 30 15C30 23.2847 23.2847 30 15 30ZM22.4944 15.2053L15.4669 3.75L8.4375 15.2062L15.4669 19.2872L22.4944 15.2053ZM22.5 16.515L15.4669 20.5941L8.4375 16.5159L15.4669 26.2453L22.5 16.515Z" fill="#0010F7"/>
<path d="M15.4668 3.75V12.0656L22.4952 15.2062L15.4668 3.75ZM15.4668 20.595V26.2453L22.4999 16.515L15.4668 20.595Z" fill="white"/>
<path d="M15.4668 19.2871L22.4952 15.2061L15.4668 12.0674V19.2871Z" fill="#CFCFCF"/>
<path d="M8.4375 15.2061L15.4669 19.2871V12.0674L8.4375 15.2061Z" fill="#E0E0E0"/>
</svg>
