<svg width="21" height="26" viewBox="0 0 21 26" fill="none" xmlns="http://www.w3.org/2000/svg">
<mask id="mask0_5535_124318" style="mask-type:alpha" maskUnits="userSpaceOnUse" x="0" y="0" width="21" height="26">
<rect width="20.8809" height="25.8034" fill="#C4C4C4"/>
</mask>
<g mask="url(#mask0_5535_124318)">
<path fill-rule="evenodd" clip-rule="evenodd" d="M16.35 13.565L10.5245 17.3665L4.69904 13.565L10.5245 2.89209L16.35 13.565ZM-7.95542 34.496C-7.85759 34.496 -7.77554 34.4054 -7.77554 34.2974C-7.77554 33.057 -8.62443 31.9036 -9.79521 31.9071C-10.966 31.9071 -11.8022 33.0639 -11.8022 34.3044C-11.8022 35.5449 -10.9691 36.7017 -9.79521 36.7017C-9.11041 36.7017 -8.413 36.3707 -8.06271 35.6947C-8.04693 35.6599 -8.03115 35.625 -8.04062 35.5623C-8.05009 35.4996 -8.08796 35.4473 -8.13845 35.4229C-8.23312 35.3776 -8.30886 35.4264 -8.35935 35.5031C-8.70964 36.0536 -9.17037 36.3149 -9.79521 36.3149C-10.7072 36.3149 -11.3541 35.4473 -11.4425 34.496H-7.95542ZM-9.79521 32.2869C-8.8832 32.2869 -8.22365 33.1545 -8.14792 34.1058H-11.4425C-11.3541 33.1545 -10.7072 32.2869 -9.79521 32.2869ZM-3.37331 32.1928C-3.37331 32.0987 -3.44589 32.0012 -3.54687 32.0012H-4.47781V30.5133C-4.47781 30.3914 -4.56932 30.3043 -4.68609 30.3252C-4.77129 30.3391 -4.82809 30.4262 -4.82809 30.5203V32.0012H-5.72748C-5.8253 32.0012 -5.90104 32.0953 -5.90104 32.1928C-5.90104 32.3008 -5.82846 32.3845 -5.72748 32.3845H-4.82809V36.4334C-4.82809 36.5275 -4.75551 36.625 -4.65453 36.625C-4.5567 36.625 -4.48096 36.531 -4.48096 36.4334V32.3845H-3.54687C-3.44904 32.3845 -3.37331 32.3043 -3.37331 32.1928ZM2.15552 36.409V33.956C2.15552 32.9106 1.56856 31.9176 0.546105 31.9176C-0.075572 31.9176 -0.612046 32.3183 -0.91184 32.9106V28.353C-0.91184 28.2589 -0.984422 28.1613 -1.08541 28.1613C-1.18323 28.1613 -1.25897 28.2554 -1.25897 28.353V36.409C-1.25897 36.531 -1.16745 36.6181 -1.05069 36.5972C-0.965487 36.5832 -0.908684 36.4961 -0.908684 36.402V34.5623C-0.908684 34.5565 -0.91085 34.5322 -0.913387 34.5037C-0.916976 34.4634 -0.921308 34.4148 -0.921308 34.3985C-0.984422 33.3357 -0.523686 32.3043 0.54926 32.3043C1.38553 32.3043 1.80839 33.1301 1.80839 33.956V36.409C1.80839 36.517 1.88098 36.6007 1.98196 36.6007C2.06716 36.6007 2.15552 36.5205 2.15552 36.409ZM8.22399 34.496C8.32181 34.496 8.40386 34.4054 8.40386 34.2974C8.4007 33.057 7.55497 31.9036 6.3842 31.9071C5.21342 31.9071 4.37716 33.0639 4.37716 34.3044C4.37716 35.5449 5.21027 36.7017 6.3842 36.7017C7.06899 36.7017 7.76641 36.3707 8.11669 35.6947C8.13247 35.6599 8.14825 35.625 8.13878 35.5623C8.12931 35.4996 8.09144 35.4473 8.04095 35.4229C7.94628 35.3776 7.87054 35.4264 7.82005 35.5031C7.46977 36.0536 7.00903 36.3149 6.3842 36.3149C5.47219 36.3149 4.82527 35.4473 4.73691 34.496H8.22399ZM6.38104 32.2869C7.29305 32.2869 7.95259 33.1545 8.02833 34.1058H4.73375C4.82211 33.1545 5.46904 32.2869 6.38104 32.2869ZM12.5221 32.3845C12.6199 32.3705 12.683 32.3043 12.683 32.1789C12.683 32.0674 12.582 32.0012 12.4968 31.9977C11.9004 31.9977 11.3261 32.5064 11.0389 33.043V32.1893C11.0389 32.0674 10.9474 31.9803 10.8306 32.0012C10.7454 32.0151 10.6886 32.1022 10.6886 32.1963V36.3951C10.6886 36.517 10.7801 36.6041 10.8969 36.5832C10.9821 36.5693 11.0389 36.4822 11.0389 36.3881V34.5483C11.0389 33.4716 11.4996 32.5482 12.5221 32.3845ZM18.2276 34.496C18.3255 34.496 18.4075 34.4054 18.4075 34.2974C18.4043 33.057 17.5586 31.9036 16.3878 31.9071C15.2171 31.9071 14.3808 33.0639 14.3808 34.3044C14.3808 35.5449 15.2139 36.7017 16.3878 36.7017C17.0726 36.7017 17.7701 36.3707 18.1203 35.6947C18.1361 35.6599 18.1519 35.625 18.1424 35.5623C18.133 35.4996 18.0951 35.4473 18.0446 35.4229C17.9499 35.3776 17.8742 35.4264 17.8237 35.5031C17.4734 36.0536 17.0127 36.3149 16.3878 36.3149C15.4758 36.3149 14.8289 35.4473 14.7406 34.496H18.2276ZM16.3847 32.2869C17.2967 32.2869 17.9562 33.1545 18.032 34.1058H14.7374C14.8258 33.1545 15.4727 32.2869 16.3847 32.2869ZM24.0342 36.4334V32.2277C24.0342 32.1406 23.9837 32.0604 23.9079 32.0325C23.7849 31.9942 23.6839 32.1057 23.6839 32.2172V33.7887C23.6839 35.1232 23.4093 36.3358 22.2354 36.3358C21.3991 36.3358 20.9763 35.51 20.9763 34.6842V32.2172C20.9763 32.1231 20.9037 32.0256 20.8027 32.0256C20.7049 32.0256 20.6291 32.1196 20.6291 32.2172V34.6842C20.6291 35.7295 21.2035 36.7226 22.2386 36.7226C22.8886 36.7226 23.3999 36.2696 23.687 35.6355V36.4334C23.687 36.5414 23.7596 36.625 23.8606 36.625C23.9458 36.625 24.0342 36.5449 24.0342 36.4334ZM32.8513 36.409V33.942C32.8513 32.8967 32.2643 31.9176 31.245 31.9141C30.5223 31.9141 29.9606 32.4228 29.6734 33.1406C29.4494 32.4089 28.9003 31.9141 28.1903 31.9141C27.5686 31.9141 27.0321 32.3008 26.7323 32.8932V32.1893C26.7323 32.0674 26.6408 31.9803 26.524 32.0012C26.4388 32.0151 26.382 32.1022 26.382 32.1963V36.409C26.382 36.531 26.4735 36.6181 26.5903 36.5972C26.6755 36.5832 26.7323 36.4961 26.7323 36.402V34.5483C26.7409 34.5388 26.7378 34.5097 26.7349 34.4834C26.7336 34.4712 26.7323 34.4596 26.7323 34.4507C26.6944 33.2242 27.1299 32.3008 28.1903 32.3008C29.0265 32.3008 29.4494 33.1127 29.4494 33.9385V36.4055C29.4494 36.5135 29.522 36.5972 29.623 36.5972C29.7082 36.5972 29.7965 36.517 29.7965 36.4055V34.5065C29.7965 33.5448 30.1973 32.3043 31.245 32.3043C32.0813 32.3043 32.5041 33.1162 32.5041 33.942V36.409C32.5041 36.517 32.5767 36.6007 32.6777 36.6007C32.7629 36.6007 32.8513 36.5205 32.8513 36.409ZM16.3546 14.7851L10.526 23.8481L4.70053 14.7851L10.526 18.5831L16.3546 14.7851Z" fill="#0010F7"/>
</g>
</svg>
