<svg width="49" height="56" viewBox="0 0 49 56" fill="none" xmlns="http://www.w3.org/2000/svg">
<path d="M1.624 0.837402L28.7787 28.0001L1.62667 55.1627C1.14385 54.9598 0.731812 54.6185 0.44238 54.182C0.152947 53.7455 -0.00096205 53.2332 4.52485e-06 52.7094V3.29074C0.000208922 2.76759 0.154284 2.25606 0.443048 1.81984C0.731812 1.38361 1.14251 1.04195 1.624 0.837402V0.837402ZM30.664 29.8854L36.8027 36.0241L7.63734 52.9121L30.664 29.8854V29.8854ZM39.1947 21.3574L46.68 25.6934C47.0841 25.9278 47.4195 26.2643 47.6527 26.6691C47.8859 27.0739 48.0086 27.5329 48.0086 28.0001C48.0086 28.4672 47.8859 28.9262 47.6527 29.331C47.4195 29.7359 47.0841 30.0723 46.68 30.3067L39.192 34.6427L32.5493 28.0001L39.1947 21.3574ZM7.63734 3.08807L36.8053 19.9734L30.664 26.1147L7.63734 3.08807V3.08807Z" fill="white"/>
</svg>
