<svg width="36" height="64" viewBox="0 0 36 64" fill="none" xmlns="http://www.w3.org/2000/svg">
<path d="M0.375977 0.0100469L13.042 35.906V35.886L14.042 38.708C19.614 54.468 22.604 62.916 22.614 62.926L24.49 63.04C27.574 63.166 31.396 63.52 34.292 63.862C34.958 63.946 35.532 63.966 35.574 63.946L21.856 25.04L15.388 6.77005C14.628 4.58896 13.8573 2.4116 13.076 0.238047L12.992 -0.00195312H0.387976L0.375977 0.0100469ZM23.062 0.0320469L23.03 14.178L23.01 28.334L21.844 25.042L20.344 56.532C21.824 60.71 22.614 62.938 22.626 62.948C22.638 62.958 23.48 63.02 24.49 63.062C27.584 63.198 31.396 63.542 34.302 63.896C34.968 63.968 35.552 64 35.584 63.968C35.626 63.948 35.636 49.5201 35.636 31.948L35.616 0.0320469H23.062ZM0.375977 0.0100469V31.978C0.375977 49.562 0.395976 63.968 0.417976 63.988C0.439976 64.008 1.52198 63.904 2.83398 63.758C4.17122 63.5906 5.51145 63.4479 6.85398 63.33C8.23998 63.194 12.374 62.924 12.854 62.924C12.99 62.924 13 62.206 13.02 49.382L13.04 35.83L14.05 38.664L14.404 39.664L15.924 8.19605L15.414 6.73805L12.986 0.00804688L0.375977 0.0100469Z" fill="white"/>
</svg>
