<svg width="45" height="52" viewBox="0 0 45 52" fill="none" xmlns="http://www.w3.org/2000/svg">
<path d="M43.1678 16.195C44.3978 18.395 44.5578 21.23 43.9178 24.5125C42.0678 34.0275 35.7278 37.3125 27.6328 37.3125H26.3828C25.9037 37.3132 25.4406 37.4848 25.0768 37.7964C24.7129 38.1081 24.4722 38.5393 24.3978 39.0125L24.2978 39.5625L22.7228 49.545L22.6428 49.97C22.5683 50.443 22.3275 50.8739 21.9636 51.1851C21.5997 51.4963 21.1366 51.6674 20.6578 51.6675H12.3003C12.1259 51.6674 11.9536 51.6296 11.7952 51.5566C11.6368 51.4836 11.4961 51.3772 11.3828 51.2446C11.2695 51.112 11.1862 50.9565 11.1387 50.7887C11.0913 50.6209 11.0807 50.4448 11.1078 50.2725L11.5453 47.5H15.3403L17.7153 32.45H21.1778C32.8728 32.45 40.5528 26.9425 43.1678 16.195ZM35.7678 3.47C37.6728 5.64 38.2253 7.995 37.6478 11.6825C37.6003 11.99 37.5478 12.2825 37.4928 12.5825C35.6553 22.015 29.7703 26.1975 20.1028 26.1975H15.3928C13.8178 26.1975 12.4578 27.2325 12.0078 28.7025L11.9728 28.6975L9.64778 43.4325H0.802782C0.784176 43.4324 0.76581 43.4283 0.748976 43.4204C0.732141 43.4124 0.717245 43.4009 0.705333 43.3866C0.693421 43.3723 0.684782 43.3556 0.680023 43.3376C0.675263 43.3196 0.674499 43.3008 0.677783 43.2825L7.17278 2.0075C7.26036 1.44836 7.54472 0.938871 7.97466 0.570815C8.40459 0.20276 8.95182 0.000332403 9.51778 0H24.4578C29.9153 0 33.7478 1.1725 35.7653 3.47H35.7678Z" fill="#F7FAFC"/>
</svg>
