<svg width="24" height="17" viewBox="0 0 24 17" fill="none" xmlns="http://www.w3.org/2000/svg">
<path d="M9.98956 1.85556C10.7628 1.0439 11.8393 0.540513 13.0299 0.540513C14.6127 0.540513 15.9935 1.42961 16.7288 2.74947C17.3866 2.4535 18.099 2.30094 18.8194 2.30181C21.674 2.30181 23.9882 4.65347 23.9882 7.55434C23.9882 10.4556 21.674 12.8073 18.8194 12.8073C18.4775 12.8075 18.1364 12.7733 17.8013 12.7051C17.1537 13.8687 15.9197 14.6549 14.5033 14.6549C13.9306 14.6556 13.3652 14.5245 12.8503 14.2716C12.1939 15.8271 10.6645 16.9178 8.8819 16.9178C7.02565 16.9178 5.44372 15.7345 4.8364 14.0751C4.57109 14.1319 4.29612 14.1615 4.01403 14.1615C1.80397 14.1615 0.0122173 12.3379 0.0122173 10.0881C0.0106252 9.37508 0.194547 8.67411 0.545653 8.05502C0.896759 7.43593 1.40279 6.92034 2.01331 6.55965C1.75981 5.97175 1.62934 5.33751 1.63006 4.69654C1.63006 2.10914 3.71515 0.0117188 6.28709 0.0117188C7.79703 0.0117188 9.13897 0.734974 9.98965 1.85556" fill="#2D3436"/>
<path d="M3.4849 8.77915C3.4699 8.81872 3.49034 8.82693 3.49521 8.83392C3.54021 8.86688 3.58596 8.89059 3.63209 8.91703C3.87668 9.04784 4.1075 9.08609 4.349 9.08609C4.84081 9.08609 5.14615 8.82259 5.14615 8.39825V8.39003C5.14615 7.99781 4.80153 7.85529 4.47809 7.75253L4.43609 7.73865C4.19225 7.65885 3.98187 7.59009 3.98187 7.42831V7.41981C3.98187 7.28145 4.10478 7.17954 4.29537 7.17954C4.50715 7.17954 4.7585 7.25037 4.9204 7.34057C4.9204 7.34057 4.96784 7.37154 4.98528 7.32508C4.99484 7.30033 5.07678 7.07811 5.0854 7.05402C5.09459 7.02786 5.07818 7.00859 5.0615 6.9983C4.87671 6.88497 4.62125 6.80762 4.35687 6.80762L4.30765 6.80799C3.85756 6.80799 3.54331 7.08188 3.54331 7.47449V7.48271C3.54331 7.89666 3.89 8.03077 4.21475 8.12436L4.26706 8.14061C4.50368 8.2138 4.70768 8.27679 4.70768 8.44472V8.45293C4.70768 8.60641 4.57512 8.72068 4.36128 8.72068C4.27831 8.72068 4.01365 8.71898 3.72771 8.53689C3.69321 8.51659 3.67306 8.50186 3.64643 8.48571C3.63237 8.47673 3.59731 8.46115 3.58193 8.50799L3.4849 8.77915ZM10.6849 8.77915C10.6699 8.81872 10.6903 8.82693 10.6952 8.83392C10.7402 8.86688 10.786 8.89059 10.8321 8.91703C11.0766 9.04784 11.3075 9.08609 11.549 9.08609C12.0408 9.08609 12.3462 8.82259 12.3462 8.39825V8.39003C12.3462 7.99781 12.0015 7.85529 11.6781 7.75253L11.6361 7.73865C11.3922 7.65885 11.1818 7.59009 11.1818 7.42831V7.41981C11.1818 7.28145 11.3048 7.17954 11.4954 7.17954C11.7072 7.17954 11.9585 7.25037 12.1204 7.34057C12.1204 7.34057 12.1678 7.37154 12.1853 7.32508C12.1948 7.30033 12.2768 7.07811 12.2853 7.05402C12.2946 7.02786 12.2782 7.00859 12.2614 6.9983C12.0767 6.88497 11.8212 6.80762 11.5569 6.80762L11.5077 6.80799C11.0575 6.80799 10.7433 7.08188 10.7433 7.47449V7.48271C10.7433 7.89666 11.0899 8.03077 11.4147 8.12436L11.467 8.14061C11.7037 8.2138 11.908 8.27679 11.908 8.44472V8.45293C11.908 8.60641 11.775 8.72068 11.5613 8.72068C11.3369 8.7223 11.1169 8.65847 10.9277 8.53689C10.8932 8.51659 10.8727 8.50252 10.8468 8.48571C10.8379 8.47985 10.7962 8.46361 10.7818 8.50799L10.6849 8.77915ZM15.6001 7.94813C15.6001 8.18802 15.5557 8.37691 15.4683 8.51036C15.3819 8.64258 15.2511 8.7068 15.0687 8.7068C14.8859 8.7068 14.7558 8.64286 14.6708 8.51036C14.5847 8.37719 14.541 8.18802 14.541 7.94813C14.541 7.70871 14.5847 7.52011 14.6708 7.38807C14.7558 7.25727 14.8859 7.19361 15.0687 7.19361C15.2511 7.19361 15.3818 7.25727 15.4686 7.38798C15.5558 7.5202 15.6001 7.70871 15.6001 7.94813ZM16.0107 7.50358C15.9703 7.36635 15.9075 7.24527 15.8238 7.14441C15.7401 7.04326 15.6342 6.96213 15.5085 6.90291C15.3832 6.84407 15.235 6.81413 15.0687 6.81413C14.902 6.81413 14.7537 6.84407 14.6284 6.90291C14.5028 6.96203 14.3968 7.04326 14.3128 7.14441C14.2295 7.24556 14.1666 7.36673 14.126 7.50358C14.0861 7.64024 14.066 7.78956 14.066 7.94813C14.066 8.10679 14.0861 8.25649 14.126 8.39268C14.1667 8.52962 14.2291 8.6507 14.3132 8.75194C14.3989 8.85474 14.5067 8.9366 14.6284 8.99136C14.754 9.04888 14.902 9.07806 15.0687 9.07806C15.235 9.07806 15.3829 9.04878 15.5085 8.99136C15.6302 8.93661 15.738 8.85475 15.8238 8.75194C15.9075 8.65108 15.9703 8.53 16.0107 8.39268C16.051 8.25611 16.0711 8.10651 16.0711 7.94813C16.0711 7.78993 16.051 7.64024 16.0107 7.50358ZM19.3818 8.64286C19.3682 8.60263 19.3296 8.61774 19.3296 8.61774C19.2699 8.64078 19.2063 8.66213 19.1387 8.6728C19.0642 8.68393 18.9889 8.68933 18.9136 8.68895C18.7149 8.68895 18.557 8.62945 18.4439 8.51177C18.3306 8.39409 18.267 8.20388 18.2677 7.94643C18.2684 7.71221 18.3245 7.53597 18.4252 7.40177C18.5253 7.26832 18.6776 7.19984 18.8808 7.19984C19.0502 7.19984 19.1793 7.2194 19.3146 7.26246C19.3146 7.26246 19.347 7.27663 19.3624 7.23385C19.3982 7.13345 19.4249 7.06148 19.4632 6.95108C19.4741 6.91972 19.4474 6.90631 19.4379 6.90253C19.3846 6.88157 19.2589 6.84747 19.1639 6.83302C19.0752 6.81933 18.9714 6.81206 18.8559 6.81206C18.6834 6.81206 18.5297 6.84162 18.3982 6.90083C18.267 6.95967 18.1557 7.0409 18.0676 7.14205C17.9795 7.2431 17.9126 7.36427 17.8678 7.50122C17.8234 7.63778 17.8009 7.78786 17.8009 7.94643C17.8009 8.28945 17.8928 8.56683 18.0741 8.7698C18.2558 8.97351 18.5288 9.07702 18.8846 9.07702C19.0949 9.07702 19.3108 9.03405 19.4658 8.97247C19.4658 8.97247 19.4956 8.95802 19.4827 8.92327L19.3818 8.64277V8.64286ZM20.1002 7.71844C20.1196 7.58527 20.1562 7.47449 20.2125 7.38817C20.2976 7.25708 20.4273 7.18511 20.6097 7.18511C20.7921 7.18511 20.9127 7.25736 20.9991 7.38817C21.0565 7.47449 21.0814 7.59009 21.0912 7.71844H20.1002ZM21.4824 7.42566C21.4475 7.29316 21.3611 7.15933 21.3044 7.09813C21.2149 7.00104 21.1275 6.93323 21.0407 6.89545C20.9147 6.84164 20.7793 6.81402 20.6425 6.81423C20.469 6.81423 20.3115 6.84351 20.1838 6.90395C20.0558 6.96458 19.9482 7.04713 19.8638 7.15007C19.7794 7.25254 19.7159 7.37476 19.6756 7.5134C19.6349 7.65129 19.6145 7.80174 19.6145 7.96031C19.6145 8.12172 19.6357 8.27198 19.6777 8.40722C19.72 8.54351 19.7877 8.66364 19.8792 8.763C19.9704 8.86311 20.0878 8.94159 20.2286 8.99627C20.3682 9.05067 20.5379 9.07891 20.7329 9.07853C21.1343 9.07712 21.3458 8.98702 21.4328 8.93847C21.4482 8.92997 21.4629 8.91477 21.4444 8.87142L21.3536 8.6151C21.34 8.57685 21.3013 8.59101 21.3013 8.59101C21.202 8.62813 21.0606 8.6949 20.731 8.69424C20.5154 8.69386 20.3556 8.62983 20.2556 8.52972C20.1527 8.42725 20.1026 8.27661 20.0937 8.06392L21.4834 8.06524C21.4834 8.06524 21.52 8.06458 21.5237 8.02878C21.525 8.01367 21.5715 7.74111 21.4824 7.42566ZM8.9705 7.71844C8.99028 7.58527 9.02646 7.47449 9.0829 7.38817C9.16793 7.25708 9.29768 7.18511 9.48003 7.18511C9.66246 7.18511 9.78303 7.25736 9.86975 7.38817C9.92684 7.47449 9.95178 7.59009 9.96162 7.71844H8.9705ZM10.3524 7.42566C10.3175 7.29316 10.2314 7.15933 10.1747 7.09813C10.0853 7.00104 9.99781 6.93323 9.91109 6.89545C9.78512 6.84164 9.64966 6.81402 9.51284 6.81423C9.33968 6.81423 9.1819 6.84351 9.05421 6.90395C8.92606 6.96458 8.81853 7.04713 8.73415 7.15007C8.64978 7.25254 8.58631 7.37476 8.546 7.5134C8.50568 7.65129 8.48487 7.80174 8.48487 7.96031C8.48487 8.12172 8.50596 8.27198 8.54806 8.40722C8.59034 8.54351 8.65803 8.66364 8.74953 8.763C8.84074 8.86311 8.95821 8.94159 9.09893 8.99627C9.23862 9.05067 9.40831 9.07891 9.60331 9.07853C10.0047 9.07712 10.2161 8.98702 10.3032 8.93847C10.3185 8.92997 10.3332 8.91477 10.3148 8.87142L10.2243 8.6151C10.2102 8.57685 10.1717 8.59101 10.1717 8.59101C10.0723 8.62813 9.93124 8.6949 9.60096 8.69424C9.38581 8.69386 9.22596 8.62983 9.12593 8.52972C9.02309 8.42725 8.97284 8.27661 8.96403 8.06392L10.3537 8.06524C10.3537 8.06524 10.3902 8.06458 10.394 8.02878C10.3954 8.01367 10.4418 7.74111 10.3524 7.42566ZM5.96665 8.63512C5.91228 8.59148 5.90478 8.58043 5.8864 8.55219C5.85903 8.50922 5.84506 8.44793 5.84506 8.3702C5.84506 8.24704 5.88537 8.15864 5.969 8.09914C5.96806 8.09943 6.08853 7.99412 6.37212 7.9979C6.57115 8.00073 6.74909 8.03029 6.74909 8.03029V8.66685H6.74946C6.74946 8.66685 6.57284 8.70501 6.37409 8.717C6.09125 8.73419 5.96562 8.63483 5.96665 8.63512ZM6.51959 7.65148C6.46325 7.64732 6.39021 7.64487 6.30275 7.64487C6.1835 7.64487 6.06837 7.65998 5.96056 7.68926C5.85645 7.71646 5.75809 7.76241 5.67021 7.82488C5.5863 7.88518 5.51732 7.96417 5.46865 8.0557C5.41953 8.14797 5.39459 8.25668 5.39459 8.37842C5.39459 8.50233 5.41568 8.60999 5.45806 8.69811C5.49937 8.78521 5.56175 8.86046 5.63946 8.91694C5.71662 8.9737 5.81196 9.01535 5.92259 9.04047C6.03153 9.06559 6.15509 9.07825 6.29037 9.07825C6.43287 9.07825 6.5749 9.06663 6.71253 9.04283C6.82966 9.02251 6.94637 8.99981 7.06259 8.97474C7.10871 8.96369 7.16 8.94962 7.16 8.94962C7.1945 8.94102 7.19168 8.90381 7.19168 8.90381L7.19103 7.62362C7.19103 7.34283 7.11659 7.13468 6.97006 7.00567C6.82428 6.87694 6.6094 6.81196 6.33171 6.81196C6.22765 6.81196 6.05984 6.82641 5.95953 6.84672C5.95953 6.84672 5.65578 6.90584 5.53081 7.00425C5.53081 7.00425 5.50353 7.02144 5.51853 7.05997L5.61696 7.32631C5.62915 7.36068 5.66234 7.34897 5.66234 7.34897C5.66234 7.34897 5.67293 7.34491 5.68521 7.33764C5.95259 7.19106 6.29075 7.1956 6.29075 7.1956C6.44103 7.1956 6.55643 7.22582 6.63434 7.28607C6.71018 7.34453 6.74871 7.43293 6.74871 7.61946V7.67858C6.62918 7.6614 6.51959 7.65148 6.51959 7.65148ZM17.7283 6.93002C17.7303 6.92535 17.7314 6.92032 17.7314 6.91523C17.7315 6.91014 17.7305 6.9051 17.7285 6.90041C17.7266 6.89572 17.7237 6.89147 17.7201 6.88792C17.7164 6.88438 17.7121 6.88161 17.7074 6.87977C17.6839 6.87052 17.5657 6.84539 17.4745 6.83954C17.3 6.82887 17.203 6.85843 17.1162 6.89772C17.0302 6.93691 16.9346 7.00019 16.8812 7.07216V6.90178C16.8812 6.87807 16.8645 6.85918 16.8413 6.85918H16.485C16.4619 6.85918 16.4451 6.87807 16.4451 6.90178V8.98995C16.4451 9.01337 16.4642 9.03263 16.4875 9.03263H16.8525C16.8581 9.03261 16.8635 9.03149 16.8687 9.02933C16.8738 9.02717 16.8784 9.02402 16.8823 9.02005C16.8862 9.01609 16.8893 9.01139 16.8914 9.00622C16.8935 9.00106 16.8946 8.99553 16.8945 8.98995V7.94671C16.8945 7.80674 16.9099 7.66697 16.9407 7.57932C16.9707 7.49253 17.0117 7.42311 17.0622 7.37315C17.1105 7.32527 17.1694 7.28965 17.2341 7.26926C17.2986 7.24933 17.37 7.24282 17.4206 7.24282C17.4933 7.24282 17.5732 7.26171 17.5732 7.26171C17.5998 7.26482 17.6149 7.24829 17.6238 7.22393C17.6476 7.15989 17.7153 6.96817 17.7282 6.93002" fill="white"/>
<path d="M14.301 5.96253C14.2559 5.94879 14.21 5.93775 14.1636 5.92947C14.1012 5.91917 14.038 5.91436 13.9748 5.91512C13.7234 5.91512 13.5253 5.98661 13.3863 6.12771C13.248 6.26805 13.154 6.48178 13.107 6.76285L13.0898 6.85748H12.7743C12.7743 6.85748 12.736 6.85607 12.7278 6.89809L12.6763 7.18955C12.6725 7.21703 12.6844 7.2346 12.7213 7.2346H13.0284L12.7169 8.98654C12.6927 9.12764 12.6647 9.24362 12.6335 9.33164C12.6032 9.41834 12.5735 9.48342 12.5366 9.53092C12.501 9.57625 12.4676 9.61007 12.4095 9.62962C12.3617 9.64586 12.3063 9.65342 12.2459 9.65342C12.2124 9.65342 12.1677 9.64784 12.1346 9.64104C12.1086 9.63593 12.0834 9.62769 12.0594 9.61649C12.0594 9.61649 12.0236 9.60279 12.0092 9.63897C11.998 9.6689 11.916 9.89557 11.9061 9.92353C11.8966 9.95139 11.9102 9.97302 11.9276 9.97953C11.9686 9.99398 11.9989 10.0036 12.0546 10.017C12.1319 10.0353 12.1971 10.0363 12.2583 10.0363C12.3859 10.0363 12.5027 10.0181 12.5994 9.98303C12.6964 9.94761 12.7811 9.88594 12.8563 9.80264C12.9372 9.71254 12.9881 9.61828 13.0366 9.48927C13.0848 9.36196 13.1261 9.20367 13.1588 9.01932L13.472 7.2346H13.9297C13.9297 7.2346 13.9682 7.23592 13.9761 7.19361L14.0281 6.90253C14.0314 6.87467 14.0199 6.85748 13.9826 6.85748H13.5382C13.5407 6.84747 13.5608 6.68994 13.6117 6.54166C13.6336 6.47867 13.6745 6.42738 13.709 6.39234C13.7416 6.35901 13.7815 6.33399 13.8256 6.31934C13.8696 6.30489 13.9198 6.29799 13.9748 6.29799C14.0164 6.29799 14.0578 6.30281 14.0888 6.30933C14.1319 6.31868 14.1486 6.32349 14.1599 6.32689C14.2053 6.34068 14.2114 6.32727 14.2203 6.30517L14.3266 6.01145C14.3375 5.97981 14.3105 5.9663 14.301 5.96253ZM8.09266 8.99042C8.09266 9.01374 8.07588 9.03273 8.05272 9.03273H7.68419C7.66094 9.03273 7.64453 9.01384 7.64453 8.99042V6.00248C7.64453 5.97915 7.66094 5.96017 7.68419 5.96017H8.05262C8.07587 5.96017 8.09266 5.97905 8.09266 6.00248V8.99042Z" fill="white"/>
</svg>
