<svg width="24" height="22" viewBox="0 0 24 22" fill="none" xmlns="http://www.w3.org/2000/svg">
<path d="M7.95085 8.82076L7.95885 8.81676C8.00285 8.75676 8.06385 8.70276 8.08885 8.63676C8.12885 8.52676 8.15485 8.40876 8.08385 8.29676C8.06785 8.27076 8.05985 8.24076 8.04785 8.21276C8.01285 8.12276 7.96785 8.09476 7.84385 8.09676C7.7442 8.0999 7.64719 8.12959 7.56285 8.18276C7.45947 8.2472 7.35997 8.31765 7.26485 8.39376C7.21485 8.43376 7.17485 8.48576 7.12985 8.53076C7.06985 8.59076 7.05585 8.67076 7.01985 8.74076C6.98382 8.80913 6.96559 8.88548 6.96685 8.96276C6.96885 9.05676 7.00785 9.14276 7.07985 9.19276C7.15985 9.24676 7.26385 9.28476 7.36985 9.23476C7.44435 9.20094 7.51651 9.16219 7.58585 9.11876C7.71885 9.03276 7.86785 8.96276 7.95085 8.82076ZM23.9999 8.42276C23.9919 8.41276 23.9799 8.40276 23.9769 8.38976C23.9448 8.28285 23.8851 8.18627 23.8039 8.10976C23.768 8.08055 23.7259 8.06002 23.6809 8.04976C23.6419 8.03976 23.5989 8.05176 23.5589 8.04276C23.3252 7.99085 23.0807 8.02568 22.8709 8.14076C22.6539 8.25376 22.4409 8.37376 22.2209 8.48176C22.0744 8.55219 21.9249 8.61625 21.7729 8.67376C21.6669 8.71576 21.6059 8.69376 21.5389 8.61376C21.5299 8.60176 21.5189 8.58876 21.5069 8.58576C21.4569 8.57376 21.4569 8.53076 21.4439 8.49576C21.4389 8.48076 21.4339 8.45576 21.4269 8.45376C21.3589 8.44276 21.3808 8.41576 21.4109 8.38376C21.4209 8.37376 21.4259 8.36076 21.4359 8.34576C21.4019 8.31376 21.3459 8.29576 21.3719 8.23576C21.3739 8.23176 21.3639 8.21976 21.3569 8.21676C21.3129 8.19776 21.3329 8.16476 21.3359 8.13476C21.3409 8.07776 21.3419 8.07076 21.3679 8.04676L21.3159 7.99676L21.3689 7.90276C21.3229 7.89276 21.3059 7.86476 21.3329 7.83676C21.3649 7.80576 21.3598 7.77676 21.3549 7.74076C21.3528 7.72476 21.3499 7.70376 21.3579 7.69076C21.3779 7.66076 21.3739 7.63276 21.3639 7.60076C21.3579 7.58076 21.3699 7.55676 21.3739 7.53076C21.3269 7.51176 21.3129 7.47676 21.3319 7.42676C21.3369 7.41476 21.3409 7.39676 21.3359 7.38676C21.3109 7.33976 21.3379 7.30576 21.3549 7.28676C21.3419 7.23676 21.3249 7.20276 21.3249 7.16776C21.3226 7.03043 21.3233 6.89307 21.3269 6.75576C21.3269 6.73376 21.3469 6.71276 21.3579 6.68976C21.3279 6.63676 21.3279 6.63676 21.3719 6.59376C21.3579 6.56376 21.3398 6.53676 21.3349 6.50876C21.3269 6.45576 21.3859 6.47476 21.4049 6.45476C21.3969 6.40476 21.3849 6.35976 21.3829 6.31476C21.3829 6.27376 21.3759 6.23276 21.3929 6.18976C21.4069 6.15176 21.3949 6.10476 21.3949 6.05876L21.3489 6.06276L21.3419 5.91376C21.3398 5.85976 21.3499 5.81376 21.4079 5.81176V5.68476C21.3869 5.65276 21.3629 5.62376 21.3459 5.59076C21.3239 5.54776 21.3589 5.51776 21.3869 5.48376C21.3299 5.45676 21.3199 5.41076 21.3069 5.36076C21.2908 5.29776 21.2769 5.21876 21.2319 5.18076C21.1899 5.14476 21.1549 5.09576 21.1009 5.07176L21.0679 5.05876C20.8479 4.95976 20.6308 4.99776 20.4209 5.08276C20.3069 5.12876 20.2029 5.19976 20.0949 5.26076C20.0694 5.27505 20.0459 5.29252 20.0249 5.31276C19.9469 5.38776 19.8709 5.46476 19.7949 5.54076C19.7664 5.57089 19.7397 5.60261 19.7149 5.63576C19.6276 5.74752 19.5104 5.83215 19.3769 5.87976C19.2874 5.91276 19.1886 5.90916 19.1019 5.86976C19.0359 5.84076 18.9849 5.83076 18.9229 5.86976C18.8943 5.88472 18.8619 5.89098 18.8299 5.88776C18.5569 5.85176 18.3329 5.96276 18.1479 6.13976C18.0013 6.28742 17.9087 6.48008 17.8849 6.68676C17.8699 6.79376 17.8699 6.90376 17.8649 7.01176C17.8549 7.19076 17.8479 7.36876 17.8389 7.54776L17.8029 8.22976C17.7959 8.36776 17.7939 8.50576 17.7869 8.64276C17.7709 8.96276 17.7519 9.28276 17.7369 9.60376C17.7332 9.66451 17.7356 9.72547 17.7439 9.78576C17.7669 9.94576 17.8239 10.0358 17.9639 10.0648C18.0743 10.0919 18.1905 10.082 18.2949 10.0368C18.3829 9.99576 18.4749 9.95976 18.5549 9.90676C18.6539 9.84076 18.7739 9.78676 18.7899 9.64676C18.7899 9.64376 18.7929 9.64176 18.7939 9.63876C18.8339 9.56876 18.8739 9.49876 18.9089 9.42576C18.9206 9.4037 18.9251 9.37853 18.9219 9.35376C18.9149 9.32176 18.8739 9.29876 18.9149 9.25476C18.9339 9.23476 18.9149 9.18476 18.9219 9.14876C18.9289 9.10976 18.9439 9.07276 18.9559 9.03076L18.8949 8.98176L18.9269 8.95176C18.8589 8.88876 18.9139 8.83576 18.9489 8.78176C18.9299 8.76076 18.8869 8.77776 18.8919 8.73176C18.9039 8.61176 18.8649 8.48776 18.9259 8.37176C18.9279 8.36776 18.9309 8.35876 18.9289 8.35676C18.8819 8.30276 18.9249 8.25676 18.9369 8.20376C18.9669 8.24176 18.9849 8.20976 19.0039 8.20176L18.9929 8.13376C18.9829 8.08176 18.9949 8.02376 18.9389 7.98576C18.9258 7.97776 18.9229 7.93476 18.9329 7.91576C18.9519 7.87981 18.9769 7.84735 19.0069 7.81976C19.0369 7.79076 19.0419 7.76276 19.0269 7.72576C19.0123 7.69136 19.0002 7.65593 18.9909 7.61976C18.9859 7.59576 18.9799 7.56276 18.9909 7.54476C19.0028 7.52676 19.0349 7.52276 19.0569 7.51276V7.39776L19.0169 7.37176L19.0429 7.31476C19.0979 7.32376 19.0979 7.32376 19.0869 7.27276C19.0859 7.26476 19.0829 7.25276 19.0869 7.24876C19.1319 7.19576 19.1119 7.13176 19.1199 7.07276C19.1219 7.05576 19.1199 7.03476 19.1299 7.02376C19.1789 6.96576 19.1799 6.89576 19.1859 6.83576C19.2239 6.80176 19.2759 6.77776 19.2859 6.74276C19.3078 6.66576 19.3639 6.62276 19.4199 6.57876C19.4479 6.5585 19.4705 6.53173 19.4859 6.50076C19.5092 6.44807 19.5441 6.40126 19.5879 6.36376C19.6559 6.30976 19.7359 6.27076 19.8079 6.22076C19.9179 6.14476 20.0349 6.18176 20.1499 6.19476C20.1729 6.19776 20.1969 6.21976 20.2139 6.23976C20.2799 6.31476 20.3199 6.40376 20.2439 6.54376C20.2134 6.59564 20.1966 6.65436 20.1948 6.71448C20.1931 6.7746 20.2065 6.8342 20.2339 6.88776C20.3358 7.07576 20.2429 7.24676 20.2599 7.42576C20.2199 7.47976 20.2399 7.53476 20.2579 7.58976C20.2622 7.60308 20.2622 7.61744 20.2579 7.63076C20.2159 7.73491 20.2106 7.85022 20.2429 7.95776C20.2489 7.97576 20.2449 7.99776 20.2429 8.01876C20.2329 8.17476 20.2039 8.32876 20.2079 8.48576C20.2099 8.61576 20.2079 8.74376 20.2129 8.87276C20.217 8.97908 20.2588 9.08047 20.3309 9.15876C20.3709 9.20376 20.4259 9.23576 20.4759 9.26976C20.5199 9.29976 20.5249 9.31676 20.4859 9.34976C20.4699 9.36284 20.4528 9.37455 20.4349 9.38476C20.3689 9.42476 20.3029 9.46376 20.2359 9.50076L19.5399 9.89076L18.5439 10.4488C18.3479 10.5588 18.1519 10.6678 17.9579 10.7788C17.7339 10.9088 17.5119 11.0428 17.2869 11.1718C17.2559 11.1898 17.2159 11.1938 17.1809 11.2058C17.1649 11.2108 17.1469 11.2158 17.1349 11.2268C17.0698 11.2858 16.995 11.3331 16.9139 11.3668C16.8439 11.3998 16.7739 11.4308 16.7079 11.4698C16.5879 11.5428 16.4699 11.6218 16.3509 11.6968L15.7939 12.0398C15.5579 12.1848 15.3199 12.3278 15.0849 12.4748C14.9549 12.5558 14.8299 12.6438 14.7009 12.7278C14.6779 12.7428 14.6509 12.7518 14.6189 12.7678C14.6139 12.7348 14.6079 12.7148 14.6079 12.6958C14.6064 12.6201 14.6064 12.5444 14.6079 12.4688C14.6088 12.4053 14.6121 12.3419 14.6179 12.2788C14.6249 12.2008 14.6459 12.1268 14.6309 12.0458C14.6179 11.9758 14.6369 11.9018 14.6409 11.8298C14.6459 11.7788 14.6649 11.7228 14.6509 11.6758C14.6325 11.608 14.6281 11.5373 14.6379 11.4678C14.6518 11.3382 14.6598 11.2081 14.6619 11.0778C14.6619 11.0318 14.6759 10.9868 14.6799 10.9408C14.6879 10.8528 14.6929 10.7648 14.6999 10.6778C14.7199 10.4768 14.7419 10.2758 14.7569 10.0748C14.7729 9.87376 14.7799 9.67176 14.7939 9.47076C14.8019 9.35576 14.7939 9.23176 14.8349 9.12876C14.8789 9.01876 14.8269 8.91076 14.8679 8.80876C14.8189 8.70076 14.9079 8.59476 14.8719 8.48776C14.8699 8.48276 14.8849 8.47476 14.8859 8.46776C14.8884 8.45287 14.8884 8.43765 14.8859 8.42276C14.8829 8.40276 14.8719 8.38376 14.8719 8.36476C14.8719 8.30576 14.8699 8.24576 14.8769 8.18776C14.8834 8.13673 14.8787 8.08488 14.8632 8.03583C14.8476 7.98679 14.8216 7.94172 14.7869 7.90376C14.7262 7.83843 14.6436 7.79782 14.5549 7.78976C14.4226 7.76951 14.2872 7.78755 14.1649 7.84176C13.9909 7.92176 13.8609 8.03876 13.8249 8.22876C13.8004 8.37007 13.7837 8.51262 13.7749 8.65576C13.7579 8.87576 13.7479 9.09476 13.7329 9.31376C13.7229 9.45676 13.7079 9.59976 13.6949 9.74276C13.6879 9.82276 13.6999 9.90576 13.6479 9.97676C13.6457 9.97995 13.6443 9.98359 13.6438 9.98741C13.6433 9.99123 13.6436 9.99511 13.6449 9.99876C13.6789 10.0768 13.6549 10.1568 13.6499 10.2338C13.6429 10.3858 13.6139 10.5368 13.6009 10.6878C13.5789 10.9418 13.5389 11.1928 13.4979 11.4438C13.4699 11.6198 13.4179 11.7838 13.2849 11.9178C13.1538 12.0603 12.9746 12.1493 12.7819 12.1678C12.7314 12.175 12.68 12.1662 12.6348 12.1427C12.5896 12.1192 12.5529 12.0822 12.5299 12.0368C12.4872 11.9632 12.4594 11.882 12.4479 11.7978C12.4329 11.6418 12.4079 11.4838 12.4509 11.3268C12.4559 11.3068 12.4509 11.2868 12.4509 11.2658C12.4529 11.2188 12.4519 11.1718 12.4559 11.1258C12.4626 11.0555 12.4713 10.9855 12.4819 10.9158C12.4869 10.8828 12.4899 10.8458 12.5059 10.8158C12.5339 10.7598 12.5299 10.7118 12.5039 10.6558C12.4851 10.6166 12.4785 10.5727 12.4849 10.5298C12.4989 10.4448 12.5039 10.3588 12.5359 10.2758C12.5679 10.1918 12.5819 10.1008 12.6079 10.0138C12.6157 9.97618 12.6321 9.94092 12.6559 9.91076C12.6959 9.86876 12.7029 9.81876 12.7169 9.76876C12.7269 9.72944 12.7416 9.69149 12.7609 9.65576C12.7909 9.60476 12.8239 9.55176 12.8469 9.50076C12.8709 9.44876 12.8869 9.40076 12.9359 9.36676C12.9532 9.35132 12.9657 9.33117 12.9719 9.30876C12.9914 9.25583 13.0271 9.21037 13.0739 9.17876C13.1029 9.15876 13.1409 9.14076 13.1549 9.11276C13.2049 9.01776 13.2779 8.93576 13.3009 8.82676C13.3129 8.77276 13.3109 8.71576 13.3279 8.66676C13.3483 8.60718 13.345 8.54204 13.3189 8.48476C13.3011 8.44759 13.2716 8.41734 13.2349 8.39876C13.1611 8.36313 13.0771 8.35497 12.9979 8.37576C12.8339 8.42276 12.6609 8.44876 12.5299 8.57376C12.5159 8.58676 12.4929 8.59176 12.4769 8.60376C12.3729 8.68676 12.2609 8.76076 12.1689 8.85376C12.0829 8.94176 12.0189 9.04876 11.9449 9.14776C11.7789 9.37176 11.6549 9.61776 11.5689 9.88076C11.4739 10.1688 11.4359 10.4678 11.3939 10.7648C11.3679 10.9528 11.3949 11.1468 11.3329 11.3308C11.3229 11.3578 11.3269 11.3888 11.3289 11.4188C11.3349 11.4818 11.3469 11.5448 11.3489 11.6088C11.3519 11.7228 11.3489 11.8368 11.3479 11.9518C11.3469 12.1918 11.3299 12.4318 11.3839 12.6698C11.4099 12.7848 11.4399 12.8998 11.5139 12.9928C11.5855 13.085 11.6766 13.1603 11.7807 13.2133C11.8847 13.2664 11.9991 13.2959 12.1159 13.2998C12.2619 13.3088 12.4059 13.2888 12.5469 13.2558C12.5969 13.2448 12.6459 13.2198 12.7009 13.2428C12.7129 13.2478 12.7339 13.2378 12.7499 13.2308C12.7699 13.2218 12.7899 13.2088 12.8099 13.1998C12.8859 13.1688 12.9589 13.1298 13.0419 13.1228C13.0557 13.1209 13.069 13.1161 13.0809 13.1088C13.1899 13.0368 13.2979 12.9628 13.4069 12.8898C13.4269 12.8768 13.4569 12.8598 13.4749 12.8658C13.4909 12.8718 13.5029 12.9058 13.5049 12.9298C13.5079 12.9898 13.4999 13.0518 13.5069 13.1118C13.5178 13.2262 13.5168 13.3415 13.5039 13.4558C13.5021 13.4701 13.4973 13.4839 13.4897 13.4961C13.4821 13.5084 13.4719 13.5188 13.4599 13.5268C13.3109 13.6268 13.1619 13.7268 13.0169 13.8338C12.7999 13.9938 12.5869 14.1578 12.3729 14.3188C12.2458 14.4137 12.1178 14.5074 11.9889 14.5998C11.8549 14.6958 11.7189 14.7888 11.5849 14.8848C11.4349 14.9948 11.2879 15.1088 11.1369 15.2168C10.9439 15.3568 10.7469 15.4908 10.5529 15.6298C10.5059 15.6648 10.4669 15.7098 10.4219 15.7478C10.3649 15.7938 10.3049 15.8378 10.2469 15.8828C10.1616 15.9501 10.0766 16.0178 9.99185 16.0858L9.63885 16.3678C9.49685 16.4818 9.35485 16.5978 9.21285 16.7108C9.13685 16.7708 9.05785 16.8268 8.98385 16.8888C8.86985 16.9868 8.76285 17.0908 8.64785 17.1868C8.50585 17.3068 8.35785 17.4188 8.21485 17.5368C8.04211 17.6795 7.87044 17.8235 7.69985 17.9688C7.54985 18.0968 7.39985 18.2248 7.25285 18.3568C7.11485 18.4808 6.98185 18.6098 6.84585 18.7368C6.68185 18.8888 6.51585 19.0388 6.35185 19.1918C6.12285 19.4088 5.88485 19.6168 5.69085 19.8668L5.47685 20.1468C5.43293 20.2101 5.41275 20.287 5.41985 20.3638C5.4228 20.4755 5.44975 20.5853 5.49885 20.6858C5.54101 20.7696 5.60623 20.8397 5.68685 20.8878C5.84085 20.9808 6.00685 20.9988 6.18185 20.9928C6.27885 20.9895 6.37087 20.949 6.43885 20.8798C6.51485 20.8068 6.59385 20.7368 6.66885 20.6638C6.74885 20.5888 6.82485 20.5118 6.90285 20.4358C6.92185 20.4168 6.94285 20.3998 6.96085 20.3808C7.00217 20.3397 7.04317 20.2984 7.08385 20.2568C7.10868 20.2316 7.13302 20.2059 7.15685 20.1798L7.36085 19.9518C7.38585 19.9228 7.40785 19.8918 7.43485 19.8658L8.03085 19.2768C8.07585 19.2318 8.12085 19.1848 8.16385 19.1378C8.19383 19.1063 8.22284 19.074 8.25085 19.0408C8.27885 19.0068 8.30085 18.9688 8.33085 18.9378C8.38685 18.8818 8.44685 18.8308 8.50285 18.7748C8.59885 18.6808 8.69085 18.5818 8.79085 18.4908C8.88285 18.4058 8.98485 18.3308 9.07885 18.2478C9.12085 18.2108 9.15285 18.1648 9.19085 18.1248L9.43685 17.8728C9.44285 17.8668 9.45085 17.8628 9.45785 17.8568C9.60785 17.7368 9.75785 17.6188 9.90485 17.4968C10.1149 17.3258 10.3219 17.1508 10.5319 16.9798C10.6719 16.8658 10.8169 16.7588 10.9559 16.6448C11.1589 16.4788 11.3569 16.3078 11.5609 16.1428C11.6769 16.0478 11.8009 15.9608 11.9189 15.8688C12.0349 15.7788 12.1489 15.6848 12.2659 15.5948C12.4282 15.4683 12.5912 15.3426 12.7549 15.2178C12.9119 15.0978 13.0679 14.9778 13.2279 14.8628C13.3129 14.8028 13.4039 14.7468 13.5079 14.7078C13.5119 14.7348 13.5179 14.7548 13.5169 14.7738C13.5139 14.8438 13.5069 14.9128 13.5059 14.9818C13.5039 15.1898 13.5039 15.3978 13.5039 15.6068L13.5029 16.3968C13.5029 16.7128 13.5029 17.0288 13.5009 17.3448C13.5009 17.4008 13.5229 17.4618 13.4739 17.5118C13.4669 17.5188 13.4759 17.5388 13.4769 17.5528C13.4799 17.5898 13.4859 17.6278 13.4849 17.6648C13.4809 17.7578 13.4709 17.8508 13.4699 17.9438C13.4699 18.0258 13.4819 18.1068 13.4839 18.1888C13.4848 18.2934 13.4834 18.3981 13.4799 18.5028L13.4659 18.8608C13.4629 18.9978 13.4629 19.1358 13.4569 19.2728C13.4509 19.4248 13.4389 19.5768 13.4339 19.7288C13.4269 19.9308 13.4299 20.1328 13.4179 20.3338C13.4019 20.6108 13.4109 20.8838 13.5009 21.1498C13.5319 21.2398 13.5559 21.3338 13.6269 21.4088C13.7193 21.5048 13.8373 21.5725 13.9669 21.6038C13.9899 21.6088 14.0109 21.6188 14.0329 21.6268C14.1029 21.6478 14.1649 21.6468 14.2359 21.6418C14.2922 21.6371 14.3469 21.62 14.3959 21.5918C14.4729 21.5488 14.5499 21.5068 14.6219 21.4578C14.6682 21.4214 14.7081 21.3774 14.7399 21.3278C14.7619 21.2978 14.7649 21.2548 14.7869 21.2248C14.8099 21.1938 14.8439 21.1708 14.8739 21.1448L14.7959 21.0998C14.8079 21.0738 14.8179 21.0518 14.8299 21.0298C14.8359 21.0178 14.8539 21.0068 14.8519 20.9978C14.8419 20.9448 14.8759 20.9128 14.9119 20.8768C14.8819 20.8598 14.8379 20.8488 14.8349 20.8308C14.8249 20.7778 14.7839 20.7488 14.7579 20.7108L14.7999 20.6358L14.7499 20.6178C14.8439 20.6148 14.7999 20.5198 14.8499 20.4938C14.8299 20.4668 14.7899 20.4628 14.8139 20.4128C14.8279 20.3828 14.7809 20.3528 14.7379 20.3528C14.6909 20.3528 14.6659 20.3328 14.6649 20.2858L14.6569 20.1568L14.7149 20.1308L14.7129 20.1168L14.6479 20.1068C14.7249 20.0848 14.7479 20.0228 14.7749 19.9608C14.7201 19.887 14.6929 19.7965 14.6979 19.7048C14.6999 19.6788 14.6949 19.6448 14.6439 19.6518C14.6009 19.6568 14.5649 19.5958 14.5799 19.5518C14.5949 19.5088 14.6109 19.4698 14.5699 19.4278L14.6269 19.4028C14.6519 19.3398 14.5969 19.2828 14.6159 19.2228C14.5719 19.1938 14.5689 19.1558 14.5959 19.1128L14.5399 19.1068L14.5879 18.9828L14.4879 18.8778C14.5179 18.8118 14.5179 18.8118 14.4939 18.7118L14.5449 18.6828C14.5209 18.6568 14.5229 18.6098 14.4739 18.6128C14.4679 18.6128 14.4599 18.6008 14.4569 18.5928C14.4309 18.5328 14.4559 18.4818 14.5209 18.4578L14.4979 18.4218C14.4549 18.3528 14.4339 18.2858 14.5129 18.2238C14.5229 18.2158 14.5249 18.1858 14.5189 18.1698C14.4989 18.1058 14.4739 18.0428 14.4549 17.9898C14.4749 17.9358 14.4899 17.8878 14.5109 17.8428C14.5289 17.8028 14.5389 17.7688 14.5079 17.7298C14.5009 17.7198 14.5109 17.6978 14.5129 17.6768L14.4569 17.6028L14.5369 17.5828C14.5349 17.5688 14.5369 17.5528 14.5299 17.5478C14.5079 17.5298 14.4839 17.5168 14.4609 17.5018C14.4609 17.4648 14.4539 17.4258 14.4639 17.3918C14.4739 17.3598 14.5009 17.3328 14.5219 17.3018C14.5169 17.2478 14.5059 17.1858 14.5079 17.1238C14.5089 17.0568 14.5229 16.9908 14.5299 16.9238C14.5299 16.9148 14.5299 16.9038 14.5249 16.8988C14.4999 16.8748 14.5019 16.8508 14.5079 16.8188C14.5179 16.7748 14.5159 16.7288 14.5179 16.6828L14.5339 16.2098C14.534 16.1732 14.5286 16.1367 14.5179 16.1018C14.5049 16.0628 14.4979 16.0268 14.5409 15.9928C14.5489 15.9868 14.5499 15.9608 14.5439 15.9508C14.5149 15.9078 14.5239 15.8578 14.5239 15.8128C14.5179 15.6941 14.5192 15.5752 14.5279 15.4568C14.5329 15.4048 14.5579 15.3568 14.5229 15.3068C14.5169 15.2988 14.5199 15.2768 14.5259 15.2668C14.5549 15.2168 14.5499 15.1728 14.5199 15.1268C14.5099 15.1108 14.5099 15.0878 14.5099 15.0858C14.5309 15.0578 14.5589 15.0278 14.5559 15.0258C14.4959 14.9578 14.5429 14.8898 14.5589 14.8268C14.5739 14.7678 14.5769 14.7188 14.5309 14.6788C14.5379 14.6178 14.5889 14.5618 14.5349 14.5028C14.5299 14.4968 14.5419 14.4698 14.5519 14.4568C14.5739 14.4278 14.5969 14.4018 14.5659 14.3648C14.5599 14.3578 14.5639 14.3418 14.5649 14.3308C14.5709 14.2338 14.5869 14.1368 14.5809 14.0408C14.5759 13.9548 14.6209 13.9178 14.6839 13.8798C14.7369 13.8468 14.8029 13.8258 14.8229 13.7548C14.8249 13.7458 14.8389 13.7388 14.8489 13.7318C14.9399 13.6678 15.0309 13.6018 15.1229 13.5408C15.3249 13.4048 15.5229 13.2648 15.7409 13.1528C15.8289 13.1078 15.9029 13.0388 15.9859 12.9848C16.1759 12.8618 16.3659 12.7368 16.5609 12.6188C16.7799 12.4858 17.0029 12.3588 17.2249 12.2288C17.4849 12.0768 17.7418 11.9218 18.0049 11.7738C18.3907 11.558 18.778 11.345 19.1669 11.1348C19.4269 10.9948 19.6889 10.8588 19.9499 10.7208C20.1579 10.6108 20.3669 10.5008 20.5769 10.3918C20.7549 10.2998 20.9319 10.2038 21.1149 10.1218C21.3849 10.0018 21.6549 9.88476 21.9319 9.78076C22.1938 9.68076 22.4619 9.59676 22.7299 9.51076C22.9559 9.43776 23.1849 9.37676 23.3899 9.25376C23.6049 9.12576 23.7889 8.96876 23.8879 8.73176C23.9077 8.68793 23.9321 8.64636 23.9609 8.60776C23.9659 8.59976 23.9869 8.60176 23.9999 8.59876V8.56376C23.9599 8.51376 23.9599 8.51376 23.9999 8.45776V8.42276ZM16.3469 5.66576C16.3831 5.69634 16.4244 5.72036 16.4689 5.73676C16.5669 5.77576 16.6769 5.79076 16.7689 5.74976C16.9228 5.68176 17.0689 5.58976 17.1589 5.42976C17.1712 5.40843 17.1856 5.38834 17.2019 5.36976C17.2879 5.26976 17.3719 5.17076 17.4039 5.02976C17.4164 4.97843 17.4211 4.9255 17.4179 4.87276C17.4109 4.78176 17.3549 4.72276 17.3179 4.65476C17.2829 4.64976 17.2479 4.65176 17.2199 4.64076C17.1243 4.60591 17.0201 4.6031 16.9229 4.63276C16.7415 4.68038 16.5794 4.78311 16.4589 4.92676C16.3008 5.10676 16.2049 5.31376 16.2889 5.56676C16.2997 5.60436 16.3196 5.6387 16.3469 5.66676V5.66576ZM15.8069 10.8058C15.904 10.8091 16.0005 10.7885 16.0879 10.7458C16.2006 10.6933 16.3123 10.6387 16.4229 10.5818C16.5244 10.5306 16.6119 10.4554 16.6779 10.3628C16.7278 10.2928 16.8009 10.2268 16.7979 10.1318C16.7959 10.0988 16.8119 10.0648 16.8149 10.0318C16.8169 10.0068 16.8109 9.98176 16.8069 9.95576C16.8008 9.92276 16.7849 9.88876 16.7869 9.85576C16.7926 9.68999 16.8006 9.52431 16.8109 9.35876C16.8139 9.30476 16.8259 9.25076 16.8339 9.19776L16.9079 9.20176C16.8909 9.17876 16.8769 9.16376 16.8669 9.14776C16.8556 9.12657 16.8452 9.10488 16.8359 9.08276L16.9409 9.10076C16.9199 9.07076 16.9139 9.04676 16.8979 9.03976C16.8439 9.01676 16.8429 8.97576 16.8439 8.93476C16.8459 8.89276 16.8349 8.83776 16.8609 8.81176C16.9249 8.74876 16.9289 8.68376 16.9169 8.60876C16.9092 8.56149 16.9059 8.51363 16.9069 8.46576C16.9099 8.36776 16.9169 8.26976 16.9209 8.17276C16.9209 8.16776 16.9139 8.16276 16.9129 8.15676C16.9109 8.12876 16.9009 8.09876 16.9099 8.07376C16.923 8.03844 16.9241 7.99975 16.9129 7.96376C16.8868 7.87314 16.8851 7.77726 16.9079 7.68576C16.9219 7.62976 16.9389 7.57376 16.9509 7.51576C16.9529 7.50776 16.9329 7.49576 16.9219 7.48276C16.9749 7.40876 16.9799 7.33176 16.9859 7.25576C16.9889 7.21576 16.9669 7.17776 16.9969 7.13376C17.0199 7.0944 17.0313 7.04934 17.0299 7.00376C17.0299 6.95076 17.0429 6.89776 17.0089 6.84276C16.9829 6.80176 16.9479 6.75876 16.9489 6.70276C16.9519 6.61176 16.8979 6.55876 16.7929 6.55276C16.6539 6.54276 16.5149 6.54576 16.3899 6.61076C16.24 6.68248 16.1108 6.79099 16.0143 6.92616C15.9178 7.06134 15.8571 7.21877 15.8379 7.38376C15.8329 7.44376 15.8239 7.50476 15.8159 7.56476C15.7759 7.84876 15.7339 8.13176 15.6989 8.41476C15.6599 8.73376 15.6289 9.05276 15.5919 9.37176C15.5659 9.60276 15.5369 9.83476 15.5129 10.0668C15.4979 10.2148 15.4799 10.3638 15.4849 10.5108C15.4899 10.6898 15.5929 10.7948 15.8069 10.8058ZM5.49685 12.0288C5.48648 11.9793 5.48767 11.9281 5.50033 11.8792C5.51299 11.8303 5.53678 11.785 5.56985 11.7468C5.58785 11.7268 5.60385 11.6848 5.59385 11.6668C5.56985 11.6268 5.60785 11.6088 5.61185 11.5798C5.61785 11.5498 5.58385 11.5198 5.61185 11.4868C5.62185 11.4748 5.62185 11.4538 5.62385 11.4368C5.62685 11.3988 5.62385 11.3598 5.63085 11.3238L5.75285 10.8028C5.80485 10.5798 5.85085 10.3558 5.90885 10.1338C5.95585 9.95076 5.98885 9.76176 6.07485 9.58976C6.09385 9.55276 6.09985 9.50976 6.12085 9.47376C6.15285 9.41776 6.14385 9.34376 6.20185 9.30076C6.21085 9.29376 6.21485 9.28076 6.21785 9.26876L6.27185 9.06276C6.28785 9.00176 6.29985 8.93876 6.36985 8.91076C6.38185 8.90576 6.39185 8.89076 6.39685 8.87676C6.43085 8.80076 6.46685 8.72576 6.46685 8.63976C6.46685 8.60776 6.45985 8.57576 6.46485 8.54476C6.48485 8.41876 6.51585 8.29476 6.52485 8.16776C6.5292 8.10051 6.54979 8.03532 6.58485 7.97776C6.65085 7.86676 6.67385 7.74276 6.69885 7.62276C6.71885 7.52876 6.76685 7.45476 6.81185 7.37576C6.82985 7.34376 6.84185 7.32176 6.82085 7.28776C6.8116 7.27413 6.8064 7.25816 6.80587 7.2417C6.80534 7.22523 6.8095 7.20896 6.81785 7.19476C6.88285 7.06876 6.91285 6.93276 6.94285 6.79576C6.95945 6.71825 6.97947 6.64151 7.00285 6.56576C7.02985 6.47776 7.06485 6.39276 7.09385 6.30576C7.12385 6.21976 7.14785 6.13276 7.17685 6.04576C7.19685 5.98376 7.21385 5.91776 7.24785 5.86276C7.28603 5.80022 7.3131 5.73154 7.32785 5.65976C7.34283 5.59317 7.36426 5.52819 7.39185 5.46576C7.44685 5.34176 7.50785 5.21876 7.56685 5.09576C7.58685 5.05576 7.61185 5.01876 7.62885 4.97876C7.64293 4.9494 7.65044 4.91732 7.65085 4.88476C7.64878 4.82815 7.66045 4.77188 7.68485 4.72076C7.76885 4.53276 7.84585 4.34176 7.93385 4.15576C8.08385 3.83576 8.18985 3.49376 8.40185 3.20276C8.45085 3.13676 8.47885 3.05676 8.52185 2.98676C8.65215 2.78619 8.799 2.59686 8.96085 2.42076C9.01385 2.36076 9.07685 2.30776 9.13685 2.25076C9.16385 2.26576 9.18385 2.26276 9.18685 2.23576C9.19685 2.16376 9.24985 2.14176 9.30785 2.12076C9.32085 2.11576 9.33785 2.10876 9.34285 2.09776C9.36185 2.05176 9.40585 2.01576 9.39585 1.95876C9.39385 1.94576 9.40085 1.92876 9.40885 1.91876C9.45285 1.85476 9.50085 1.79476 9.54385 1.73076C9.62465 1.61507 9.67079 1.47874 9.67685 1.33776C9.68102 1.2189 9.66651 1.10012 9.63385 0.985762C9.59918 0.848346 9.52814 0.722804 9.4282 0.622329C9.32825 0.521853 9.20308 0.450153 9.06585 0.414762C8.98585 0.388194 8.90347 0.36944 8.81985 0.358762C8.75665 0.353069 8.69306 0.353069 8.62985 0.358762C8.44249 0.397396 8.27107 0.491468 8.13785 0.628762C8.00785 0.751762 7.89385 0.886762 7.80285 1.04476C7.70643 1.21327 7.6235 1.38916 7.55485 1.57076C7.50723 1.69617 7.45856 1.82117 7.40885 1.94576C7.37185 2.03976 7.32885 2.13176 7.29285 2.22676C7.19285 2.48676 7.09785 2.74676 6.99985 3.00676C6.90685 3.25476 6.80985 3.50276 6.71885 3.75176C6.65885 3.91176 6.60685 4.07376 6.54885 4.23376L6.17485 5.25976C6.15485 5.31276 6.14185 5.37076 6.11085 5.41676C6.06285 5.48976 6.04685 5.56976 6.02585 5.65076C5.99985 5.75076 5.97385 5.85376 5.92785 5.94676C5.85085 6.10376 5.80485 6.26876 5.75585 6.43476C5.72285 6.54776 5.71885 6.67176 5.64885 6.77476C5.63785 6.78976 5.63685 6.81476 5.63685 6.83476C5.63485 6.90776 5.64485 6.98376 5.58785 7.04476C5.58485 7.04876 5.58485 7.05676 5.58385 7.06176L5.50785 7.35576L5.37585 7.82076C5.33585 7.96676 5.29385 8.11376 5.25685 8.26076C5.23885 8.33276 5.23585 8.40776 5.21685 8.47976C5.18985 8.57376 5.14985 8.66476 5.12485 8.75976C5.03485 9.09276 4.94985 9.42776 4.86285 9.76276C4.85085 9.80776 4.83685 9.85276 4.82585 9.89976C4.79015 10.0443 4.75482 10.189 4.71985 10.3338C4.70485 10.3978 4.68885 10.4618 4.67585 10.5258C4.61585 10.8238 4.56385 11.1228 4.49885 11.4198C4.44385 11.6698 4.39185 11.9208 4.35585 12.1748C4.32085 12.4108 4.27185 12.6448 4.22985 12.8798C4.21385 12.9648 4.19985 13.0498 4.18785 13.1348L4.13385 13.4888C4.09085 13.7658 4.04485 14.0418 4.00385 14.3188C3.97785 14.4898 3.95985 14.6618 3.93385 14.8318C3.92685 14.8828 3.90385 14.9318 3.88585 14.9838C3.85385 14.9578 3.82785 14.9438 3.81185 14.9228C3.79723 14.9022 3.78857 14.878 3.78685 14.8528C3.78385 14.7908 3.78685 14.7288 3.78385 14.6678C3.78385 14.6548 3.77385 14.6378 3.76285 14.6328C3.72485 14.6168 3.72985 14.5868 3.72885 14.5568C3.72585 14.4508 3.72885 14.3438 3.69285 14.2388C3.68285 14.2078 3.69285 14.1688 3.69585 14.1328C3.69885 14.0748 3.70685 14.0158 3.70585 13.9568C3.70585 13.9288 3.69985 13.8908 3.68085 13.8748C3.60985 13.8148 3.60685 13.7248 3.58885 13.6488C3.57541 13.5674 3.58512 13.4839 3.61685 13.4078C3.64385 13.3378 3.65085 13.2788 3.61685 13.2138C3.60911 13.1979 3.60243 13.1815 3.59685 13.1648C3.56485 13.0718 3.51985 12.9818 3.52485 12.8808C3.52596 12.8065 3.51237 12.7327 3.48485 12.6638C3.45785 12.5868 3.42185 12.5038 3.47685 12.4268C3.45685 12.3838 3.41685 12.3418 3.42285 12.3048C3.43985 12.1678 3.36585 12.0588 3.32285 11.9408C3.30685 11.8968 3.29085 11.8598 3.30685 11.8288C3.28685 11.7898 3.26185 11.7618 3.25585 11.7318C3.24085 11.6518 3.24185 11.5718 3.22185 11.4918C3.19185 11.3758 3.18785 11.2538 3.16685 11.1348C3.14485 11.0098 3.09185 10.8888 3.12885 10.7578C3.13112 10.7487 3.13005 10.7391 3.12585 10.7308C3.10085 10.6818 3.14185 10.6108 3.07285 10.5738C3.06685 10.5718 3.07385 10.5468 3.07285 10.5338C3.07285 10.5108 3.07685 10.4868 3.06785 10.4678C3.03185 10.3828 3.04585 10.2858 3.00185 10.2028C2.99585 10.1908 3.00185 10.1728 3.00185 10.1588C3.00085 10.1408 3.00185 10.1238 2.99785 10.1068C2.98785 10.0668 2.97385 10.0268 2.96785 9.98676C2.94485 9.84676 2.92785 9.70376 2.90385 9.56276C2.8519 9.25486 2.79857 8.94719 2.74385 8.63976C2.72205 8.5155 2.67286 8.39765 2.59985 8.29476C2.42985 8.05476 2.06985 8.00576 1.82785 8.15276C1.69814 8.23111 1.59956 8.35196 1.54885 8.49476C1.51285 8.58976 1.48885 8.68876 1.44985 8.78276C1.33285 9.06976 1.27585 9.37776 1.13985 9.65876C1.13185 9.76776 1.08285 9.86376 1.04785 9.96476C1.01885 10.0458 1.00685 10.1318 0.980851 10.2148C0.953851 10.3028 0.917851 10.3878 0.890851 10.4768C0.851851 10.6068 0.794851 10.7308 0.763851 10.8658C0.747465 10.9693 0.707803 11.0678 0.647851 11.1538C0.622851 11.1868 0.621851 11.2378 0.610851 11.2798C0.595851 11.3378 0.596851 11.4078 0.561851 11.4498C0.508851 11.5128 0.496851 11.5868 0.472851 11.6578C0.460851 11.6948 0.462851 11.7348 0.449851 11.7708C0.391851 11.9388 0.309851 12.0968 0.262851 12.2708C0.208851 12.4748 0.124851 12.6708 0.0548515 12.8708C0.0354822 12.924 0.0197788 12.9784 0.00785145 13.0338C-0.0120277 13.1364 0.00614103 13.2427 0.0589611 13.3329C0.111781 13.4231 0.195637 13.4909 0.294851 13.5238C0.476851 13.5868 0.644851 13.5458 0.801851 13.4478C0.853851 13.4158 0.894851 13.3668 0.941851 13.3258C0.923851 13.2598 0.983851 13.2198 0.999851 13.1628C1.01985 13.0898 1.05885 13.0228 1.08385 12.9498C1.11385 12.8668 1.17585 12.7998 1.18785 12.7078C1.19285 12.6678 1.22985 12.6328 1.25285 12.5948C1.23085 12.5788 1.24685 12.5588 1.25685 12.5368C1.28685 12.4698 1.32485 12.4038 1.34385 12.3338C1.35885 12.2788 1.36385 12.2238 1.38785 12.1678C1.42585 12.0828 1.42285 11.9808 1.47585 11.8978C1.46285 11.8138 1.52385 11.7528 1.55585 11.6878C1.58948 11.6265 1.60245 11.556 1.59285 11.4868C1.62485 11.4708 1.66985 11.4638 1.65885 11.4098C1.65885 11.4058 1.67685 11.3978 1.68385 11.3898C1.70385 11.3698 1.72785 11.3518 1.73885 11.3268C1.76285 11.2768 1.77885 11.2218 1.80085 11.1708C1.80785 11.1538 1.83385 11.1308 1.84285 11.1338C1.8818 11.1462 1.91883 11.1641 1.95285 11.1868C1.98685 11.2108 1.99985 11.2448 1.97985 11.2878C1.97485 11.2978 1.98085 11.3138 1.98285 11.3328C2.01385 11.3248 2.03685 11.2838 2.06585 11.3208C2.05985 11.3488 2.05185 11.3758 2.04885 11.4038C2.04475 11.446 2.04341 11.4884 2.04485 11.5308C2.04685 11.5678 2.06085 11.6038 2.05885 11.6398C2.05706 11.6573 2.05918 11.675 2.06506 11.6916C2.07094 11.7082 2.08043 11.7233 2.09285 11.7358C2.11934 11.7635 2.13888 11.797 2.14985 11.8338C2.16785 11.9118 2.17585 11.9918 2.18885 12.0708L2.29885 12.7768C2.30585 12.8268 2.31185 12.8768 2.31285 12.9268C2.31485 13.0178 2.29485 13.1118 2.35885 13.1938C2.36885 13.2058 2.36485 13.2278 2.36785 13.2458C2.39485 13.4318 2.42085 13.6178 2.44885 13.8028C2.47585 13.9798 2.50485 14.1558 2.53085 14.3328C2.56785 14.5728 2.60285 14.8148 2.63885 15.0548C2.66485 15.2348 2.69085 15.4138 2.71885 15.5928L2.83885 16.3408C2.85585 16.4488 2.89085 16.5548 2.85485 16.6648C2.84785 16.6868 2.84685 16.7108 2.84285 16.7298C2.93885 16.8068 2.94485 16.8368 2.88385 16.9398C2.93185 16.9398 2.94685 16.9698 2.95385 17.0088C2.97885 17.1628 2.99485 17.3188 3.03385 17.4718C3.03885 17.4918 3.04185 17.5168 3.03385 17.5338C3.0269 17.5468 3.02413 17.5617 3.02592 17.5763C3.02771 17.591 3.03397 17.6048 3.04385 17.6158C3.05428 17.6307 3.06113 17.6478 3.06385 17.6658C3.09385 17.8318 3.12385 17.9978 3.15085 18.1638C3.18085 18.3458 3.20485 18.5298 3.24085 18.7098C3.28485 18.9228 3.34385 19.1328 3.38485 19.3458C3.42085 19.5358 3.63485 19.7368 3.87085 19.7058C4.07085 19.6808 4.29885 19.5658 4.36185 19.3218C4.40266 19.1665 4.43736 19.0097 4.46585 18.8518C4.50285 18.6478 4.53085 18.4408 4.55985 18.2348C4.59885 17.9638 4.63785 17.6928 4.67285 17.4208C4.70885 17.1438 4.73885 16.8648 4.77385 16.5878C4.8054 16.3363 4.83807 16.0849 4.87185 15.8338C4.88485 15.7368 4.89185 15.6368 4.92085 15.5438C4.94685 15.4588 4.99085 15.3808 4.97785 15.2908C5.07585 15.2538 5.09785 15.2108 5.04185 15.1598C5.00185 15.1228 4.99685 15.0868 5.00185 15.0418L5.01185 14.9538C5.02585 14.8508 5.04585 14.7478 5.04885 14.6438C5.05085 14.5768 5.06785 14.5098 5.10985 14.4718C5.18785 14.4018 5.17985 14.3068 5.20985 14.2238C5.23285 14.1588 5.21985 14.0798 5.22385 14.0038C5.17485 13.9898 5.13985 13.9698 5.14685 13.9178C5.15585 13.8528 5.15885 13.7868 5.17185 13.7228C5.19985 13.5838 5.23385 13.4468 5.26385 13.3088C5.27017 13.2828 5.27017 13.2557 5.26385 13.2298C5.25085 13.1858 5.26685 13.1568 5.29585 13.1268C5.31202 13.1105 5.32254 13.0895 5.32585 13.0668C5.33219 12.9853 5.33486 12.9035 5.33385 12.8218C5.33385 12.7788 5.34485 12.7428 5.35885 12.7028C5.38585 12.6208 5.43285 12.5418 5.40685 12.4458C5.39885 12.4188 5.41885 12.3758 5.43985 12.3498C5.52085 12.2518 5.52285 12.1428 5.49585 12.0298L5.49685 12.0288ZM7.67585 11.3638C7.66085 11.2988 7.67485 11.2838 7.74085 11.2488C7.71985 11.2108 7.68085 11.1738 7.68785 11.1468C7.70485 11.0798 7.67185 11.0268 7.65385 10.9708C7.64037 10.9271 7.6141 10.8886 7.57844 10.86C7.54278 10.8315 7.49938 10.8143 7.45385 10.8108C7.38858 10.8019 7.32218 10.8067 7.25885 10.8248C7.14065 10.8602 7.02841 10.9131 6.92585 10.9818C6.75385 11.0918 6.62585 11.2298 6.53985 11.4068C6.45493 11.5861 6.40084 11.7785 6.37985 11.9758C6.36085 12.1278 6.34985 12.2818 6.33685 12.4348C6.33485 12.4488 6.33685 12.4638 6.33585 12.4788C6.33185 12.5878 6.32885 12.6968 6.32285 12.8058C6.31432 12.9738 6.30499 13.1418 6.29485 13.3098C6.29285 13.3488 6.30585 13.3908 6.26485 13.4228C6.25685 13.4288 6.26085 13.4498 6.26185 13.4638C6.26185 13.5358 6.27685 13.6098 6.26185 13.6778C6.22685 13.8268 6.23185 13.9768 6.22485 14.1258C6.21685 14.2968 6.20385 14.4678 6.19885 14.6388C6.19485 14.8218 6.18885 15.0048 6.19885 15.1868C6.20685 15.3488 6.31285 15.4358 6.48685 15.4498C6.57025 15.4556 6.65364 15.4383 6.72785 15.3998C6.86677 15.3295 6.99784 15.2447 7.11885 15.1468C7.14985 15.1228 7.16385 15.0718 7.22285 15.0928C7.22885 15.0948 7.24985 15.0808 7.25085 15.0728C7.25585 15.0128 7.31085 15.0408 7.34785 15.0288L7.36785 14.9458L7.28385 14.9408C7.28985 14.9078 7.29485 14.8778 7.30285 14.8478C7.30985 14.8178 7.32385 14.7878 7.32885 14.7578C7.34385 14.6718 7.34285 14.5818 7.37285 14.5018C7.41885 14.3838 7.38485 14.2668 7.39385 14.1498C7.39985 14.0668 7.38985 13.9838 7.39885 13.9008C7.41285 13.7628 7.43485 13.6258 7.45485 13.4878C7.46485 13.4198 7.48085 13.3518 7.49185 13.2838C7.50234 13.2241 7.51035 13.1641 7.51585 13.1038C7.51985 13.0498 7.51585 12.9978 7.54085 12.9438C7.56583 12.8856 7.57941 12.8231 7.58085 12.7598C7.58885 12.6328 7.58585 12.5058 7.58785 12.3788C7.58785 12.3638 7.58585 12.3468 7.59285 12.3358C7.64785 12.2478 7.64785 12.1478 7.66285 12.0528C7.67603 11.9937 7.68241 11.9333 7.68185 11.8728C7.67757 11.8232 7.688 11.7734 7.71185 11.7298C7.72685 11.7048 7.74285 11.6698 7.73385 11.6498C7.72499 11.6307 7.72107 11.6097 7.72247 11.5887C7.72387 11.5678 7.73054 11.5475 7.74185 11.5298C7.71685 11.4668 7.68985 11.4168 7.67685 11.3638H7.67585ZM8.80885 10.4238C8.73901 10.5723 8.69827 10.7329 8.68885 10.8968C8.67885 11.0518 8.67485 11.2068 8.66785 11.3618C8.65985 11.5118 8.65285 11.6598 8.64285 11.8088C8.63585 11.9018 8.62485 11.9948 8.61685 12.0868C8.61285 12.1348 8.62185 12.1868 8.60485 12.2288C8.57139 12.3139 8.55771 12.4056 8.56485 12.4968L8.56285 12.5048C8.56685 12.5758 8.54185 12.6458 8.55685 12.7188C8.56285 12.7488 8.55785 12.7838 8.55485 12.8158C8.54785 12.8798 8.51785 12.9498 8.53485 13.0058C8.56685 13.1158 8.54085 13.2228 8.54185 13.3308C8.54185 13.4248 8.50685 13.5148 8.51785 13.6128C8.52985 13.7128 8.52185 13.8158 8.52285 13.9168C8.52285 13.9988 8.54985 14.0728 8.58885 14.1418C8.64885 14.2488 8.75485 14.3058 8.85785 14.2868C9.05085 14.2508 9.25985 14.1498 9.42785 13.9828C9.5378 13.8759 9.61009 13.7362 9.63385 13.5848C9.65888 13.4219 9.67291 13.2575 9.67585 13.0928C9.68085 12.8528 9.69285 12.6128 9.70385 12.3738C9.70685 12.3138 9.72985 12.2498 9.71985 12.1908C9.70185 12.0888 9.72885 11.9898 9.72785 11.8888C9.72785 11.8398 9.73785 11.7828 9.78085 11.7548C9.78385 11.6998 9.77485 11.6528 9.79085 11.6188C9.81885 11.5588 9.81785 11.4958 9.83485 11.4348C9.84385 11.4018 9.86885 11.3708 9.86885 11.3378C9.87055 11.2898 9.88657 11.2435 9.91485 11.2048C10.0179 11.0448 10.1249 10.8868 10.2809 10.7718C10.3796 10.6985 10.4763 10.6224 10.5709 10.5438C10.7069 10.4318 10.8439 10.3178 10.8309 10.1128C10.8309 10.0988 10.8399 10.0848 10.8389 10.0708C10.8359 10.0348 10.8379 9.99576 10.8249 9.96376C10.7969 9.89676 10.7609 9.83376 10.7279 9.76876C10.6799 9.67376 10.5979 9.64476 10.4989 9.64476C10.4029 9.64476 10.3189 9.68576 10.2339 9.72576C10.1779 9.75276 10.1239 9.78176 10.0659 9.80776C10.0119 9.83176 9.95385 9.84676 9.90285 9.87576C9.81053 9.92809 9.7084 9.96078 9.60285 9.97176C9.44462 9.98417 9.29021 10.0266 9.14785 10.0968C9.00188 10.1658 8.88248 10.2806 8.80785 10.4238" fill="#2D3436"/>
</svg>
