<svg width="200" height="200" viewBox="0 0 200 200" fill="none" xmlns="http://www.w3.org/2000/svg">
<g clip-path="url(#clip0_6340_380277)">
<rect width="200" height="200" fill="#EBFAFA"/>
<path d="M120.667 116V124C120.667 134.667 136 139.333 136 139.333C136 139.333 118.333 152.667 100 152.667C81.6667 152.667 64 139.333 64 139.333C64 139.333 79.454 134.667 79.3333 124C79.2127 113.333 79.2933 107.067 79.2127 88.7919C69.658 76.4073 70.2713 68.0953 75.496 62.2499C93 42.6666 140.667 49.3333 140.667 49.3333C140.667 49.3333 145.115 97.3286 135 111.333C130.667 117.333 120.667 116 120.667 116Z" fill="url(#paint0_linear_6340_380277)"/>
<path style="mix-blend-mode:multiply" opacity="0.6" d="M120.667 116C106 114.333 97.3333 108 97.3333 108C102.805 116.095 111.144 121.813 120.667 124V116Z" fill="url(#paint1_linear_6340_380277)"/>
<path d="M170 159.539C176.347 172.443 180 202.205 180 202.205H20C20 202.205 23.6547 172.44 30 159.539C36.3453 146.637 73.4 134.671 73.4 134.671C80.542 149.333 119.739 149.333 126.581 134.667C126.581 134.667 163.653 146.634 170 159.539Z" fill="#55B1F3"/>
<path d="M97.3333 185.333C97.3333 184.806 97.4897 184.29 97.7828 183.852C98.0758 183.413 98.4922 183.071 98.9795 182.87C99.4668 182.668 100.003 182.615 100.52 182.718C101.038 182.821 101.513 183.075 101.886 183.448C102.259 183.821 102.513 184.296 102.615 184.813C102.718 185.33 102.666 185.867 102.464 186.354C102.262 186.841 101.92 187.258 101.482 187.551C101.043 187.844 100.527 188 100 188C99.2928 188 98.6145 187.719 98.1144 187.219C97.6143 186.719 97.3333 186.041 97.3333 185.333ZM97.3333 172C97.3333 171.473 97.4897 170.957 97.7828 170.518C98.0758 170.08 98.4922 169.738 98.9795 169.536C99.4668 169.334 100.003 169.282 100.52 169.385C101.038 169.487 101.513 169.741 101.886 170.114C102.259 170.487 102.513 170.962 102.615 171.48C102.718 171.997 102.666 172.533 102.464 173.02C102.262 173.508 101.92 173.924 101.482 174.217C101.043 174.51 100.527 174.667 100 174.667C99.2928 174.667 98.6145 174.386 98.1144 173.886C97.6143 173.386 97.3333 172.707 97.3333 172ZM97.3333 158.667C97.3333 158.139 97.4897 157.624 97.7828 157.185C98.0758 156.747 98.4922 156.405 98.9795 156.203C99.4668 156.001 100.003 155.948 100.52 156.051C101.038 156.154 101.513 156.408 101.886 156.781C102.259 157.154 102.513 157.629 102.615 158.146C102.718 158.664 102.666 159.2 102.464 159.687C102.262 160.174 101.92 160.591 101.482 160.884C101.043 161.177 100.527 161.333 100 161.333C99.2928 161.333 98.6145 161.052 98.1144 160.552C97.6143 160.052 97.3333 159.374 97.3333 158.667Z" fill="white"/>
<path d="M87.4367 68.8059C85.3167 66.9853 82.7407 65.7593 79.0993 67.6513C70.4667 72.1333 77 89.3333 84.6667 89.3333C86.6667 89.3333 87.6613 95.6146 78.7567 99.9999C78.7567 92.9999 68.09 75.6666 67.1567 59.8853C56.4233 55.8886 59.09 39.8973 66.4587 39.8973C65.2827 25.2386 88.7567 17.6666 97.846 26.0793C107.09 14.9999 130.423 20.6666 131.832 30.2786C147.877 21.7139 158.423 46.3333 143.4 55.8906C137.218 59.8239 122.757 61.3206 101.881 61.3206C98.73 61.3206 96.9647 62.1033 97.846 65.9999C99.552 73.5506 95.5913 78.3066 87.4367 68.8059Z" fill="#0063F7"/>
</g>
<defs>
<linearGradient id="paint0_linear_6340_380277" x1="102.82" y1="48.2394" x2="102.82" y2="152.667" gradientUnits="userSpaceOnUse">
<stop stop-color="#E6864E"/>
<stop offset="1" stop-color="#EB965E"/>
</linearGradient>
<linearGradient id="paint1_linear_6340_380277" x1="116.257" y1="111.008" x2="112.17" y2="126.483" gradientUnits="userSpaceOnUse">
<stop stop-color="#E07A3F"/>
<stop offset="1" stop-color="#EB9154"/>
</linearGradient>
<clipPath id="clip0_6340_380277">
<rect width="200" height="200" fill="white"/>
</clipPath>
</defs>
</svg>
