<svg width="200" height="200" viewBox="0 0 200 200" fill="none" xmlns="http://www.w3.org/2000/svg">
<g clip-path="url(#clip0_6340_380344)">
<rect width="200" height="200" fill="#FFE7EA"/>
<path d="M107.243 33.1333C104.576 21.4666 117.221 12.5139 130.243 18.6599C160.909 33.1333 143.114 54.7999 132.114 52.4666C121.114 50.1333 109.909 44.7999 107.243 33.1333Z" fill="#FF0022"/>
<path d="M114.667 106.667C100.345 113.547 98.2553 113.179 66.6666 87.3332C18.9999 48.3332 63.9999 12.6666 112.333 31.6666C164.667 54.6666 147.134 91.0712 114.667 106.667Z" fill="#FF455E"/>
<path d="M116.001 134C111.112 144.667 104.889 150 100.001 150C95.1119 150 88.8893 144.667 84.0006 134V120.667C84.0006 120.667 81.8253 120.733 80.3339 120.667C64.7399 120 59.5293 94.9153 61.9766 69.8253C63.7686 51.4507 79.3339 76.6667 104.667 59C103.667 78.3333 112.001 76.3333 115.667 74C132.334 66.3333 132.667 97.6667 116.195 95.2387C116.199 95.572 116.134 108.492 116.001 134Z" fill="url(#paint0_linear_6340_380344)"/>
<path d="M84 120.666C90 120.222 97.4742 116.866 106.423 110.599C103.68 120.042 96.2062 125.62 84 127.333V120.666Z" fill="#FF9768"/>
<path d="M78.488 137.878C78.488 137.878 79.494 130.933 81.8526 130.339C84.2113 129.744 97.9967 129.672 98.0087 132.339C98.0087 132.828 98.4833 138.072 100.055 138.072C101.627 138.072 102.031 132.825 102.034 132.339C102.047 129.672 115.752 129.775 118.19 130.339C120.628 130.903 121.545 137.887 121.545 137.887C121.545 137.887 157.545 154.838 161.333 162.074C164.592 168.296 167.037 182.741 168.667 205.407H31.3333C32.9631 182.741 35.4075 168.296 38.6666 162.074C42.4553 154.841 78.488 137.878 78.488 137.878Z" fill="#FF8B9A"/>
<path d="M97.3333 183.333C97.3333 182.806 97.4897 182.29 97.7827 181.852C98.0757 181.413 98.4922 181.071 98.9795 180.87C99.4668 180.668 100.003 180.615 100.52 180.718C101.037 180.821 101.513 181.075 101.886 181.448C102.259 181.821 102.513 182.296 102.615 182.813C102.718 183.33 102.665 183.867 102.464 184.354C102.262 184.841 101.92 185.258 101.481 185.551C101.043 185.844 100.527 186 100 186C99.2927 186 98.6145 185.719 98.1144 185.219C97.6143 184.719 97.3333 184.041 97.3333 183.333ZM97.3333 170C97.3333 169.473 97.4897 168.957 97.7827 168.518C98.0757 168.08 98.4922 167.738 98.9795 167.536C99.4668 167.334 100.003 167.282 100.52 167.385C101.037 167.487 101.513 167.741 101.886 168.114C102.259 168.487 102.513 168.962 102.615 169.48C102.718 169.997 102.665 170.533 102.464 171.02C102.262 171.508 101.92 171.924 101.481 172.217C101.043 172.51 100.527 172.667 100 172.667C99.2927 172.667 98.6145 172.386 98.1144 171.886C97.6143 171.386 97.3333 170.707 97.3333 170ZM97.3333 156.667C97.3333 156.139 97.4897 155.624 97.7827 155.185C98.0757 154.747 98.4922 154.405 98.9795 154.203C99.4668 154.001 100.003 153.948 100.52 154.051C101.037 154.154 101.513 154.408 101.886 154.781C102.259 155.154 102.513 155.629 102.615 156.146C102.718 156.664 102.665 157.2 102.464 157.687C102.262 158.174 101.92 158.591 101.481 158.884C101.043 159.177 100.527 159.333 100 159.333C99.2927 159.333 98.6145 159.052 98.1144 158.552C97.6143 158.052 97.3333 157.374 97.3333 156.667Z" fill="#664F4D"/>
<path d="M107.06 52.9519C96.3933 79.6185 102.393 92.6185 110.727 108.285C119.06 123.952 108.727 138.619 108.727 138.619C108.727 138.619 120.727 130.952 120.727 113.952C120.727 96.9519 108.727 86.2852 118.727 72.2852C128.727 58.2852 117.727 26.2852 107.06 52.9519Z" fill="#FF455E"/>
</g>
<defs>
<linearGradient id="paint0_linear_6340_380344" x1="94.8805" y1="59" x2="94.8805" y2="150" gradientUnits="userSpaceOnUse">
<stop stop-color="#F7B186"/>
<stop offset="1" stop-color="#FFC299"/>
</linearGradient>
<clipPath id="clip0_6340_380344">
<rect width="200" height="200" fill="white"/>
</clipPath>
</defs>
</svg>
