<svg width="200" height="200" viewBox="0 0 200 200" fill="none" xmlns="http://www.w3.org/2000/svg">
<g clip-path="url(#clip0_6340_380326)">
<path d="M0 0H200V200H0V0Z" fill="#FFF9E9"/>
<path d="M63.3333 139.856C75.5553 148.745 87.778 155.856 100 155.856C112.222 155.856 124.445 148.745 136.667 139.856C126.592 136.789 121.481 132.212 121.333 126.123C121.333 125.037 121.341 123.496 121.349 120.602C121.349 120.142 121.35 119.672 121.352 119.19C121.372 111.43 121.405 101.19 121.451 90.79C131.005 78.4054 127.495 63.886 124.501 64.248C120.831 64.6947 89.0287 34.516 82.9287 32.9687C76.8287 31.4214 61.3333 36.4167 58.6667 50.3334C56 64.25 54.8853 99.3287 65 113.333C67.8782 117.319 72.4116 118.878 78.6 118.01C78.6087 120.923 78.626 122.557 78.6667 125.856C78.5873 132.222 73.4767 136.793 63.3333 139.856Z" fill="url(#paint0_linear_6340_380326)"/>
<path d="M78.6667 118C93.3333 116.333 102.667 110 102.667 110C102.667 110 92 123.333 78.6667 126V118Z" fill="#FC9F6A"/>
<path d="M126.333 91C130.927 79.9534 149.333 57.4554 133.467 43.4554C128.133 17.4554 98.6667 20.3334 79 26.3334C65.782 30.366 55.8 38.3334 53.6667 32.3334C40.3334 43.4554 47.0107 54.3334 55.8 57.4554C63.7774 60.2887 77.2667 63.122 100.204 60.4554C104.301 59.9787 103.443 72.5274 105.633 73.884C108.917 75.9194 111.467 63.122 120.472 66.9647C129.477 70.8074 124.133 88.6247 114.467 88.6247C111.133 88.6247 109.467 97.7894 118.467 102.123C125 105.333 123.349 98.178 126.333 91Z" fill="#FFD252"/>
<path d="M170 160.205C176.347 173.11 180 202.872 180 202.872H20C20 202.872 23.6547 173.107 30 160.205C36.3453 147.304 73.4 135.338 73.4 135.338C93.8753 143.333 106.405 143.333 126.581 135.333C126.581 135.333 163.653 147.301 170 160.205Z" fill="#FFE393"/>
<path d="M104.667 140L108 201.333H92L95.3333 140C95.3333 140 98.4447 136.667 100 136.667C101.555 136.667 104.667 140 104.667 140Z" fill="#FFD252"/>
<path d="M105.426 152.461L94.9427 146.404L95.3333 140C97.4075 137.778 98.9631 136.667 100 136.667C101.037 136.667 102.592 137.778 104.667 140L105.427 152.461H105.426Z" fill="#FFC700"/>
<path d="M100 136.661L93.3333 148.667L72.6667 136L78.6667 127.333L100 135.214L121.333 127.333L127.333 136L106.667 148.667L100 136.661Z" fill="white"/>
</g>
<defs>
<linearGradient id="paint0_linear_6340_380326" x1="96.7478" y1="32.6981" x2="96.7478" y2="155.856" gradientUnits="userSpaceOnUse">
<stop stop-color="#F7B186"/>
<stop offset="1" stop-color="#FFC299"/>
</linearGradient>
<clipPath id="clip0_6340_380326">
<path d="M0 0H200V200H0V0Z" fill="white"/>
</clipPath>
</defs>
</svg>
