<svg width="200" height="200" viewBox="0 0 200 200" fill="none" xmlns="http://www.w3.org/2000/svg">
<g clip-path="url(#clip0_6340_380392)">
<rect width="200" height="200" fill="#FDEFFC"/>
<path d="M82.1953 139.249C87.9689 129.649 101.224 111.248 132.787 85.3919C180.413 46.3753 135.463 10.6881 87.1738 29.695C82.0081 31.7285 67.6933 23.5879 54.4332 32.1641C45.8795 37.6964 49.2084 42.032 45.8778 46.3676C42.5472 50.7033 29.7065 50.4481 26.8936 61.7061C25.2276 68.3759 29.8379 75.3623 29.2212 80.3825C28.6046 85.4027 23.7377 89.928 23.5055 96.5553C23.4049 99.3545 23.8568 102.146 24.8353 104.77C25.8138 107.395 27.2998 109.801 29.2083 111.851C31.1168 113.901 33.4105 115.555 35.9583 116.719C38.5062 117.882 41.2583 118.532 44.0575 118.632C44.0804 124.166 46.2411 129.477 50.0881 133.455C53.9351 137.432 59.1706 139.77 64.7005 139.977C68.2464 140.107 71.7681 139.344 74.9425 137.759C78.0922 140.662 80.7962 141.575 82.1953 139.249Z" fill="#C903FF"/>
<path d="M83.3333 129.333C83.3333 123.333 83.1293 93.7386 83.1393 93.2386C66.6667 95.6666 67 64.3333 83.6667 72C87.3333 74.3333 97.6667 72 96.6667 52.6666C114.667 72 135.565 49.4506 137.357 67.8253C139.804 92.9153 137.342 119.173 121.749 119.175C120.044 119.154 118.343 118.984 116.667 118.667V129.333C116.667 136 128.667 139.333 128.667 139.333C128.667 139.333 107.939 158.867 99.3333 158.759C90.728 158.651 71.3333 139.333 71.3333 139.333C71.3333 139.333 83.3333 136 83.3333 129.333Z" fill="url(#paint0_linear_6340_380392)"/>
<path style="mix-blend-mode:multiply" opacity="0.7" d="M116.666 118.663C108.396 116.829 100.558 113.411 93.587 108.597C93.587 108.597 99.3391 122.659 116.645 125.327L116.666 118.663Z" fill="url(#paint1_linear_6340_380392)"/>
<path d="M161.333 159.333C166.17 170.081 168.667 202.667 168.667 202.667H31.3333C31.3333 202.667 33.83 170.081 38.6666 159.333C42.904 149.918 70.826 139.107 79.0086 136C83.7333 141.285 90.504 144.667 100 144.667C109.496 144.667 116.267 141.285 120.991 136C129.174 139.107 157.096 149.918 161.333 159.333Z" fill="#E26BF5"/>
<path d="M37.3833 159.55C41.0113 152.651 52.952 145.412 63.9933 140.533C69.5 138.099 86 208 86 208H30.722C30.722 208 30.056 173.484 37.3833 159.55Z" fill="#F7C2FF"/>
</g>
<defs>
<linearGradient id="paint0_linear_6340_380392" x1="104.573" y1="52.6666" x2="104.573" y2="158.759" gradientUnits="userSpaceOnUse">
<stop stop-color="#E6864E"/>
<stop offset="1" stop-color="#EB965E"/>
</linearGradient>
<linearGradient id="paint1_linear_6340_380392" x1="97.9455" y1="111.743" x2="101.404" y2="127.3" gradientUnits="userSpaceOnUse">
<stop stop-color="#E68349"/>
<stop offset="1" stop-color="#F09960"/>
</linearGradient>
<clipPath id="clip0_6340_380392">
<rect width="200" height="200" fill="white"/>
</clipPath>
</defs>
</svg>
