<svg width="200" height="200" viewBox="0 0 200 200" fill="none" xmlns="http://www.w3.org/2000/svg">
<g clip-path="url(#clip0_6340_380261)">
<rect width="200" height="200" fill="#EAFCFF"/>
<path d="M161.333 162C166.222 171.333 168.667 205.333 168.667 205.333H31.3333C31.3333 205.333 33.778 171.333 38.6667 162C46 148 100 130 100 130C100 130 154 148 161.333 162Z" fill="#97F4FF"/>
<mask id="mask0_6340_380261" style="mask-type:alpha" maskUnits="userSpaceOnUse" x="31" y="130" width="138" height="76">
<path d="M161.333 162C166.222 171.333 168.667 205.333 168.667 205.333H31.3333C31.3333 205.333 33.778 171.333 38.6667 162C46 148 100 130 100 130C100 130 154 148 161.333 162Z" fill="url(#paint0_linear_6340_380261)"/>
</mask>
<g mask="url(#mask0_6340_380261)">
<path d="M162.667 199.333C162.667 198.542 162.901 197.769 163.341 197.111C163.78 196.453 164.405 195.941 165.136 195.638C165.867 195.335 166.671 195.256 167.447 195.41C168.223 195.565 168.936 195.945 169.495 196.505C170.055 197.064 170.435 197.777 170.59 198.553C170.744 199.329 170.665 200.133 170.362 200.864C170.059 201.595 169.547 202.22 168.889 202.659C168.231 203.099 167.458 203.333 166.667 203.333C165.606 203.333 164.588 202.912 163.838 202.162C163.088 201.412 162.667 200.394 162.667 199.333ZM136 199.333C136 198.542 136.235 197.769 136.674 197.111C137.114 196.453 137.738 195.941 138.469 195.638C139.2 195.335 140.004 195.256 140.78 195.41C141.556 195.565 142.269 195.945 142.828 196.505C143.388 197.064 143.769 197.777 143.923 198.553C144.077 199.329 143.998 200.133 143.696 200.864C143.393 201.595 142.88 202.22 142.222 202.659C141.564 203.099 140.791 203.333 140 203.333C138.939 203.333 137.922 202.912 137.172 202.162C136.421 201.412 136 200.394 136 199.333ZM109.333 199.333C109.333 198.542 109.568 197.769 110.007 197.111C110.447 196.453 111.072 195.941 111.803 195.638C112.534 195.335 113.338 195.256 114.114 195.41C114.89 195.565 115.602 195.945 116.162 196.505C116.721 197.064 117.102 197.777 117.256 198.553C117.411 199.329 117.332 200.133 117.029 200.864C116.726 201.595 116.213 202.22 115.556 202.659C114.898 203.099 114.124 203.333 113.333 203.333C112.272 203.333 111.255 202.912 110.505 202.162C109.755 201.412 109.333 200.394 109.333 199.333ZM82.6667 199.333C82.6667 198.542 82.9013 197.769 83.3408 197.111C83.7803 196.453 84.405 195.941 85.1359 195.638C85.8669 195.335 86.6711 195.256 87.447 195.41C88.223 195.565 88.9357 195.945 89.4951 196.505C90.0545 197.064 90.4355 197.777 90.5898 198.553C90.7442 199.329 90.6649 200.133 90.3622 200.864C90.0594 201.595 89.5468 202.22 88.889 202.659C88.2312 203.099 87.4578 203.333 86.6667 203.333C85.6058 203.333 84.5884 202.912 83.8383 202.162C83.0881 201.412 82.6667 200.394 82.6667 199.333ZM56 199.333C56 198.542 56.2346 197.769 56.6741 197.111C57.1137 196.453 57.7384 195.941 58.4693 195.638C59.2002 195.335 60.0044 195.256 60.7804 195.41C61.5563 195.565 62.269 195.945 62.8284 196.505C63.3878 197.064 63.7688 197.777 63.9232 198.553C64.0775 199.329 63.9983 200.133 63.6955 200.864C63.3928 201.595 62.8801 202.22 62.2223 202.659C61.5645 203.099 60.7911 203.333 60 203.333C58.9391 203.333 57.9217 202.912 57.1716 202.162C56.4214 201.412 56 200.394 56 199.333ZM29.3333 199.333C29.3333 198.542 29.5679 197.769 30.0075 197.111C30.447 196.453 31.0717 195.941 31.8026 195.638C32.5335 195.335 33.3378 195.256 34.1137 195.41C34.8896 195.565 35.6024 195.945 36.1618 196.505C36.7212 197.064 37.1021 197.777 37.2565 198.553C37.4108 199.329 37.3316 200.133 37.0289 200.864C36.7261 201.595 36.2134 202.22 35.5556 202.659C34.8978 203.099 34.1245 203.333 33.3333 203.333C32.2725 203.333 31.2551 202.912 30.5049 202.162C29.7548 201.412 29.3333 200.394 29.3333 199.333V199.333ZM149.333 186C149.333 185.209 149.568 184.436 150.007 183.778C150.447 183.12 151.072 182.607 151.803 182.304C152.534 182.002 153.338 181.923 154.114 182.077C154.89 182.231 155.602 182.612 156.162 183.172C156.721 183.731 157.102 184.444 157.256 185.22C157.411 185.996 157.332 186.8 157.029 187.531C156.726 188.262 156.213 188.886 155.556 189.326C154.898 189.765 154.124 190 153.333 190C152.272 190 151.255 189.579 150.505 188.828C149.755 188.078 149.333 187.061 149.333 186ZM122.667 186C122.667 185.209 122.901 184.436 123.341 183.778C123.78 183.12 124.405 182.607 125.136 182.304C125.867 182.002 126.671 181.923 127.447 182.077C128.223 182.231 128.936 182.612 129.495 183.172C130.055 183.731 130.435 184.444 130.59 185.22C130.744 185.996 130.665 186.8 130.362 187.531C130.059 188.262 129.547 188.886 128.889 189.326C128.231 189.765 127.458 190 126.667 190C125.606 190 124.588 189.579 123.838 188.828C123.088 188.078 122.667 187.061 122.667 186ZM96 186C96 185.209 96.2346 184.436 96.6741 183.778C97.1137 183.12 97.7384 182.607 98.4693 182.304C99.2002 182.002 100.004 181.923 100.78 182.077C101.556 182.231 102.269 182.612 102.828 183.172C103.388 183.731 103.769 184.444 103.923 185.22C104.077 185.996 103.998 186.8 103.696 187.531C103.393 188.262 102.88 188.886 102.222 189.326C101.564 189.765 100.791 190 100 190C98.9391 190 97.9217 189.579 97.1716 188.828C96.4214 188.078 96 187.061 96 186ZM69.3333 186C69.3333 185.209 69.5679 184.436 70.0075 183.778C70.447 183.12 71.0717 182.607 71.8026 182.304C72.5335 182.002 73.3378 181.923 74.1137 182.077C74.8896 182.231 75.6024 182.612 76.1618 183.172C76.7212 183.731 77.1021 184.444 77.2565 185.22C77.4108 185.996 77.3316 186.8 77.0289 187.531C76.7261 188.262 76.2134 188.886 75.5556 189.326C74.8978 189.765 74.1245 190 73.3333 190C72.2725 190 71.2551 189.579 70.5049 188.828C69.7548 188.078 69.3333 187.061 69.3333 186ZM42.6667 186C42.6667 185.209 42.9013 184.436 43.3408 183.778C43.7803 183.12 44.405 182.607 45.1359 182.304C45.8668 182.002 46.6711 181.923 47.447 182.077C48.223 182.231 48.9357 182.612 49.4951 183.172C50.0545 183.731 50.4355 184.444 50.5898 185.22C50.7442 185.996 50.6649 186.8 50.3622 187.531C50.0594 188.262 49.5468 188.886 48.889 189.326C48.2312 189.765 47.4578 190 46.6667 190C45.6058 190 44.5884 189.579 43.8382 188.828C43.0881 188.078 42.6667 187.061 42.6667 186ZM162.667 172.667C162.667 171.876 162.901 171.102 163.341 170.444C163.78 169.787 164.405 169.274 165.136 168.971C165.867 168.668 166.671 168.589 167.447 168.744C168.223 168.898 168.936 169.279 169.495 169.838C170.055 170.398 170.435 171.11 170.59 171.886C170.744 172.662 170.665 173.466 170.362 174.197C170.059 174.928 169.547 175.553 168.889 175.993C168.231 176.432 167.458 176.667 166.667 176.667C165.606 176.667 164.588 176.245 163.838 175.495C163.088 174.745 162.667 173.728 162.667 172.667ZM136 172.667C136 171.876 136.235 171.102 136.674 170.444C137.114 169.787 137.738 169.274 138.469 168.971C139.2 168.668 140.004 168.589 140.78 168.744C141.556 168.898 142.269 169.279 142.828 169.838C143.388 170.398 143.769 171.11 143.923 171.886C144.077 172.662 143.998 173.466 143.696 174.197C143.393 174.928 142.88 175.553 142.222 175.993C141.564 176.432 140.791 176.667 140 176.667C138.939 176.667 137.922 176.245 137.172 175.495C136.421 174.745 136 173.728 136 172.667ZM109.333 172.667C109.333 171.876 109.568 171.102 110.007 170.444C110.447 169.787 111.072 169.274 111.803 168.971C112.534 168.668 113.338 168.589 114.114 168.744C114.89 168.898 115.602 169.279 116.162 169.838C116.721 170.398 117.102 171.11 117.256 171.886C117.411 172.662 117.332 173.466 117.029 174.197C116.726 174.928 116.213 175.553 115.556 175.993C114.898 176.432 114.124 176.667 113.333 176.667C112.272 176.667 111.255 176.245 110.505 175.495C109.755 174.745 109.333 173.728 109.333 172.667ZM82.6667 172.667C82.6667 171.876 82.9013 171.102 83.3408 170.444C83.7803 169.787 84.405 169.274 85.1359 168.971C85.8669 168.668 86.6711 168.589 87.447 168.744C88.223 168.898 88.9357 169.279 89.4951 169.838C90.0545 170.398 90.4355 171.11 90.5898 171.886C90.7442 172.662 90.6649 173.466 90.3622 174.197C90.0594 174.928 89.5468 175.553 88.889 175.993C88.2312 176.432 87.4578 176.667 86.6667 176.667C85.6058 176.667 84.5884 176.245 83.8383 175.495C83.0881 174.745 82.6667 173.728 82.6667 172.667ZM56 172.667C56 171.876 56.2346 171.102 56.6741 170.444C57.1137 169.787 57.7384 169.274 58.4693 168.971C59.2002 168.668 60.0044 168.589 60.7804 168.744C61.5563 168.898 62.269 169.279 62.8284 169.838C63.3878 170.398 63.7688 171.11 63.9232 171.886C64.0775 172.662 63.9983 173.466 63.6955 174.197C63.3928 174.928 62.8801 175.553 62.2223 175.993C61.5645 176.432 60.7911 176.667 60 176.667C58.9391 176.667 57.9217 176.245 57.1716 175.495C56.4214 174.745 56 173.728 56 172.667ZM29.3333 172.667C29.3333 171.876 29.5679 171.102 30.0075 170.444C30.447 169.787 31.0717 169.274 31.8026 168.971C32.5335 168.668 33.3378 168.589 34.1137 168.744C34.8896 168.898 35.6024 169.279 36.1618 169.838C36.7212 170.398 37.1021 171.11 37.2565 171.886C37.4108 172.662 37.3316 173.466 37.0289 174.197C36.7261 174.928 36.2134 175.553 35.5556 175.993C34.8978 176.432 34.1245 176.667 33.3333 176.667C32.2725 176.667 31.2551 176.245 30.5049 175.495C29.7548 174.745 29.3333 173.728 29.3333 172.667V172.667ZM149.333 159.333C149.333 158.542 149.568 157.769 150.007 157.111C150.447 156.453 151.072 155.941 151.803 155.638C152.534 155.335 153.338 155.256 154.114 155.41C154.89 155.565 155.602 155.945 156.162 156.505C156.721 157.064 157.102 157.777 157.256 158.553C157.411 159.329 157.332 160.133 157.029 160.864C156.726 161.595 156.213 162.22 155.556 162.659C154.898 163.099 154.124 163.333 153.333 163.333C152.272 163.333 151.255 162.912 150.505 162.162C149.755 161.412 149.333 160.394 149.333 159.333ZM122.667 159.333C122.667 158.542 122.901 157.769 123.341 157.111C123.78 156.453 124.405 155.941 125.136 155.638C125.867 155.335 126.671 155.256 127.447 155.41C128.223 155.565 128.936 155.945 129.495 156.505C130.055 157.064 130.435 157.777 130.59 158.553C130.744 159.329 130.665 160.133 130.362 160.864C130.059 161.595 129.547 162.22 128.889 162.659C128.231 163.099 127.458 163.333 126.667 163.333C125.606 163.333 124.588 162.912 123.838 162.162C123.088 161.412 122.667 160.394 122.667 159.333ZM96 159.333C96 158.542 96.2346 157.769 96.6741 157.111C97.1137 156.453 97.7384 155.941 98.4693 155.638C99.2002 155.335 100.004 155.256 100.78 155.41C101.556 155.565 102.269 155.945 102.828 156.505C103.388 157.064 103.769 157.777 103.923 158.553C104.077 159.329 103.998 160.133 103.696 160.864C103.393 161.595 102.88 162.22 102.222 162.659C101.564 163.099 100.791 163.333 100 163.333C98.9391 163.333 97.9217 162.912 97.1716 162.162C96.4214 161.412 96 160.394 96 159.333ZM69.3333 159.333C69.3333 158.542 69.5679 157.769 70.0075 157.111C70.447 156.453 71.0717 155.941 71.8026 155.638C72.5335 155.335 73.3378 155.256 74.1137 155.41C74.8896 155.565 75.6024 155.945 76.1618 156.505C76.7212 157.064 77.1021 157.777 77.2565 158.553C77.4108 159.329 77.3316 160.133 77.0289 160.864C76.7261 161.595 76.2134 162.22 75.5556 162.659C74.8978 163.099 74.1245 163.333 73.3333 163.333C72.2725 163.333 71.2551 162.912 70.5049 162.162C69.7548 161.412 69.3333 160.394 69.3333 159.333ZM42.6667 159.333C42.6667 158.542 42.9013 157.769 43.3408 157.111C43.7803 156.453 44.405 155.941 45.1359 155.638C45.8668 155.335 46.6711 155.256 47.447 155.41C48.223 155.565 48.9357 155.945 49.4951 156.505C50.0545 157.064 50.4355 157.777 50.5898 158.553C50.7442 159.329 50.6649 160.133 50.3622 160.864C50.0594 161.595 49.5468 162.22 48.889 162.659C48.2312 163.099 47.4578 163.333 46.6667 163.333C45.6058 163.333 44.5884 162.912 43.8382 162.162C43.0881 161.412 42.6667 160.394 42.6667 159.333ZM162.667 146C162.667 145.209 162.901 144.436 163.341 143.778C163.78 143.12 164.405 142.607 165.136 142.304C165.867 142.002 166.671 141.923 167.447 142.077C168.223 142.231 168.936 142.612 169.495 143.172C170.055 143.731 170.435 144.444 170.59 145.22C170.744 145.996 170.665 146.8 170.362 147.531C170.059 148.262 169.547 148.886 168.889 149.326C168.231 149.765 167.458 150 166.667 150C165.606 150 164.588 149.579 163.838 148.828C163.088 148.078 162.667 147.061 162.667 146ZM136 146C136 145.209 136.235 144.436 136.674 143.778C137.114 143.12 137.738 142.607 138.469 142.304C139.2 142.002 140.004 141.923 140.78 142.077C141.556 142.231 142.269 142.612 142.828 143.172C143.388 143.731 143.769 144.444 143.923 145.22C144.077 145.996 143.998 146.8 143.696 147.531C143.393 148.262 142.88 148.886 142.222 149.326C141.564 149.765 140.791 150 140 150C138.939 150 137.922 149.579 137.172 148.828C136.421 148.078 136 147.061 136 146ZM56 146C56 145.209 56.2346 144.436 56.6741 143.778C57.1137 143.12 57.7384 142.607 58.4693 142.304C59.2002 142.002 60.0044 141.923 60.7804 142.077C61.5563 142.231 62.269 142.612 62.8284 143.172C63.3878 143.731 63.7688 144.444 63.9232 145.22C64.0775 145.996 63.9983 146.8 63.6955 147.531C63.3928 148.262 62.8801 148.886 62.2223 149.326C61.5645 149.765 60.7911 150 60 150C58.9391 150 57.9217 149.579 57.1716 148.828C56.4214 148.078 56 147.061 56 146ZM29.3333 146C29.3333 145.209 29.5679 144.436 30.0075 143.778C30.447 143.12 31.0717 142.607 31.8026 142.304C32.5335 142.002 33.3378 141.923 34.1137 142.077C34.8896 142.231 35.6024 142.612 36.1618 143.172C36.7212 143.731 37.1021 144.444 37.2565 145.22C37.4108 145.996 37.3316 146.8 37.0289 147.531C36.7261 148.262 36.2134 148.886 35.5556 149.326C34.8978 149.765 34.1245 150 33.3333 150C32.2725 150 31.2551 149.579 30.5049 148.828C29.7548 148.078 29.3333 147.061 29.3333 146V146Z" fill="#59EDFF"/>
</g>
<path d="M107.243 35.1333C104.576 23.4666 117.221 14.5139 130.243 20.6599C160.909 35.1333 142.667 55.3333 131.333 53.9999C120 52.6666 109.909 46.7999 107.243 35.1333Z" fill="#1BE7FF"/>
<path opacity="0.6" d="M118.333 37C118.333 37 141 51.6667 146.667 43.6667C147.251 47.0073 144.563 56.4433 140.333 56.3333C127.682 56.004 118.333 37 118.333 37Z" fill="#1BE7FF"/>
<path d="M114.667 108.667C100.345 115.547 98.2554 115.179 66.6667 89.3332C19 50.3332 64 14.6666 112.333 33.6666C164.667 56.6666 147.134 93.0712 114.667 108.667Z" fill="#59EDFF"/>
<path d="M116.001 136C111.112 144 88.8893 144 84.0007 136V122.667C84.0007 122.667 81.8253 122.733 80.334 122.667C64.74 122 59.5293 96.9153 61.9767 71.8253C63.7687 53.4507 79.334 78.6667 104.667 61C103.667 80.3333 112.001 78.3333 115.667 76C132.334 68.3333 132.473 99.7613 116.001 97.3333V136Z" fill="url(#paint1_linear_6340_380261)"/>
<path d="M84.0006 122.663C92.9972 121.995 106.413 112.597 106.413 112.597C106.413 112.597 99.9952 126.327 84.0013 128.661L84.0006 122.663Z" fill="#DB6F3D"/>
<path d="M116 134.307V130C117.223 130 120.723 132.888 122.524 135.333C129.641 145 121.747 153.667 115.308 153.667C107.184 153.667 101.8 146.879 100 143.613C98.2 146.88 92.816 153.667 84.692 153.667C78.2534 153.667 70.3587 145 77.476 135.333C79.2767 132.888 82.7774 130 84 130V134.307C84 139.405 95.16 141.765 99.978 141.983C104.539 141.765 116 139.405 116 134.307Z" fill="white"/>
</g>
<defs>
<linearGradient id="paint0_linear_6340_380261" x1="153.148" y1="194.184" x2="100.367" y2="104.588" gradientUnits="userSpaceOnUse">
<stop stop-color="#E2834C"/>
<stop offset="1" stop-color="#DF6638"/>
</linearGradient>
<linearGradient id="paint1_linear_6340_380261" x1="94.8313" y1="61" x2="94.8313" y2="142" gradientUnits="userSpaceOnUse">
<stop stop-color="#E6864E"/>
<stop offset="1" stop-color="#EB965E"/>
</linearGradient>
<clipPath id="clip0_6340_380261">
<rect width="200" height="200" fill="white"/>
</clipPath>
</defs>
</svg>
