<svg width="200" height="200" viewBox="0 0 200 200" fill="none" xmlns="http://www.w3.org/2000/svg">
<rect width="200" height="200" fill="#EAFFF8"/>
<path d="M161.333 156.667C166.222 166 168.667 200 168.667 200H31.3333C31.3333 200 33.778 166 38.6666 156.667C46 142.667 100 124.667 100 124.667C100 124.667 154 142.667 161.333 156.667Z" fill="#98FFE0"/>
<path d="M97.3333 184C97.3333 183.473 97.4897 182.957 97.7827 182.518C98.0757 182.08 98.4922 181.738 98.9795 181.536C99.4668 181.334 100.003 181.282 100.52 181.385C101.037 181.487 101.513 181.741 101.886 182.114C102.259 182.487 102.513 182.962 102.615 183.48C102.718 183.997 102.665 184.533 102.464 185.02C102.262 185.508 101.92 185.924 101.481 186.217C101.043 186.51 100.527 186.667 100 186.667C99.2927 186.667 98.6145 186.386 98.1144 185.886C97.6143 185.385 97.3333 184.707 97.3333 184ZM97.3333 170.667C97.3333 170.139 97.4897 169.624 97.7827 169.185C98.0757 168.747 98.4922 168.405 98.9795 168.203C99.4668 168.001 100.003 167.948 100.52 168.051C101.037 168.154 101.513 168.408 101.886 168.781C102.259 169.154 102.513 169.629 102.615 170.146C102.718 170.664 102.665 171.2 102.464 171.687C102.262 172.174 101.92 172.591 101.481 172.884C101.043 173.177 100.527 173.333 100 173.333C99.2927 173.333 98.6145 173.052 98.1144 172.552C97.6143 172.052 97.3333 171.374 97.3333 170.667ZM97.3333 157.333C97.3333 156.806 97.4897 156.29 97.7827 155.852C98.0757 155.413 98.4922 155.071 98.9795 154.87C99.4668 154.668 100.003 154.615 100.52 154.718C101.037 154.821 101.513 155.075 101.886 155.448C102.259 155.821 102.513 156.296 102.615 156.813C102.718 157.33 102.665 157.866 102.464 158.354C102.262 158.841 101.92 159.258 101.481 159.551C101.043 159.844 100.527 160 100 160C99.2927 160 98.6145 159.719 98.1144 159.219C97.6143 158.719 97.3333 158.041 97.3333 157.333Z" fill="white"/>
<path d="M156.981 116.941L48.676 103.852C43.3364 75.5062 49.6698 57.6469 67.676 50.274C76 23 108.398 25.2187 117.581 27.442C148.832 35.0091 161.965 64.842 156.981 116.941Z" fill="#00F7BF"/>
<path d="M84 132.667V92.6667C67.3193 92.4174 70.5726 63.5121 87.3333 72.3334C90.3333 73.6667 98 70.0001 95.3333 61.0001C113.333 74.3334 138.416 50.9334 140 65.3334C143.117 93.6741 137.086 116.968 121.095 116.969C119.391 117.034 117.684 116.933 116 116.667V132.667C110.78 135.778 105.56 137.333 100.34 137.333C95.12 137.333 89.6733 135.778 84 132.667Z" fill="#FFDBC9"/>
<path d="M116 116.667V122C106 122 98.2222 117.222 92.6667 107.667C99.3333 112.111 107.111 115.111 116 116.667Z" fill="#FFBC9E"/>
<path d="M99.978 136.65C104.539 136.432 116 134.072 116 128.973V124.667C117.223 124.667 120.723 127.555 122.524 130C129.641 139.667 121.747 148.333 115.308 148.333C107.184 148.333 101.8 141.545 100 138.28C98.2 141.547 92.816 148.333 84.692 148.333C78.2533 148.333 70.3587 139.667 77.476 130C79.2767 127.555 82.7773 124.667 84 124.667V128.973C84 134.072 95.16 136.432 99.978 136.65Z" fill="white"/>
</svg>
