<svg width="200" height="200" viewBox="0 0 200 200" fill="none" xmlns="http://www.w3.org/2000/svg">
<g clip-path="url(#clip0_6340_380471)">
<rect width="200" height="200" fill="#FFF9E9"/>
<path d="M148.333 106.333C153.741 88.3727 157.075 57.6667 134.333 36.6667C116.953 20.6173 70 19 53.6666 54C50.94 59.8427 54.6666 69 62 68.6667C64.882 68.5333 66.6666 77.6667 68.3333 83.3333C66 106.333 45.212 106.758 34.6666 124.333C21.6666 146 37.6666 178 76 178C114.333 178 136.308 146.27 148.333 106.333Z" fill="#FFC700"/>
<path d="M161.333 158.667C166.222 168 168.667 202 168.667 202H31.3333C31.3333 202 33.778 168 38.6666 158.667C46 144.667 100 126.667 100 126.667C100 126.667 154 144.667 161.333 158.667Z" fill="#FFE393"/>
<path d="M116 134.667C116 134.667 107.489 139.333 99.66 139.333C91.8307 139.333 84 134.667 84 134.667V120C82.3156 120.266 80.6094 120.368 78.9053 120.303C62.9133 120.301 56.8833 97.0073 60 68.6666C62 68.6666 66.6667 68.6666 73.3333 59.3333C71.6667 72.3333 91 70.3333 98.3333 60C94.6667 72.3333 104.333 80.6666 112.667 75.6666C129.007 65.862 132.681 95.7506 116 96V134.667Z" fill="url(#paint0_linear_6340_380471)"/>
<path d="M84 120C92.2699 118.477 100.183 115.425 107.333 111C107.333 111 99 125.333 84 125.333V120Z" fill="#FFB597"/>
<path d="M100.022 138.65C104.84 138.432 116 136.072 116 130.973V126.667C117.223 126.667 120.723 129.555 122.524 132C129.641 141.667 121.747 150.333 115.308 150.333C107.184 150.333 101.8 143.545 99.9999 140.28C98.1999 143.547 92.8159 150.333 84.6919 150.333C78.2533 150.333 70.3586 141.667 77.4759 132C79.2766 129.555 82.7773 126.667 83.9999 126.667V130.973C83.9999 136.072 95.4613 138.432 100.022 138.65Z" fill="white"/>
</g>
<defs>
<linearGradient id="paint0_linear_6340_380471" x1="93.031" y1="59.3333" x2="93.031" y2="139.333" gradientUnits="userSpaceOnUse">
<stop stop-color="#FFD4B3"/>
<stop offset="1" stop-color="#FFDCC2"/>
</linearGradient>
<clipPath id="clip0_6340_380471">
<rect width="200" height="200" fill="white"/>
</clipPath>
</defs>
</svg>
