<svg width="200" height="200" viewBox="0 0 200 200" fill="none" xmlns="http://www.w3.org/2000/svg">
<rect width="200" height="200" fill="#FFE7EA"/>
<path d="M161.333 156.667C166.222 166 168.667 200 168.667 200H31.3333C31.3333 200 33.778 166 38.6666 156.667C46 142.667 100 124.667 100 124.667C100 124.667 154 142.667 161.333 156.667Z" fill="#FF8B9A"/>
<path d="M156.981 116.941L48.676 103.852C43.3365 75.5062 49.6698 57.6469 67.676 50.274C76 23 108.398 25.2187 117.581 27.442C148.832 35.0091 161.965 64.842 156.981 116.941Z" fill="#FF455E"/>
<path d="M84 132.667V92.6667C67.3193 92.4174 70.5726 63.5121 87.3333 72.3334C90.3333 73.6667 98 70.0001 95.3333 61.0001C113.333 74.3334 138.416 50.9334 140 65.3334C143.117 93.6741 137.086 116.968 121.095 116.969C119.391 117.034 117.684 116.933 116 116.667V132.667C110.78 135.778 105.56 137.333 100.34 137.333C95.12 137.333 89.6733 135.778 84 132.667Z" fill="url(#paint0_linear_6340_380446)"/>
<path d="M116 116.667V122C108.667 122 98.222 117.222 92.6666 107.667C99.3333 112.111 107.111 115.111 116 116.667Z" fill="#FA8B54"/>
<path d="M99.978 136.65C104.539 136.432 116 134.072 116 128.973V124.667C117.223 124.667 120.723 127.555 122.524 130C129.641 139.667 121.747 148.333 115.308 148.333C107.184 148.333 101.8 141.545 100 138.28C98.2 141.547 92.816 148.333 84.692 148.333C78.2533 148.333 70.3587 139.667 77.476 130C79.2767 127.555 82.7773 124.667 84 124.667V128.973C84 134.072 95.16 136.432 99.978 136.65Z" fill="url(#paint1_linear_6340_380446)"/>
<defs>
<linearGradient id="paint0_linear_6340_380446" x1="106.899" y1="60.4553" x2="106.899" y2="137.333" gradientUnits="userSpaceOnUse">
<stop stop-color="#F7B186"/>
<stop offset="1" stop-color="#FFC299"/>
</linearGradient>
<linearGradient id="paint1_linear_6340_380446" x1="100" y1="148.333" x2="100" y2="124.667" gradientUnits="userSpaceOnUse">
<stop stop-color="#FCF2EB"/>
<stop offset="1" stop-color="#FFF9F5"/>
</linearGradient>
</defs>
</svg>
