<svg width="200" height="200" viewBox="0 0 200 200" fill="none" xmlns="http://www.w3.org/2000/svg">
<g clip-path="url(#clip0_6340_380372)">
<rect width="200" height="200" fill="#EBFAFA"/>
<path d="M121.333 117.333V136H78.6667C78.6667 136 78.7467 108.4 78.6667 90.1253C69.112 77.7407 69.112 70 76.6667 62C84.2213 54 138 50 138 50C138 50 142.035 88.8067 142.667 99.3333C142.921 103.567 145.667 117.333 135 117.333H121.333Z" fill="url(#paint0_linear_6340_380372)"/>
<path d="M121.333 116C112.65 115.053 104.253 112.33 96.6667 108C96.6667 108 101.333 120.667 121.333 124.667V116Z" fill="#F08956"/>
<path d="M87.3466 70.1374C85.2266 68.3167 82.6506 67.0907 79.0093 68.9827C70.3766 73.4647 76.106 90.7567 85.7666 90.4194C89.1 90.3034 87.572 96.946 78.6666 101.333C78.6666 94.3334 68 77 67.0666 61.2187C56.3333 57.222 59 41.2307 66.3686 41.2307C65.1926 26.57 88.6666 18.998 97.756 27.4107C107 16.3314 130.333 21.998 131.742 31.61C147.787 23.0454 158.333 47.6647 143.31 57.222C137.128 61.1554 122.667 62.652 101.791 62.652C91.774 62.652 97.5346 86.0987 100.667 93.6667C104.667 103.333 127 104.667 134 103.667C139.467 102.886 142.333 100.667 142.667 99.3334C147.667 112.667 141.333 120.667 131.333 120.667C114.333 120.667 97.3333 115.667 94.6666 103.333C92.544 93.518 92.6606 77.6774 87.3466 70.1374Z" fill="#0010F7"/>
<path d="M170 162.205C174.231 170.808 177.564 185.03 180 204.871H20C22.4364 185.028 25.7698 170.806 30 162.205C34.216 153.631 73.3333 137.132 73.3333 137.132C73.3333 137.132 74.112 129.59 76 128.509C77.888 127.427 121.751 127.428 124 128.509C126.249 129.589 126.667 137.128 126.667 137.128C126.667 137.128 165.792 153.649 170 162.205Z" fill="#0063F7"/>
<mask id="mask0_6340_380372" style="mask-type:alpha" maskUnits="userSpaceOnUse" x="20" y="127" width="160" height="78">
<path d="M170 162.205C174.231 170.808 177.564 185.03 180 204.871H20C22.4364 185.028 25.7698 170.806 30 162.205C34.216 153.631 73.3333 137.132 73.3333 137.132C73.3333 137.132 74.112 129.59 76 128.509C77.888 127.427 121.751 127.428 124 128.509C126.249 129.589 126.667 137.128 126.667 137.128C126.667 137.128 165.792 153.649 170 162.205Z" fill="url(#paint1_linear_6340_380372)"/>
</mask>
<g mask="url(#mask0_6340_380372)">
<path d="M9.33331 196V190.667H188.667V196H9.33331ZM9.33331 182.667V177.333H188.667V182.667H9.33331ZM9.33331 169.333V164H188.667V169.333H9.33331ZM9.33331 156V150.667H188.667V156H9.33331Z" fill="#55B1F3"/>
</g>
</g>
<defs>
<linearGradient id="paint0_linear_6340_380372" x1="107.198" y1="50" x2="107.198" y2="136" gradientUnits="userSpaceOnUse">
<stop stop-color="#F7B186"/>
<stop offset="1" stop-color="#FFC299"/>
</linearGradient>
<linearGradient id="paint1_linear_6340_380372" x1="100" y1="204.871" x2="100" y2="127.698" gradientUnits="userSpaceOnUse">
<stop stop-color="#FFC9B3"/>
<stop offset="1" stop-color="#FFD2C2"/>
</linearGradient>
<clipPath id="clip0_6340_380372">
<rect width="200" height="200" fill="white"/>
</clipPath>
</defs>
</svg>
