<svg width="200" height="200" viewBox="0 0 200 200" fill="none" xmlns="http://www.w3.org/2000/svg">
<g clip-path="url(#clip0_6340_380305)">
<rect width="200" height="200" fill="#EAFFF8"/>
<path d="M121.333 117.333V132C121.333 133.452 100 137.848 100 137.848C100 137.848 78.6667 134.071 78.6667 132C78.6667 128.08 78.7467 108.4 78.6667 90.1253C69.112 77.7407 69.112 70 76.6667 62C84.2213 54 138 50 138 50C138 50 142.035 88.8067 142.667 99.3333C142.921 103.567 145.667 117.333 135 117.333H121.333Z" fill="#E6864E"/>
<path d="M121.333 116.082V124.107C107.045 121.562 98.8227 116.193 96.6667 108C102.889 112.222 110.889 114.889 120.667 116C120.889 116.025 121.111 116.053 121.333 116.082Z" fill="#DE6530"/>
<path d="M170 162.205C174.231 170.808 177.564 185.031 180 204.872H20C22.4364 185.028 25.7698 170.806 30 162.205C34.216 153.633 73.3333 137.133 73.3333 137.133L126.667 137.128C126.667 137.128 165.792 153.65 170 162.205Z" fill="#98FFE0"/>
<path d="M104.667 141.333L108 202.667H92L95.3333 141.333C95.3333 141.333 98.4447 138 100 138C101.555 138 104.667 141.333 104.667 141.333Z" fill="#00F7BF"/>
<path d="M105.341 153.745L94.984 147.761L95.3333 141.333C97.4076 139.111 98.9631 138 100 138C101.037 138 102.592 139.111 104.667 141.333L105.341 153.745Z" fill="#98FFE0"/>
<path d="M100 137.994L93.3333 150L72.6667 137.333L78.6667 128.667L100 136.547L121.333 128.667L127.333 137.333L106.667 150L100 137.994Z" fill="white"/>
<path d="M87.3467 70.1373C85.2267 68.3167 82.6507 67.0907 79.0093 68.9827C70.3767 73.4647 76.106 90.7567 85.7667 90.4193C89.1 90.3034 87.572 96.946 78.6667 101.333C78.6667 94.3333 68 77 67.0667 61.2187C56.3333 57.222 59 41.2307 66.3687 41.2307C65.1927 26.57 88.6667 18.998 97.756 27.4107C107 16.3313 130.333 21.998 131.742 31.61C147.787 23.0453 158.333 47.6647 143.31 57.222C137.128 61.1553 122.667 62.652 101.791 62.652C91.774 62.652 97.5347 86.0987 100.667 93.6667C104.667 103.333 127 104.667 134 103.667C139.467 102.886 142.333 100.667 142.667 99.3334C147.667 112.667 141.333 120.667 131.333 120.667C114.333 120.667 97.3333 115.667 94.6667 103.333C92.544 93.518 92.6607 77.6773 87.3467 70.1373Z" fill="#00F7BF"/>
</g>
<defs>
<clipPath id="clip0_6340_380305">
<rect width="200" height="200" fill="white"/>
</clipPath>
</defs>
</svg>
