<svg width="200" height="200" viewBox="0 0 200 200" fill="none" xmlns="http://www.w3.org/2000/svg">
<g clip-path="url(#clip0_6340_380454)">
<rect width="200" height="200" fill="#F0F3F5"/>
<path d="M132.788 85.392C180.415 46.3754 135.464 10.6882 87.1751 29.6951C82.0094 31.7286 67.6946 23.588 54.4346 32.1642C45.8808 37.6965 49.2097 42.0321 45.8791 46.3677C42.5485 50.7034 29.7079 50.4482 26.8949 61.7062C25.2289 68.376 29.8392 75.3625 29.2226 80.3827C28.6059 85.4029 23.7376 89.928 23.5055 96.5554C23.4049 99.3545 23.8568 102.146 24.8353 104.771C25.8138 107.395 27.2998 109.801 29.2083 111.851C31.1168 113.901 33.4105 115.555 35.9583 116.719C38.5062 117.882 41.2583 118.533 44.0575 118.632C44.0804 124.166 46.2411 129.477 50.0881 133.455C53.9351 137.432 59.1706 139.77 64.7005 139.977C68.3761 140.106 77.6829 140.108 85.6803 135.283C105.72 123.198 101.224 111.248 132.788 85.392Z" fill="white"/>
<path d="M83.3333 129.333C83.3333 123.333 83.1293 93.7387 83.1393 93.2387C66.6667 95.6667 67 64.3334 83.6667 72C87.3333 74.3334 97.6667 72 96.6667 52.6667C114.667 72 135.565 49.4507 137.357 67.8254C139.804 92.9154 137.342 119.173 121.749 119.175C120.044 119.154 118.343 118.984 116.667 118.667V129.333C116.667 136 128.667 139.333 128.667 139.333C128.667 139.333 107.939 158.867 99.3333 158.759C90.728 158.651 71.3333 139.333 71.3333 139.333C71.3333 139.333 83.3333 136 83.3333 129.333Z" fill="url(#paint0_linear_6340_380454)"/>
<path d="M116.666 118.663C108.396 116.829 100.558 113.411 93.587 108.597C93.587 108.597 99.3391 122.659 116.645 125.327L116.666 118.663Z" fill="#DB6F3D"/>
<path d="M161.333 159.333C166.17 170.081 168.667 202.667 168.667 202.667H31.3334C31.3334 202.667 33.8301 170.081 38.6667 159.333C42.9041 149.918 70.8261 139.107 79.0087 136C83.7334 141.285 90.5041 144.667 100 144.667C109.496 144.667 116.267 141.285 120.991 136C129.174 139.107 157.096 149.918 161.333 159.333Z" fill="#B2BEC3"/>
<mask id="mask0_6340_380454" style="mask-type:alpha" maskUnits="userSpaceOnUse" x="31" y="136" width="138" height="67">
<path d="M161.333 159.333C166.17 170.081 168.667 202.667 168.667 202.667H31.3334C31.3334 202.667 33.8301 170.081 38.6667 159.333C42.9041 149.918 70.8261 139.107 79.0087 136C83.7334 141.285 90.5041 144.667 100 144.667C109.496 144.667 116.267 141.285 120.991 136C129.174 139.107 157.096 149.918 161.333 159.333Z" fill="#DFE6E9"/>
</mask>
<g mask="url(#mask0_6340_380454)">
<path d="M162.667 196C162.667 195.209 162.901 194.436 163.341 193.778C163.78 193.12 164.405 192.607 165.136 192.304C165.867 192.002 166.671 191.923 167.447 192.077C168.223 192.231 168.936 192.612 169.495 193.172C170.055 193.731 170.436 194.444 170.59 195.22C170.744 195.996 170.665 196.8 170.362 197.531C170.059 198.262 169.547 198.886 168.889 199.326C168.231 199.765 167.458 200 166.667 200C165.606 200 164.588 199.579 163.838 198.828C163.088 198.078 162.667 197.061 162.667 196ZM136 196C136 195.209 136.235 194.436 136.674 193.778C137.114 193.12 137.738 192.607 138.469 192.304C139.2 192.002 140.004 191.923 140.78 192.077C141.556 192.231 142.269 192.612 142.828 193.172C143.388 193.731 143.769 194.444 143.923 195.22C144.078 195.996 143.998 196.8 143.696 197.531C143.393 198.262 142.88 198.886 142.222 199.326C141.565 199.765 140.791 200 140 200C138.939 200 137.922 199.579 137.172 198.828C136.421 198.078 136 197.061 136 196ZM109.333 196C109.333 195.209 109.568 194.436 110.007 193.778C110.447 193.12 111.072 192.607 111.803 192.304C112.534 192.002 113.338 191.923 114.114 192.077C114.89 192.231 115.602 192.612 116.162 193.172C116.721 193.731 117.102 194.444 117.257 195.22C117.411 195.996 117.332 196.8 117.029 197.531C116.726 198.262 116.213 198.886 115.556 199.326C114.898 199.765 114.125 200 113.333 200C112.273 200 111.255 199.579 110.505 198.828C109.755 198.078 109.333 197.061 109.333 196ZM82.6667 196C82.6667 195.209 82.9013 194.436 83.3408 193.778C83.7804 193.12 84.4051 192.607 85.136 192.304C85.8669 192.002 86.6711 191.923 87.4471 192.077C88.223 192.231 88.9357 192.612 89.4951 193.172C90.0545 193.731 90.4355 194.444 90.5899 195.22C90.7442 195.996 90.665 196.8 90.3622 197.531C90.0595 198.262 89.5468 198.886 88.889 199.326C88.2312 199.765 87.4578 200 86.6667 200C85.6058 200 84.5884 199.579 83.8383 198.828C83.0881 198.078 82.6667 197.061 82.6667 196ZM56 196C56 195.209 56.2346 194.436 56.6742 193.778C57.1137 193.12 57.7384 192.607 58.4693 192.304C59.2002 192.002 60.0045 191.923 60.7804 192.077C61.5563 192.231 62.2691 192.612 62.8285 193.172C63.3879 193.731 63.7688 194.444 63.9232 195.22C64.0775 195.996 63.9983 196.8 63.6956 197.531C63.3928 198.262 62.8801 198.886 62.2223 199.326C61.5645 199.765 60.7912 200 60 200C58.9392 200 57.9218 199.579 57.1716 198.828C56.4215 198.078 56 197.061 56 196ZM29.3334 196C29.3334 195.209 29.568 194.436 30.0075 193.778C30.447 193.12 31.0717 192.607 31.8026 192.304C32.5335 192.002 33.3378 191.923 34.1137 192.077C34.8897 192.231 35.6024 192.612 36.1618 193.172C36.7212 193.731 37.1022 194.444 37.2565 195.22C37.4109 195.996 37.3316 196.8 37.0289 197.531C36.7261 198.262 36.2135 198.886 35.5557 199.326C34.8979 199.765 34.1245 200 33.3334 200C32.2725 200 31.2551 199.579 30.5049 198.828C29.7548 198.078 29.3334 197.061 29.3334 196V196ZM149.333 182.667C149.333 181.876 149.568 181.102 150.007 180.444C150.447 179.787 151.072 179.274 151.803 178.971C152.534 178.668 153.338 178.589 154.114 178.744C154.89 178.898 155.602 179.279 156.162 179.838C156.721 180.398 157.102 181.11 157.257 181.886C157.411 182.662 157.332 183.466 157.029 184.197C156.726 184.928 156.213 185.553 155.556 185.993C154.898 186.432 154.125 186.667 153.333 186.667C152.273 186.667 151.255 186.245 150.505 185.495C149.755 184.745 149.333 183.728 149.333 182.667ZM122.667 182.667C122.667 181.876 122.901 181.102 123.341 180.444C123.78 179.787 124.405 179.274 125.136 178.971C125.867 178.668 126.671 178.589 127.447 178.744C128.223 178.898 128.936 179.279 129.495 179.838C130.055 180.398 130.436 181.11 130.59 181.886C130.744 182.662 130.665 183.466 130.362 184.197C130.059 184.928 129.547 185.553 128.889 185.993C128.231 186.432 127.458 186.667 126.667 186.667C125.606 186.667 124.588 186.245 123.838 185.495C123.088 184.745 122.667 183.728 122.667 182.667ZM96 182.667C96 181.876 96.2346 181.102 96.6742 180.444C97.1137 179.787 97.7384 179.274 98.4693 178.971C99.2002 178.668 100.004 178.589 100.78 178.744C101.556 178.898 102.269 179.279 102.828 179.838C103.388 180.398 103.769 181.11 103.923 181.886C104.078 182.662 103.998 183.466 103.696 184.197C103.393 184.928 102.88 185.553 102.222 185.993C101.565 186.432 100.791 186.667 100 186.667C98.9392 186.667 97.9218 186.245 97.1716 185.495C96.4215 184.745 96 183.728 96 182.667ZM69.3334 182.667C69.3334 181.876 69.568 181.102 70.0075 180.444C70.447 179.787 71.0717 179.274 71.8026 178.971C72.5335 178.668 73.3378 178.589 74.1137 178.744C74.8897 178.898 75.6024 179.279 76.1618 179.838C76.7212 180.398 77.1022 181.11 77.2565 181.886C77.4109 182.662 77.3316 183.466 77.0289 184.197C76.7261 184.928 76.2135 185.553 75.5557 185.993C74.8979 186.432 74.1245 186.667 73.3334 186.667C72.2725 186.667 71.2551 186.245 70.5049 185.495C69.7548 184.745 69.3334 183.728 69.3334 182.667ZM42.6667 182.667C42.6667 181.876 42.9013 181.102 43.3408 180.444C43.7804 179.787 44.4051 179.274 45.136 178.971C45.8669 178.668 46.6711 178.589 47.4471 178.744C48.223 178.898 48.9357 179.279 49.4951 179.838C50.0545 180.398 50.4355 181.11 50.5898 181.886C50.7442 182.662 50.665 183.466 50.3622 184.197C50.0595 184.928 49.5468 185.553 48.889 185.993C48.2312 186.432 47.4578 186.667 46.6667 186.667C45.6058 186.667 44.5884 186.245 43.8383 185.495C43.0881 184.745 42.6667 183.728 42.6667 182.667ZM162.667 169.333C162.667 168.542 162.901 167.769 163.341 167.111C163.78 166.453 164.405 165.941 165.136 165.638C165.867 165.335 166.671 165.256 167.447 165.41C168.223 165.565 168.936 165.946 169.495 166.505C170.055 167.064 170.436 167.777 170.59 168.553C170.744 169.329 170.665 170.133 170.362 170.864C170.059 171.595 169.547 172.22 168.889 172.659C168.231 173.099 167.458 173.333 166.667 173.333C165.606 173.333 164.588 172.912 163.838 172.162C163.088 171.412 162.667 170.394 162.667 169.333ZM136 169.333C136 168.542 136.235 167.769 136.674 167.111C137.114 166.453 137.738 165.941 138.469 165.638C139.2 165.335 140.004 165.256 140.78 165.41C141.556 165.565 142.269 165.946 142.828 166.505C143.388 167.064 143.769 167.777 143.923 168.553C144.078 169.329 143.998 170.133 143.696 170.864C143.393 171.595 142.88 172.22 142.222 172.659C141.565 173.099 140.791 173.333 140 173.333C138.939 173.333 137.922 172.912 137.172 172.162C136.421 171.412 136 170.394 136 169.333ZM109.333 169.333C109.333 168.542 109.568 167.769 110.007 167.111C110.447 166.453 111.072 165.941 111.803 165.638C112.534 165.335 113.338 165.256 114.114 165.41C114.89 165.565 115.602 165.946 116.162 166.505C116.721 167.064 117.102 167.777 117.257 168.553C117.411 169.329 117.332 170.133 117.029 170.864C116.726 171.595 116.213 172.22 115.556 172.659C114.898 173.099 114.125 173.333 113.333 173.333C112.273 173.333 111.255 172.912 110.505 172.162C109.755 171.412 109.333 170.394 109.333 169.333ZM82.6667 169.333C82.6667 168.542 82.9013 167.769 83.3408 167.111C83.7804 166.453 84.4051 165.941 85.136 165.638C85.8669 165.335 86.6711 165.256 87.4471 165.41C88.223 165.565 88.9357 165.946 89.4951 166.505C90.0545 167.064 90.4355 167.777 90.5899 168.553C90.7442 169.329 90.665 170.133 90.3622 170.864C90.0595 171.595 89.5468 172.22 88.889 172.659C88.2312 173.099 87.4578 173.333 86.6667 173.333C85.6058 173.333 84.5884 172.912 83.8383 172.162C83.0881 171.412 82.6667 170.394 82.6667 169.333ZM56 169.333C56 168.542 56.2346 167.769 56.6742 167.111C57.1137 166.453 57.7384 165.941 58.4693 165.638C59.2002 165.335 60.0045 165.256 60.7804 165.41C61.5563 165.565 62.2691 165.946 62.8285 166.505C63.3879 167.064 63.7688 167.777 63.9232 168.553C64.0775 169.329 63.9983 170.133 63.6956 170.864C63.3928 171.595 62.8801 172.22 62.2223 172.659C61.5645 173.099 60.7912 173.333 60 173.333C58.9392 173.333 57.9218 172.912 57.1716 172.162C56.4215 171.412 56 170.394 56 169.333ZM29.3334 169.333C29.3334 168.542 29.568 167.769 30.0075 167.111C30.447 166.453 31.0717 165.941 31.8026 165.638C32.5335 165.335 33.3378 165.256 34.1137 165.41C34.8897 165.565 35.6024 165.946 36.1618 166.505C36.7212 167.064 37.1022 167.777 37.2565 168.553C37.4109 169.329 37.3316 170.133 37.0289 170.864C36.7261 171.595 36.2135 172.22 35.5557 172.659C34.8979 173.099 34.1245 173.333 33.3334 173.333C32.2725 173.333 31.2551 172.912 30.5049 172.162C29.7548 171.412 29.3334 170.394 29.3334 169.333V169.333ZM149.333 156C149.333 155.209 149.568 154.436 150.007 153.778C150.447 153.12 151.072 152.607 151.803 152.304C152.534 152.002 153.338 151.923 154.114 152.077C154.89 152.231 155.602 152.612 156.162 153.172C156.721 153.731 157.102 154.444 157.257 155.22C157.411 155.996 157.332 156.8 157.029 157.531C156.726 158.262 156.213 158.886 155.556 159.326C154.898 159.765 154.125 160 153.333 160C152.273 160 151.255 159.579 150.505 158.828C149.755 158.078 149.333 157.061 149.333 156ZM122.667 156C122.667 155.209 122.901 154.436 123.341 153.778C123.78 153.12 124.405 152.607 125.136 152.304C125.867 152.002 126.671 151.923 127.447 152.077C128.223 152.231 128.936 152.612 129.495 153.172C130.055 153.731 130.436 154.444 130.59 155.22C130.744 155.996 130.665 156.8 130.362 157.531C130.059 158.262 129.547 158.886 128.889 159.326C128.231 159.765 127.458 160 126.667 160C125.606 160 124.588 159.579 123.838 158.828C123.088 158.078 122.667 157.061 122.667 156ZM96 156C96 155.209 96.2346 154.436 96.6742 153.778C97.1137 153.12 97.7384 152.607 98.4693 152.304C99.2002 152.002 100.004 151.923 100.78 152.077C101.556 152.231 102.269 152.612 102.828 153.172C103.388 153.731 103.769 154.444 103.923 155.22C104.078 155.996 103.998 156.8 103.696 157.531C103.393 158.262 102.88 158.886 102.222 159.326C101.565 159.765 100.791 160 100 160C98.9392 160 97.9218 159.579 97.1716 158.828C96.4215 158.078 96 157.061 96 156ZM69.3334 156C69.3334 155.209 69.568 154.436 70.0075 153.778C70.447 153.12 71.0717 152.607 71.8026 152.304C72.5335 152.002 73.3378 151.923 74.1137 152.077C74.8897 152.231 75.6024 152.612 76.1618 153.172C76.7212 153.731 77.1022 154.444 77.2565 155.22C77.4109 155.996 77.3316 156.8 77.0289 157.531C76.7261 158.262 76.2135 158.886 75.5557 159.326C74.8979 159.765 74.1245 160 73.3334 160C72.2725 160 71.2551 159.579 70.5049 158.828C69.7548 158.078 69.3334 157.061 69.3334 156ZM42.6667 156C42.6667 155.209 42.9013 154.436 43.3408 153.778C43.7804 153.12 44.4051 152.607 45.136 152.304C45.8669 152.002 46.6711 151.923 47.4471 152.077C48.223 152.231 48.9357 152.612 49.4951 153.172C50.0545 153.731 50.4355 154.444 50.5898 155.22C50.7442 155.996 50.665 156.8 50.3622 157.531C50.0595 158.262 49.5468 158.886 48.889 159.326C48.2312 159.765 47.4578 160 46.6667 160C45.6058 160 44.5884 159.579 43.8383 158.828C43.0881 158.078 42.6667 157.061 42.6667 156ZM162.667 142.667C162.667 141.876 162.901 141.102 163.341 140.444C163.78 139.787 164.405 139.274 165.136 138.971C165.867 138.668 166.671 138.589 167.447 138.744C168.223 138.898 168.936 139.279 169.495 139.838C170.055 140.398 170.436 141.11 170.59 141.886C170.744 142.662 170.665 143.467 170.362 144.197C170.059 144.928 169.547 145.553 168.889 145.993C168.231 146.432 167.458 146.667 166.667 146.667C165.606 146.667 164.588 146.245 163.838 145.495C163.088 144.745 162.667 143.728 162.667 142.667ZM136 142.667C136 141.876 136.235 141.102 136.674 140.444C137.114 139.787 137.738 139.274 138.469 138.971C139.2 138.668 140.004 138.589 140.78 138.744C141.556 138.898 142.269 139.279 142.828 139.838C143.388 140.398 143.769 141.11 143.923 141.886C144.078 142.662 143.998 143.467 143.696 144.197C143.393 144.928 142.88 145.553 142.222 145.993C141.565 146.432 140.791 146.667 140 146.667C138.939 146.667 137.922 146.245 137.172 145.495C136.421 144.745 136 143.728 136 142.667ZM56 142.667C56 141.876 56.2346 141.102 56.6742 140.444C57.1137 139.787 57.7384 139.274 58.4693 138.971C59.2002 138.668 60.0045 138.589 60.7804 138.744C61.5563 138.898 62.2691 139.279 62.8285 139.838C63.3879 140.398 63.7688 141.11 63.9232 141.886C64.0775 142.662 63.9983 143.467 63.6956 144.197C63.3928 144.928 62.8801 145.553 62.2223 145.993C61.5645 146.432 60.7912 146.667 60 146.667C58.9392 146.667 57.9218 146.245 57.1716 145.495C56.4215 144.745 56 143.728 56 142.667ZM29.3334 142.667C29.3334 141.876 29.568 141.102 30.0075 140.444C30.447 139.787 31.0717 139.274 31.8026 138.971C32.5335 138.668 33.3378 138.589 34.1137 138.744C34.8897 138.898 35.6024 139.279 36.1618 139.838C36.7212 140.398 37.1022 141.11 37.2565 141.886C37.4109 142.662 37.3316 143.467 37.0289 144.197C36.7261 144.928 36.2135 145.553 35.5557 145.993C34.8979 146.432 34.1245 146.667 33.3334 146.667C32.2725 146.667 31.2551 146.245 30.5049 145.495C29.7548 144.745 29.3334 143.728 29.3334 142.667V142.667Z" fill="#DFE6E9"/>
</g>
</g>
<defs>
<linearGradient id="paint0_linear_6340_380454" x1="104.573" y1="52.6667" x2="104.573" y2="158.759" gradientUnits="userSpaceOnUse">
<stop stop-color="#E6864E"/>
<stop offset="1" stop-color="#EB965E"/>
</linearGradient>
<clipPath id="clip0_6340_380454">
<rect width="200" height="200" fill="white"/>
</clipPath>
</defs>
</svg>
