<svg width="208" height="208" viewBox="0 0 208 208" fill="none" xmlns="http://www.w3.org/2000/svg">
<path d="M119.062 23.59C119.062 36.3474 119.062 49.1047 119.062 61.8447C119.062 65.4847 119.062 69.1074 119.062 72.7474C119.062 73.0767 119.582 73.0767 119.582 72.7474C119.582 59.99 119.582 47.2327 119.582 34.4927C119.582 30.8527 119.582 27.23 119.582 23.59C119.582 23.2607 119.062 23.2607 119.062 23.59Z" fill="#DFE6E9"/>
<path d="M119.063 23.4001C132.774 23.6255 146.484 24.0068 160.195 24.5441C160.524 24.5615 160.524 24.0415 160.195 24.0241C146.484 23.4868 132.774 23.1055 119.063 22.8801C118.734 22.8801 118.734 23.4001 119.063 23.4001Z" fill="#DFE6E9"/>
<path d="M119.496 73.0595C132.34 73.9955 145.097 75.7982 157.837 77.6182C158.167 77.6702 158.305 77.1675 157.976 77.1155C145.184 75.2955 132.375 73.4928 119.496 72.5395C119.167 72.5222 119.167 73.0422 119.496 73.0595Z" fill="#DFE6E9"/>
<path d="M159.935 24.6476C159.935 38.4623 159.935 52.2596 159.935 66.0743C159.935 69.9916 159.935 73.8916 159.935 77.809C159.935 78.1383 160.455 78.1383 160.455 77.809C160.455 63.9943 160.455 50.197 160.455 36.3823C160.455 32.465 160.455 28.565 160.455 24.6476C160.455 24.3183 159.935 24.3183 159.935 24.6476Z" fill="#DFE6E9"/>
<path d="M157.525 77.5835C158.375 77.7049 159.224 77.8609 160.056 78.0169C160.385 78.0862 160.524 77.5835 160.195 77.5142C159.345 77.3409 158.513 77.2022 157.664 77.0809C157.335 77.0462 157.196 77.5315 157.525 77.5835Z" fill="#DFE6E9"/>
<path d="M119.565 46.3142C126.533 46.4009 133.467 47.0942 140.365 48.0475C143.745 48.5155 147.125 49.0355 150.488 49.5555C153.712 50.0582 156.988 50.7862 160.264 50.5088C160.593 50.4742 160.593 49.9542 160.264 49.9888C156.867 50.2662 153.452 49.4862 150.124 48.9662C146.692 48.4288 143.26 47.9088 139.828 47.4408C133.103 46.5395 126.36 45.8635 119.565 45.7769C119.219 45.7769 119.219 46.2969 119.565 46.3142Z" fill="#DFE6E9"/>
<path d="M122.252 46.5053C122.547 54.288 122.859 62.0706 123.153 69.8533C123.171 70.1826 123.691 70.1826 123.673 69.8533C123.379 62.0706 123.067 54.288 122.772 46.5053C122.755 46.176 122.235 46.176 122.252 46.5053Z" fill="#DFE6E9"/>
<path d="M123.777 70.1481C135.599 71.5868 147.437 72.8348 159.276 74.0655C159.605 74.1002 159.605 73.5802 159.276 73.5455C147.437 72.2975 135.599 71.0495 123.777 69.6281C123.448 69.5935 123.448 70.1135 123.777 70.1481Z" fill="#DFE6E9"/>
<path d="M119.826 72.6091C121.126 71.8638 122.408 71.1185 123.708 70.3559C124.003 70.1825 123.743 69.7319 123.448 69.9052C122.148 70.6505 120.866 71.3958 119.566 72.1585C119.271 72.3318 119.531 72.7825 119.826 72.6091Z" fill="#DFE6E9"/>
<path d="M123.31 43.4716C133.848 44.2863 144.404 45.0836 154.943 45.8983C155.272 45.9156 155.272 45.3956 154.943 45.3783C144.404 44.5636 133.848 43.7663 123.31 42.9516C122.98 42.9169 122.98 43.4369 123.31 43.4716Z" fill="#DFE6E9"/>
<path d="M122.096 39.7624C133.571 39.8144 145.046 40.1438 156.52 40.7504C156.85 40.7678 156.85 40.2478 156.52 40.2304C145.063 39.6238 133.588 39.2771 122.096 39.2424C121.75 39.2424 121.75 39.7624 122.096 39.7624Z" fill="#DFE6E9"/>
<path d="M124.141 34.4067C132.045 34.424 139.949 34.4414 147.853 34.4587C148.183 34.4587 148.183 33.9387 147.853 33.9387C139.949 33.9214 132.045 33.9041 124.141 33.8867C123.795 33.8867 123.795 34.4067 124.141 34.4067Z" fill="#DFE6E9"/>
<path d="M122.339 29.2411C133.103 29.1024 143.849 29.3971 154.596 30.1078C154.925 30.1251 154.925 29.6051 154.596 29.5878C143.867 28.8771 133.103 28.5824 122.339 28.7211C121.992 28.7211 121.992 29.2411 122.339 29.2411Z" fill="#DFE6E9"/>
<path d="M149.032 72.0019C148.807 71.4992 148.876 71.2219 149.24 71.1352C149.379 71.0832 149.517 71.0312 149.656 71.0139C149.829 70.9792 150.003 70.9446 150.159 70.9099C150.471 70.8232 150.765 70.6846 150.991 70.4419C151.407 70.0086 151.511 69.4539 151.407 68.8819C151.389 68.7779 151.268 68.6739 151.164 68.6912C149.725 68.8126 149.847 66.5592 151.32 67.0099C151.58 67.0966 151.736 66.7499 151.58 66.5766C150.436 65.3459 148.235 62.3472 149.743 60.7006C150.141 60.2672 150.852 59.9899 151.389 60.3366C151.719 60.5446 151.927 60.9432 152.1 61.2899C152.343 61.7232 152.551 62.2086 152.967 62.4859C153.903 63.1099 154.856 62.2432 155.012 61.3072C155.151 60.4406 154.735 59.5739 154.735 58.7072C154.735 58.1005 154.856 57.4245 155.307 56.9739C155.775 56.5059 156.572 56.3499 157.127 56.8005C157.317 56.9565 157.647 56.8179 157.56 56.5405C157.387 55.9685 157.317 55.3619 157.647 54.8245C158.028 54.2352 158.947 54.0099 159.328 54.7379C159.484 55.0325 159.935 54.7725 159.779 54.4779C159.38 53.7325 158.409 53.5592 157.699 53.9925C156.797 54.5472 156.78 55.7605 157.057 56.6619C157.196 56.5752 157.352 56.4885 157.491 56.4019C156.121 55.2579 154.475 56.5579 154.249 58.0659C154.18 58.5165 154.215 58.9672 154.284 59.4179C154.388 60.1285 154.769 61.0819 154.301 61.7406C153.331 63.1099 152.551 60.8739 152.1 60.3192C151.112 59.0885 149.327 59.7299 148.876 61.1339C148.217 63.1619 149.881 65.5366 151.181 66.9232C151.268 66.7846 151.355 66.6286 151.441 66.4899C150.627 66.2299 149.639 66.6979 149.5 67.5992C149.379 68.5352 150.263 69.2459 151.129 69.1766C151.043 69.1072 150.956 69.0552 150.887 68.9859C151.233 70.8406 148.616 70.0259 148.165 71.3952C147.94 72.0886 148.616 72.7126 149.275 72.4179C149.604 72.2966 149.344 71.8459 149.032 72.0019Z" fill="#DFE6E9"/>
<path d="M148.096 84.6901C148.096 90.0115 148.096 95.3328 148.096 100.637C148.096 100.966 148.616 100.966 148.616 100.637C148.616 95.3155 148.616 89.9941 148.616 84.6901C148.616 84.3608 148.096 84.3608 148.096 84.6901Z" fill="#DFE6E9"/>
<path d="M148.408 84.6733C154.943 86.1293 161.46 87.5853 167.995 89.0239C168.324 89.0933 168.463 88.5906 168.133 88.5213C161.599 87.0653 155.081 85.6093 148.547 84.1706C148.217 84.1013 148.079 84.6039 148.408 84.6733Z" fill="#DFE6E9"/>
<path d="M148.633 101.088C154.336 102.943 160.056 104.745 165.793 106.496C166.123 106.6 166.244 106.097 165.932 105.993C160.195 104.243 154.475 102.44 148.772 100.585C148.46 100.481 148.321 100.984 148.633 101.088Z" fill="#DFE6E9"/>
<path d="M167.908 88.7981C167.908 94.7261 167.908 100.654 167.908 106.565C167.908 106.894 168.428 106.894 168.428 106.565C168.428 100.637 168.428 94.7088 168.428 88.7981C168.428 88.4514 167.908 88.4514 167.908 88.7981Z" fill="#DFE6E9"/>
<path d="M165.481 106.513C166.4 106.634 167.319 106.773 168.22 106.894C168.549 106.946 168.688 106.443 168.359 106.391C167.44 106.27 166.521 106.131 165.62 106.01C165.291 105.975 165.152 106.478 165.481 106.513Z" fill="#DFE6E9"/>
<path d="M149.899 86.7355C149.639 90.8782 149.587 95.0209 149.726 99.1635C149.743 99.4929 150.263 99.4929 150.246 99.1635C150.107 95.0209 150.159 90.8782 150.419 86.7355C150.436 86.4062 149.916 86.4062 149.899 86.7355Z" fill="#DFE6E9"/>
<path d="M149.933 99.8916C155.324 101.33 160.923 102.474 166.036 104.728C166.348 104.866 166.608 104.416 166.296 104.277C161.131 102.006 155.497 100.828 150.055 99.3889C149.76 99.3022 149.621 99.8049 149.933 99.8916Z" fill="#DFE6E9"/>
<path d="M150.003 86.7357C155.601 87.689 161.183 88.7464 166.747 89.8731C167.076 89.9424 167.215 89.4397 166.885 89.3704C161.321 88.2264 155.74 87.1864 150.141 86.233C149.812 86.181 149.673 86.6837 150.003 86.7357Z" fill="#DFE6E9"/>
<path d="M166.486 89.4743C166.088 94.397 165.915 99.337 165.932 104.277C165.932 104.606 166.452 104.606 166.452 104.277C166.417 99.337 166.608 94.397 167.006 89.4743C167.024 89.145 166.504 89.145 166.486 89.4743Z" fill="#DFE6E9"/>
<path d="M150.298 93.0623C152.291 94.033 154.371 94.8303 156.503 95.4543C156.832 95.541 156.971 95.0383 156.642 94.9516C154.544 94.345 152.516 93.5823 150.558 92.6116C150.263 92.473 150.003 92.9236 150.298 93.0623Z" fill="#DFE6E9"/>
<path d="M158.063 88.1742C157.231 90.5142 156.555 92.9062 156.017 95.3502C155.948 95.6796 156.451 95.8183 156.52 95.4889C157.057 93.0623 157.733 90.6702 158.565 88.3129C158.669 87.9836 158.167 87.8622 158.063 88.1742Z" fill="#DFE6E9"/>
<path d="M157.508 91.1554C159.068 90.8608 160.299 92.5594 160.559 93.8941C160.836 95.3155 160.195 96.6155 159.155 97.5861C158.045 98.6088 156.503 98.9208 155.151 98.1408C153.764 97.3435 153.331 95.5235 153.937 94.1194C154.076 93.8074 153.625 93.5474 153.487 93.8594C152.828 95.3848 153.14 97.2568 154.475 98.3141C155.913 99.4582 157.924 99.3195 159.293 98.1581C160.732 96.9448 161.529 95.1595 160.94 93.3221C160.472 91.8314 159.051 90.3581 157.369 90.6701C157.04 90.7221 157.179 91.2248 157.508 91.1554Z" fill="#DFE6E9"/>
<path d="M160.524 99.9438C161.183 100.36 161.772 100.828 162.292 101.382C162.518 101.625 162.899 101.261 162.656 101.018C162.102 100.429 161.46 99.9264 160.784 99.4931C160.507 99.3198 160.247 99.7704 160.524 99.9438Z" fill="#DFE6E9"/>
<path d="M162.188 97.3263C162.76 97.465 163.315 97.5864 163.887 97.725C164.216 97.7944 164.355 97.2917 164.026 97.2223C163.454 97.0837 162.899 96.9623 162.327 96.8236C161.998 96.7543 161.859 97.2397 162.188 97.3263Z" fill="#DFE6E9"/>
<path d="M161.685 91.745C162.396 91.7103 163.02 91.4676 163.575 91.0343C163.835 90.8263 163.471 90.4623 163.211 90.6703C162.777 91.0169 162.24 91.2076 161.685 91.2423C161.339 91.2423 161.339 91.7623 161.685 91.745Z" fill="#DFE6E9"/>
<path d="M158.375 86.0943C158.358 85.7129 158.306 85.1583 158.704 84.9503C159.086 84.7423 159.19 85.1236 159.172 85.4009C159.155 85.9036 158.999 86.3889 159.172 86.8743C159.294 87.1863 159.796 87.0476 159.675 86.7356C159.415 86.0596 160.074 84.9849 159.311 84.4996C158.947 84.2569 158.479 84.3956 158.184 84.6903C157.82 85.0716 157.82 85.6089 157.838 86.0943C157.855 86.4236 158.375 86.4236 158.375 86.0943Z" fill="#DFE6E9"/>
<path d="M40.4736 5.18236C40.4736 14.7677 40.4736 24.3357 40.4736 33.921C40.4736 34.2504 40.9936 34.2504 40.9936 33.921C40.9936 24.3357 40.9936 14.7677 40.9936 5.18236C40.9936 4.8357 40.4736 4.8357 40.4736 5.18236Z" fill="#DFE6E9"/>
<path d="M40.3696 34.077C34.0776 37.2663 28.9816 42.5183 26.0003 48.9143C25.8616 49.209 26.3123 49.4863 26.451 49.1743C29.3976 42.865 34.4243 37.6823 40.6296 34.5276C40.9243 34.389 40.6643 33.9383 40.3696 34.077Z" fill="#DFE6E9"/>
<path d="M40.6988 34.3888C46.8175 36.9368 51.7575 41.9808 54.1842 48.1342C54.3055 48.4462 54.8082 48.3075 54.6868 47.9955C52.1735 41.6342 47.1468 36.5035 40.8375 33.8862C40.5255 33.7648 40.3868 34.2675 40.6988 34.3888Z" fill="#DFE6E9"/>
<path d="M27.352 49.4868C35.7066 45.6907 45.0666 47.1121 53.7853 48.5508C54.1146 48.6028 54.2533 48.1001 53.924 48.0481C45.032 46.5921 35.5853 45.1881 27.0746 49.0361C26.7973 49.1748 27.0573 49.6254 27.352 49.4868Z" fill="#DFE6E9"/>
<path d="M37.5441 47.268C37.0415 48.36 36.8335 49.6773 37.3708 50.804C37.9601 52.052 39.4161 52.6066 40.7335 52.6413C41.9641 52.676 43.2641 52.156 43.8881 51.0293C44.4601 49.972 44.3908 48.6893 43.5588 47.788C43.3335 47.5453 42.9695 47.9093 43.1948 48.152C43.9055 48.9146 43.8881 50.0933 43.3161 50.9426C42.7095 51.8613 41.5308 52.1733 40.4735 52.0866C39.3815 52 38.2375 51.4973 37.8041 50.44C37.4055 49.4866 37.5788 48.412 37.9948 47.4933C38.1335 47.216 37.6828 46.956 37.5441 47.268Z" fill="#DFE6E9"/>
<path d="M15.0801 63.6998C18.4427 61.5505 21.8227 59.4012 25.1854 57.2692C25.4627 57.0959 25.2027 56.6452 24.9254 56.8185C21.5627 58.9679 18.1827 61.1172 14.8201 63.2492C14.5254 63.4398 14.7854 63.8905 15.0801 63.6998Z" fill="#DFE6E9"/>
<path d="M16.9172 73.9787C19.7772 71.3614 22.4985 68.6054 25.0812 65.7107C25.3065 65.468 24.9425 65.0867 24.7172 65.3467C22.1345 68.2414 19.4132 70.9974 16.5532 73.6147C16.3105 73.8401 16.6745 74.2041 16.9172 73.9787Z" fill="#DFE6E9"/>
<path d="M30.5585 72.3141C27.9585 79.0048 25.5318 85.7821 23.2958 92.6115C23.1918 92.9235 23.6945 93.0621 23.7985 92.7501C26.0345 85.9208 28.4611 79.1608 31.0611 72.4528C31.1825 72.1408 30.6798 72.0194 30.5585 72.3141Z" fill="#DFE6E9"/>
<path d="M41.3571 67.5821C43.3851 72.9381 45.4305 78.2941 47.4585 83.6328C47.5798 83.9448 48.0825 83.8062 47.9612 83.4942C45.9332 78.1381 43.8878 72.7821 41.8598 67.4434C41.7385 67.1314 41.2358 67.2701 41.3571 67.5821Z" fill="#DFE6E9"/>
<path d="M50.9082 60.1466C53.9415 62.6946 56.7841 65.4679 59.4188 68.4319C59.6441 68.6746 60.0081 68.3106 59.7828 68.0679C57.1481 65.1039 54.3055 62.3479 51.2721 59.7826C51.0295 59.5572 50.6655 59.9212 50.9082 60.1466Z" fill="#DFE6E9"/>
<path d="M55.5705 53.0394C57.9279 54.2008 60.3025 55.3448 62.6598 56.5061C62.9545 56.6448 63.2318 56.2114 62.9198 56.0554C60.5625 54.8941 58.1879 53.7501 55.8305 52.5887C55.5359 52.4501 55.2759 52.8834 55.5705 53.0394Z" fill="#DFE6E9"/>
<path d="M40.8201 134.593C44.6508 131.3 49.5908 129.982 54.3921 128.769C56.8361 128.145 59.2628 127.521 61.6548 126.689C64.4108 125.736 67.0974 124.574 69.7668 123.413C70.0788 123.274 69.8014 122.841 69.5068 122.962C66.6641 124.193 63.8214 125.424 60.8921 126.412C58.4481 127.226 55.9521 127.833 53.4561 128.474C48.8454 129.67 44.1481 131.057 40.4734 134.229C40.1961 134.437 40.5601 134.801 40.8201 134.593Z" fill="#DFE6E9"/>
<path d="M73.9786 45.5517C85.2799 46.2451 96.5119 47.7357 107.623 49.989C107.952 50.0584 108.091 49.5557 107.761 49.4864C96.6159 47.2157 85.3319 45.7251 73.9959 45.0144C73.6319 45.0144 73.6319 45.5344 73.9786 45.5517Z" fill="#DFE6E9"/>
<path d="M73.9962 45.1534C74.1175 44.4254 74.1522 43.6801 74.1002 42.9521C74.0829 42.6227 73.5628 42.6227 73.5802 42.9521C73.6322 43.6454 73.6149 44.3387 73.4935 45.0321C73.4415 45.3441 73.9442 45.4827 73.9962 45.1534Z" fill="#DFE6E9"/>
<path d="M73.9438 43.4548C85.2451 44.6161 96.5984 45.6387 107.726 48.0307C108.056 48.1001 108.194 47.5974 107.865 47.5281C96.6851 45.1361 85.2971 44.0961 73.9438 42.9348C73.6144 42.9001 73.6144 43.4201 73.9438 43.4548Z" fill="#DFE6E9"/>
<path d="M107.501 47.6835C107.432 48.3422 107.484 49.0008 107.605 49.6595C107.675 49.9888 108.177 49.8502 108.108 49.5208C107.987 48.9142 107.969 48.3075 108.021 47.6835C108.056 47.3542 107.536 47.3542 107.501 47.6835Z" fill="#DFE6E9"/>
<path d="M74.8108 37.4913C74.5855 39.502 74.8108 41.478 75.5041 43.3847C75.6255 43.6967 76.1281 43.558 76.0068 43.246C75.3308 41.3913 75.1055 39.4673 75.3308 37.4913C75.3655 37.1447 74.8455 37.162 74.8108 37.4913Z" fill="#DFE6E9"/>
<path d="M74.724 37.5439C76.8906 38.1333 79.1093 38.3933 81.3453 38.2893C81.6746 38.2719 81.6746 37.7519 81.3453 37.7693C79.144 37.8559 76.9773 37.6133 74.8626 37.0413C74.5333 36.9546 74.3946 37.4573 74.724 37.5439Z" fill="#DFE6E9"/>
<path d="M80.9119 38.2716C81.1892 40.0396 80.9639 41.8075 80.2186 43.4369C80.0799 43.7315 80.5306 44.0089 80.6692 43.6969C81.4665 41.9289 81.7092 40.0569 81.4145 38.1329C81.3625 37.8036 80.8599 37.9422 80.9119 38.2716Z" fill="#DFE6E9"/>
<path d="M76.7171 37.3357C75.3651 35.5503 74.8625 33.3144 75.3478 31.1304C75.2091 31.165 75.0531 31.1997 74.9145 31.2517C76.6998 32.985 77.8264 35.2557 78.1211 37.7343C78.1558 38.0637 78.6758 38.0637 78.6411 37.7343C78.3464 35.117 77.1851 32.725 75.2785 30.8877C75.1398 30.749 74.8798 30.801 74.8451 31.009C74.3425 33.3317 74.8451 35.7237 76.2665 37.613C76.4571 37.8557 76.9078 37.5957 76.7171 37.3357Z" fill="#DFE6E9"/>
<path d="M78.0694 35.2903C78.3121 34.0596 78.6934 32.881 79.2654 31.7716C79.5254 31.2516 79.8374 30.749 80.1841 30.2636C80.4268 29.9343 80.4268 29.7263 80.5828 30.1076C80.6868 30.3676 80.7215 30.853 80.7561 31.113C81.0161 33.505 80.3054 35.9316 78.8148 37.821C78.6068 38.081 78.9708 38.445 79.1788 38.185C80.9641 35.9143 81.8655 32.6903 81.0508 29.8476C80.6694 28.513 79.7681 29.9343 79.4041 30.489C78.5028 31.9103 77.8961 33.505 77.5668 35.1516C77.5148 35.481 78.0174 35.6197 78.0694 35.2903Z" fill="#DFE6E9"/>
<path d="M85.835 44.5462C85.9044 44.3036 85.9044 44.1302 85.887 43.8703C85.8697 43.6623 85.679 43.2289 85.7484 43.0556C86.0084 42.3449 87.6377 42.8649 88.123 42.9169C89.839 43.1249 91.5377 43.3503 93.2364 43.5929C96.5297 44.0609 99.8057 44.5982 103.064 45.1702C102.995 45.0836 102.943 44.9969 102.874 44.9276C102.926 45.2916 102.96 45.6556 103.012 46.0196C103.047 46.3489 103.567 46.3489 103.532 46.0196C103.48 45.6556 103.446 45.2916 103.394 44.9276C103.376 44.8236 103.324 44.7022 103.203 44.6849C99.3724 43.9916 95.5417 43.3849 91.6937 42.8649C89.9257 42.6223 88.0884 42.2409 86.303 42.1889C85.9044 42.1716 85.5057 42.2409 85.2977 42.6396C85.0204 43.1943 85.471 43.8183 85.3324 44.3902C85.2457 44.7369 85.7484 44.8756 85.835 44.5462Z" fill="#DFE6E9"/>
<path d="M91.1732 42.605C90.5146 41.5997 91.9012 41.0623 92.6639 41.0623C93.3919 41.0623 94.1199 41.2357 94.8479 41.3397C96.1652 41.5303 97.4999 41.721 98.8172 41.929C100.117 42.1197 101.435 42.345 102.735 42.5877C103.324 42.709 103.913 42.8303 104.52 42.969C105.04 43.0903 107.155 43.3503 106.704 44.321C106.565 44.6157 107.016 44.893 107.155 44.581C107.883 43.0037 105.508 42.657 104.503 42.4317C102.405 41.9637 100.291 41.617 98.1586 41.305C97.1012 41.149 96.0612 40.993 95.0039 40.8543C94.0679 40.7157 93.0452 40.4383 92.0919 40.5943C91.0346 40.7503 90.0812 41.8597 90.7572 42.8823C90.9132 43.1423 91.3639 42.8823 91.1732 42.605Z" fill="#DFE6E9"/>
<path d="M103.081 45.153C104.295 45.465 105.525 45.5344 106.773 45.3264C107.103 45.2744 106.964 44.7717 106.635 44.8237C105.491 44.997 104.347 44.945 103.22 44.6503C102.891 44.581 102.752 45.0837 103.081 45.153Z" fill="#DFE6E9"/>
<path d="M26.2602 49.5036C29.8482 49.9196 33.4535 50.1449 37.0762 50.1796C37.4055 50.1796 37.4055 49.6596 37.0762 49.6596C33.4535 49.6249 29.8482 49.3823 26.2602 48.9836C25.9309 48.9489 25.9309 49.4689 26.2602 49.5036Z" fill="#DFE6E9"/>
<path d="M44.3041 49.9545C47.6841 49.9545 50.9948 49.5385 54.3055 48.8798C54.6348 48.8105 54.4961 48.3078 54.1668 48.3772C50.9081 49.0358 47.6495 49.4345 44.3041 49.4345C43.9748 49.4345 43.9748 49.9545 44.3041 49.9545Z" fill="#DFE6E9"/>
<path d="M31.7894 61.3081C30.0561 64.3934 28.3228 67.4787 26.5894 70.564C26.4334 70.8587 26.8668 71.1187 27.0401 70.824C28.7734 67.7387 30.5068 64.6534 32.2401 61.5681C32.3961 61.2734 31.9454 61.0134 31.7894 61.3081Z" fill="#DFE6E9"/>
<path d="M43.4892 58.1184C44.6159 59.9037 45.6385 61.7237 46.5745 63.613C46.7305 63.9077 47.1812 63.6477 47.0252 63.353C46.0892 61.481 45.0492 59.6437 43.9398 57.8584C43.7665 57.5637 43.3158 57.8237 43.4892 58.1184Z" fill="#DFE6E9"/>
<path d="M51.2029 54.4093C52.5202 55.172 53.8202 55.9173 55.1375 56.68C55.4322 56.8533 55.6922 56.4027 55.3975 56.2293C54.0802 55.4667 52.7802 54.7213 51.4629 53.9587C51.1682 53.7853 50.9082 54.236 51.2029 54.4093Z" fill="#DFE6E9"/>
<path d="M85.7657 164.302C98.6097 160.818 111.263 156.693 123.691 151.944C129.827 149.604 135.894 147.108 141.891 144.456C144.942 143.121 147.958 141.734 150.974 140.313C153.938 138.926 156.85 137.418 159.848 136.136C163.28 134.662 166.955 133.501 170.734 133.744C174.53 133.986 177.962 135.772 181.272 137.505C181.567 137.661 181.827 137.21 181.532 137.054C178.759 135.598 175.916 134.108 172.814 133.484C169.798 132.894 166.73 133.258 163.8 134.125C160.68 135.044 157.751 136.482 154.839 137.886C151.806 139.36 148.738 140.798 145.67 142.185C133.224 147.836 120.502 152.828 107.554 157.161C100.308 159.588 93.011 161.789 85.6443 163.782C85.2977 163.886 85.4363 164.389 85.7657 164.302Z" fill="#2D3436"/>
<path d="M172.155 138.545C174.599 139.031 176.904 138.095 179.314 137.835C182.07 137.54 184.756 138.337 187.322 139.256C192.279 141.024 197.028 143.312 201.5 146.068C201.795 146.241 202.055 145.791 201.76 145.617C197.34 142.896 192.643 140.625 187.755 138.857C185.363 137.991 182.85 137.193 180.267 137.245C177.58 137.315 174.98 138.563 172.294 138.043C171.964 137.973 171.826 138.476 172.155 138.545Z" fill="#2D3436"/>
<path d="M69.1255 177.337C67.2362 180.353 66.5602 183.872 66.1615 187.356C65.6935 191.429 65.3295 195.52 64.9309 199.593C64.8962 199.923 65.4162 199.923 65.4509 199.593C65.8322 195.711 66.1962 191.828 66.6122 187.945C67.0109 184.357 67.6175 180.717 69.5762 177.597C69.7496 177.32 69.3162 177.06 69.1255 177.337Z" fill="#2D3436"/>
<path d="M81.3976 184.86C78.3123 190.008 77.8963 196.109 77.9136 201.968C77.9136 202.297 78.4336 202.297 78.4336 201.968C78.4163 196.196 78.7976 190.181 81.8482 185.12C82.0216 184.825 81.5709 184.565 81.3976 184.86Z" fill="#2D3436"/>
<path d="M55.1375 182.988C58.1535 179.677 61.6375 176.419 65.4682 174.079C69.4549 171.652 74.0655 171.219 78.6069 170.889C78.9362 170.872 78.9362 170.352 78.6069 170.369C74.0829 170.716 69.4549 171.132 65.4682 173.472C63.5269 174.616 61.7935 176.055 60.0949 177.493C58.2229 179.088 56.4375 180.787 54.7735 182.607C54.5482 182.867 54.9122 183.231 55.1375 182.988Z" fill="#2D3436"/>
<path d="M134.039 128.422C143.642 130.173 153.192 132.201 162.674 134.506C163.003 134.593 163.142 134.09 162.812 134.004C153.331 131.698 143.78 129.67 134.178 127.92C133.848 127.868 133.71 128.37 134.039 128.422Z" fill="#2D3436"/>
<path d="M88.8513 92.5425C89.1286 93.7038 89.51 95.6105 89.51 97.9852C89.51 104.711 86.494 110.864 85.5753 112.719C84.986 113.897 83.8073 116.151 83.0447 119.479C82.7847 120.571 82.646 121.489 82.5767 122.113C83.27 122.183 84.3273 122.304 85.5753 122.495C88.3833 122.911 89.562 123.275 91.2087 123.535C92.63 123.743 94.658 123.899 97.2233 123.621C97.154 124.263 97.0326 125.216 96.842 126.343C96.3913 129.151 96.166 130.537 95.6286 131.595C94.7966 133.224 93.878 133.692 94.1206 134.403C94.294 134.923 94.9526 135.165 96.5646 135.529C99.2166 136.136 100.638 136.205 102.007 136.465C103.533 136.76 103.585 137.003 106.895 138.251C109.755 139.325 111.402 139.949 113.465 140.417C114.123 140.573 117.573 141.336 122.097 141.163C124.627 141.076 125.546 140.764 127.921 140.972C129.914 141.145 131.526 141.579 132.618 141.908C132.774 140.937 132.999 139.481 133.173 137.679C133.554 133.831 133.259 133.189 133.831 131.3C134.265 129.827 134.49 130.069 136.171 126.516C137.263 124.193 137.818 123.032 138.234 121.628C138.477 120.779 139.187 118.248 139.083 114.868C138.979 111.401 138.182 112.06 137.87 108.299C137.835 107.813 137.766 106.756 137.177 106.531C136.743 106.357 136.223 106.721 135.617 107.12C133.953 108.212 132.566 108.923 132.254 109.079C131.387 109.495 129.983 109.807 127.713 109.131C127.955 108.351 128.267 107.276 128.597 105.959C129.169 103.619 129.411 101.955 129.671 100.1C129.671 100.1 130.261 95.9745 129.481 93.5652C129.325 93.0972 129.099 92.7332 128.753 92.5945C128.406 92.4558 128.077 92.5945 127.73 92.6985C127.227 92.8545 126.517 92.9932 125.529 92.9932C125.39 92.7505 125.165 92.3865 124.853 92.0225C124.454 91.5545 123.657 90.7745 122.114 90.1678C120.207 89.4052 118.075 89.2838 116.013 89.2838C112.511 89.2838 112.251 89.6652 108.854 89.6825C107.069 89.6825 105.561 89.6998 103.533 89.3878C99.9966 88.8678 99.7366 88.1052 97.778 88.3132C96.4086 88.4518 95.1433 89.1105 92.6126 90.4105C91.018 91.2252 89.7526 91.9878 88.8513 92.5425Z" fill="white"/>
<path d="M107.796 105.005C111.904 104.416 115.631 106.756 119.375 108.021C123.206 109.304 127.279 109.772 131.318 109.442C131.647 109.408 131.647 108.888 131.318 108.922C127.002 109.269 122.668 108.697 118.612 107.206C115.059 105.889 111.558 103.948 107.658 104.52C107.328 104.554 107.467 105.04 107.796 105.005Z" fill="#2D3436"/>
<path d="M109.217 105.543C107.813 104.953 106.357 102.717 104.676 103.896C103.913 104.416 103.601 105.387 103.341 106.219C102.925 107.536 102.613 108.888 102.267 110.24C101.573 113.048 100.499 115.613 99.2681 118.231C98.1414 120.588 97.2054 122.928 96.7201 125.51C96.2694 127.92 96.0441 130.468 94.7961 132.634C94.4494 133.258 93.4441 134.177 94.2067 134.87C94.9347 135.546 96.3734 135.91 97.2921 136.153C98.5054 136.482 99.7361 136.552 101.001 136.604C102.544 136.656 103.861 137.037 105.248 137.644C107.761 138.718 110.257 139.845 112.892 140.59C116.012 141.474 118.993 141.492 122.217 141.284C125.667 141.058 129.047 141.318 132.392 142.202C132.531 142.237 132.652 142.15 132.704 142.029C133.969 138.822 133.033 135.321 133.935 132.045C134.836 128.769 137.159 126.117 138.181 122.876C139.187 119.756 139.36 116.393 138.979 113.152C138.805 111.592 138.493 110.049 138.077 108.541C137.869 107.761 137.679 105.872 136.448 106.323C135.703 106.6 134.975 107.189 134.316 107.64C133.588 108.125 132.86 108.628 132.097 109.079C130.485 110.067 128.769 110.847 126.845 110.829C126.516 110.829 126.516 111.349 126.845 111.349C129.636 111.367 131.976 109.807 134.212 108.316C134.784 107.935 135.356 107.536 135.963 107.189C136.032 107.137 136.309 106.929 136.431 106.912C137.28 106.773 137.003 107.068 137.193 107.397C137.401 107.744 137.471 108.299 137.575 108.68C138.008 110.24 138.32 111.835 138.493 113.464C138.823 116.619 138.632 119.86 137.627 122.893C136.639 125.892 134.576 128.37 133.588 131.352C132.444 134.784 133.536 138.528 132.184 141.908C132.288 141.856 132.392 141.786 132.496 141.734C130 141.076 127.452 140.729 124.869 140.712C122.183 140.694 119.496 141.162 116.809 140.885C114.192 140.608 111.661 139.793 109.217 138.822C106.981 137.938 104.693 136.552 102.284 136.222C101.053 136.049 99.7881 136.153 98.5574 135.945C97.4307 135.754 95.8361 135.46 94.9348 134.766C94.5361 134.454 94.4668 134.229 94.6748 133.761C94.7788 133.518 95.0041 133.293 95.1254 133.068C95.3681 132.652 95.5761 132.236 95.7494 131.785C96.1654 130.762 96.4254 129.688 96.6507 128.596C97.1014 126.325 97.3787 124.055 98.1934 121.871C99.0601 119.548 100.291 117.364 101.244 115.076C102.353 112.424 102.821 109.599 103.653 106.843C104.017 105.647 104.641 103.515 106.323 104.277C107.276 104.711 107.935 105.612 108.905 106.028C109.269 106.115 109.529 105.664 109.217 105.543Z" fill="#2D3436"/>
<path d="M116.567 111.124C118.924 111.956 121.368 112.181 123.847 111.817C124.176 111.765 124.038 111.263 123.708 111.315C121.334 111.661 118.976 111.419 116.706 110.621C116.376 110.5 116.255 111.003 116.567 111.124Z" fill="#2D3436"/>
<path d="M128.25 109.512C130 109.616 131.716 109.408 133.38 108.87C133.692 108.766 133.554 108.264 133.242 108.368C131.612 108.888 129.966 109.096 128.25 108.974C127.903 108.974 127.92 109.494 128.25 109.512Z" fill="#2D3436"/>
<path d="M89.4057 92.6638C90.8617 91.7798 92.3004 90.8958 93.7564 90.0291C95.1431 89.1971 96.4951 88.5558 98.1591 88.6078C99.8924 88.6771 101.591 89.2491 103.29 89.5611C104.798 89.8211 106.34 89.9771 107.866 90.0291C113.447 90.1851 120.9 87.8105 125.112 92.8198C125.32 93.0798 125.702 92.6985 125.476 92.4558C121.212 87.3945 113.846 89.6131 108.195 89.5265C106.375 89.4918 104.555 89.3011 102.752 88.9545C101.123 88.6251 99.4938 88.0878 97.8298 88.1051C96.3218 88.1225 95.0217 88.6945 93.7391 89.4398C92.1964 90.3411 90.6711 91.2945 89.1457 92.2305C88.8511 92.3865 89.1111 92.8371 89.4057 92.6638Z" fill="#2D3436"/>
<path d="M118.127 93.8081C120.207 94.0508 122.287 93.9988 124.35 93.6348C125.303 93.4614 126.239 93.1321 127.192 92.9934C127.712 92.9241 128.336 92.8721 128.804 93.1494C129.446 93.5134 129.498 94.3281 129.515 94.9868C129.584 99.6148 128.856 104.295 127.556 108.732C127.47 109.061 127.972 109.2 128.059 108.871C128.787 106.392 129.324 103.861 129.654 101.313C129.827 99.9961 129.931 98.6614 130 97.3268C130.052 96.2174 130.243 94.8828 129.914 93.8081C129.376 92.0054 127.279 92.4214 125.91 92.7681C123.344 93.4268 120.744 93.6174 118.127 93.3054C117.798 93.2361 117.798 93.7561 118.127 93.8081Z" fill="#2D3436"/>
<path d="M88.5736 92.4207C88.6256 95.3154 89.6136 98.106 89.423 101.035C89.2496 103.618 88.3829 106.079 87.3776 108.437C85.4709 112.909 82.9403 117.19 82.3509 122.095C82.3336 122.234 82.4896 122.355 82.6109 122.355C83.9283 122.321 85.1589 122.667 86.4243 122.979C87.6203 123.274 88.8163 123.517 90.047 123.69C92.4736 124.019 94.935 124.071 97.379 123.863C97.7083 123.829 97.7083 123.309 97.379 123.343C94.8136 123.569 92.2136 123.499 89.6656 123.118C87.3256 122.754 85.0203 121.801 82.6283 121.853C82.7149 121.939 82.8016 122.026 82.8883 122.113C83.5123 117.017 86.2856 112.597 88.1923 107.917C89.0936 105.715 89.8043 103.427 89.9776 101.053C90.1683 98.1407 89.1803 95.35 89.1283 92.438C89.0936 92.074 88.5736 92.0741 88.5736 92.4207Z" fill="#2D3436"/>
<path opacity="0.13" d="M112.598 104.953C113.534 105.074 116.914 105.542 119.34 103.999C121.282 102.769 122.703 100.169 122.703 97.7767C122.703 96.1473 122.027 94.674 122.876 93.894C123.102 93.686 123.24 93.7207 124.263 93.4607C126.759 92.8367 127.088 92.3513 127.972 92.594C129.012 92.8713 129.55 93.7727 129.619 93.894C130.191 94.882 129.931 95.974 129.792 96.65C128.822 101.33 129.74 101.469 128.319 106.755C128.042 107.761 127.799 108.575 127.626 109.095C128.354 109.182 129.324 109.234 130.468 109.095C131.456 108.974 132.843 108.801 134.264 107.969C135.686 107.137 136.119 106.235 136.76 106.409C137.332 106.565 137.558 107.397 137.714 107.969C138.788 112.094 138.754 114.105 138.754 114.105C138.667 118.681 138.632 120.986 138.32 122.13C136.968 127.157 134.472 126.602 133.831 130.849C133.432 133.501 134.212 134.957 133.311 138.787C132.999 140.087 132.635 141.127 132.358 141.803C131.144 141.457 129.22 141.006 126.828 140.85C123.31 140.625 121.958 141.249 118.543 141.197C115.562 141.162 110.57 140.607 110.431 139.377C110.206 137.609 120.467 136.707 121.143 132.547C121.594 129.791 117.468 128.422 115.614 123.742C113.811 119.218 115.267 114.382 116.74 111.054C118.838 111.262 120.935 111.453 123.05 111.661C112.58 106.461 110.57 105.057 110.708 104.745C110.76 104.623 111.402 104.779 112.598 104.953Z" fill="#636E72"/>
<path opacity="0.16" d="M137.124 106.687C136.569 106.721 136.812 109.807 135.737 114.972C135.599 115.631 134.489 120.9 132.028 126.117C130.468 129.428 127.227 135.113 120.709 140.712C124.627 141.197 128.544 141.683 132.461 142.185C132.704 141.371 133.068 140.088 133.328 138.476C133.952 134.715 133.38 133.588 134.021 131.057C134.628 128.665 135.356 128.752 136.777 125.528C136.968 125.095 138.372 121.888 138.857 118.196C139.62 112.285 137.887 106.635 137.124 106.687Z" fill="#636E72"/>
<path opacity="0.18" d="M129.532 99.2505C129.186 99.1465 128.562 101.816 126.43 103.913C124.055 106.253 120.762 106.912 117.971 107.016C119.618 107.692 121.75 108.385 124.28 108.749C125.598 108.94 126.811 109.009 127.903 109.009C129.654 101.348 129.827 99.3372 129.532 99.2505Z" fill="#636E72"/>
<path d="M38.3586 171.011C38.8439 174.305 39.3292 177.581 39.7972 180.874C32.5172 190.459 29.3452 195.711 30.2986 196.613C31.3212 197.583 37.1452 193.51 47.7706 184.393C47.4066 178.725 47.0426 173.074 46.6786 167.406C43.9052 168.602 41.1319 169.815 38.3586 171.011Z" fill="#2D3436"/>
<path d="M67.0799 126.621C63.2493 127.869 55.6226 130.798 48.0306 137.211C44.8239 139.915 41.5653 142.706 38.896 147.525C36.608 151.65 35.932 155.151 34.9266 160.629C34.164 164.789 33.3666 170.751 33.4706 178.083C35.7586 177.91 38.1853 177.667 40.7506 177.286C43.9919 176.818 46.9906 176.229 49.7466 175.57C49.712 171.947 50.024 167.423 51.2026 162.345C51.9826 158.999 52.9706 156.087 53.976 153.609C61.1693 146.953 67.8426 143.833 72.7653 142.238C78.7106 140.297 83.6333 140.071 87.4466 135.617C89.7173 132.982 92.1786 128.163 90.4973 125.425C87.1693 120.051 69.6279 125.789 67.0799 126.621Z" fill="white" stroke="#636E72" stroke-miterlimit="10"/>
<path opacity="0.14" d="M88.4172 123.933C87.3598 124.141 87.6545 126.897 86.7359 129.376C85.0718 133.813 80.1145 135.772 76.1278 137.349C52.6758 146.675 50.0932 148.512 48.0652 151.337C46.1412 154.024 45.3092 156.884 43.6625 162.604C41.9812 168.411 41.3745 173.455 41.1318 177.06C44.0092 176.592 46.8865 176.124 49.7638 175.656C49.7465 173.749 49.8332 171.704 50.0412 169.555C50.6825 163.124 52.2772 157.681 53.9758 153.417C55.0678 152.516 56.5932 151.303 58.4825 149.951C62.3305 147.195 65.1038 145.201 68.8998 143.659C71.8638 142.445 72.1065 142.879 79.5078 140.383C81.5532 139.689 82.6625 139.273 84.0145 138.407C87.1345 136.413 88.6772 133.848 89.3705 132.687C90.5318 130.711 91.3812 129.272 91.0518 127.435C90.7398 125.563 89.3358 123.743 88.4172 123.933Z" fill="#636E72"/>
<path opacity="0.16" d="M63.3706 146.086C57.0439 147.248 53.6639 150.108 52.1039 151.72C49.1572 154.77 47.9439 158.584 45.6212 166.072C44.2866 170.388 43.4372 174.028 42.8999 176.576C45.0666 176.298 47.2159 176.021 49.3826 175.726C49.4519 172.069 49.8332 168.984 50.2319 166.626C50.4746 165.136 50.8906 162.744 51.8266 159.676C52.5892 157.18 53.4386 155.082 54.1666 153.488C57.2346 151.026 60.3026 148.548 63.3706 146.086Z" fill="#636E72"/>
<path d="M41.6691 141.995C42.3451 141.302 43.3851 140.383 44.8411 139.742C48.7237 138.043 52.7277 139.465 55.1371 140.297C60.5277 142.169 66.2477 143.139 71.4131 145.531C79.2304 149.154 89.4917 153.921 100.221 155.827C112.25 157.959 114.816 154.718 131.092 157.145C137.089 158.029 141.942 159.242 145.114 160.143C143.728 162.934 142.289 163.818 141.18 164.078C140.434 164.251 140.053 164.095 139.498 164.459C138.112 165.361 138.84 167.406 137.817 168.949C136.812 170.457 134.87 170.318 132.773 170.821C128.509 171.826 128.093 174.339 123.24 177.563C120.882 179.123 116.445 182.053 111.453 181.862C106.097 181.654 105.421 178.066 99.4757 176.055C92.0571 173.559 89.8037 178.083 79.8371 177.373C77.7397 177.217 67.4091 176.489 60.1984 169.33C55.2757 164.459 56.1771 160.906 50.6651 155.307C46.4531 151.026 41.7384 148.807 38.4971 147.629C38.8957 146.797 39.3464 145.947 39.8317 145.063C40.4384 143.954 41.0624 142.949 41.6691 141.995Z" fill="white" stroke="#636E72" stroke-miterlimit="10"/>
<path d="M43.801 141.961C46.2103 142.03 48.5503 142.567 50.7516 143.555C50.977 143.659 51.185 143.33 50.9423 143.226C48.6716 142.203 46.2796 141.649 43.801 141.562C43.541 141.562 43.541 141.961 43.801 141.961Z" fill="#2D3436"/>
<path d="M49.5385 151.789C53.6291 154.129 55.7958 158.497 58.6385 162.067C61.6545 165.846 65.5371 168.879 69.9225 170.925C70.1478 171.029 70.3385 170.699 70.1131 170.595C65.5371 168.446 61.5158 165.239 58.4478 161.201C55.8131 157.734 53.6465 153.695 49.7465 151.459C49.5211 151.321 49.3131 151.667 49.5385 151.789Z" fill="#2D3436"/>
<path d="M124.124 163.887C129.012 163.939 133.9 163.662 138.753 163.073C138.996 163.038 138.996 162.657 138.753 162.674C133.9 163.263 129.012 163.541 124.124 163.489C123.864 163.506 123.864 163.887 124.124 163.887Z" fill="#2D3436"/>
<path d="M122.65 170.353C124.453 171.011 126.29 171.566 128.145 171.982C128.388 172.034 128.492 171.67 128.249 171.601C126.377 171.167 124.54 170.63 122.754 169.971C122.512 169.885 122.408 170.266 122.65 170.353Z" fill="#2D3436"/>
<path d="M61.8624 158.375C66.1438 162.171 71.3264 165.187 76.8731 166.695C79.6637 167.441 82.5064 167.562 85.3317 166.955C88.313 166.314 91.0864 165.031 93.7384 163.541C93.9637 163.419 93.7557 163.073 93.5477 163.211C91.017 164.633 88.365 165.863 85.5397 166.522C82.5757 167.215 79.6117 167.077 76.6824 166.245C71.3091 164.719 66.3171 161.807 62.1398 158.115C61.9491 157.925 61.6718 158.202 61.8624 158.375Z" fill="#2D3436"/>
<path d="M86.0077 156.087C87.1518 156.313 88.1917 156.815 89.0237 157.647C89.9251 158.549 90.8784 160.646 89.1104 161.235C88.8677 161.322 88.9718 161.686 89.2144 161.617C90.5664 161.166 90.7571 159.641 90.1504 158.497C89.3531 156.989 87.7237 156.035 86.1117 155.723C85.8691 155.671 85.7651 156.053 86.0077 156.087Z" fill="#2D3436"/>
<path d="M91.9358 166.244C95.6625 163.835 100.134 163.367 104.45 162.968C104.693 162.951 104.693 162.552 104.45 162.57C100.065 162.968 95.5238 163.454 91.7452 165.898C91.5372 166.036 91.7278 166.383 91.9358 166.244Z" fill="#2D3436"/>
<path d="M55.6397 142.965C59.4704 143.988 62.4864 146.605 65.6757 148.807C68.9864 151.095 72.6091 152.897 76.4224 154.163C76.6651 154.249 76.7691 153.868 76.5264 153.781C72.5397 152.464 68.813 150.557 65.3984 148.131C62.3477 145.981 59.401 143.555 55.7264 142.567C55.501 142.532 55.397 142.896 55.6397 142.965Z" fill="#2D3436"/>
<path opacity="0.13" d="M51.4277 139.066C56.3331 141.354 59.8517 143.764 62.1571 145.549C64.6184 147.456 65.4157 148.444 68.0851 150.108C69.5237 151.009 72.5051 152.864 76.7344 154.181C81.9344 155.81 84.1877 155.1 86.1811 157.388C86.4411 157.682 87.9317 159.381 87.7064 161.461C87.4291 164.061 84.6384 166.401 80.6691 166.99C81.7957 167.008 83.0611 166.938 84.4304 166.748C87.6717 166.297 90.2891 165.292 92.1957 164.356C91.5891 165.066 90.9651 165.881 91.1557 166.124C91.4157 166.453 93.0971 165.5 94.2757 164.928C96.4424 163.87 97.8811 163.732 102.994 162.934C114.278 161.184 115.37 160.681 118.924 161.01C121.662 161.27 124.852 161.946 124.852 162.536C124.834 163.142 121.316 163.368 121.333 163.662C121.368 164.026 127.608 165.725 133.813 163.506C135.217 163.004 138.736 161.548 139.966 162.865C140.313 163.229 140.486 163.836 141.093 163.992C141.821 164.182 142.584 163.541 143.086 163.108C143.624 162.657 144.49 161.773 145.08 160.23C144.75 160.126 144.282 159.988 143.728 159.832C142.549 159.502 139.048 158.532 133.969 157.665C132.392 157.405 129.445 156.902 125.961 156.625C118.664 156.036 116.74 156.954 110.118 156.781C108.42 156.729 103.306 156.538 97.0664 155.186C91.5024 153.973 87.4984 152.378 80.8251 149.657C75.0184 147.3 74.3597 146.71 70.0264 144.942C65.7797 143.192 59.5397 140.921 51.4277 139.066Z" fill="#636E72"/>
<path opacity="0.18" d="M101.85 176.68C103.67 175.917 105.837 175.189 108.333 174.686C109.373 174.478 110.361 174.322 111.297 174.201C111.019 174.86 110.725 175.518 110.413 176.194C109.615 177.945 108.783 179.557 107.934 181.082C105.906 179.626 103.878 178.153 101.85 176.68Z" fill="#636E72"/>
<path opacity="0.15" d="M133.206 166.765C128.803 167.77 125.545 167.476 125.527 167.718C125.51 167.926 127.711 168.325 137.453 169.244C137.747 168.568 138.059 167.822 138.337 167.008C138.597 166.245 138.805 165.517 138.978 164.841C137.626 165.447 135.667 166.21 133.206 166.765Z" fill="#636E72"/>
<path opacity="0.22" d="M86.1637 155.966C86.0943 156.105 87.793 156.486 88.6423 157.959C89.2663 159.051 89.2143 160.317 88.9543 161.409C89.1277 161.339 90.133 160.923 90.393 159.97C90.653 158.982 89.925 158.133 89.509 157.647C88.2263 156.122 86.233 155.81 86.1637 155.966Z" fill="#636E72"/>
<path opacity="0.15" d="M110.482 156.607C116.48 156.018 124.124 155.879 132.808 157.335C137.245 158.08 141.249 159.103 144.733 160.212C144.594 160.698 144.282 161.512 143.606 162.292C143.606 162.292 142.913 163.09 141.838 163.644C139.186 165.014 135.044 163.644 134.801 163.558C135.945 163.402 137.21 163.142 138.562 162.76C139.342 162.535 140.053 162.292 140.729 162.032C138.441 161.079 135.928 160.178 133.206 159.398C124.557 156.884 116.688 156.399 110.482 156.607Z" fill="#636E72"/>
<path d="M120.467 162.101C120.657 161.876 120.935 161.893 121.663 161.755C122.529 161.581 123.205 161.356 123.673 161.183C126.291 160.455 128.197 159.484 129.497 158.704C132.271 157.023 133.519 155.428 135.183 155.792C136.24 156.035 137.211 157.023 137.124 157.855C137.055 158.565 136.257 159.033 132.271 160.541C126.083 162.881 126.655 162.257 124.8 163.228C123.101 164.129 122.148 164.892 121.281 164.511C120.432 164.095 119.999 162.639 120.467 162.101Z" fill="#2D3436"/>
<path d="M153.14 148.147C150.592 150.158 150.644 153.434 150.644 153.711C150.678 154.786 150.956 155.635 151.164 156.138C148.096 157.698 147.593 158.339 147.68 158.634C147.922 159.397 152.481 159.518 154.579 156.953C155.064 156.363 155.255 155.774 155.619 154.63C156.347 152.359 157.335 147.783 155.913 147.038C155.099 146.622 153.764 147.662 153.14 148.147Z" fill="#2D3436"/>
<path d="M134.784 157.335C135.165 156.555 136.101 156.381 137.835 155.983C139.741 155.549 142.965 154.804 144.768 154.128C146.848 153.331 148.079 152.221 150.193 150.315C154.423 146.501 154.613 144.144 156.52 144.057C158.895 143.953 161.859 147.437 161.564 150.54C161.339 152.967 159.207 154.336 155.237 156.867C154.319 157.456 150.349 159.917 144.231 161.252C140.591 162.049 138.008 162.587 136.205 161.079C135.079 160.143 134.264 158.409 134.784 157.335Z" fill="#2D3436"/>
<path d="M157.63 149.205C155.082 151.216 155.134 154.492 155.134 154.769C155.168 155.844 155.446 156.693 155.654 157.196C152.586 158.756 152.083 159.397 152.17 159.692C152.412 160.454 156.971 160.576 159.068 158.01C159.554 157.421 159.744 156.832 160.108 155.688C160.836 153.417 161.824 148.841 160.403 148.096C159.571 147.662 158.236 148.72 157.63 149.205Z" fill="#2D3436"/>
<path d="M154.666 145.738C154.978 145.444 155.394 145.028 155.844 144.49C156.122 144.161 157.162 142.913 158.288 140.504C158.929 139.152 159.432 138.077 159.779 136.482C160.108 134.94 160.386 133.57 159.71 132.392C159.155 131.421 158.514 130.901 158.514 130.901C157.942 130.451 157.456 130.277 157.474 130C157.508 129.757 157.942 129.549 158.34 129.549C159.554 129.532 160.455 131.664 160.611 132.01C161.408 133.9 161.113 135.702 160.975 136.326C160.888 136.69 160.888 136.586 160.23 138.562C159.588 140.504 159.605 140.538 159.328 141.318C158.392 143.953 157.872 145.409 156.659 145.86C156.312 145.998 155.654 146.12 154.666 145.738Z" fill="#2D3436"/>
<path d="M131.075 160.281C130.468 159.986 128.804 159.189 128.717 157.976C128.7 157.768 128.891 157.022 129.255 155.549C129.411 154.925 129.428 154.89 129.497 154.578C129.723 153.556 129.653 153.348 129.861 152.88C129.948 152.689 130.329 151.805 130.832 151.788C131.283 151.77 131.785 152.481 131.976 153.538C132.843 153.521 133.952 153.504 134.819 153.486C135.755 153.469 136.864 153.452 137.783 153.434C137.956 153.157 138.251 152.758 138.684 152.342C139.1 151.944 139.395 151.666 139.655 151.736C140.001 151.822 140.071 152.533 140.192 153.434C140.625 156.572 141.007 156.832 140.677 157.681C140.331 158.548 139.637 158.998 138.857 159.501C138.701 159.622 134.767 162.066 131.075 160.281Z" fill="#2D3436"/>
<path d="M130.537 156.173C131.144 156.052 131.664 156.416 132.132 156.762C132.201 156.814 132.271 156.693 132.201 156.658C131.699 156.277 131.161 155.93 130.503 156.052C130.433 156.052 130.468 156.19 130.537 156.173Z" fill="white"/>
<path d="M134.68 156.762C135.235 156.346 135.859 156.086 136.535 156C136.622 155.982 136.622 155.861 136.535 155.861C135.824 155.948 135.183 156.208 134.611 156.641C134.559 156.693 134.611 156.814 134.68 156.762Z" fill="white"/>
<path d="M131.664 154.89C131.837 154.751 132.045 154.699 132.271 154.751C132.357 154.769 132.392 154.647 132.305 154.63C132.045 154.561 131.785 154.63 131.577 154.803C131.508 154.855 131.595 154.942 131.664 154.89Z" fill="white"/>
<path d="M134.645 154.804C134.836 154.734 135.026 154.752 135.2 154.873C135.269 154.925 135.338 154.804 135.269 154.769C135.078 154.648 134.836 154.613 134.628 154.7C134.524 154.717 134.558 154.838 134.645 154.804Z" fill="white"/>
<path d="M133.241 157.508C133.259 157.49 133.276 157.473 133.293 157.438C133.259 157.421 133.241 157.404 133.207 157.386C133.224 157.473 133.207 157.56 133.155 157.629C133.172 157.612 133.207 157.612 133.224 157.594C133.172 157.525 133.172 157.456 133.207 157.404C133.172 157.421 133.137 157.421 133.103 157.438C133.103 157.508 133.103 157.577 133.12 157.646C133.155 157.664 133.189 157.681 133.224 157.698C133.224 157.646 133.224 157.577 133.241 157.508C133.189 157.508 133.155 157.508 133.103 157.508C133.137 157.698 133.12 157.906 133.016 158.08C132.981 158.149 132.895 158.27 132.808 158.322C132.531 158.461 132.531 158.097 132.531 157.976C132.531 157.889 132.392 157.889 132.392 157.976C132.392 158.132 132.409 158.305 132.531 158.426C132.652 158.53 132.791 158.513 132.912 158.409C133.189 158.201 133.276 157.82 133.207 157.49C133.189 157.421 133.085 157.438 133.085 157.508C133.085 157.577 133.085 157.646 133.085 157.716C133.085 157.768 133.155 157.802 133.189 157.768C133.293 157.646 133.293 157.49 133.172 157.386C133.137 157.352 133.085 157.369 133.068 157.421C133.016 157.56 132.999 157.716 133.172 157.768C133.207 157.785 133.224 157.768 133.241 157.733C133.328 157.629 133.345 157.508 133.311 157.386C133.293 157.352 133.259 157.334 133.224 157.334C133.12 157.369 133.085 157.421 133.068 157.525C133.103 157.594 133.241 157.594 133.241 157.508Z" fill="white"/>
<path d="M133.19 157.56C133.051 157.872 133.103 158.374 133.45 158.548C133.831 158.738 133.987 158.253 134.022 157.976C134.022 157.889 133.901 157.889 133.883 157.976C133.866 158.097 133.866 158.218 133.797 158.322C133.675 158.513 133.467 158.461 133.346 158.305C133.19 158.097 133.19 157.837 133.294 157.594C133.346 157.525 133.225 157.49 133.19 157.56Z" fill="white"/>
<path d="M131.751 157.179C131.352 156.971 130.971 156.745 130.607 156.503C130.538 156.451 130.468 156.572 130.538 156.607C130.902 156.849 131.283 157.075 131.682 157.283C131.768 157.335 131.838 157.213 131.751 157.179Z" fill="white"/>
<path d="M131.612 157.594C131.231 157.542 130.849 157.542 130.451 157.594C130.364 157.611 130.364 157.733 130.451 157.733C130.832 157.681 131.213 157.681 131.612 157.733C131.699 157.733 131.699 157.594 131.612 157.594Z" fill="white"/>
<path d="M131.595 157.803C131.231 157.924 130.901 158.149 130.659 158.444C130.607 158.513 130.693 158.6 130.745 158.531C130.971 158.236 131.283 158.028 131.629 157.924C131.716 157.889 131.681 157.768 131.595 157.803Z" fill="white"/>
<path d="M134.576 157.699C135.113 157.335 135.72 157.127 136.361 157.092C136.448 157.092 136.448 156.953 136.361 156.953C135.685 157.005 135.061 157.213 134.507 157.577C134.437 157.629 134.507 157.751 134.576 157.699Z" fill="white"/>
<path d="M134.819 158.011C135.321 157.855 135.824 157.907 136.275 158.15C136.344 158.184 136.413 158.08 136.344 158.046C135.859 157.786 135.321 157.734 134.784 157.89C134.697 157.907 134.732 158.028 134.819 158.011Z" fill="white"/>
<path d="M135.027 158.323C135.443 158.409 135.789 158.617 136.067 158.929C136.119 158.999 136.205 158.895 136.153 158.843C135.859 158.513 135.495 158.288 135.061 158.201C134.975 158.167 134.94 158.305 135.027 158.323Z" fill="white"/>
<path d="M139.325 152.602C139.1 152.949 138.944 153.33 138.875 153.729C138.875 153.781 138.909 153.816 138.961 153.816C139.031 153.798 139.031 153.781 139.1 153.746C139.065 153.764 139.447 153.486 139.325 153.746C139.291 153.798 139.36 153.868 139.412 153.833C139.481 153.833 139.551 153.85 139.62 153.85C139.568 153.92 139.655 154.006 139.707 153.937C139.759 153.868 139.776 153.781 139.707 153.712C139.603 153.608 139.464 153.66 139.343 153.729C139.377 153.764 139.395 153.781 139.429 153.816C139.481 153.712 139.533 153.573 139.395 153.486C139.204 153.365 139.065 153.642 138.927 153.694C138.961 153.729 138.979 153.746 139.013 153.781C139.083 153.382 139.239 153.018 139.447 152.689C139.481 152.602 139.377 152.533 139.325 152.602Z" fill="white"/>
<path d="M130.728 152.672C130.815 152.967 130.849 153.262 130.832 153.556C130.884 153.556 130.919 153.556 130.971 153.556C130.971 153.348 130.728 153.192 130.572 153.383C130.537 153.418 130.537 153.47 130.503 153.487C130.468 153.522 130.416 153.539 130.364 153.574C130.26 153.678 130.243 153.799 130.277 153.92C130.295 154.007 130.416 153.972 130.399 153.886C130.381 153.73 130.433 153.626 130.589 153.591C130.624 153.591 130.641 153.556 130.641 153.522C130.711 153.522 130.763 153.522 130.832 153.522C130.832 153.608 130.953 153.608 130.971 153.522C131.005 153.209 130.971 152.897 130.867 152.603C130.832 152.551 130.711 152.585 130.728 152.672Z" fill="white"/>
<path d="M124.246 164.667C124.436 164.441 124.714 164.459 125.442 164.32C126.308 164.147 126.984 163.921 127.452 163.748C130.07 163.02 131.976 162.049 133.276 161.269C136.049 159.588 137.297 157.993 138.961 158.357C140.019 158.6 140.989 159.588 140.903 160.42C140.833 161.131 140.036 161.599 136.049 163.107C129.862 165.447 130.434 164.823 128.579 165.793C126.88 166.695 125.927 167.457 125.06 167.076C124.194 166.677 123.778 165.221 124.246 164.667Z" fill="#2D3436"/>
<path d="M75.2957 89.4053C74.013 88.7293 72.349 89.4746 71.4303 89.8906C69.801 90.6186 67.9636 92.1093 65.8663 97.0146C64.6876 99.7533 63.197 104.121 62.729 109.945C60.8916 110.743 58.2916 111.609 55.1196 111.765C51.6876 111.921 49.9023 111.141 48.949 112.251C47.753 113.637 48.7756 116.965 50.6476 118.907C52.745 121.091 55.6223 121.229 57.5463 121.316C58.9503 121.385 64.0636 121.455 68.6743 117.936C73.129 114.521 74.325 109.876 75.6943 104.641C76.041 103.151 79.005 91.3466 75.2957 89.4053Z" fill="white" stroke="#636E72" stroke-miterlimit="10"/>
<path opacity="0.12" d="M73.8746 89.2148C72.3666 89.7522 73.2159 94.0855 72.8346 98.9735C72.7479 100.014 72.1413 107.276 69.0733 111.644C64.1333 118.664 52.6933 118.266 50.0239 118.127C50.3359 118.664 50.8906 119.444 51.8093 120.103C52.8493 120.831 53.9759 121.108 55.4666 121.23C57.0266 121.351 59.5053 121.559 62.7813 120.571C64.4799 120.051 68.7959 118.751 71.6906 114.747C72.4879 113.655 72.9386 112.58 73.8573 110.431C74.3426 109.287 75.5039 106.392 76.3879 102.18C76.3879 102.18 76.9773 99.3548 76.9426 92.4215C76.9426 91.6415 76.7693 90.9655 76.2839 90.3588C75.7293 89.5962 74.5853 88.9548 73.8746 89.2148Z" fill="#636E72"/>
<path opacity="0.25" d="M75.8501 101.885C75.6595 101.833 75.1395 104.624 72.7475 108.923C71.1875 111.748 69.1248 115.336 65.3288 118.023C61.4462 120.761 57.7888 121.108 57.8235 121.212C57.8582 121.351 65.2595 121.108 70.3035 116.237C75.9368 110.795 76.1795 101.972 75.8501 101.885Z" fill="#636E72"/>
<path d="M75.5211 86.4071C73.1118 88.0711 71.6905 89.9084 71.0145 90.7924C67.0105 96.0617 66.5425 101.799 66.3865 104.312C66.0225 109.894 67.5478 111.09 67.7558 119.826C67.8251 122.72 67.7211 125.095 67.6345 126.586C69.7491 128.128 74.2904 131.023 80.7731 131.838C88.7291 132.843 94.8478 130.139 97.1704 128.96C98.5224 127.695 100.377 125.771 102.093 123.102C103.861 120.363 105.092 117.434 106.756 110.622C107.744 106.566 108.888 101.175 109.772 94.6577C108.385 92.6644 103.497 86.2164 94.5358 83.9111C92.9238 83.4951 83.3211 81.0337 75.5211 86.4071Z" fill="#B2BEC3"/>
<path opacity="0.09" d="M93.3571 83.6687C93.9291 85.4367 94.5878 88.0194 94.7958 91.174C95.1598 96.426 94.1198 101.037 91.9011 106.895C88.0878 117.001 82.7838 125.511 78.5371 131.474C80.1491 131.751 82.0038 131.942 84.0491 131.925C89.6304 131.89 94.1198 130.347 97.0664 129.03C98.0891 128.042 99.5104 126.534 100.949 124.506C101.573 123.639 103.462 120.883 105.196 116.203C108.35 107.71 109.39 97.1713 109.616 94.606C108.229 92.5434 105.473 89.094 100.845 86.4767C98.0198 84.8647 95.3504 84.0847 93.3571 83.6687Z" fill="#636E72"/>
<path opacity="0.14" d="M109.165 97.5867C106.721 104.208 104.191 109.477 102.215 113.221C100.065 117.295 98.8347 119.583 96.7027 122.165C92.3866 127.383 87.204 130.364 83.1479 132.097C84.864 132.063 86.892 131.889 89.1106 131.473C92.2133 130.867 94.796 129.931 96.7893 129.029C98.02 128.059 99.7013 126.568 101.313 124.419C103.393 121.628 104.572 118.768 106.097 112.944C107.137 108.992 108.299 103.809 109.165 97.5867Z" fill="#636E72"/>
<path d="M68.5708 155.411C66.9415 158.306 65.3121 161.2 63.6828 164.095C52.0521 167.215 46.3321 169.434 46.5401 170.734C46.7481 172.138 53.8548 172.484 67.8255 171.756C70.9975 167.059 74.1695 162.344 77.3588 157.647C74.4295 156.902 71.5001 156.156 68.5708 155.411Z" fill="#2D3436"/>
<path d="M99.2852 125.442C103.74 128.076 104.433 135.79 102.371 141.146C99.0425 149.743 88.9719 151.286 88.5386 151.338C92.4906 146.796 94.4492 144.526 94.4492 144.508C94.4319 144.491 88.3132 151.442 76.0933 165.343C74.8973 165.187 69.9226 164.424 66.4039 160.056C64.3586 157.526 63.6999 154.874 63.4746 153.452C70.7719 145.028 78.0519 136.622 85.3492 128.198C89.6132 124.176 95.4026 123.154 99.2852 125.442Z" fill="white" stroke="#636E72" stroke-miterlimit="10"/>
<path opacity="0.16" d="M99.6148 125.893C99.7535 128.146 99.6668 131.543 98.1761 135.166C96.2695 139.829 93.0108 142.533 90.7748 144.335C84.2921 149.57 76.8908 155.446 68.4668 161.79C69.0735 162.362 69.8361 162.986 70.7895 163.558C72.7828 164.771 74.6895 165.239 75.9895 165.43C80.1841 160.715 84.3788 156.001 88.5735 151.286C89.7695 151.113 91.4508 150.749 93.3228 149.969C95.0908 149.223 98.2108 147.854 100.62 144.561C102.7 141.683 103.151 138.823 103.376 137.263C103.636 135.426 103.983 133.103 102.943 130.417C102.024 128.094 100.499 126.621 99.6148 125.893Z" fill="#636E72"/>
<path opacity="0.19" d="M102.925 131.734C102.544 134.022 101.729 137.194 99.8399 140.574C96.2346 146.953 90.9306 150.125 88.4692 151.407C90.4106 151.095 94.4666 150.159 98.0719 146.883C99.0946 145.947 101.14 144.058 102.388 140.817C103.913 136.778 103.272 133.19 102.925 131.734Z" fill="#636E72"/>
<path opacity="0.12" d="M94.2067 144.439C93.7387 143.971 86.268 150.523 71.7773 164.095C73.1467 164.581 74.4987 165.049 75.868 165.534C88.5387 151.927 94.6574 144.89 94.2067 144.439Z" fill="#636E72"/>
<path d="M46.7998 97.656C46.9731 97.656 47.1638 97.656 47.3371 97.656C47.3891 97.4653 47.4411 97.2573 47.4931 97.0667C47.7011 97.5 48.0478 98.2107 48.4811 99.0947C50.3878 102.96 50.7691 103.601 51.1158 104.763C51.3931 105.716 51.7225 107.085 51.8265 108.836C52.1558 108.611 52.6411 108.299 53.2651 107.952C56.6278 106.115 59.4358 106.097 61.9665 105.647C63.8558 105.3 66.5078 104.537 69.6104 102.683C69.4198 102.943 69.2291 103.22 69.0384 103.48C69.3331 103.584 69.6451 103.705 69.9398 103.809C70.1131 104.035 70.3385 104.399 70.5291 104.867C71.5345 107.345 70.0438 110.067 68.6051 112.563C62.7291 122.893 62.1225 123.431 61.0651 123.951C60.6318 124.176 56.2638 126.308 53.1611 124.332C52.5198 123.933 51.3585 122.98 49.8678 116.237C48.8451 111.644 48.7238 109.079 47.7531 103.047C47.3891 100.759 47.0425 98.8867 46.7998 97.656Z" fill="white" stroke="#636E72" stroke-miterlimit="10"/>
<path d="M47.7877 98.6095C49.261 101.764 50.717 104.971 51.1677 108.437C51.185 108.524 51.3064 108.524 51.3064 108.437C50.8557 104.936 49.3997 101.712 47.909 98.5402C47.857 98.4709 47.753 98.5402 47.7877 98.6095Z" fill="#2D3436"/>
<path d="M47.2331 98.0544C48.0997 99.8917 48.8104 101.781 49.3997 103.722C49.4171 103.809 49.5557 103.774 49.5211 103.688C48.9317 101.729 48.2037 99.8397 47.337 97.985C47.3024 97.9157 47.1984 97.985 47.2331 98.0544Z" fill="#2D3436"/>
<path d="M49.6081 103.619C50.1801 105.179 50.5614 106.791 50.7867 108.438C50.8041 108.524 50.9254 108.524 50.9254 108.438C50.7001 106.774 50.3187 105.162 49.7467 103.584C49.7121 103.515 49.5734 103.55 49.6081 103.619Z" fill="#2D3436"/>
<path d="M48.0998 101.157C48.8971 103.116 49.5905 105.127 50.1625 107.172C50.1798 107.259 50.3184 107.224 50.2838 107.137C49.7118 105.092 49.0184 103.081 48.2211 101.123C48.2038 101.036 48.0651 101.071 48.0998 101.157Z" fill="#2D3436"/>
<path d="M52.1386 109.269C54.3052 107.83 56.7319 106.894 59.3146 106.53C59.4012 106.513 59.3666 106.392 59.2799 106.409C56.6799 106.773 54.2532 107.709 52.0692 109.147C51.9999 109.199 52.0692 109.321 52.1386 109.269Z" fill="#2D3436"/>
<path d="M53.213 109.061C55.4663 107.692 58.0143 107.172 60.545 106.6C63.2317 105.993 65.849 105.179 68.397 104.139C68.4663 104.104 68.4317 103.983 68.3623 104.017C65.7277 105.109 63.0063 105.924 60.2157 106.548C57.7717 107.103 55.3103 107.64 53.1437 108.957C53.0917 108.992 53.1437 109.096 53.213 109.061Z" fill="#2D3436"/>
<path d="M52.7973 109.668C55.4666 108.402 58.1879 107.622 61.0479 106.929C63.856 106.236 66.5773 105.161 69.316 104.225C69.4026 104.19 69.368 104.069 69.2813 104.104C66.456 105.074 63.6306 106.201 60.7186 106.877C57.9626 107.536 55.3106 108.35 52.7279 109.564C52.6586 109.598 52.7279 109.702 52.7973 109.668Z" fill="#2D3436"/>
<path d="M46.7131 97.6211C47.9784 101.625 49.2611 105.612 50.5264 109.616C51.1504 109.824 51.7744 110.032 52.3984 110.24C58.3264 108.281 64.2371 106.34 70.1651 104.381C70.3731 104.554 70.5811 104.728 70.7891 104.918C71.4651 113.152 72.1584 121.368 72.8344 129.601C72.5918 129.757 72.3664 129.896 72.1238 130.052C66.1091 130.97 60.1118 131.889 54.0971 132.808C53.2304 132.6 52.3811 132.392 51.5144 132.184C50.7518 128.804 49.9718 125.441 49.2091 122.061C48.0824 114.07 46.9558 106.08 45.8291 98.0891C46.1238 97.9158 46.4184 97.7771 46.7131 97.6211Z" fill="white" stroke="#636E72" stroke-miterlimit="10"/>
<path d="M50.2319 109.72C50.5093 117.225 51.0466 124.748 51.4626 132.253C51.4799 132.496 51.8613 132.496 51.8613 132.253C51.4453 124.748 50.9079 117.243 50.6306 109.72C50.6133 109.477 50.2319 109.477 50.2319 109.72Z" fill="#2D3436"/>
<path d="M52.0348 110.205C52.2775 112.338 52.3815 114.47 52.3815 116.619C52.3815 116.862 52.7628 116.862 52.7802 116.619C52.7802 114.47 52.6762 112.338 52.4335 110.205C52.3988 109.945 52.0002 109.945 52.0348 110.205Z" fill="#2D3436"/>
<path d="M56.7666 110.795C56.8706 112.095 56.9573 113.395 57.0613 114.695C60.8919 113.534 64.7226 112.355 68.5359 111.194C68.4146 109.842 68.2932 108.49 68.1892 107.138C64.3759 108.368 60.5799 109.582 56.7666 110.795Z" fill="#0010F7"/>
<path opacity="0.16" d="M62.8155 106.982C62.8848 108.715 62.8328 112.598 60.6142 116.775C58.2568 121.212 54.8075 123.5 53.3168 124.367C53.2475 122.946 53.1608 121.524 53.0915 120.12C52.5021 121.108 51.9302 122.096 51.3408 123.084C51.4622 126.17 51.6008 129.255 51.7222 132.358C52.5542 132.531 53.3862 132.704 54.2355 132.895C60.0768 131.959 65.9355 131.023 71.7768 130.087C72.0888 129.966 72.3835 129.827 72.6955 129.706C72.0368 121.368 71.3781 113.048 70.7195 104.711C68.0848 105.474 65.4502 106.219 62.8155 106.982Z" fill="#636E72"/>
<path opacity="0.1" d="M52.1213 110.361C52 110.361 51.8613 113.568 51.948 117.052C52.052 122.009 52.52 124.176 52.3813 128.908C52.3293 130.45 52.2426 131.716 52.1733 132.53C52.8146 132.617 53.4733 132.704 54.1146 132.79C53.9933 131.941 53.82 130.71 53.6466 129.237C52.2946 118.213 52.312 110.361 52.1213 110.361Z" fill="#636E72"/>
<path d="M46.8169 109.669C46.6263 109.738 46.6436 110.085 46.4876 111.697C46.3836 112.789 46.3489 112.806 46.3836 113.066C46.4703 113.794 46.7303 113.933 46.8169 114.765C46.8689 115.302 46.7649 115.371 46.8516 115.822C46.9556 116.377 47.1983 116.793 47.3889 117.053C47.3889 117.226 47.4236 117.521 47.5623 117.815C47.8396 118.353 48.4809 118.821 48.8276 118.647C49.0183 118.561 49.0703 118.197 49.1569 117.486C49.2436 116.827 49.1916 116.793 49.2609 116.03C49.3303 115.406 49.3823 115.285 49.3303 114.973C49.2783 114.591 49.1396 114.47 49.0009 114.071C48.8103 113.517 48.8969 113.309 48.7756 112.737C48.6023 111.783 48.1516 111.107 47.9089 110.743C47.6663 110.345 47.1289 109.565 46.8169 109.669Z" fill="white"/>
<path d="M46.68 109.495C45.744 111.523 46.68 113.794 48.7947 114.539C49.0374 114.626 49.1414 114.244 48.8987 114.158C47.0267 113.499 46.1947 111.488 47.0267 109.686C47.1307 109.478 46.784 109.27 46.68 109.495Z" fill="#2D3436"/>
<path d="M46.7477 109.824C47.9957 110.986 48.7237 112.511 48.8277 114.21C48.845 114.452 49.2264 114.452 49.2264 114.21C49.1224 112.407 48.3597 110.778 47.025 109.547C46.8343 109.374 46.557 109.651 46.7477 109.824Z" fill="#2D3436"/>
<path d="M46.245 111.921C45.7943 113.949 46.9903 115.874 49.053 116.307C49.2957 116.359 49.3997 115.977 49.157 115.925C47.3197 115.544 46.2103 113.863 46.6263 112.008C46.661 111.783 46.297 111.679 46.245 111.921Z" fill="#2D3436"/>
<path d="M46.6087 114.487C46.2447 116.029 47.1807 117.503 48.7407 117.797C48.9834 117.849 49.0873 117.468 48.8447 117.416C47.4927 117.173 46.6607 115.943 46.9727 114.591C47.042 114.348 46.678 114.244 46.6087 114.487Z" fill="#2D3436"/>
<path d="M47.1117 116.948C47.0424 117.694 47.4758 118.439 48.1691 118.716C48.4638 118.838 48.8451 118.855 49.0704 118.595C49.3131 118.318 49.2091 117.902 49.0704 117.607C48.9837 117.382 48.6024 117.486 48.6891 117.711C48.7758 117.902 48.9491 118.283 48.6717 118.404C48.4637 118.491 48.1344 118.283 47.9784 118.162C47.6144 117.867 47.4411 117.416 47.4931 116.948C47.5277 116.706 47.1464 116.706 47.1117 116.948Z" fill="#2D3436"/>
<path d="M48.8969 117.763C49.2782 117.763 49.4342 117.381 49.4862 117.052C49.5556 116.653 49.4862 116.237 49.2782 115.891C49.1569 115.665 48.8102 115.873 48.9489 116.081C49.0702 116.289 49.1395 116.515 49.1395 116.74C49.1395 116.861 49.1049 117.364 48.8969 117.364C48.6542 117.381 48.6542 117.763 48.8969 117.763Z" fill="#2D3436"/>
<path d="M49.3825 116.169C49.6252 115.943 49.6252 115.51 49.5732 115.198C49.5212 114.799 49.3478 114.453 49.0705 114.158C48.8972 113.967 48.6198 114.245 48.7932 114.435C48.9665 114.626 49.1052 114.851 49.1572 115.129C49.1918 115.319 49.2438 115.735 49.0878 115.891C48.9318 116.082 49.2092 116.359 49.3825 116.169Z" fill="#2D3436"/>
<path d="M104.745 91.7285C100.308 91.7978 97.4305 98.5924 96.5639 100.638C95.3159 103.602 95.5412 104.832 93.7385 112.511C93.1145 115.215 92.5252 117.399 92.1439 118.803C90.5319 119.583 87.3772 120.814 83.3905 120.467C81.0159 120.259 78.3292 120.016 76.4052 118.058C74.5332 116.151 74.7239 114.019 72.7479 113.36C71.4652 112.927 69.9226 113.326 69.7319 113.915C69.6106 114.331 70.1826 114.66 70.9106 116.064C71.1706 116.584 71.3612 117.018 71.4652 117.347C69.1426 117.971 67.2012 118.214 65.7626 118.318C62.2786 118.56 59.9559 118.11 59.2626 119.34C58.9852 119.826 58.8812 120.779 59.3492 121.438C59.5919 121.784 59.9212 121.958 60.1292 122.044C60.0946 122.096 59.5919 122.738 59.8519 123.535C60.0946 124.28 60.7706 124.54 60.8399 124.558C60.8052 124.644 60.5106 125.355 60.9266 126.066C61.3252 126.742 62.0359 126.88 62.1226 126.88C62.0532 127.123 61.9839 127.539 62.1572 127.938C62.4172 128.562 63.0932 128.839 63.6826 129.03C66.8546 130.018 69.4719 129.602 69.4719 129.602C72.4359 129.134 74.6372 127.799 75.9199 126.846C77.2719 128.076 80.0452 130.26 84.1705 131.335C85.6439 131.716 90.2199 132.86 95.2465 130.971C100.585 128.978 103.272 124.766 105.595 121.126C108.091 117.208 109.009 113.898 110.223 109.547C111.939 103.376 112.771 100.222 111.228 96.9631C110.188 94.6405 107.675 91.6765 104.745 91.7285Z" fill="white" stroke="#636E72" stroke-miterlimit="10"/>
<path d="M59.8867 122.061C62.1573 122.807 64.532 122.893 66.8373 122.339C67.08 122.287 66.976 121.905 66.7333 121.957C64.48 122.495 62.192 122.408 59.9906 121.68C59.748 121.611 59.644 121.975 59.8867 122.061Z" fill="#2D3436"/>
<path d="M60.8227 124.679C63.0413 125.234 65.312 125.251 67.548 124.766C67.7906 124.714 67.6866 124.333 67.444 124.385C65.2773 124.853 63.076 124.818 60.9267 124.298C60.684 124.229 60.58 124.61 60.8227 124.679Z" fill="#2D3436"/>
<path d="M61.8974 126.95C63.8907 127.557 65.9361 127.661 67.9641 127.245C68.2067 127.193 68.1027 126.811 67.8601 126.863C65.8841 127.262 63.9081 127.158 62.0014 126.569C61.7587 126.499 61.6547 126.881 61.8974 126.95Z" fill="#2D3436"/>
<path opacity="0.12" d="M108.767 93.3062C108.628 96.4955 108.125 101.279 106.392 106.809C104.381 113.222 102.249 120.017 95.8185 124.246C94.2065 125.303 89.9945 128.042 84.2225 127.557C79.9065 127.193 76.8039 125.217 75.3825 124.159C72.5919 125.477 70.1825 125.997 68.5879 126.205C66.5425 126.482 65.1039 126.395 64.7225 126.361C63.0759 126.239 61.7412 125.893 60.7705 125.563C61.1692 126.014 61.5679 126.465 61.9492 126.898C61.8972 127.227 61.8798 127.765 62.1918 128.233C62.5385 128.77 63.1452 128.978 64.2372 129.186C65.7278 129.463 66.4732 129.602 67.7905 129.585C68.9865 129.55 70.6679 129.498 72.6785 128.718C73.5105 128.389 74.6372 127.851 75.8332 126.898C76.5785 127.522 77.6879 128.371 79.1439 129.186C80.8252 130.139 84.3092 132.063 89.0932 132.029C90.4625 132.011 93.6345 131.959 97.0665 130.139C99.2679 128.961 100.603 127.574 101.955 126.118C104.797 123.067 106.253 120.173 107.397 117.833C109.217 114.123 109.945 111.298 111.02 107.017C112.32 101.938 112.199 100.395 111.973 99.2861C111.436 96.4955 109.876 94.4848 108.767 93.3062Z" fill="#636E72"/>
<path opacity="0.2" d="M111.453 103.723C109.806 109.443 107.778 113.915 106.184 116.983C102.266 124.558 99.5278 126.464 98.5744 127.088C95.3158 129.203 92.1091 129.619 90.7571 129.775C82.4544 130.676 76.1798 126.17 75.9198 126.69C75.7118 127.106 79.5078 130.278 84.7598 131.422C86.3198 131.768 90.9824 132.722 96.0438 130.468C99.7878 128.804 101.868 126.222 103.462 124.228C105.75 121.386 106.825 118.838 108.038 115.856C109.217 113.048 110.621 108.94 111.453 103.723Z" fill="#636E72"/>
<path opacity="0.12" d="M62.2783 127.955C63.4917 128.337 64.9997 128.666 66.785 128.753C71.049 128.943 74.3597 127.522 76.093 126.621C75.4517 127.227 72.5223 129.862 68.1197 129.775C65.277 129.723 63.197 128.562 62.2783 127.955Z" fill="#636E72"/>
<path d="M74.7067 63.1801C74.1347 64.1508 73.996 65.9535 73.7187 69.5588C73.424 73.4588 73.632 75.2268 73.4934 78.1215C73.3894 80.3922 73.0774 83.6335 72.1587 87.5682C73.7187 90.5322 75.5907 91.6588 76.6134 92.1268C81.7787 94.5188 88.244 90.7402 92.5254 88.2268C94.6227 86.9962 96.2174 85.8002 97.2054 85.0028C96.7894 84.1708 96.2174 82.9228 95.7667 81.3282C95.0214 78.7628 95.0907 77.2201 94.8827 74.3255C94.38 67.4788 94.3627 65.9535 93.3227 63.8735C92.8027 62.8335 92.3694 61.9321 91.468 61.0828C87.152 57.0441 77.4974 58.5001 74.7067 63.1801Z" fill="white" stroke="#636E72" stroke-miterlimit="10"/>
<path d="M73.3717 74.7064C72.6611 75.6944 71.3264 77.8264 70.8931 80.8771C70.7197 82.1598 70.5637 84.6211 71.5864 87.4464C72.0371 88.6771 73.1291 91.5024 76.0584 93.4958C77.7224 94.6398 79.3691 95.0558 80.3571 95.2464C79.7677 94.6051 79.1957 93.9638 78.6064 93.3224C79.2304 93.6691 80.7211 94.3798 82.7144 94.2931C83.3211 94.2584 85.2798 94.1024 87.0998 92.7158C88.4344 91.6931 88.9891 90.5318 89.9078 88.5211C91.1211 85.8864 91.9704 83.9971 91.9184 81.5184C91.8491 78.2944 90.3064 77.5318 90.8611 74.5158C90.9824 73.8398 91.3638 71.7598 92.6118 71.4478C93.2011 71.3091 93.8425 71.6038 94.1891 71.9678C94.9345 72.7478 94.8651 74.3424 93.7558 75.6424C94.2931 75.5211 95.5238 75.1224 96.3905 73.9784C97.7078 72.2104 97.3785 69.6624 96.1305 68.2064C95.8184 67.8424 95.2465 67.1664 94.3798 67.0624C93.2184 66.9238 92.2478 67.9291 90.5318 69.9571C86.9438 74.2038 86.9958 74.9491 85.1931 76.2664C83.0264 77.8438 81.0678 78.1384 80.4958 78.2251C79.5251 78.3464 78.0691 78.5198 76.4744 77.7918C74.5677 76.8904 73.6664 75.2958 73.3717 74.7064Z" fill="#2D3436"/>
<path d="M78.6585 69.8187C78.2078 72.072 77.9478 74.3947 77.9652 76.7C77.9652 77.2027 77.9652 77.9654 78.5892 78.1214C79.2479 78.2774 80.2185 77.4627 80.7039 77.1334C80.9812 76.9427 80.7212 76.492 80.4438 76.6827C80.0105 76.9774 78.5718 78.0347 78.4852 77.0294C78.4332 76.284 78.5025 75.4867 78.5372 74.7414C78.6238 73.1294 78.8492 71.5347 79.1612 69.9574C79.2305 69.6454 78.7278 69.5067 78.6585 69.8187Z" fill="#2D3436"/>
<path d="M75.9717 71.76C75.7117 71.344 75.6944 70.8414 75.9544 70.4254C75.7984 70.408 75.6424 70.3907 75.4864 70.356C75.6771 70.8414 75.7637 71.3614 75.6944 71.8814C75.8157 71.8294 75.9544 71.7774 76.0757 71.7254C76.0237 71.6907 75.9717 71.6734 75.9197 71.6387C75.6251 71.4827 75.3651 71.9334 75.6597 72.0894C75.7117 72.124 75.7637 72.1414 75.8157 72.1761C75.9544 72.2454 76.1797 72.1934 76.1971 72.0201C76.2837 71.396 76.2317 70.7894 75.9891 70.2174C75.9024 70.0094 75.6424 69.9574 75.5211 70.148C75.1744 70.72 75.1744 71.4307 75.5384 72.0027C75.6944 72.3147 76.1451 72.0547 75.9717 71.76Z" fill="#2D3436"/>
<path d="M83.425 71.6044C83.321 71.4137 83.2517 71.223 83.2517 70.9977C83.2517 70.8937 83.269 70.807 83.2863 70.703C83.3037 70.651 83.321 70.599 83.3383 70.547C83.4077 70.443 83.3557 70.4257 83.1823 70.4777C83.165 70.495 83.3037 71.0324 83.3037 71.0844C83.321 71.327 83.2863 71.5697 83.2343 71.8124C83.373 71.7777 83.529 71.743 83.6677 71.691C83.5463 71.587 83.477 71.483 83.477 71.3097C83.4597 70.9804 82.9397 70.9804 82.957 71.3097C82.9743 71.6044 83.0783 71.8644 83.3037 72.055C83.4423 72.1764 83.685 72.1417 83.737 71.9337C83.8237 71.5177 83.841 71.0844 83.7717 70.6684C83.7197 70.391 83.6157 69.9404 83.2517 69.975C82.905 70.0097 82.801 70.4777 82.7663 70.755C82.7143 71.1364 82.801 71.5004 82.9917 71.847C83.1477 72.159 83.5983 71.899 83.425 71.6044Z" fill="#2D3436"/>
<path d="M82.9572 70.6684C82.9919 70.9804 83.0092 71.2924 83.0439 71.6044C83.0786 71.9337 83.5986 71.9337 83.5639 71.6044C83.5292 71.2924 83.5119 70.9804 83.4772 70.6684C83.4426 70.3391 82.9226 70.3391 82.9572 70.6684Z" fill="#2D3436"/>
<path d="M82.9225 71.3788C82.8705 71.6042 82.8532 71.8642 83.0265 72.0202C83.1998 72.1762 83.4772 72.2108 83.6332 72.0202C83.7198 71.9162 83.7372 71.7602 83.6332 71.6562C83.5465 71.5695 83.3558 71.5522 83.2692 71.6562C83.2345 71.7082 83.3038 71.6388 83.3385 71.6215C83.3558 71.6215 83.3905 71.6215 83.3732 71.6215C83.3558 71.6215 83.4078 71.6388 83.3732 71.6215C83.3905 71.6388 83.3905 71.6562 83.4078 71.6735C83.4252 71.6908 83.4078 71.6388 83.4078 71.6562C83.4078 71.6735 83.4078 71.6215 83.4078 71.6042C83.4078 71.6388 83.4078 71.5868 83.4078 71.5868C83.4078 71.5522 83.4252 71.5348 83.4252 71.5002C83.4598 71.3615 83.3905 71.2055 83.2518 71.1882C83.1132 71.1708 82.9572 71.2402 82.9225 71.3788Z" fill="#2D3436"/>
<path d="M75.4 70.2699C75.2614 70.7899 75.2614 71.3445 75.452 71.8645C75.556 72.1765 76.0587 72.0378 75.9547 71.7258C75.7987 71.2925 75.7814 70.8592 75.9027 70.4085C75.9894 70.0965 75.4867 69.9579 75.4 70.2699Z" fill="#2D3436"/>
<path d="M75.8676 71.1704C75.8156 70.9624 75.8329 70.7371 75.8849 70.5291C75.7116 70.4771 75.5556 70.4425 75.3823 70.3905C75.313 70.7198 75.3129 71.0318 75.3649 71.3611C75.3823 71.4998 75.5556 71.5691 75.6769 71.5344C75.8156 71.4998 75.8849 71.3611 75.8503 71.2224C75.8156 70.9971 75.8156 70.7544 75.8676 70.5291C75.9369 70.1998 75.4516 70.0611 75.3649 70.3905C75.2956 70.7024 75.2956 70.9971 75.3476 71.3091C75.4343 71.6384 75.9196 71.4998 75.8676 71.1704Z" fill="#2D3436"/>
<path d="M74.7412 69.2819C75.0185 68.4672 76.0066 68.3112 76.5612 68.9525C76.7346 69.1432 76.9946 68.8659 76.8386 68.6752C76.0759 67.8085 74.7412 68.1032 74.3772 69.1779C74.2732 69.4205 74.6545 69.5245 74.7412 69.2819Z" fill="#2D3436"/>
<path d="M82.0905 69.2814C82.7145 68.2761 84.1879 68.9348 84.5519 69.8014C84.6386 70.0268 85.0199 69.9228 84.9332 69.6974C84.4479 68.5014 82.5759 67.7908 81.7612 69.0734C81.6225 69.2988 81.9692 69.4894 82.0905 69.2814Z" fill="#2D3436"/>
<path d="M67.6346 64.2892C77.1679 65.5545 86.6839 66.8025 96.2173 68.0679C97.2053 68.2065 97.2053 66.6292 96.2173 66.5079C86.6839 65.2425 77.1679 63.9945 67.6346 62.7292C66.6466 62.5905 66.6466 64.1505 67.6346 64.2892Z" fill="#2D3436"/>
<path d="M74.2905 63.6309C74.5159 62.4869 75.0532 60.6149 76.4052 58.7083C76.9425 57.9456 77.8785 56.6109 79.4905 55.6576C82.5412 53.8376 87.2212 54.0109 90.6012 56.2989C93.9118 58.5349 95.5412 62.4869 94.7958 66.4216C87.9665 65.4856 81.1198 64.5669 74.2905 63.6309Z" fill="#0010F7"/>
<path d="M83.6333 54.5657C86.3026 55.103 88.296 57.2697 88.5386 59.8177C88.7466 61.915 87.724 64.0123 85.904 65.2603C88.9026 65.6417 91.884 66.0403 94.8826 66.4217C95.0386 65.6937 95.1946 64.6017 95.004 63.319C94.588 60.407 92.8373 58.5697 92.0573 57.7723C91.4506 57.1657 89.232 54.9643 85.748 54.5657C84.8986 54.4617 84.1533 54.5137 83.6333 54.5657Z" fill="#2D3436"/>
<path opacity="0.24" d="M85.384 66.6465C85.6613 67.6172 85.9386 68.9171 85.9213 70.4598C85.8866 73.4585 84.8293 75.7465 84.1533 76.9251C84.7253 76.6478 85.54 76.1798 86.32 75.3998C86.8746 74.8451 87.0826 74.4465 87.672 73.5798C87.672 73.5798 88.66 72.1238 90.1333 70.3558C90.7053 69.6625 91.5546 68.6918 92.7333 67.5998C90.272 67.2705 87.828 66.9585 85.384 66.6465Z" fill="#636E72"/>
<path opacity="0.22" d="M92.4213 71.4134C91.9706 71.5867 91.7106 71.9334 91.5373 72.1761C91.3293 72.4707 91.1039 72.8867 90.9479 73.9961C90.8093 74.9494 90.6706 75.8161 90.8613 76.9254C90.9999 77.7574 91.1733 77.7747 91.4506 78.7974C91.5719 79.2307 91.9533 80.652 91.8666 82.316C91.8146 83.5814 91.5199 84.4654 91.1039 85.7134C90.7226 86.84 90.0986 88.3827 89.0586 90.1334C90.9653 89.0587 92.9066 87.88 94.8653 86.6147C95.6799 86.0947 96.4599 85.5747 97.2399 85.0374C96.8066 84.292 96.3733 83.4254 96.0093 82.4547C94.9346 79.6121 94.7786 77.0121 94.8653 75.1921C94.5359 75.3307 94.2066 75.4694 93.8946 75.6081C94.9173 73.9961 94.8653 72.3321 94.1026 71.7081C93.7559 71.3961 93.0453 71.1707 92.4213 71.4134Z" fill="#636E72"/>
<path opacity="0.21" d="M94.4665 72.3496C94.3105 72.9909 94.0851 73.7363 93.7038 74.5509C93.4265 75.1403 93.1318 75.643 92.8545 76.0763C93.3745 76.631 94.2238 77.723 94.5878 79.3003C94.9865 80.999 94.6225 82.3683 94.2065 83.8763C93.9118 84.9856 93.3225 86.6323 92.1611 88.4176C93.7905 87.3083 95.4198 86.2163 97.0491 85.107C96.4251 83.7203 95.7665 81.9003 95.3505 79.6816C95.0385 77.983 94.9518 76.4403 94.9691 75.175C94.5531 75.331 94.1545 75.4869 93.7385 75.643C93.9291 75.4523 94.3971 74.9323 94.5878 74.1176C94.7785 73.2856 94.5531 72.5923 94.4665 72.3496Z" fill="#636E72"/>
<path opacity="0.19" d="M85.2627 66.5776C87.3254 67.3056 89.4053 68.0336 91.468 68.7616C91.936 68.3803 92.404 67.9816 92.8893 67.6003C90.3413 67.2536 87.8107 66.907 85.2627 66.5776Z" fill="#636E72"/>
</svg>
