<svg width="250" height="148" viewBox="0 0 250 148" fill="none" xmlns="http://www.w3.org/2000/svg">
<path fill-rule="evenodd" clip-rule="evenodd" d="M63 114H154C154.515 114 155.017 113.944 155.5 113.839C155.983 113.944 156.485 114 157 114H209C212.866 114 216 110.866 216 107C216 103.134 212.866 100 209 100H203C199.134 100 196 96.866 196 93C196 89.134 199.134 86 203 86H222C225.866 86 229 82.866 229 79C229 75.134 225.866 72 222 72H200C203.866 72 207 68.866 207 65C207 61.134 203.866 58 200 58H136C139.866 58 143 54.866 143 51C143 47.134 139.866 44 136 44H79C75.134 44 72 47.134 72 51C72 54.866 75.134 58 79 58H39C35.134 58 32 61.134 32 65C32 68.866 35.134 72 39 72H64C67.866 72 71 75.134 71 79C71 82.866 67.866 86 64 86H24C20.134 86 17 89.134 17 93C17 96.866 20.134 100 24 100H63C59.134 100 56 103.134 56 107C56 110.866 59.134 114 63 114ZM226 114C229.866 114 233 110.866 233 107C233 103.134 229.866 100 226 100C222.134 100 219 103.134 219 107C219 110.866 222.134 114 226 114Z" fill="#DFE6E9"/>
<path fill-rule="evenodd" clip-rule="evenodd" d="M96 46H163L157 55L165 61H94L103 55L96 46Z" fill="#EBFAFA"/>
<path d="M197.778 126.355L198.953 125.927C198.773 125.433 198.303 125.105 197.778 125.105C197.252 125.105 196.783 125.433 196.603 125.927L197.778 126.355ZM197.778 124.645L196.603 125.073C196.783 125.567 197.252 125.895 197.778 125.895C198.303 125.895 198.773 125.567 198.953 125.073L197.778 124.645ZM171.75 125.5C171.75 124.81 172.31 124.25 173 124.25V121.75C170.929 121.75 169.25 123.429 169.25 125.5H171.75ZM173 126.75C172.31 126.75 171.75 126.19 171.75 125.5H169.25C169.25 127.571 170.929 129.25 173 129.25V126.75ZM195.428 126.75H173V129.25H195.428V126.75ZM196.603 125.927C196.428 126.409 195.966 126.75 195.428 126.75V129.25C197.051 129.25 198.429 128.22 198.953 126.782L196.603 125.927ZM200.128 126.75C199.59 126.75 199.128 126.409 198.953 125.927L196.603 126.782C197.126 128.22 198.505 129.25 200.128 129.25V126.75ZM203 126.75H200.128V129.25H203V126.75ZM204.25 125.5C204.25 126.19 203.69 126.75 203 126.75V129.25C205.071 129.25 206.75 127.571 206.75 125.5H204.25ZM203 124.25C203.69 124.25 204.25 124.81 204.25 125.5H206.75C206.75 123.429 205.071 121.75 203 121.75V124.25ZM200.128 124.25H203V121.75H200.128V124.25ZM198.953 125.073C199.128 124.591 199.59 124.25 200.128 124.25V121.75C198.505 121.75 197.126 122.78 196.603 124.218L198.953 125.073ZM195.428 124.25C195.966 124.25 196.428 124.591 196.603 125.073L198.953 124.218C198.429 122.78 197.051 121.75 195.428 121.75V124.25ZM173 124.25H195.428V121.75H173V124.25ZM57.1279 123C55.7472 123 54.6279 124.119 54.6279 125.5H57.1279V123ZM64 123H57.1279V125.5H64V123ZM66.5 125.5C66.5 124.119 65.3807 123 64 123V125.5H66.5ZM64 128C65.3807 128 66.5 126.881 66.5 125.5H64V128ZM57.1279 128H64V125.5H57.1279V128ZM54.6279 125.5C54.6279 126.881 55.7472 128 57.1279 128V125.5H54.6279ZM70 123C68.6193 123 67.5 124.119 67.5 125.5H70V123ZM91.4541 123H70V125.5H91.4541V123ZM93.9541 125.5C93.9541 124.119 92.8348 123 91.4541 123V125.5H93.9541ZM91.4541 128C92.8348 128 93.9541 126.881 93.9541 125.5H91.4541V128ZM70 128H91.4541V125.5H70V128ZM67.5 125.5C67.5 126.881 68.6193 128 70 128V125.5H67.5Z" fill="#0010F7"/>
<path fill-rule="evenodd" clip-rule="evenodd" d="M93.0061 103.215V63C93.0061 61.3431 94.3658 60 96.043 60H165.522C166.615 60 167.5 60.8954 167.5 62V135C167.5 137.209 165.729 139 163.545 139H96.9611C94.7768 139 93.0061 137.209 93.0061 135V120.055V116M93.0061 111.897V107.394V111.897Z" fill="white"/>
<path d="M91.7561 103.215C91.7561 103.905 92.3157 104.465 93.0061 104.465C93.6965 104.465 94.2561 103.905 94.2561 103.215H91.7561ZM94.2561 116C94.2561 115.31 93.6965 114.75 93.0061 114.75C92.3157 114.75 91.7561 115.31 91.7561 116H94.2561ZM91.7561 111.897C91.7561 112.588 92.3158 113.147 93.0061 113.147C93.6965 113.147 94.2561 112.588 94.2561 111.897H91.7561ZM94.2561 107.394C94.2561 106.703 93.6965 106.144 93.0061 106.144C92.3158 106.144 91.7561 106.703 91.7561 107.394H94.2561ZM94.2561 103.215V63H91.7561V103.215H94.2561ZM94.2561 63C94.2561 62.0479 95.0417 61.25 96.043 61.25V58.75C93.6898 58.75 91.7561 60.6384 91.7561 63H94.2561ZM96.043 61.25H165.522V58.75H96.043V61.25ZM165.522 61.25C165.911 61.25 166.25 61.5724 166.25 62H168.75C168.75 60.2184 167.318 58.75 165.522 58.75V61.25ZM166.25 62V135H168.75V62H166.25ZM166.25 135C166.25 136.532 165.026 137.75 163.545 137.75V140.25C166.433 140.25 168.75 137.886 168.75 135H166.25ZM163.545 137.75H96.9611V140.25H163.545V137.75ZM96.9611 137.75C95.4805 137.75 94.2561 136.532 94.2561 135H91.7561C91.7561 137.886 94.0732 140.25 96.9611 140.25V137.75ZM94.2561 135V120.055H91.7561V135H94.2561ZM94.2561 120.055V116H91.7561V120.055H94.2561ZM94.2561 111.897V107.394H91.7561V111.897H94.2561Z" fill="#0010F7"/>
<path d="M95 60V48C95 46.8954 95.8036 46 96.7949 46L163.205 46C164.196 46 165 46.8954 165 48V60" stroke="#0010F7" stroke-width="2.5"/>
<circle cx="113.5" cy="77.5" r="3.5" fill="white" stroke="#0010F7" stroke-width="2.5"/>
<circle cx="146.5" cy="77.5" r="3.5" fill="white" stroke="#0010F7" stroke-width="2.5"/>
<ellipse rx="16" ry="8" transform="matrix(1 0 0 -1 130 89)" stroke="#0010F7" stroke-width="2.5" stroke-linecap="round"/>
<path d="M96.061 46.9968L103.168 54.0121C103.643 54.4811 103.534 55.2752 102.95 55.5986L95 60" stroke="#0010F7" stroke-width="2.5" stroke-linecap="round"/>
<path d="M164.109 47.0693L157.307 54.0066C156.843 54.4804 156.96 55.2669 157.542 55.5846L165.636 60" stroke="#0010F7" stroke-width="2.5" stroke-linecap="round"/>
<path d="M155.166 20.471L154.233 19.6393V19.6393L155.166 20.471ZM144.067 32.9241L143.134 32.0924L143.134 32.0924L144.067 32.9241ZM144.168 34.689L143.337 35.6221L143.337 35.6221L144.168 34.689ZM145.933 34.5876L146.866 35.4193L146.866 35.4193L145.933 34.5876ZM157.033 22.1345L157.966 22.9662V22.9662L157.033 22.1345ZM104.933 20.471L104 21.3027H104L104.933 20.471ZM103.067 22.1345L104 21.3027L104 21.3027L103.067 22.1345ZM114.166 34.5876L113.233 35.4193L114.166 34.5876ZM115.931 34.689L116.763 35.6221L116.763 35.6221L115.931 34.689ZM116.033 32.9241L116.966 32.0924L116.033 32.9241ZM132.5 17C132.5 15.6193 131.381 14.5 130 14.5V17H132.5ZM132.5 33.7559V17H130V33.7559H132.5ZM130 36.2559C131.381 36.2559 132.5 35.1366 132.5 33.7559H130V36.2559ZM127.5 33.7559C127.5 35.1366 128.619 36.2559 130 36.2559V33.7559H127.5ZM127.5 17V33.7559H130V17H127.5ZM130 14.5C128.619 14.5 127.5 15.6193 127.5 17H130V14.5ZM156.1 21.3027L156.1 21.3027L157.763 19.4365C156.732 18.5178 155.152 18.6086 154.233 19.6393L156.1 21.3027ZM145 33.7559L156.1 21.3027L154.233 19.6393L143.134 32.0924L145 33.7559ZM145 33.7559L145 33.7559L143.134 32.0924C142.215 33.1231 142.306 34.7034 143.337 35.6221L145 33.7559ZM145 33.7559L145 33.7559L143.337 35.6221C144.367 36.5408 145.948 36.45 146.866 35.4193L145 33.7559ZM156.1 21.3027L145 33.7559L146.866 35.4193L157.966 22.9662L156.1 21.3027ZM156.1 21.3027L156.1 21.3027L157.966 22.9662C158.885 21.9355 158.794 20.3551 157.763 19.4365L156.1 21.3027ZM104 21.3027H104L105.866 19.6393C104.948 18.6086 103.367 18.5178 102.337 19.4365L104 21.3027ZM104 21.3027L104 21.3027L102.337 19.4365C101.306 20.3551 101.215 21.9355 102.134 22.9662L104 21.3027ZM115.1 33.7559L104 21.3027L102.134 22.9662L113.233 35.4193L115.1 33.7559ZM115.1 33.7559H115.1L113.233 35.4193C114.152 36.45 115.732 36.5408 116.763 35.6221L115.1 33.7559ZM115.1 33.7559L115.1 33.7559L116.763 35.6221C117.794 34.7034 117.885 33.1231 116.966 32.0924L115.1 33.7559ZM104 21.3027L115.1 33.7559L116.966 32.0924L105.866 19.6393L104 21.3027Z" fill="#0063F7"/>
</svg>
