<svg width="250" height="161" viewBox="0 0 250 161" fill="none" xmlns="http://www.w3.org/2000/svg">
<path fill-rule="evenodd" clip-rule="evenodd" d="M81 133H164C167.866 133 171 129.866 171 126C171 122.134 167.866 119 164 119C164 119 158 115.866 158 112C158 108.134 161.952 105 166.826 105H177C180.866 105 184 101.866 184 98C184 94.134 180.866 91 177 91H155C158.866 91 162 87.866 162 84C162 80.134 158.866 77 155 77H195C198.866 77 202 73.866 202 70C202 66.134 198.866 63 195 63H97C93.134 63 90 66.134 90 70C90 73.866 93.134 77 97 77H57C53.134 77 50 80.134 50 84C50 87.866 53.134 91 57 91H82C85.866 91 89 94.134 89 98C89 101.866 85.866 105 82 105H42C38.134 105 35 108.134 35 112C35 115.866 38.134 119 42 119H81C77.134 119 74 122.134 74 126C74 129.866 77.134 133 81 133ZM188 98C188 101.866 191.134 105 195 105C198.866 105 202 101.866 202 98C202 94.134 198.866 91 195 91C191.134 91 188 94.134 188 98Z" fill="#DFE6E9"/>
<mask id="path-2-inside-1" fill="white">
<path fill-rule="evenodd" clip-rule="evenodd" d="M101 123.991C100.834 123.997 100.667 124 100.5 124C91.9396 124 85 116.389 85 107C85 97.6112 91.9396 90 100.5 90C100.667 90 100.834 90.0029 101 90.0087V80C101 77.7909 102.791 76 105 76H146C148.209 76 150 77.7909 150 80V141C150 142.105 149.105 143 148 143H103C101.895 143 101 142.105 101 141V123.991ZM101 115.48V98.52C100.835 98.5067 100.668 98.5 100.5 98.5C96.5051 98.5 93.2667 102.306 93.2667 107C93.2667 111.694 96.5051 115.5 100.5 115.5C100.668 115.5 100.835 115.493 101 115.48Z"/>
</mask>
<path fill-rule="evenodd" clip-rule="evenodd" d="M101 123.991C100.834 123.997 100.667 124 100.5 124C91.9396 124 85 116.389 85 107C85 97.6112 91.9396 90 100.5 90C100.667 90 100.834 90.0029 101 90.0087V80C101 77.7909 102.791 76 105 76H146C148.209 76 150 77.7909 150 80V141C150 142.105 149.105 143 148 143H103C101.895 143 101 142.105 101 141V123.991ZM101 115.48V98.52C100.835 98.5067 100.668 98.5 100.5 98.5C96.5051 98.5 93.2667 102.306 93.2667 107C93.2667 111.694 96.5051 115.5 100.5 115.5C100.668 115.5 100.835 115.493 101 115.48Z" fill="white"/>
<path d="M100.5 124V121.5V124ZM101 90.0087L100.913 92.5072L103.5 92.5971V90.0087H101ZM101 98.52H103.5V96.2125L101.2 96.028L101 98.52ZM100.913 121.493C100.776 121.498 100.638 121.5 100.5 121.5V126.5C100.696 126.5 100.892 126.497 101.087 126.49L100.913 121.493ZM100.5 121.5C93.5326 121.5 87.5 115.23 87.5 107H82.5C82.5 117.547 90.3465 126.5 100.5 126.5V121.5ZM87.5 107C87.5 98.7695 93.5326 92.5 100.5 92.5V87.5C90.3465 87.5 82.5 96.4528 82.5 107H87.5ZM100.5 92.5C100.638 92.5 100.776 92.5024 100.913 92.5072L101.087 87.5102C100.892 87.5034 100.696 87.5 100.5 87.5V92.5ZM103.5 90.0087V80H98.5V90.0087H103.5ZM103.5 80C103.5 79.1716 104.172 78.5 105 78.5V73.5C101.41 73.5 98.5 76.4101 98.5 80H103.5ZM105 78.5H146V73.5H105V78.5ZM146 78.5C146.828 78.5 147.5 79.1716 147.5 80H152.5C152.5 76.4101 149.59 73.5 146 73.5V78.5ZM147.5 80V141H152.5V80H147.5ZM147.5 141C147.5 140.724 147.724 140.5 148 140.5V145.5C150.485 145.5 152.5 143.485 152.5 141H147.5ZM148 140.5H103V145.5H148V140.5ZM103 140.5C103.276 140.5 103.5 140.724 103.5 141H98.5C98.5 143.485 100.515 145.5 103 145.5V140.5ZM103.5 141V123.991H98.5V141H103.5ZM103.5 115.48V98.52H98.5V115.48H103.5ZM101.2 96.028C100.968 96.0094 100.735 96 100.5 96V101C100.601 101 100.701 101.004 100.8 101.012L101.2 96.028ZM100.5 96C94.7613 96 90.7667 101.318 90.7667 107H95.7667C95.7667 103.293 98.2489 101 100.5 101V96ZM90.7667 107C90.7667 112.682 94.7613 118 100.5 118V113C98.2489 113 95.7667 110.707 95.7667 107H90.7667ZM100.5 118C100.735 118 100.968 117.991 101.2 117.972L100.8 112.988C100.701 112.996 100.601 113 100.5 113V118Z" fill="#0010F7" mask="url(#path-2-inside-1)"/>
<path d="M141 85.1816H143.5C143.5 83.8009 142.381 82.6816 141 82.6816V85.1816ZM141 85.1816V82.6816C139.619 82.6816 138.5 83.8009 138.5 85.1816H141ZM141 103.5V85.1816H138.5V103.5H141ZM141 103.5H138.5C138.5 104.881 139.619 106 141 106V103.5ZM141 103.5V106C142.381 106 143.5 104.881 143.5 103.5H141ZM141 85.1816V103.5H143.5V85.1816H141ZM141 109.182H143.5C143.5 107.801 142.381 106.682 141 106.682V109.182ZM141 109.182V106.682C139.619 106.682 138.5 107.801 138.5 109.182H141ZM141 113.925V109.182H138.5V113.925H141ZM141 113.925H138.5C138.5 115.306 139.619 116.425 141 116.425V113.925ZM141 113.925V116.425C142.381 116.425 143.5 115.306 143.5 113.925H141ZM141 109.182V113.925H143.5V109.182H141Z" fill="#0063F7"/>
<path d="M67.1279 135.5V133C65.7472 133 64.6279 134.119 64.6279 135.5H67.1279ZM67.1279 135.5H64.6279C64.6279 136.881 65.7472 138 67.1279 138V135.5ZM74 135.5H67.1279V138H74V135.5ZM74 135.5V138C75.3807 138 76.5 136.881 76.5 135.5H74ZM74 135.5H76.5C76.5 134.119 75.3807 133 74 133V135.5ZM67.1279 135.5H74V133H67.1279V135.5ZM181.128 135.5V133C179.747 133 178.628 134.119 178.628 135.5H181.128ZM181.128 135.5H178.628C178.628 136.881 179.747 138 181.128 138V135.5ZM184 135.5H181.128V138H184V135.5ZM184 135.5V138C185.381 138 186.5 136.881 186.5 135.5H184ZM184 135.5H186.5C186.5 134.119 185.381 133 184 133V135.5ZM181.128 135.5H184V133H181.128V135.5ZM154 133C152.619 133 151.5 134.119 151.5 135.5H154V133ZM176.428 133H154V135.5H176.428V133ZM178.928 135.5C178.928 134.119 177.808 133 176.428 133V135.5H178.928ZM176.428 138C177.808 138 178.928 136.881 178.928 135.5H176.428V138ZM154 138H176.428V135.5H154V138ZM151.5 135.5C151.5 136.881 152.619 138 154 138V135.5H151.5ZM80 135.5V133C78.6193 133 77.5 134.119 77.5 135.5H80ZM80 135.5H77.5C77.5 136.881 78.6193 138 80 138V135.5ZM101.454 135.5H80V138H101.454V135.5ZM101.454 135.5V138C102.835 138 103.954 136.881 103.954 135.5H101.454ZM101.454 135.5H103.954C103.954 134.119 102.835 133 101.454 133V135.5ZM80 135.5H101.454V133H80V135.5Z" fill="#0010F7"/>
<path d="M128 35C128 35 124 41.3203 124 46C124 51.5562 128.654 54.0444 128.654 60.063C128.654 64.645 124 69.1621 124 69.1621" stroke="#0063F7" stroke-width="2.5" stroke-linecap="round"/>
<path d="M116 46C115.128 51.5127 119 52.5322 119 57.4746C119 61.2373 116 65 116 65" stroke="#0063F7" stroke-width="2.5" stroke-linecap="round"/>
<path d="M134.795 43.4741C133.474 46.8933 134.216 48.9774 134.795 50.2041C136.033 52.8262 138 55.0896 138 57.7578C138 62.4062 134.795 66.7051 134.795 66.7051" stroke="#0063F7" stroke-width="2.5" stroke-linecap="round"/>
</svg>
