<svg width="1440" height="1080" viewBox="0 0 1440 1080" fill="none" xmlns="http://www.w3.org/2000/svg">
<g clip-path="url(#clip0)">
<path d="M-162.422 1083.42C-194.319 994.856 -223.115 870.393 -162.422 784.289C-108.066 707.175 -31.3655 730.962 61.0529 647.349C160.823 557.071 120.338 485.096 216.041 319.391C315.613 146.999 398.047 158.038 461.14 23.8678C498.641 -55.8549 526.758 -181.489 471.955 -376.168" stroke="#0063F7" stroke-width="13" stroke-miterlimit="10"/>
<path d="M-132.674 1098.28C-162 1009.61 -187.697 885.781 -126.444 799.299C-72.0037 722.38 4.22382 742.318 96.8368 660.555C188.835 579.329 169.806 517.13 236.233 387.678C243.817 372.901 252.695 357.341 262.667 340.603C362.448 173.121 443.914 178.385 506.411 40.3807C543.482 -41.3026 571.171 -168.416 518.619 -363.573" stroke="#0063F7" stroke-width="13" stroke-miterlimit="10"/>
<path d="M-102.924 1113.14C-129.679 1024.36 -152.283 901.172 -90.4605 814.305C-35.9366 737.584 39.8522 753.704 132.622 673.768C226.986 592.458 212.576 534.398 281.616 408.36C289.597 393.792 299.043 378.508 309.29 361.823C409.205 199.216 489.782 198.75 551.68 56.8973C588.327 -26.739 615.57 -155.344 565.315 -350.974" stroke="#0063F7" stroke-width="13" stroke-miterlimit="10"/>
<path d="M-73.1747 1128C-97.358 1039.13 -116.864 916.563 -54.4812 829.33C0.130516 752.8 75.5111 765.132 168.406 686.997C265.162 605.615 255.411 551.678 327 429.061C335.393 414.696 345.384 399.69 355.918 383.062C455.867 225.284 535.65 219.123 596.938 73.4102C633.18 -12.1639 659.969 -142.264 611.992 -338.363" stroke="#0063F7" stroke-width="13" stroke-miterlimit="10"/>
<path d="M-43.4295 1142.87C-65.0377 1053.86 -81.4498 931.951 -18.5022 844.321C36.1972 767.989 111.208 776.56 204.191 700.198C303.381 618.759 298.311 568.934 372.379 449.732C381.176 435.569 391.721 420.841 402.544 404.271C502.44 251.31 581.513 239.485 642.218 89.9574C678.018 2.41888 704.368 -129.173 658.672 -325.745" stroke="#0063F7" stroke-width="13" stroke-miterlimit="10"/>
<path d="M-13.6795 1157.73C-32.7163 1068.61 -46.0307 947.343 17.4814 859.331C72.261 783.194 146.924 788.027 239.98 713.412C341.589 631.938 341.28 586.218 417.759 470.429C426.976 456.476 438.047 442.023 449.164 425.506C548.922 277.332 627.378 259.881 687.487 106.478C722.86 16.9559 748.775 -116.112 705.353 -313.157" stroke="#0063F7" stroke-width="13" stroke-miterlimit="10"/>
<path d="M16.0695 1172.59C-0.396068 1083.36 -10.6355 962.734 53.4565 874.337C108.324 798.395 182.667 799.524 275.76 726.625C379.83 645.133 384.309 603.517 463.138 491.1C472.782 477.349 484.372 463.17 495.791 446.715C595.328 303.279 673.238 280.235 732.752 122.999C767.697 31.5539 793.158 -103.021 752.025 -300.539" stroke="#0063F7" stroke-width="13" stroke-miterlimit="10"/>
<path d="M45.8194 1187.45C31.9251 1098.12 24.7987 978.122 89.4401 889.347C144.376 813.599 218.444 811.044 311.549 739.82C418.106 658.331 427.407 620.808 508.525 511.767C518.601 498.222 530.694 484.303 542.422 467.901C641.646 329.168 719.117 300.571 778.029 139.474C812.551 46.0722 837.565 -89.9943 798.714 -287.985" stroke="#0063F7" stroke-width="13" stroke-miterlimit="10"/>
<path d="M75.568 1202.31C64.2451 1112.87 60.2165 993.513 125.422 904.353C180.458 828.804 254.244 822.59 347.333 753.056C456.4 671.59 470.558 638.179 553.908 532.468C564.418 519.136 577.004 505.492 589.044 489.158C687.88 355.083 764.984 320.974 823.285 156.028C857.384 60.666 881.952 -76.8841 845.382 -275.348" stroke="#0063F7" stroke-width="13" stroke-miterlimit="10"/>
<path d="M105.318 1217.18C96.5661 1127.62 95.6314 1008.91 161.398 919.364C216.521 844.005 290.059 834.159 383.118 766.269C494.715 684.872 513.771 655.55 599.288 553.154C610.248 540.032 623.322 526.651 635.671 510.378C734.037 380.923 810.852 341.347 868.566 172.549C902.237 75.245 926.363 -63.8042 892.074 -262.745" stroke="#0063F7" stroke-width="13" stroke-miterlimit="10"/>
<path d="M135.067 1232.04C128.887 1142.37 131.05 1024.29 197.382 934.374C252.592 859.194 325.901 845.756 418.907 779.471C533.052 698.131 557.052 672.941 644.671 573.829C656.082 560.921 669.606 547.795 682.299 531.587C780.123 406.705 856.72 361.705 913.839 189.047C947.083 89.8129 970.762 -50.7279 938.762 -250.141" stroke="#0063F7" stroke-width="13" stroke-miterlimit="10"/>
<path d="M164.817 1246.9C161.211 1157.12 166.465 1039.68 233.364 949.372C288.655 874.406 361.762 857.37 454.692 792.688C571.431 711.44 600.371 690.384 690.054 594.518C701.923 581.831 715.893 568.961 728.925 552.814C826.132 432.456 902.588 382.078 959.107 205.582C991.916 104.372 1015.16 -37.6599 985.431 -237.546" stroke="#0063F7" stroke-width="13" stroke-miterlimit="10"/>
<path d="M194.566 1261.77C193.532 1171.87 201.883 1055.08 269.34 964.39C324.718 889.626 397.635 869.028 490.473 805.913C609.787 724.806 643.74 707.881 735.43 615.189C747.764 602.727 762.173 590.082 775.545 574.023C872.064 458.147 948.448 402.436 1004.37 222.091C1036.77 118.929 1059.56 -24.595 1032.11 -224.966" stroke="#0063F7" stroke-width="13" stroke-miterlimit="10"/>
<path d="M224.315 1276.63C225.841 1186.61 237.286 1070.47 305.327 979.396C360.789 904.819 433.53 880.689 526.265 819.142C648.189 738.179 687.155 725.386 780.821 635.894C793.624 623.661 808.453 611.237 822.179 595.266C917.955 483.815 994.324 422.829 1049.65 238.631C1081.62 133.515 1103.96 -11.4998 1078.8 -212.332" stroke="#0063F7" stroke-width="13" stroke-miterlimit="10"/>
<path d="M254.061 1291.49C258.173 1201.38 272.716 1085.85 341.306 994.406C396.852 920.023 469.436 892.38 562.049 832.34C686.609 751.587 730.604 742.948 826.2 656.58C839.476 644.583 854.713 632.369 868.802 616.486C963.761 509.417 1040.19 443.198 1094.92 255.152C1126.46 148.087 1148.36 1.57621 1125.47 -199.729" stroke="#0063F7" stroke-width="13" stroke-miterlimit="10"/>
<path d="M283.811 1306.35C290.494 1216.13 308.131 1101.25 377.278 1009.41C432.912 935.228 505.351 904.094 597.827 845.553C725.042 765.026 774.08 760.555 871.572 677.262C885.333 665.51 900.948 653.494 915.418 637.71C1009.51 534.967 1086.05 463.567 1140.18 271.672C1171.3 162.654 1192.75 14.6523 1172.14 -187.126" stroke="#FF8B9A" stroke-width="13" stroke-miterlimit="10"/>
<path d="M313.56 1321.22C322.815 1230.88 343.549 1116.64 413.268 1024.42C468.986 950.421 541.288 915.827 633.619 858.767C763.508 778.498 817.597 778.209 916.963 697.948C931.204 686.444 947.22 674.611 962.052 658.93C1055.22 560.463 1131.92 483.936 1185.45 288.193C1216.15 177.222 1237.16 27.7321 1218.83 -174.504" stroke="#0063F7" stroke-width="13" stroke-miterlimit="10"/>
<path d="M343.31 1336.08C355.136 1245.64 378.965 1132.02 449.248 1039.43C505.05 965.618 577.23 927.583 669.423 871.984C801.999 792.005 861.15 795.908 962.362 718.641C977.092 707.392 993.473 695.724 1008.7 680.161C1100.88 585.909 1177.81 504.313 1230.73 304.72C1261 191.812 1281.56 40.8155 1265.52 -161.913" stroke="#0063F7" stroke-width="13" stroke-miterlimit="10"/>
<path d="M373.059 1350.94C387.456 1260.39 414.379 1147.42 485.22 1054.44C541.109 980.838 613.175 939.363 705.185 885.197C840.472 805.555 904.679 813.657 1007.71 739.32C1022.94 728.334 1039.67 716.815 1055.29 701.374C1146.47 611.283 1223.65 524.679 1275.98 321.234C1305.83 206.357 1325.96 53.8843 1312.18 -149.317" stroke="#0063F7" stroke-width="13" stroke-miterlimit="10"/>
<path d="M402.808 1365.8C419.777 1275.14 449.797 1162.81 521.21 1069.44C577.184 996.042 649.142 951.161 740.977 898.411C878.992 819.142 948.25 831.451 1053.11 760.017C1068.83 749.31 1085.92 737.893 1101.94 722.613C1192.04 636.611 1269.52 545.048 1321.26 337.754C1350.68 220.924 1370.35 66.9603 1358.87 -136.714" stroke="#0063F7" stroke-width="13" stroke-miterlimit="10"/>
<path d="M432.557 1380.66C452.097 1289.88 485.204 1178.2 557.189 1084.45C613.246 1011.24 685.11 962.978 776.761 911.624C917.535 832.76 991.82 849.292 1098.49 780.688C1114.71 770.259 1132.11 758.946 1148.56 743.817C1237.56 661.875 1315.39 565.418 1366.53 354.275C1395.53 235.496 1414.75 80.0363 1405.55 -124.107" stroke="#0063F7" stroke-width="13" stroke-miterlimit="10"/>
<path d="M462.307 1395.53C484.434 1304.64 520.63 1193.59 593.161 1099.46C649.307 1026.45 721.074 974.815 812.524 924.841C956.04 846.423 1035.38 867.181 1143.85 801.374C1160.56 791.231 1178.28 780.013 1195.16 765.041C1283.04 687.081 1361.24 585.787 1411.78 370.795C1440.35 250.063 1459.13 93.1009 1452.22 -111.504" stroke="#0063F7" stroke-width="13" stroke-miterlimit="10"/>
<path d="M492.056 1410.39C516.739 1319.39 556.045 1208.98 629.151 1114.47C685.381 1041.65 757.057 986.681 848.335 938.05C994.625 860.128 1078.97 885.109 1189.25 822.052C1206.47 812.211 1224.49 801.038 1241.81 786.257C1328.54 712.218 1407.13 606.156 1457.07 387.312C1485.21 264.626 1503.55 106.184 1498.91 -98.9053" stroke="#0063F7" stroke-width="13" stroke-miterlimit="10"/>
<path d="M521.802 1425.26C549.06 1334.15 591.464 1224.38 665.131 1129.49C721.448 1056.86 793.041 998.559 884.112 951.279C1033.19 873.891 1122.55 903.102 1234.63 842.753C1252.34 833.217 1270.66 822.067 1288.42 807.492C1373.98 737.306 1452.98 626.541 1502.33 403.847C1530.05 279.209 1547.93 119.287 1545.58 -86.2869" stroke="#0063F7" stroke-width="13" stroke-miterlimit="10"/>
<path d="M551.539 1440.12C581.369 1348.9 626.866 1239.76 701.087 1144.49C757.511 1072.04 829.023 1010.44 919.904 964.474C1071.79 887.669 1166.11 921.103 1280.02 863.42C1298.23 854.197 1316.83 843.04 1335.06 828.709C1419.45 762.306 1498.86 646.899 1547.61 420.357C1574.91 293.765 1592.35 132.344 1592.27 -73.6949" stroke="#0063F7" stroke-width="13" stroke-miterlimit="10"/>
<path d="M581.297 1454.98C638.167 1294.68 744.918 1081.49 955.686 977.699C1110.39 901.516 1209.65 939.172 1325.4 884.11C1473.8 813.512 1631.91 598.756 1638.95 -61.0919" stroke="#0063F7" stroke-width="13" stroke-miterlimit="10"/>
</g>
<defs>
<clipPath id="clip0">
<rect width="1843" height="1833" fill="white" transform="translate(-201 -377)"/>
</clipPath>
</defs>
</svg>
