<svg width="44" height="51" viewBox="0 0 44 51" fill="none" xmlns="http://www.w3.org/2000/svg">
<g clip-path="url(#clip0_914_38625)">
<path d="M39.6225 12.4414L25.4876 4.29271C23.1793 2.96232 20.3238 2.96232 17.9917 4.29271L3.88054 12.4414C1.57231 13.7717 0.144531 16.2425 0.144531 18.927V35.1768C0.144531 37.8376 1.57231 40.3083 3.88054 41.6624L18.0155 49.8111C20.3238 51.1415 23.1793 51.1415 25.5113 49.8111L39.6463 41.6624C41.9546 40.332 43.3823 37.8613 43.3823 35.1768V18.927C43.3585 16.2425 41.9308 13.7955 39.6225 12.4414Z" fill="white"/>
<path d="M37.5589 21.3261C36.2087 20.9528 35.6192 20.8968 35.6192 20.8968C35.391 20.8594 34.4972 20.7101 33.2801 20.6728C32.3103 20.5234 31.3024 20.2621 30.6368 19.7208C29.9142 19.1234 28.6971 18.0968 28.2217 17.8541C28.2027 17.8354 28.1836 17.8354 28.1646 17.8354C26.339 16.5474 24.1141 15.8008 21.7179 15.8008C18.9795 15.8008 16.4883 16.7528 14.5486 18.3394C13.9971 18.7501 13.3316 19.3101 12.8751 19.7021C12.2096 20.2621 11.2017 20.5048 10.2318 20.6541C9.01474 20.6914 8.12096 20.8594 7.89275 20.8781C7.89275 20.8781 7.36028 20.9341 6.10518 21.2701C5.55369 21.4194 5.49664 22.1661 6.01009 22.4088C6.01009 22.4088 6.02911 22.4088 6.02911 22.4274C6.84683 22.8194 7.62652 23.4541 8.59637 24.9661C9.7564 26.7581 9.96558 27.8968 10.7072 29.6141C11.9053 34.5421 16.3742 38.2008 21.6989 38.2008C26.8335 38.2008 31.1693 34.8034 32.5575 30.1554C33.5083 28.1208 33.6415 26.9448 34.9156 24.9661C35.8854 23.4541 36.6651 22.8194 37.4828 22.4274C37.5399 22.4088 37.597 22.3714 37.654 22.3528C38.1294 22.1474 38.0724 21.4568 37.5589 21.3261ZM17.3631 29.9501C15.8418 29.5394 14.8909 28.1581 14.8909 28.1581C14.8909 28.1581 16.5264 26.9821 18.0477 27.3928C19.5691 27.8034 20.4058 29.6328 20.4058 29.6328C20.4058 29.6328 18.8844 30.3608 17.3631 29.9501ZM26.4151 29.9501C24.8937 30.3608 23.3724 29.6141 23.3724 29.6141C23.3724 29.6141 24.1901 27.7848 25.7305 27.3741C27.2518 26.9634 28.8873 28.1394 28.8873 28.1394C28.8873 28.1394 27.9364 29.5581 26.4151 29.9501Z" fill="#1F1F1F"/>
</g>
<defs>
<clipPath id="clip0_914_38625">
<rect width="43.6363" height="48" fill="#1F1F1F" transform="translate(0 3)"/>
</clipPath>
</defs>
</svg>
