   <svg width="191" height="202" viewBox="0 0 191 202" fill="none" xmlns="http://www.w3.org/2000/svg">
<g filter="url(#filter0_f_493_44631-460989)">
<path d="M141.348 63.485L105.061 42.562C99.1348 39.146 91.8041 39.146 85.8173 42.562L49.5911 63.485C43.6654 66.901 40 73.245 40 80.138V121.862C40 128.694 43.6654 135.038 49.5911 138.515L85.8784 159.438C91.8041 162.854 99.1348 162.854 105.122 159.438L141.409 138.515C147.335 135.099 151 128.755 151 121.862V80.138C150.939 73.245 147.274 66.962 141.348 63.485Z" fill="#0010F7" fill-opacity="0.24"/>
</g>
<path d="M128.64 73.3075L102.726 58.3683C98.4943 55.9293 93.2591 55.9293 88.9837 58.3683L63.1132 73.3075C58.8814 75.7466 56.2638 80.2762 56.2638 85.1979V114.989C56.2638 119.867 58.8814 124.397 63.1132 126.879L89.0273 141.819C93.2591 144.258 98.4943 144.258 102.77 141.819L128.684 126.879C132.916 124.44 135.533 119.911 135.533 114.989V85.1979C135.49 80.2762 132.872 75.7901 128.64 73.3075Z" fill="#0010F7"/>
<path d="M124.859 89.5966C122.383 88.9121 121.302 88.8095 121.302 88.8095C120.884 88.741 119.245 88.4672 117.014 88.3988C115.236 88.125 113.388 87.6459 112.168 86.6535C110.843 85.5584 108.612 83.6761 107.74 83.2312C107.705 83.197 107.671 83.197 107.636 83.197C104.289 80.8357 100.21 79.4668 95.8168 79.4668C90.7964 79.4668 86.2292 81.2121 82.673 84.121C81.662 84.8739 80.4417 85.9006 79.605 86.6192C78.3848 87.6459 76.537 88.0908 74.7589 88.3646C72.5276 88.433 70.889 88.741 70.4706 88.7752C70.4706 88.7752 69.4944 88.8779 67.1934 89.4939C66.1823 89.7677 66.0777 91.1366 67.0191 91.5815C67.0191 91.5815 67.0539 91.5815 67.0539 91.6157C68.5531 92.3344 69.9825 93.4979 71.7606 96.2699C73.8873 99.5552 74.2708 101.643 75.6305 104.791C77.8269 113.826 86.02 120.533 95.7819 120.533C105.195 120.533 113.144 114.305 115.689 105.784C117.433 102.053 117.677 99.8975 120.012 96.2699C121.791 93.4979 123.22 92.3344 124.719 91.6157C124.824 91.5815 124.928 91.513 125.033 91.4788C125.905 91.1024 125.8 89.8361 124.859 89.5966ZM87.8329 105.407C85.0438 104.654 83.3006 102.122 83.3006 102.122C83.3006 102.122 86.2989 99.9659 89.088 100.719C91.8772 101.472 93.4112 104.825 93.4112 104.825C93.4112 104.825 90.6221 106.16 87.8329 105.407ZM104.428 105.407C101.639 106.16 98.85 104.791 98.85 104.791C98.85 104.791 100.349 101.437 103.173 100.685C105.962 99.9317 108.961 102.088 108.961 102.088C108.961 102.088 107.217 104.689 104.428 105.407Z" fill="white"/>
<defs>
<filter id="filter0_f_493_44631-460989" x="0" y="0" width="191" height="202" filterUnits="userSpaceOnUse" color-interpolation-filters="sRGB">
<feFlood flood-opacity="0" result="BackgroundImageFix"/>
<feBlend mode="normal" in="SourceGraphic" in2="BackgroundImageFix" result="shape"/>
<feGaussianBlur stdDeviation="20" result="effect1_foregroundBlur_493_44631"/>
</filter>
</defs>
</svg>