<svg width="42" height="30" viewBox="0 0 42 30" fill="none" xmlns="http://www.w3.org/2000/svg">
<path d="M41.4535 7.4C39.6991 6.9 38.9331 6.825 38.9331 6.825C38.6366 6.775 37.4752 6.575 35.8938 6.525C34.6336 6.325 33.324 5.975 32.4591 5.25C31.5201 4.45 29.9387 3.075 29.321 2.75C29.2963 2.725 29.2715 2.725 29.2468 2.725C26.8747 1 23.9836 0 20.8702 0C17.3119 0 14.0749 1.275 11.5545 3.4C10.8379 3.95 9.9731 4.7 9.38006 5.225C8.51521 5.975 7.20559 6.3 5.94538 6.5C4.36394 6.55 3.20258 6.775 2.90606 6.8C2.90606 6.8 2.21418 6.875 0.583326 7.325C-0.133262 7.525 -0.207391 8.525 0.459777 8.85C0.459777 8.85 0.484487 8.85 0.484487 8.875C1.54701 9.4 2.56012 10.25 3.82033 12.275C5.32763 14.675 5.59944 16.2 6.56313 18.5C8.11985 25.1 13.9267 30 20.8455 30C27.5171 30 33.151 25.45 34.9548 19.225C36.1903 16.5 36.3633 14.925 38.0189 12.275C39.2791 10.25 40.2922 9.4 41.3547 8.875C41.4288 8.85 41.503 8.8 41.5771 8.775C42.1948 8.5 42.1207 7.575 41.4535 7.4ZM15.2116 18.95C13.2348 18.4 11.9993 16.55 11.9993 16.55C11.9993 16.55 14.1244 14.975 16.1012 15.525C18.078 16.075 19.1652 18.525 19.1652 18.525C19.1652 18.525 17.1884 19.5 15.2116 18.95ZM26.9735 18.95C24.9967 19.5 23.0199 18.5 23.0199 18.5C23.0199 18.5 24.0825 16.05 26.084 15.5C28.0608 14.95 30.1858 16.525 30.1858 16.525C30.1858 16.525 28.9503 18.425 26.9735 18.95Z" fill="white"/>
</svg>
