<svg width="90" height="64" viewBox="0 0 90 64" fill="none" xmlns="http://www.w3.org/2000/svg">
<path d="M88.6228 15.7867C84.8721 14.72 83.2344 14.56 83.2344 14.56C82.6005 14.4533 80.1176 14.0267 76.7367 13.92C74.0425 13.4933 71.2427 12.7467 69.3938 11.2C67.3864 9.49333 64.0054 6.56 62.6848 5.86667C62.6319 5.81333 62.5791 5.81333 62.5263 5.81333C57.4549 2.13333 51.2742 0 44.618 0C37.0109 0 30.0906 2.72 24.7022 7.25333C23.1702 8.42667 21.3213 10.0267 20.0535 11.1467C18.2045 12.7467 15.4047 13.44 12.7105 13.8667C9.3296 13.9733 6.84673 14.4533 6.21281 14.5067C6.21281 14.5067 4.73366 14.6667 1.24708 15.6267C-0.284897 16.0533 -0.443378 18.1867 0.982948 18.88C0.982948 18.88 1.03577 18.88 1.03577 18.9333C3.30733 20.0533 5.47323 21.8667 8.16741 26.1867C11.3898 31.3067 11.9709 34.56 14.0312 39.4667C17.3593 53.5467 29.7736 64 44.5651 64C58.8284 64 70.8729 54.2933 74.7293 41.0133C77.3706 35.2 77.7404 31.84 81.2798 26.1867C83.974 21.8667 86.1399 20.0533 88.4115 18.9333C88.5699 18.88 88.7284 18.7733 88.8869 18.72C90.2076 18.1333 90.0491 16.16 88.6228 15.7867ZM32.5206 40.4267C28.2945 39.2533 25.6531 35.3067 25.6531 35.3067C25.6531 35.3067 30.1962 31.9467 34.4224 33.12C38.6485 34.2933 40.9729 39.52 40.9729 39.52C40.9729 39.52 36.7468 41.6 32.5206 40.4267ZM57.6662 40.4267C53.4401 41.6 49.2139 39.4667 49.2139 39.4667C49.2139 39.4667 51.4855 34.24 55.7644 33.0667C59.9906 31.8933 64.5337 35.2533 64.5337 35.2533C64.5337 35.2533 61.8924 39.3067 57.6662 40.4267Z" fill="white"/>
</svg>
