<svg width="37" height="42" viewBox="0 0 37 42" fill="none" xmlns="http://www.w3.org/2000/svg">
<path d="M33.5961 8.2629L21.6109 1.13283C19.6537 -0.0312573 17.2324 -0.0312573 15.255 1.13283L3.2899 8.2629C1.33271 9.42699 0.12207 11.5889 0.12207 13.9378V28.1564C0.12207 30.4846 1.33271 32.6465 3.2899 33.8313L15.2752 40.9614C17.2324 42.1255 19.6537 42.1255 21.631 40.9614L33.6163 33.8313C35.5735 32.6672 36.7842 30.5054 36.7842 28.1564V13.9378C36.764 11.5889 35.5533 9.44777 33.5961 8.2629Z" fill="white"/>
<path d="M31.8467 16.0358C30.7019 15.7092 30.202 15.6602 30.202 15.6602C30.0085 15.6275 29.2506 15.4968 28.2187 15.4642C27.3963 15.3335 26.5417 15.1048 25.9773 14.6312C25.3646 14.1085 24.3326 13.2102 23.9295 12.9978C23.9134 12.9815 23.8973 12.9815 23.8811 12.9815C22.3332 11.8545 20.4466 11.2012 18.4149 11.2012C16.0929 11.2012 13.9806 12.0342 12.3359 13.4225C11.8683 13.7818 11.3039 14.2718 10.9169 14.6148C10.3526 15.1048 9.49796 15.3172 8.6756 15.4478C7.64362 15.4805 6.88576 15.6275 6.69227 15.6438C6.69227 15.6438 6.24078 15.6928 5.17655 15.9868C4.70894 16.1175 4.66056 16.7708 5.09593 16.9832C5.09593 16.9832 5.11205 16.9832 5.11205 16.9995C5.80541 17.3425 6.46652 17.8978 7.28888 19.2208C8.27248 20.7888 8.44986 21.7852 9.07872 23.2878C10.0946 27.5998 13.8839 30.8012 18.3988 30.8012C22.7524 30.8012 26.4288 27.8285 27.6059 23.7615C28.4122 21.9812 28.525 20.9522 29.6054 19.2208C30.4277 17.8978 31.0889 17.3425 31.7822 16.9995C31.8306 16.9832 31.879 16.9505 31.9273 16.9342C32.3305 16.7545 32.2821 16.1502 31.8467 16.0358ZM14.7223 23.5818C13.4324 23.2225 12.6261 22.0138 12.6261 22.0138C12.6261 22.0138 14.0129 20.9848 15.3028 21.3442C16.5928 21.7035 17.3023 23.3042 17.3023 23.3042C17.3023 23.3042 16.0123 23.9412 14.7223 23.5818ZM22.3977 23.5818C21.1077 23.9412 19.8177 23.2878 19.8177 23.2878C19.8177 23.2878 20.5111 21.6872 21.8172 21.3278C23.1072 20.9685 24.4939 21.9975 24.4939 21.9975C24.4939 21.9975 23.6876 23.2388 22.3977 23.5818Z" fill="#0010F7"/>
</svg>