<svg width="35" height="37" viewBox="0 0 35 37" fill="none" xmlns="http://www.w3.org/2000/svg">
<g clip-path="url(#clip0_215_48078)">
<path d="M36.2326 32.6505C36.546 33.6813 36.4371 34.7944 35.9299 35.745C35.4227 36.6956 34.5587 37.4058 33.528 37.7194L14.2092 43.5968C13.1786 43.9103 12.0656 43.8016 11.1151 43.2947C10.1646 42.7877 9.45424 41.9241 9.1403 40.8936L0.0687374 11.0836C-0.0865054 10.5733 -0.13969 10.0374 -0.0877788 9.50647C-0.0358675 8.97559 0.120123 8.46013 0.371282 7.98954C0.622441 7.51895 0.963848 7.10245 1.376 6.76383C1.78816 6.42522 2.26298 6.17111 2.77336 6.01603L22.0921 0.136534C23.1227 -0.176688 24.2354 -0.0678906 25.1858 0.439012C26.1362 0.945915 26.8464 1.80944 27.1604 2.83978L36.2326 32.6498" fill="#DFE6E9"/>
<path d="M38.7819 38.5962C38.8264 39.6723 38.442 40.7222 37.713 41.5151C36.984 42.308 35.9702 42.7791 34.8941 42.825L14.7166 43.6761C13.6406 43.7205 12.591 43.3361 11.7982 42.6073C11.0053 41.8785 10.5341 40.8649 10.4878 39.789L9.17606 8.65901C9.1531 8.12595 9.23548 7.5936 9.41848 7.09241C9.60149 6.59122 9.88152 6.13104 10.2426 5.7382C10.6036 5.34535 11.0386 5.02756 11.5226 4.803C12.0066 4.57844 12.5301 4.45152 13.0632 4.42951L33.2406 3.5777C34.3168 3.53318 35.3666 3.91762 36.1595 4.64658C36.9524 5.37554 37.4235 6.38942 37.4694 7.46551L38.7819 38.5955" fill="#DFE6E9"/>
<path d="M35.4496 32.1824C35.5983 32.6705 35.6494 33.1831 35.5999 33.6909C35.5504 34.1988 35.4013 34.6918 35.1611 35.142C34.9209 35.5921 34.5943 35.9905 34.2 36.3144C33.8057 36.6382 33.3514 36.8812 32.8632 37.0293L14.3777 42.6565C13.8896 42.8051 13.3771 42.856 12.8693 42.8064C12.3615 42.7568 11.8685 42.6077 11.4184 42.3675C10.9683 42.1273 10.5699 41.8008 10.2461 41.4066C9.92218 41.0124 9.67914 40.5583 9.53083 40.0701L0.851826 11.5478C0.70317 11.0597 0.652156 10.5472 0.701702 10.0394C0.751247 9.53157 0.900381 9.03852 1.14058 8.58839C1.38077 8.13826 1.70732 7.73988 2.10156 7.41602C2.4958 7.09216 2.95 6.84917 3.4382 6.70094L21.9237 1.07444C22.4119 0.925905 22.9245 0.875022 23.4323 0.9247C23.9402 0.974378 24.4332 1.12364 24.8834 1.36396C25.3335 1.60428 25.7318 1.93095 26.0557 2.32529C26.3795 2.71963 26.6224 3.17392 26.7706 3.66219L35.4482 32.1838" fill="white"/>
<path d="M11.6455 13.0898C11.6689 13.1689 11.1959 13.382 10.5882 13.5669L5.11016 15.2348C4.50241 15.4184 3.99022 15.5064 3.96547 15.4287L3.63685 14.3452C3.6121 14.2675 4.08785 14.0557 4.6956 13.8694L10.1736 12.2036C10.7807 12.0173 11.2935 11.9314 11.3169 12.009L11.6455 13.0898ZM12.54 16.0234C12.5633 16.1017 12.0903 16.3155 11.4798 16.497L6.00322 18.1663C5.39547 18.3499 4.88329 18.4385 4.85854 18.3595L4.5306 17.2787C4.50447 17.2017 4.97885 16.9879 5.58797 16.803L11.0646 15.1358C11.6744 14.9509 12.1838 14.8635 12.21 14.9412L12.54 16.0234ZM13.4901 19.1474C13.5148 19.2264 13.0419 19.4382 12.4313 19.6245L6.95335 21.2903C6.34629 21.4766 5.83341 21.5625 5.81072 21.4849L5.48141 20.4041C5.45804 20.3271 5.93104 20.1119 6.53879 19.929L12.0168 18.2598C12.6259 18.0749 13.1381 17.9882 13.1601 18.0666L13.4901 19.1474ZM31.988 27.4283C32.0113 27.5067 31.5383 27.7205 30.9285 27.9047L25.4526 29.5712C24.8448 29.7575 24.3327 29.8435 24.3072 29.7637L23.9779 28.6837C23.9552 28.6067 24.4303 28.3929 25.038 28.2086L30.5147 26.5407C31.1238 26.3558 31.6346 26.2685 31.6593 26.3462L31.988 27.4283ZM32.8797 30.3598C32.9058 30.4382 32.43 30.652 31.8223 30.8362L26.3457 32.5041C25.7365 32.689 25.2257 32.7764 25.2017 32.6966L24.8724 31.6152C24.8462 31.5382 25.322 31.3257 25.9297 31.1401L31.4077 29.4736C32.0168 29.2873 32.5277 29.2014 32.5503 29.2797L32.8797 30.3598ZM33.8318 33.4872C33.8566 33.5635 33.3822 33.7774 32.7731 33.9616L27.2951 35.6295C26.6873 35.8144 26.1752 35.9017 26.1525 35.8234L25.8225 34.7433C25.7991 34.6656 26.2735 34.4511 26.8812 34.2648L32.3592 32.599C32.9683 32.4147 33.4778 32.3267 33.5018 32.4044L33.8318 33.4872ZM29.4312 19.0222C29.4552 19.1013 28.0424 19.5984 26.2742 20.1367L10.3654 24.9767C8.59991 25.5136 7.14722 25.8869 7.12385 25.8099L6.79247 24.7285C6.77047 24.6494 8.18397 24.1517 9.95085 23.614L25.8527 18.774C27.6196 18.2357 29.073 17.8631 29.0957 17.9394L29.425 19.0209L29.4312 19.0222ZM30.3118 21.7812C30.3359 21.8589 28.9231 22.3573 27.1542 22.8956L11.2454 27.7356C9.47991 28.2739 8.0286 28.6459 8.00454 28.5675L7.67522 27.486C7.65185 27.4084 9.06397 26.9092 10.8308 26.3716L26.7396 21.5316C28.5058 20.9933 29.9564 20.6207 29.9812 20.6984L30.3112 21.7812H30.3118ZM31.1918 24.6797C31.2152 24.7567 29.8031 25.2558 28.0335 25.7941L12.1247 30.6341C10.3599 31.1717 8.90654 31.5444 8.88385 31.4687L8.55454 30.3866C8.53185 30.3082 9.94329 29.8091 11.7102 29.2722L27.6189 24.4322C29.3878 23.8959 30.8385 23.5219 30.8625 23.5996L31.1918 24.681" fill="#F0F3F5"/>
<path d="M24.1794 6.62817C24.3571 6.57381 24.5438 6.55506 24.7288 6.573C24.9137 6.59095 25.0934 6.64522 25.2573 6.73273C25.4213 6.82023 25.5663 6.93924 25.6842 7.08292C25.8021 7.22661 25.8904 7.39214 25.9442 7.57004L27.9943 14.302C28.1036 14.6615 28.0657 15.0497 27.889 15.3812C27.7122 15.7128 27.4111 15.9606 27.0517 16.0703L16.6636 19.2314C16.3046 19.3403 15.9171 19.3022 15.5861 19.1257C15.2551 18.9491 15.0076 18.6484 14.8981 18.2895L12.8473 11.5548C12.7934 11.3768 12.775 11.19 12.7933 11.005C12.8116 10.8199 12.8661 10.6403 12.9539 10.4763C13.0416 10.3124 13.1607 10.1673 13.3045 10.0494C13.4483 9.93156 13.614 9.84316 13.7919 9.78929L24.1801 6.62817" fill="#DFE6E9"/>
<path d="M20.6525 29.0819C21.3833 28.8605 22.1361 29.2118 22.3376 29.8691L24.1381 35.7912C24.3389 36.4491 23.9085 37.1614 23.1784 37.3841L13.0295 40.4717C12.2987 40.6944 11.5438 40.3411 11.3444 39.6845L9.54387 33.7631C9.34105 33.1058 9.77349 32.3936 10.5036 32.1694L20.6525 29.0819Z" fill="#DFE6E9"/>
</g>
<defs>
<clipPath id="clip0_215_48078">
<rect width="44" height="44" fill="white"/>
</clipPath>
</defs>
</svg>
