<svg width="24" height="24" viewBox="0 0 24 24" fill="none" xmlns="http://www.w3.org/2000/svg">
<path d="M12 24C18.6274 24 24 18.6274 24 12C24 5.37258 18.6274 0 12 0C5.37258 0 0 5.37258 0 12C0 18.6274 5.37258 24 12 24Z" fill="#EEEEEE"/>
<path d="M12 23.0999C18.1304 23.0999 23.1 18.1303 23.1 11.9999C23.1 5.86954 18.1304 0.899902 12 0.899902C5.86966 0.899902 0.900024 5.86954 0.900024 11.9999C0.900024 18.1303 5.86966 23.0999 12 23.0999Z" fill="url(#paint0_radial)"/>
<path d="M12.0191 3.59993C11.9441 3.59993 11.8781 3.54393 11.8781 3.46893V1.50893C11.8781 1.43393 11.9441 1.37793 12.0191 1.37793C12.0941 1.37793 12.1591 1.43393 12.1591 1.50893V3.46793C12.1501 3.54393 12.0941 3.59993 12.0191 3.59993Z" fill="#F3F3F3"/>
<path d="M12.019 3.60916C11.935 3.60916 11.869 3.54316 11.869 3.46816V1.50916C11.869 1.43416 11.935 1.36816 12.019 1.36816C12.103 1.36816 12.169 1.43416 12.169 1.50916V3.46816C12.169 3.54416 12.094 3.60916 12.019 3.60916ZM12.019 1.38716C11.953 1.38716 11.888 1.44416 11.888 1.50916V3.46816C11.888 3.53416 11.944 3.59016 12.019 3.59016C12.085 3.59016 12.15 3.53416 12.15 3.46816V1.50916C12.141 1.44416 12.084 1.38716 12.019 1.38716Z" fill="white"/>
<path d="M12.9561 2.55001C12.8811 2.54101 12.8251 2.48401 12.8251 2.40901L12.8911 1.53701C12.9001 1.46201 12.9661 1.40601 13.0411 1.41501C13.1161 1.42401 13.1721 1.48101 13.1721 1.55601L13.1061 2.42801C13.0971 2.50301 13.0311 2.55901 12.9561 2.55001Z" fill="#F3F3F3"/>
<path d="M12.956 2.55928C12.872 2.55028 12.816 2.48428 12.816 2.40928L12.882 1.53728C12.891 1.46228 12.957 1.39628 13.041 1.40628C13.125 1.41528 13.182 1.48128 13.182 1.55628L13.116 2.42828C13.106 2.51328 13.041 2.56928 12.956 2.55928ZM13.041 1.42528C12.975 1.42528 12.91 1.47228 12.91 1.53828L12.844 2.40928C12.844 2.47528 12.891 2.53128 12.966 2.54028C13.032 2.54028 13.097 2.49328 13.097 2.42828L13.163 1.55628C13.163 1.49128 13.106 1.43428 13.041 1.42528Z" fill="white"/>
<path d="M13.659 3.7693C13.584 3.7503 13.538 3.6843 13.547 3.6093L13.931 1.6873C13.95 1.6123 14.015 1.5653 14.09 1.5843C14.166 1.6033 14.213 1.6693 14.203 1.7443L13.819 3.6663C13.809 3.7313 13.734 3.7783 13.659 3.7693Z" fill="#F3F3F3"/>
<path d="M13.6591 3.77802C13.5751 3.75902 13.5281 3.68402 13.5381 3.60902L13.9221 1.68702C13.9411 1.61202 14.0161 1.55602 14.1001 1.57502C14.1841 1.59402 14.2311 1.66902 14.2221 1.74402L13.8381 3.66602C13.8191 3.74102 13.7441 3.78802 13.6591 3.77802ZM14.1001 1.59402C14.0341 1.58502 13.9691 1.62202 13.9501 1.68802L13.5661 3.60902C13.5561 3.67502 13.5941 3.74102 13.6691 3.75902C13.7351 3.76802 13.8001 3.73102 13.8191 3.66502L14.2031 1.74302C14.2131 1.66902 14.1661 1.61302 14.1001 1.59402Z" fill="white"/>
<path d="M14.784 2.92531C14.709 2.90731 14.663 2.83131 14.681 2.75631L14.915 1.91231C14.934 1.83831 15.009 1.80031 15.084 1.81931C15.159 1.83831 15.206 1.91331 15.188 1.98831L14.953 2.83131C14.934 2.90631 14.859 2.94431 14.784 2.92531Z" fill="#F3F3F3"/>
<path d="M14.784 2.93402C14.709 2.91602 14.653 2.83102 14.681 2.75602L14.915 1.91202C14.934 1.83802 15.019 1.79102 15.094 1.80902C15.169 1.82802 15.225 1.91202 15.197 1.98702L14.963 2.83102C14.944 2.90602 14.869 2.95302 14.784 2.93402ZM15.094 1.83802C15.028 1.81902 14.953 1.85602 14.934 1.92202L14.7 2.76602C14.681 2.83202 14.719 2.89702 14.794 2.91602C14.86 2.93502 14.935 2.89702 14.953 2.83202L15.188 1.98702C15.197 1.92202 15.159 1.85602 15.094 1.83802Z" fill="white"/>
<path d="M15.2441 4.24736C15.1691 4.21936 15.1411 4.13436 15.1691 4.06936L15.9191 2.26036C15.9471 2.19436 16.0321 2.15736 16.0971 2.19436C16.1721 2.22236 16.2001 2.30736 16.1721 2.37236L15.4221 4.18136C15.3941 4.24736 15.3091 4.28436 15.2441 4.24736Z" fill="#F3F3F3"/>
<path d="M15.244 4.25597C15.169 4.22797 15.131 4.14397 15.159 4.06897L15.909 2.25997C15.938 2.18397 16.022 2.15597 16.106 2.18397C16.181 2.21297 16.219 2.29597 16.19 2.37197L15.44 4.18097C15.403 4.25597 15.319 4.29397 15.244 4.25597ZM16.097 2.20297C16.031 2.17497 15.956 2.20297 15.928 2.26897L15.178 4.07797C15.15 4.14397 15.188 4.20897 15.253 4.23797C15.319 4.26597 15.394 4.23797 15.422 4.17197L16.172 2.36297C16.191 2.30597 16.163 2.23097 16.097 2.20297Z" fill="white"/>
<path d="M16.509 3.64731C16.444 3.60931 16.416 3.53431 16.444 3.46931L16.838 2.69131C16.875 2.62531 16.95 2.59731 17.026 2.63531C17.092 2.67331 17.12 2.74831 17.092 2.81331L16.697 3.59131C16.659 3.65631 16.584 3.68431 16.509 3.64731Z" fill="#F3F3F3"/>
<path d="M16.509 3.65636C16.434 3.61936 16.406 3.53436 16.444 3.45936L16.838 2.68136C16.875 2.60636 16.96 2.57836 17.035 2.61536C17.109 2.65336 17.138 2.73836 17.1 2.81336L16.706 3.59136C16.669 3.66636 16.584 3.69436 16.509 3.65636ZM17.025 2.63436C16.959 2.60636 16.884 2.62536 16.856 2.69136L16.463 3.46936C16.435 3.52536 16.463 3.60036 16.519 3.63836C16.584 3.66636 16.659 3.64736 16.688 3.58136L17.082 2.80336C17.109 2.74736 17.081 2.67236 17.025 2.63436Z" fill="white"/>
<path d="M16.697 5.03395C16.631 4.98795 16.613 4.90295 16.659 4.84695L17.747 3.22495C17.784 3.15895 17.869 3.14995 17.934 3.18795C18 3.23395 18.019 3.31895 17.972 3.37495L16.884 4.99695C16.847 5.06295 16.763 5.08095 16.697 5.03395Z" fill="#F3F3F3"/>
<path d="M16.697 5.04419C16.631 4.99719 16.613 4.90319 16.65 4.83819L17.738 3.21619C17.785 3.15019 17.869 3.13219 17.944 3.17919C18.009 3.22519 18.028 3.31919 17.991 3.38419L16.903 5.00619C16.856 5.07219 16.763 5.09119 16.697 5.04419ZM17.934 3.19719C17.878 3.15919 17.794 3.16919 17.756 3.22519L16.669 4.84719C16.631 4.90319 16.65 4.97819 16.706 5.01619C16.762 5.05419 16.847 5.04419 16.884 4.98819L17.972 3.37519C18.009 3.31919 17.991 3.23419 17.934 3.19719Z" fill="white"/>
<path d="M18.0661 4.68829C18.0091 4.64129 17.9911 4.55629 18.0381 4.50029L18.5821 3.81629C18.6281 3.75929 18.7131 3.75029 18.7691 3.79729C18.8251 3.84429 18.8441 3.92829 18.7971 3.98429L18.2531 4.66929C18.2061 4.72529 18.1221 4.73429 18.0661 4.68829Z" fill="#F3F3F3"/>
<path d="M18.056 4.69724C17.991 4.65024 17.981 4.55624 18.028 4.49124L18.572 3.80724C18.619 3.74124 18.713 3.73124 18.778 3.78824C18.844 3.83524 18.853 3.92924 18.806 3.99424L18.263 4.67824C18.216 4.74424 18.122 4.75324 18.056 4.69724ZM18.759 3.80624C18.703 3.75924 18.628 3.76924 18.581 3.82524L18.038 4.50924C18 4.56624 18.009 4.64124 18.066 4.68724C18.122 4.73424 18.197 4.72524 18.244 4.66924L18.788 3.98424C18.825 3.92824 18.816 3.84424 18.759 3.80624Z" fill="white"/>
<path d="M17.9721 6.09396C17.9161 6.03796 17.9161 5.95296 17.9721 5.90596L19.3591 4.52796C19.4151 4.47196 19.5001 4.48096 19.5471 4.52796C19.5941 4.57496 19.6031 4.66896 19.5471 4.71496L18.1691 6.09396C18.1131 6.14996 18.0281 6.14996 17.9721 6.09396Z" fill="#F3F3F3"/>
<path d="M17.963 6.10305C17.907 6.04605 17.907 5.95405 17.963 5.89705L19.35 4.51905C19.407 4.46305 19.499 4.46305 19.556 4.51905C19.612 4.57605 19.612 4.66805 19.556 4.72505L18.169 6.10305C18.112 6.15905 18.02 6.15905 17.963 6.10305ZM19.547 4.52805C19.5 4.48105 19.416 4.48105 19.369 4.52805L17.981 5.90605C17.934 5.95305 17.934 6.03705 17.981 6.08405C18.028 6.13105 18.112 6.13105 18.159 6.08405L19.547 4.70605C19.594 4.65905 19.594 4.58405 19.547 4.52805Z" fill="white"/>
<path d="M19.3781 6.01897C19.3311 5.96297 19.3311 5.87797 19.3881 5.83097L20.0541 5.26897C20.1101 5.22197 20.1951 5.23097 20.2421 5.28797C20.2881 5.34397 20.2881 5.42797 20.2311 5.47497L19.5661 6.03797C19.5091 6.08397 19.4251 6.07497 19.3781 6.01897Z" fill="#F3F3F3"/>
<path d="M19.3691 6.02802C19.3131 5.96302 19.3221 5.86902 19.3781 5.82202L20.0441 5.25902C20.1001 5.20302 20.1941 5.21202 20.2501 5.27802C20.3061 5.34402 20.2971 5.43702 20.2411 5.48402L19.5751 6.04702C19.5191 6.10302 19.4251 6.09402 19.3691 6.02802ZM20.2311 5.28802C20.1841 5.23202 20.1091 5.23202 20.0531 5.26902L19.3881 5.83102C19.3411 5.87802 19.3311 5.95302 19.3781 6.00902C19.4251 6.06502 19.5001 6.06502 19.5561 6.02802L20.2221 5.46502C20.2781 5.41902 20.2781 5.34402 20.2311 5.28802Z" fill="white"/>
<path d="M19.0031 7.36899C18.9561 7.30299 18.9751 7.21899 19.0411 7.18099L20.6721 6.09399C20.7381 6.05599 20.8221 6.07499 20.8591 6.13199C20.9061 6.19799 20.8871 6.28199 20.8221 6.31899L19.1911 7.40599C19.1341 7.44399 19.0501 7.42499 19.0031 7.36899Z" fill="#F3F3F3"/>
<path d="M18.994 7.36938C18.947 7.30338 18.966 7.20938 19.031 7.16338L20.662 6.07538C20.728 6.02838 20.821 6.04738 20.868 6.12238C20.915 6.18838 20.896 6.28138 20.831 6.32838L19.2 7.41638C19.134 7.46338 19.041 7.44438 18.994 7.36938ZM20.85 6.14138C20.813 6.08538 20.738 6.06638 20.681 6.10338L19.05 7.19138C18.994 7.22838 18.975 7.30338 19.022 7.36938C19.059 7.42538 19.134 7.44438 19.191 7.40738L20.822 6.31938C20.878 6.27238 20.888 6.19738 20.85 6.14138Z" fill="white"/>
<path d="M20.4 7.56613C20.362 7.50013 20.381 7.41613 20.447 7.37813L21.206 6.94713C21.272 6.90913 21.356 6.93813 21.393 7.00313C21.431 7.06913 21.412 7.15313 21.346 7.19113L20.588 7.62213C20.522 7.65913 20.438 7.63113 20.4 7.56613Z" fill="#F3F3F3"/>
<path d="M20.3911 7.57513C20.3531 7.50013 20.3721 7.41613 20.4381 7.37813L21.1971 6.94713C21.2631 6.90913 21.3561 6.93813 21.3941 7.00313C21.4321 7.07813 21.4131 7.16213 21.3471 7.20013L20.5881 7.63113C20.5221 7.66913 20.4281 7.64113 20.3911 7.57513ZM21.3841 7.01313C21.3471 6.94713 21.2721 6.92913 21.2151 6.96613L20.4561 7.39713C20.4001 7.43413 20.3811 7.50913 20.4091 7.56613C20.4471 7.63213 20.5221 7.65013 20.5781 7.61313L21.3371 7.18213C21.3941 7.15313 21.4131 7.07813 21.3841 7.01313Z" fill="white"/>
<path d="M19.772 8.81293C19.744 8.73793 19.772 8.66293 19.847 8.63493L21.656 7.88493C21.722 7.85693 21.806 7.89393 21.834 7.95993C21.862 8.03493 21.834 8.10993 21.759 8.13793L19.95 8.88793C19.884 8.91593 19.8 8.88693 19.772 8.81293Z" fill="#F3F3F3"/>
<path d="M19.7631 8.82206C19.7351 8.74706 19.7631 8.66306 19.8381 8.62506L21.6471 7.87506C21.7221 7.84706 21.8061 7.88406 21.8341 7.95906C21.8621 8.03406 21.8341 8.11806 21.7591 8.15606L19.9501 8.90606C19.8751 8.93506 19.7911 8.89706 19.7631 8.82206ZM21.8161 7.96906C21.7881 7.90306 21.7131 7.87506 21.6571 7.89406L19.8481 8.64406C19.7821 8.67206 19.7541 8.74706 19.7821 8.81306C19.8101 8.87906 19.8851 8.90706 19.9411 8.88806L21.7501 8.13806C21.8161 8.10906 21.8441 8.03406 21.8161 7.96906Z" fill="white"/>
<path d="M21.0941 9.28101C21.0661 9.20601 21.1031 9.13101 21.1781 9.10301L22.0031 8.83101C22.0691 8.80301 22.1531 8.85001 22.1721 8.91501C22.2001 8.99001 22.1631 9.06501 22.0881 9.09301L21.2631 9.36501C21.1971 9.39401 21.1221 9.35601 21.0941 9.28101Z" fill="#F3F3F3"/>
<path d="M21.0841 9.29139C21.0561 9.21639 21.0931 9.13239 21.1781 9.10439L22.0031 8.83239C22.0781 8.80439 22.1621 8.85139 22.1911 8.92639C22.2191 9.00139 22.1821 9.08539 22.0971 9.11339L21.2721 9.38539C21.1971 9.40339 21.1131 9.36639 21.0841 9.29139ZM22.1721 8.93439C22.1531 8.86839 22.0781 8.83139 22.0131 8.85039L21.1881 9.12239C21.1221 9.14139 21.0941 9.21639 21.1131 9.28139C21.1321 9.34739 21.2071 9.38439 21.2721 9.36539L22.0971 9.09339C22.1631 9.06639 22.1911 9.00039 22.1721 8.93439Z" fill="white"/>
<path d="M20.2501 10.3971C20.2311 10.3221 20.2781 10.2471 20.3531 10.2381L22.2751 9.86311C22.3501 9.84411 22.4161 9.90011 22.4341 9.97511C22.4531 10.0501 22.4061 10.1251 22.3311 10.1341L20.4091 10.5091C20.3341 10.5191 20.2591 10.4721 20.2501 10.3971Z" fill="#F3F3F3"/>
<path d="M20.231 10.397C20.212 10.313 20.268 10.238 20.343 10.219L22.265 9.844C22.34 9.825 22.415 9.882 22.434 9.966C22.453 10.05 22.397 10.125 22.322 10.144L20.4 10.519C20.325 10.538 20.25 10.481 20.231 10.397ZM22.416 9.975C22.407 9.909 22.341 9.863 22.275 9.872L20.353 10.247C20.287 10.256 20.241 10.331 20.259 10.397C20.268 10.463 20.334 10.509 20.4 10.5L22.322 10.125C22.388 10.106 22.434 10.041 22.416 9.975Z" fill="white"/>
<path d="M21.4501 11.1192C21.4411 11.0442 21.4871 10.9782 21.5621 10.9692L22.4241 10.8662C22.4991 10.8572 22.5651 10.9132 22.5741 10.9882C22.5831 11.0632 22.5371 11.1292 22.4621 11.1382L21.5991 11.2412C21.5341 11.2502 21.4591 11.1942 21.4501 11.1192Z" fill="#F3F3F3"/>
<path d="M21.4411 11.1191C21.4311 11.0341 21.4881 10.9591 21.5631 10.9501L22.4251 10.8471C22.5001 10.8381 22.5751 10.8941 22.5841 10.9781C22.5931 11.0621 22.5371 11.1371 22.4621 11.1471L21.5991 11.2501C21.5251 11.2591 21.4501 11.2031 21.4411 11.1191ZM22.5751 10.9881C22.5661 10.9221 22.5001 10.8661 22.4341 10.8751L21.5721 10.9781C21.5061 10.9871 21.4591 11.0531 21.4691 11.1191C21.4791 11.1851 21.5441 11.2411 21.6101 11.2321L22.4731 11.1291C22.5381 11.1191 22.5841 11.0531 22.5751 10.9881Z" fill="white"/>
<path d="M20.4 12.0282C20.4 11.9532 20.456 11.8872 20.531 11.8872H22.49C22.565 11.8872 22.621 11.9532 22.621 12.0282C22.621 12.1032 22.565 12.1692 22.49 12.1692H20.531C20.456 12.1692 20.4 12.1032 20.4 12.0282Z" fill="#F3F3F3"/>
<path d="M20.391 12.0279C20.391 11.9439 20.457 11.8779 20.532 11.8779H22.491C22.566 11.8779 22.632 11.9439 22.632 12.0279C22.632 12.1119 22.566 12.1779 22.491 12.1779H20.532C20.456 12.1779 20.391 12.1129 20.391 12.0279ZM22.613 12.0379C22.613 11.9719 22.557 11.9069 22.491 11.9069H20.532C20.466 11.9069 20.41 11.9629 20.41 12.0379C20.41 12.1039 20.466 12.1689 20.532 12.1689H22.491C22.556 12.1589 22.613 12.1029 22.613 12.0379Z" fill="white"/>
<path d="M21.441 12.9752C21.45 12.9002 21.507 12.8442 21.582 12.8442L22.454 12.9102C22.529 12.9192 22.585 12.9852 22.576 13.0602C22.567 13.1352 22.51 13.1912 22.435 13.1912L21.563 13.1252C21.497 13.1162 21.441 13.0502 21.441 12.9752Z" fill="#F3F3F3"/>
<path d="M21.431 12.975C21.44 12.891 21.506 12.834 21.581 12.834L22.453 12.9C22.528 12.909 22.594 12.975 22.584 13.059C22.575 13.143 22.509 13.2 22.434 13.2L21.562 13.134C21.488 13.125 21.431 13.05 21.431 12.975ZM22.575 13.059C22.584 12.993 22.528 12.928 22.462 12.928L21.59 12.862C21.524 12.862 21.468 12.909 21.459 12.984C21.45 13.05 21.506 13.115 21.572 13.115L22.444 13.181C22.509 13.181 22.566 13.125 22.575 13.059Z" fill="white"/>
<path d="M20.2311 13.6592C20.2501 13.5842 20.3151 13.5372 20.3901 13.5472L22.3121 13.9312C22.3871 13.9502 22.4341 14.0152 22.4151 14.0902C22.3961 14.1652 22.3311 14.2122 22.2561 14.2032L20.3341 13.8192C20.2691 13.8092 20.2221 13.7342 20.2311 13.6592Z" fill="#F3F3F3"/>
<path d="M20.2221 13.6592C20.2411 13.5752 20.3161 13.5282 20.3911 13.5372L22.3131 13.9212C22.3881 13.9402 22.4441 14.0152 22.4251 14.0992C22.4061 14.1832 22.3311 14.2302 22.2561 14.2212L20.3341 13.8372C20.2591 13.8192 20.2131 13.7442 20.2221 13.6592ZM22.4061 14.1002C22.4151 14.0342 22.3781 13.9692 22.3121 13.9502L20.3901 13.5662C20.3241 13.5572 20.2591 13.5942 20.2401 13.6692C20.2311 13.7352 20.2681 13.8002 20.3341 13.8192L22.2561 14.2032C22.3311 14.2132 22.3881 14.1662 22.4061 14.1002Z" fill="white"/>
<path d="M21.075 14.7841C21.093 14.7091 21.169 14.6631 21.244 14.6811L22.088 14.9161C22.163 14.9351 22.2 15.0101 22.182 15.0851C22.163 15.1591 22.088 15.2061 22.013 15.1881L21.169 14.9541C21.094 14.9341 21.056 14.8591 21.075 14.7841Z" fill="#F3F3F3"/>
<path d="M21.066 14.7842C21.085 14.7092 21.169 14.6532 21.244 14.6812L22.088 14.9162C22.163 14.9352 22.21 15.0192 22.191 15.0942C22.172 15.1692 22.088 15.2252 22.013 15.1972L21.169 14.9632C21.094 14.9442 21.047 14.8692 21.066 14.7842ZM22.163 15.0942C22.182 15.0282 22.144 14.9532 22.079 14.9352L21.235 14.7012C21.169 14.6812 21.103 14.7192 21.084 14.7942C21.065 14.8602 21.103 14.9352 21.168 14.9532L22.012 15.1872C22.078 15.1972 22.144 15.1592 22.163 15.0942Z" fill="white"/>
<path d="M19.7531 15.2341C19.7811 15.1591 19.8661 15.1311 19.9311 15.1591L21.7401 15.9091C21.8061 15.9371 21.8431 16.0221 21.8151 16.0871C21.7881 16.1631 21.7031 16.1911 21.6381 16.1631L19.8291 15.4131C19.7531 15.3841 19.7251 15.3001 19.7531 15.2341Z" fill="#F3F3F3"/>
<path d="M19.744 15.2251C19.773 15.1501 19.856 15.1121 19.932 15.1411L21.741 15.8911C21.816 15.9191 21.844 16.0041 21.816 16.0881C21.787 16.1631 21.704 16.2011 21.628 16.1721L19.819 15.4221C19.744 15.3841 19.716 15.3001 19.744 15.2251ZM21.797 16.0781C21.825 16.0121 21.797 15.9371 21.731 15.9091L19.922 15.1591C19.856 15.1311 19.791 15.1681 19.763 15.2341C19.735 15.3001 19.763 15.3751 19.829 15.4031L21.638 16.1531C21.703 16.1721 21.778 16.1441 21.797 16.0781Z" fill="white"/>
<path d="M20.3631 16.5001C20.4011 16.4341 20.4751 16.4061 20.5411 16.4341L21.3191 16.8281C21.3851 16.8561 21.4131 16.9401 21.3751 17.0151C21.3371 17.0811 21.2621 17.1091 21.1971 17.0811L20.4191 16.6871C20.3531 16.6501 20.3251 16.5661 20.3631 16.5001Z" fill="#F3F3F3"/>
<path d="M20.353 16.4909C20.391 16.4159 20.475 16.3879 20.55 16.4249L21.328 16.8189C21.403 16.8569 21.431 16.9409 21.394 17.0159C21.357 17.0909 21.272 17.1189 21.197 17.0819L20.419 16.6879C20.344 16.6589 20.316 16.5659 20.353 16.4909ZM21.366 17.0059C21.394 16.9399 21.375 16.8649 21.31 16.8369L20.532 16.4429C20.476 16.4149 20.401 16.4429 20.363 16.4989C20.335 16.5649 20.354 16.6399 20.419 16.6679L21.197 17.0619C21.263 17.0909 21.338 17.0719 21.366 17.0059Z" fill="white"/>
<path d="M18.9841 16.6783C19.0311 16.6123 19.1061 16.5943 19.1721 16.6403L20.8031 17.7283C20.8691 17.7653 20.8781 17.8503 20.8411 17.9153C20.7941 17.9813 20.7191 17.9993 20.6531 17.9533L19.0221 16.8663C18.9561 16.8193 18.9381 16.7343 18.9841 16.6783Z" fill="#F3F3F3"/>
<path d="M18.9751 16.669C19.0221 16.603 19.1161 16.585 19.1811 16.622L20.8121 17.709C20.8781 17.756 20.8961 17.84 20.8491 17.915C20.8021 17.981 20.7081 17.999 20.6431 17.962L19.0131 16.875C18.9381 16.828 18.9281 16.734 18.9751 16.669ZM20.8221 17.906C20.8591 17.85 20.8501 17.765 20.7941 17.728L19.1631 16.641C19.1061 16.603 19.0311 16.622 18.9941 16.678C18.9561 16.734 18.9661 16.819 19.0221 16.856L20.6531 17.944C20.7091 17.981 20.7841 17.963 20.8221 17.906Z" fill="white"/>
<path d="M19.331 18.038C19.378 17.981 19.463 17.963 19.519 18.009L20.203 18.543C20.259 18.59 20.269 18.674 20.222 18.731C20.175 18.787 20.091 18.806 20.034 18.759L19.35 18.225C19.294 18.178 19.284 18.094 19.331 18.038Z" fill="#F3F3F3"/>
<path d="M19.322 18.0284C19.369 17.9634 19.463 17.9534 19.528 18.0004L20.212 18.5344C20.278 18.5814 20.287 18.6754 20.24 18.7404C20.193 18.8064 20.099 18.8154 20.034 18.7684L19.35 18.2344C19.284 18.1884 19.275 18.0944 19.322 18.0284ZM20.222 18.7314C20.269 18.6754 20.259 18.6004 20.203 18.5534L19.519 18.0194C19.463 17.9814 19.388 17.9914 19.341 18.0474C19.294 18.1034 19.303 18.1784 19.359 18.2254L20.043 18.7594C20.1 18.7974 20.175 18.7874 20.222 18.7314Z" fill="white"/>
<path d="M17.934 17.9443C17.99 17.8883 18.075 17.8883 18.122 17.9443L19.509 19.3223C19.565 19.3783 19.556 19.4633 19.509 19.5103C19.453 19.5663 19.368 19.5663 19.322 19.5103L17.934 18.1313C17.888 18.0843 17.888 17.9913 17.934 17.9443Z" fill="#F3F3F3"/>
<path d="M17.934 17.9341C17.991 17.8781 18.083 17.8781 18.14 17.9341L19.527 19.3121C19.583 19.3691 19.583 19.4611 19.527 19.5181C19.47 19.5741 19.378 19.5741 19.321 19.5181L17.934 18.1411C17.869 18.0841 17.869 17.9911 17.934 17.9341ZM19.509 19.5001C19.556 19.4531 19.556 19.3691 19.509 19.3221L18.122 17.9441C18.075 17.8971 17.991 17.8971 17.944 17.9441C17.897 17.9911 17.897 18.0751 17.944 18.1221L19.331 19.5001C19.378 19.5561 19.453 19.5561 19.509 19.5001Z" fill="white"/>
<path d="M18.019 19.3413C18.075 19.2943 18.16 19.2943 18.207 19.3503L18.779 20.0063C18.826 20.0623 18.816 20.1473 18.76 20.1943C18.704 20.2413 18.619 20.2413 18.573 20.1853L18.001 19.5293C17.953 19.4813 17.963 19.3973 18.019 19.3413Z" fill="#F3F3F3"/>
<path d="M18.009 19.341C18.075 19.285 18.159 19.294 18.215 19.35L18.788 20.006C18.844 20.062 18.835 20.156 18.769 20.212C18.703 20.268 18.619 20.259 18.563 20.203L17.991 19.547C17.944 19.481 17.944 19.388 18.009 19.341ZM18.759 20.194C18.815 20.147 18.815 20.072 18.778 20.016L18.206 19.359C18.159 19.312 18.084 19.303 18.028 19.35C17.972 19.397 17.972 19.472 18.009 19.528L18.581 20.184C18.628 20.241 18.703 20.241 18.759 20.194Z" fill="white"/>
<path d="M16.669 18.984C16.735 18.937 16.819 18.956 16.857 19.022L17.944 20.644C17.982 20.71 17.963 20.794 17.907 20.832C17.841 20.879 17.757 20.86 17.719 20.794L16.632 19.172C16.594 19.106 16.612 19.022 16.669 18.984Z" fill="#F3F3F3"/>
<path d="M16.669 18.9753C16.735 18.9283 16.828 18.9473 16.875 19.0133L17.963 20.6353C18.01 20.7013 17.991 20.7943 17.916 20.8413C17.85 20.8883 17.757 20.8693 17.71 20.8043L16.623 19.1823C16.575 19.1063 16.594 19.0223 16.669 18.9753ZM17.906 20.8223C17.962 20.7843 17.981 20.7093 17.943 20.6533L16.856 19.0313C16.818 18.9753 16.743 18.9653 16.678 19.0033C16.622 19.0403 16.603 19.1153 16.64 19.1723L17.727 20.7943C17.766 20.8413 17.85 20.8593 17.906 20.8223Z" fill="white"/>
<path d="M16.472 20.372C16.538 20.335 16.622 20.353 16.659 20.419L17.09 21.178C17.127 21.244 17.099 21.328 17.034 21.365C16.968 21.403 16.884 21.384 16.847 21.318L16.416 20.559C16.388 20.494 16.406 20.409 16.472 20.372Z" fill="#F3F3F3"/>
<path d="M16.472 20.3631C16.547 20.3251 16.631 20.3441 16.669 20.4101L17.1 21.1691C17.138 21.2351 17.119 21.3281 17.044 21.3661C16.969 21.4041 16.885 21.3851 16.847 21.3191L16.416 20.5591C16.378 20.4941 16.397 20.4091 16.472 20.3631ZM17.034 21.3561C17.09 21.3181 17.118 21.2431 17.081 21.1871L16.65 20.4281C16.612 20.3721 16.537 20.3531 16.481 20.3811C16.425 20.4191 16.397 20.4941 16.434 20.5501L16.865 21.3091C16.894 21.3661 16.978 21.3941 17.034 21.3561Z" fill="white"/>
<path d="M15.2251 19.753C15.3001 19.725 15.3751 19.753 15.4031 19.819L16.1621 21.628C16.1901 21.694 16.1531 21.778 16.0871 21.806C16.0211 21.834 15.9371 21.806 15.9091 21.74L15.1501 19.931C15.1221 19.866 15.1591 19.781 15.2251 19.753Z" fill="#F3F3F3"/>
<path d="M15.225 19.744C15.3 19.716 15.384 19.744 15.422 19.819L16.181 21.628C16.209 21.703 16.172 21.787 16.097 21.815C16.022 21.843 15.938 21.815 15.9 21.74L15.141 19.931C15.113 19.866 15.15 19.781 15.225 19.744ZM16.078 21.797C16.144 21.769 16.172 21.694 16.144 21.638L15.385 19.829C15.357 19.763 15.282 19.735 15.216 19.763C15.15 19.791 15.122 19.866 15.15 19.922L15.909 21.731C15.947 21.797 16.013 21.825 16.078 21.797Z" fill="white"/>
<path d="M14.766 21.084C14.841 21.056 14.916 21.093 14.944 21.168L15.216 21.993C15.244 22.059 15.197 22.143 15.132 22.162C15.057 22.19 14.982 22.153 14.954 22.078L14.682 21.253C14.653 21.188 14.691 21.113 14.766 21.084Z" fill="#F3F3F3"/>
<path d="M14.7561 21.0753C14.8311 21.0473 14.9151 21.0843 14.9431 21.1593L15.2151 21.9843C15.2431 22.0593 15.1961 22.1433 15.1211 22.1723C15.0461 22.2003 14.9621 22.1633 14.9341 22.0883L14.6621 21.2633C14.6441 21.1883 14.6811 21.1033 14.7561 21.0753ZM15.1221 22.1533C15.1881 22.1343 15.2251 22.0593 15.2061 21.9943L14.9341 21.1693C14.9151 21.1033 14.8401 21.0753 14.7751 21.0943C14.7091 21.1133 14.6721 21.1883 14.6911 21.2533L14.9631 22.0783C14.9821 22.1413 15.0481 22.1763 15.1101 22.1573C15.1141 22.1563 15.1181 22.1553 15.1221 22.1533Z" fill="white"/>
<path d="M13.6591 20.2313C13.7341 20.2123 13.8091 20.2593 13.8181 20.3343L14.2121 22.2563C14.2311 22.3313 14.1741 22.3973 14.0991 22.4153C14.0241 22.4343 13.9491 22.3873 13.9401 22.3123L13.5461 20.3903C13.5381 20.3253 13.5841 20.2503 13.6591 20.2313Z" fill="#F3F3F3"/>
<path d="M13.6591 20.2219C13.7431 20.2029 13.8181 20.2599 13.8371 20.3349L14.2311 22.2569C14.2501 22.3319 14.1931 22.4159 14.1181 22.4259C14.0341 22.4449 13.9591 22.3889 13.9401 22.3139L13.5461 20.3919C13.5281 20.3159 13.5751 20.2409 13.6591 20.2219ZM14.1001 22.4059C14.1661 22.3969 14.2131 22.3309 14.2031 22.2559L13.8091 20.3339C13.8001 20.2679 13.7251 20.2219 13.6591 20.2399C13.5931 20.2489 13.5471 20.3149 13.5561 20.3899L13.9501 22.3119C13.9691 22.3779 14.0341 22.4159 14.1001 22.4059Z" fill="white"/>
<path d="M12.947 21.4503C13.022 21.4413 13.088 21.4883 13.106 21.5633L13.218 22.4253C13.227 22.5003 13.171 22.5663 13.096 22.5753C13.021 22.5843 12.955 22.5383 12.937 22.4633L12.825 21.6003C12.816 21.5253 12.872 21.4593 12.947 21.4503Z" fill="#F3F3F3"/>
<path d="M12.9471 21.4414C13.0311 21.4324 13.1061 21.4884 13.1161 21.5634L13.2281 22.4254C13.2371 22.5004 13.1811 22.5754 13.0971 22.5844C13.0131 22.5934 12.9381 22.5384 12.9281 22.4624L12.8161 21.6004C12.8061 21.5254 12.8631 21.4504 12.9471 21.4414ZM13.0881 22.5664C13.1541 22.5574 13.2101 22.4914 13.2011 22.4254L13.0881 21.5634C13.0791 21.4974 13.0131 21.4504 12.9471 21.4604C12.8811 21.4704 12.8251 21.5354 12.8341 21.6014L12.9471 22.4644C12.9561 22.5284 13.0221 22.5754 13.0881 22.5664Z" fill="white"/>
<path d="M11.9811 20.4004C12.0561 20.4004 12.1221 20.4564 12.1221 20.5314V22.4904C12.1221 22.5654 12.0561 22.6214 11.9811 22.6214C11.9061 22.6214 11.8401 22.5654 11.8401 22.4904V20.5314C11.8501 20.4564 11.9061 20.4004 11.9811 20.4004Z" fill="#F3F3F3"/>
<path d="M11.9811 20.3911C12.0651 20.3911 12.1311 20.4571 12.1311 20.5321V22.4911C12.1311 22.5661 12.0651 22.6321 11.9811 22.6321C11.8971 22.6321 11.8311 22.5661 11.8311 22.4911V20.5321C11.8311 20.4561 11.9061 20.3911 11.9811 20.3911ZM11.9811 22.6131C12.0471 22.6131 12.1121 22.5571 12.1121 22.4911V20.5321C12.1121 20.4661 12.0561 20.4101 11.9811 20.4101C11.9151 20.4101 11.8501 20.4661 11.8501 20.5321V22.4911C11.8591 22.5561 11.9161 22.6131 11.9811 22.6131Z" fill="white"/>
<path d="M11.044 21.4502C11.119 21.4592 11.175 21.5162 11.175 21.5912L11.109 22.4632C11.1 22.5382 11.034 22.5942 10.959 22.5852C10.884 22.5752 10.828 22.5192 10.828 22.4442L10.894 21.5722C10.903 21.4972 10.969 21.4412 11.044 21.4502Z" fill="#F3F3F3"/>
<path d="M11.0441 21.4411C11.1281 21.4501 11.1851 21.5161 11.1851 21.5911L11.1191 22.4631C11.1101 22.5381 11.0441 22.6041 10.9601 22.5941C10.8761 22.5851 10.8191 22.5191 10.8191 22.4441L10.8851 21.5721C10.8941 21.4881 10.9591 21.4311 11.0441 21.4411ZM10.9591 22.5751C11.0251 22.5751 11.0901 22.5281 11.0901 22.4631L11.1561 21.5911C11.1561 21.5251 11.1091 21.4691 11.0341 21.4601C10.9681 21.4601 10.9031 21.5071 10.9031 21.5731L10.8381 22.4441C10.8381 22.5091 10.8941 22.5661 10.9591 22.5751Z" fill="white"/>
<path d="M10.3411 20.2311C10.4161 20.2501 10.4631 20.3151 10.4531 20.3901L10.0691 22.3121C10.0501 22.3871 9.98509 22.4341 9.91009 22.4151C9.83509 22.3961 9.78809 22.3311 9.79809 22.2561L10.1821 20.3341C10.1911 20.2691 10.2661 20.2221 10.3411 20.2311Z" fill="#F3F3F3"/>
<path d="M10.3411 20.222C10.4251 20.241 10.4721 20.316 10.4631 20.391L10.0781 22.313C10.0591 22.388 9.98407 22.444 9.90007 22.425C9.81607 22.406 9.76907 22.331 9.77807 22.256L10.1621 20.334C10.1811 20.259 10.2561 20.212 10.3411 20.222ZM9.90007 22.406C9.96607 22.415 10.0311 22.378 10.0501 22.312L10.4341 20.39C10.4431 20.324 10.4061 20.259 10.3311 20.24C10.2651 20.231 10.2001 20.268 10.1811 20.334L9.79707 22.256C9.78807 22.331 9.83407 22.388 9.90007 22.406Z" fill="white"/>
<path d="M9.21598 21.0752C9.29098 21.0942 9.33798 21.1692 9.31898 21.2442L9.08498 22.0882C9.06598 22.1632 8.99098 22.2002 8.91598 22.1822C8.84098 22.1642 8.79498 22.0892 8.81298 22.0132L9.04698 21.1692C9.06598 21.0942 9.14098 21.0562 9.21598 21.0752Z" fill="#F3F3F3"/>
<path d="M9.21609 21.0662C9.29109 21.0852 9.34709 21.1692 9.31909 21.2442L9.08509 22.0882C9.06609 22.1632 8.98209 22.2102 8.90709 22.1912C8.83209 22.1722 8.77609 22.0882 8.80409 22.0132L9.03809 21.1692C9.05609 21.0942 9.13109 21.0472 9.21609 21.0662ZM8.90609 22.1632C8.97209 22.1822 9.04709 22.1442 9.06509 22.0792L9.29909 21.2352C9.31809 21.1692 9.28009 21.1042 9.20509 21.0852C9.13909 21.0662 9.06409 21.1042 9.04609 21.1692L8.81209 22.0132C8.80309 22.0782 8.84109 22.1442 8.90609 22.1632Z" fill="white"/>
<path d="M8.75605 19.753C8.83105 19.781 8.85905 19.865 8.83105 19.931L8.08105 21.74C8.05305 21.806 7.96805 21.843 7.90305 21.806C7.83705 21.768 7.80005 21.693 7.82805 21.628L8.57805 19.819C8.60605 19.753 8.69105 19.716 8.75605 19.753Z" fill="#F3F3F3"/>
<path d="M8.75606 19.7444C8.83106 19.7734 8.86906 19.8564 8.84006 19.9324L8.09006 21.7414C8.06206 21.8164 7.97706 21.8444 7.89306 21.8164C7.81806 21.7874 7.78006 21.7044 7.80906 21.6294L8.55906 19.8204C8.59706 19.7444 8.68106 19.7064 8.75606 19.7444ZM7.90306 21.7974C7.96906 21.8254 8.04406 21.7974 8.07206 21.7314L8.82206 19.9224C8.85006 19.8564 8.81306 19.7914 8.74706 19.7634C8.68106 19.7354 8.60606 19.7634 8.57806 19.8294L7.82806 21.6384C7.80906 21.6944 7.83806 21.7694 7.90306 21.7974Z" fill="white"/>
<path d="M7.49099 20.3529C7.55699 20.3899 7.58499 20.4649 7.55699 20.5309L7.16299 21.3089C7.12499 21.3749 7.04999 21.4029 6.97499 21.3649C6.90899 21.3279 6.88099 21.2529 6.90899 21.1869L7.30299 20.4089C7.34099 20.3439 7.41599 20.3159 7.49099 20.3529Z" fill="#F3F3F3"/>
<path d="M7.49103 20.344C7.56603 20.381 7.59403 20.466 7.55703 20.541L7.16303 21.319C7.12503 21.394 7.04103 21.422 6.96603 21.385C6.89103 21.348 6.86303 21.263 6.90003 21.188L7.29403 20.41C7.33103 20.334 7.41603 20.306 7.49103 20.344ZM6.97503 21.366C7.04103 21.394 7.11603 21.375 7.14403 21.31L7.53803 20.532C7.56603 20.476 7.53803 20.401 7.48203 20.363C7.41603 20.335 7.34103 20.354 7.31303 20.419L6.91903 21.197C6.89103 21.253 6.91903 21.328 6.97503 21.366Z" fill="white"/>
<path d="M7.30304 18.9661C7.36904 19.0131 7.38704 19.0971 7.34104 19.1531L6.25304 20.7751C6.21604 20.8411 6.13104 20.8501 6.06604 20.8121C6.00004 20.7651 5.98204 20.6811 6.02804 20.6241L7.11604 19.0021C7.15304 18.9381 7.23804 18.9191 7.30304 18.9661Z" fill="#F3F3F3"/>
<path d="M7.30303 18.9563C7.36903 19.0033 7.38703 19.0973 7.35003 19.1623L6.26303 20.7843C6.21603 20.8503 6.13203 20.8683 6.05703 20.8213C5.99103 20.7743 5.97303 20.6803 6.01003 20.6153L7.09803 18.9933C7.14403 18.9283 7.23803 18.9093 7.30303 18.9563ZM6.06603 20.8033C6.12203 20.8403 6.20703 20.8313 6.24403 20.7753L7.33203 19.1533C7.36903 19.0973 7.35103 19.0223 7.29403 18.9843C7.23803 18.9473 7.15303 18.9563 7.11603 19.0123L6.02803 20.6253C5.99103 20.6813 6.00903 20.7663 6.06603 20.8033Z" fill="white"/>
<path d="M5.93399 19.313C5.98999 19.36 6.00899 19.444 5.96199 19.5L5.41799 20.184C5.37099 20.24 5.28699 20.25 5.23099 20.203C5.17499 20.156 5.15599 20.072 5.20299 20.015L5.74699 19.331C5.79399 19.275 5.87799 19.266 5.93399 19.313Z" fill="#F3F3F3"/>
<path d="M5.94406 19.3034C6.01006 19.3504 6.01906 19.4444 5.97206 19.5094L5.42806 20.1934C5.38106 20.2594 5.28806 20.2694 5.22206 20.2134C5.15606 20.1664 5.14706 20.0724 5.19406 20.0074L5.73806 19.3234C5.78406 19.2564 5.87806 19.2474 5.94406 19.3034ZM5.24106 20.1944C5.29706 20.2414 5.37206 20.2324 5.41906 20.1754L5.96306 19.4914C6.00106 19.4354 5.99106 19.3604 5.93506 19.3134C5.87906 19.2664 5.80406 19.2754 5.75706 19.3324L5.21306 20.0164C5.17506 20.0724 5.18406 20.1564 5.24106 20.1944Z" fill="white"/>
<path d="M6.02801 17.9063C6.08401 17.9623 6.08401 18.0473 6.02801 18.0933L4.64101 19.4713C4.58501 19.5273 4.50001 19.5183 4.45301 19.4713C4.40601 19.4243 4.39701 19.3303 4.45301 19.2843L5.83101 17.9063C5.88801 17.8503 5.97201 17.8503 6.02801 17.9063Z" fill="#F3F3F3"/>
<path d="M6.0381 17.897C6.0941 17.954 6.0941 18.046 6.0381 18.103L4.6501 19.481C4.5931 19.537 4.5011 19.537 4.4441 19.481C4.3881 19.424 4.3881 19.332 4.4441 19.275L5.8311 17.897C5.8891 17.841 5.9801 17.841 6.0381 17.897ZM4.4531 19.472C4.5001 19.519 4.5841 19.519 4.6311 19.472L6.0191 18.094C6.0661 18.047 6.0661 17.963 6.0191 17.916C5.9721 17.869 5.8881 17.869 5.8411 17.916L4.4531 19.294C4.4061 19.341 4.4061 19.416 4.4531 19.472Z" fill="white"/>
<path d="M4.62205 17.9811C4.66905 18.0371 4.66905 18.1221 4.61305 18.1681L3.94705 18.7311C3.89105 18.7781 3.80605 18.7681 3.75905 18.7121C3.71205 18.6561 3.71205 18.5711 3.76805 18.5241L4.43405 17.9621C4.49105 17.9161 4.57505 17.9251 4.62205 17.9811Z" fill="#F3F3F3"/>
<path d="M4.63105 17.9724C4.68805 18.0384 4.67805 18.1314 4.62205 18.1784L3.95605 18.7404C3.90005 18.7964 3.80605 18.7874 3.75005 18.7214C3.69405 18.6554 3.70305 18.5624 3.75905 18.5154L4.42505 17.9534C4.48105 17.8974 4.57505 17.9064 4.63105 17.9724ZM3.76905 18.7134C3.81605 18.7694 3.89105 18.7694 3.94705 18.7324L4.61305 18.1694C4.66005 18.1224 4.66905 18.0474 4.62205 17.9914C4.57505 17.9354 4.50005 17.9354 4.44405 17.9724L3.77805 18.5344C3.72205 18.5814 3.72205 18.6564 3.76905 18.7134Z" fill="white"/>
<path d="M4.99708 16.631C5.04408 16.697 5.02508 16.781 4.95908 16.819L3.32808 17.906C3.26308 17.944 3.17808 17.925 3.14108 17.869C3.09408 17.803 3.11308 17.719 3.17808 17.681L4.80908 16.594C4.86608 16.556 4.95008 16.575 4.99708 16.631Z" fill="#F3F3F3"/>
<path d="M5.00601 16.6312C5.05301 16.6972 5.03401 16.7902 4.96801 16.8372L3.33801 17.9252C3.27201 17.9722 3.17801 17.9532 3.13101 17.8782C3.08401 17.8132 3.10301 17.7192 3.16901 17.6722L4.80001 16.5842C4.86601 16.5382 4.95901 16.5562 5.00601 16.6312ZM3.15001 17.8592C3.18801 17.9162 3.26301 17.9342 3.31901 17.8972L4.95001 16.8092C5.00601 16.7722 5.02501 16.6972 4.97801 16.6312C4.94101 16.5752 4.86601 16.5562 4.80901 16.5932L3.17801 17.6812C3.12201 17.7282 3.11301 17.8032 3.15001 17.8592Z" fill="white"/>
<path d="M3.60007 16.4343C3.63807 16.5003 3.61907 16.5843 3.55307 16.6223L2.79407 17.0533C2.72807 17.0903 2.64407 17.0623 2.60707 16.9973C2.56907 16.9313 2.58807 16.8473 2.65307 16.8093L3.41207 16.3783C3.47807 16.3413 3.56307 16.3693 3.60007 16.4343Z" fill="#F3F3F3"/>
<path d="M3.60899 16.4252C3.64599 16.5002 3.62799 16.5842 3.56199 16.6222L2.80299 17.0532C2.73799 17.0912 2.64399 17.0632 2.60599 16.9972C2.56899 16.9222 2.58799 16.8382 2.65299 16.8002L3.41199 16.3692C3.47799 16.3312 3.57199 16.3592 3.60899 16.4252ZM2.61599 16.9882C2.65399 17.0542 2.72899 17.0722 2.78499 17.0352L3.54399 16.6042C3.59999 16.5662 3.61899 16.4912 3.59099 16.4352C3.55299 16.3692 3.47799 16.3502 3.42199 16.3882L2.66299 16.8192C2.60599 16.8472 2.58799 16.9222 2.61599 16.9882Z" fill="white"/>
<path d="M4.22804 15.1881C4.25604 15.2631 4.22804 15.3381 4.15304 15.3661L2.34404 16.1161C2.27804 16.1441 2.19404 16.1071 2.16604 16.0411C2.13804 15.9661 2.16604 15.8911 2.24104 15.8631L4.05004 15.1131C4.11604 15.0841 4.20004 15.1131 4.22804 15.1881Z" fill="#F3F3F3"/>
<path d="M4.23804 15.1782C4.26604 15.2532 4.23804 15.3372 4.16304 15.3752L2.35404 16.1252C2.27804 16.1532 2.19404 16.1162 2.16604 16.0412C2.13804 15.9662 2.16604 15.8822 2.24104 15.8442L4.05004 15.0942C4.12504 15.0652 4.20904 15.1032 4.23804 15.1782ZM2.18404 16.0312C2.21304 16.0972 2.28804 16.1252 2.34404 16.1062L4.15304 15.3562C4.21904 15.3282 4.24704 15.2532 4.21904 15.1872C4.19104 15.1212 4.11604 15.0932 4.06004 15.1122L2.25104 15.8622C2.18404 15.8912 2.15604 15.9662 2.18404 16.0312Z" fill="white"/>
<path d="M2.90605 14.7192C2.93405 14.7942 2.89705 14.8692 2.82205 14.8972L1.99706 15.1692C1.93106 15.1972 1.84705 15.1502 1.82805 15.0852C1.80005 15.0092 1.83805 14.9342 1.91305 14.9062L2.73806 14.6342C2.80306 14.6062 2.87805 14.6442 2.90605 14.7192Z" fill="#F3F3F3"/>
<path d="M2.91603 14.7093C2.94403 14.7843 2.90703 14.8683 2.82203 14.8973L1.99703 15.1693C1.92203 15.1973 1.83803 15.1503 1.80903 15.0753C1.78103 15.0003 1.81803 14.9163 1.90303 14.8883L2.72803 14.6163C2.80303 14.5973 2.88803 14.6343 2.91603 14.7093ZM1.82803 15.0663C1.84703 15.1313 1.92203 15.1693 1.98803 15.1503L2.81303 14.8783C2.87803 14.8593 2.90603 14.7843 2.88803 14.7193C2.87003 14.6543 2.79403 14.6163 2.72803 14.6343L1.90303 14.9063C1.83803 14.9343 1.80903 15.0003 1.82803 15.0663Z" fill="white"/>
<path d="M3.74999 13.6034C3.76899 13.6784 3.72199 13.7534 3.64699 13.7624L1.72499 14.1374C1.64999 14.1564 1.58399 14.0994 1.56599 14.0244C1.54699 13.9494 1.59399 13.8744 1.66899 13.8654L3.59099 13.4904C3.66599 13.4814 3.74099 13.5284 3.74999 13.6034Z" fill="#F3F3F3"/>
<path d="M3.76899 13.6034C3.78799 13.6884 3.73099 13.7634 3.65599 13.7814L1.73399 14.1564C1.65899 14.1754 1.58399 14.1194 1.56599 14.0344C1.54699 13.9504 1.60299 13.8754 1.67799 13.8564L3.59999 13.4814C3.67499 13.4634 3.74999 13.5194 3.76899 13.6034ZM1.58399 14.0254C1.59299 14.0914 1.65899 14.1374 1.72499 14.1284L3.64699 13.7534C3.71299 13.7444 3.75899 13.6694 3.74099 13.6034C3.73199 13.5374 3.66599 13.4904 3.59999 13.5004L1.67799 13.8754C1.61299 13.8944 1.56599 13.9594 1.58399 14.0254Z" fill="white"/>
<path d="M2.55007 12.8813C2.55907 12.9563 2.51207 13.0223 2.43707 13.0313L1.57507 13.1343C1.50007 13.1433 1.43407 13.0873 1.42507 13.0123C1.41607 12.9373 1.46207 12.8713 1.53707 12.8623L2.40007 12.7593C2.46607 12.7503 2.54107 12.8063 2.55007 12.8813Z" fill="#F3F3F3"/>
<path d="M2.55899 12.881C2.56799 12.965 2.51199 13.04 2.43699 13.05L1.57499 13.153C1.49999 13.162 1.42499 13.106 1.41599 13.022C1.40699 12.938 1.46299 12.863 1.53799 12.853L2.40099 12.75C2.47499 12.741 2.54999 12.797 2.55899 12.881ZM1.42499 13.013C1.43399 13.079 1.49999 13.135 1.56599 13.125L2.42799 13.022C2.49399 13.013 2.54099 12.947 2.53099 12.881C2.52199 12.816 2.45599 12.759 2.39099 12.769L1.52799 12.872C1.46299 12.881 1.41599 12.947 1.42499 13.013Z" fill="white"/>
<path d="M3.60003 11.9721C3.60003 12.0471 3.54403 12.1131 3.46903 12.1131H1.51003C1.43503 12.1131 1.37903 12.0471 1.37903 11.9721C1.37903 11.8971 1.43503 11.8311 1.51003 11.8311H3.46903C3.54403 11.8311 3.60003 11.8971 3.60003 11.9721Z" fill="#F3F3F3"/>
<path d="M3.60904 11.9723C3.60904 12.0563 3.54304 12.1223 3.46804 12.1223H1.50904C1.43404 12.1223 1.36804 12.0563 1.36804 11.9723C1.36804 11.8883 1.43404 11.8223 1.50904 11.8223H3.46804C3.54404 11.8223 3.60904 11.8883 3.60904 11.9723ZM1.38804 11.9633C1.38804 12.0293 1.44404 12.0943 1.51004 12.0943H3.46904C3.53504 12.0943 3.59104 12.0383 3.59104 11.9633C3.59104 11.8973 3.53504 11.8323 3.46904 11.8323H1.51004C1.44404 11.8413 1.38804 11.8973 1.38804 11.9633Z" fill="white"/>
<path d="M2.55905 11.0251C2.55005 11.1001 2.49305 11.1561 2.41805 11.1561L1.54605 11.0901C1.47105 11.0811 1.41505 11.0151 1.42405 10.9401C1.43405 10.8661 1.49105 10.8091 1.56605 10.8091L2.43805 10.8751C2.50305 10.8841 2.55905 10.9501 2.55905 11.0251Z" fill="#E2E2E2"/>
<path d="M2.56905 11.0253C2.56005 11.1093 2.49405 11.1663 2.41905 11.1663L1.54705 11.1003C1.47205 11.0913 1.40605 11.0253 1.41605 10.9413C1.42505 10.8573 1.49105 10.8003 1.56605 10.8003L2.43805 10.8663C2.51305 10.8753 2.56905 10.9503 2.56905 11.0253ZM1.42505 10.9413C1.41605 11.0063 1.47205 11.0723 1.53805 11.0723L2.41005 11.1383C2.47605 11.1383 2.53205 11.0913 2.54105 11.0163C2.55005 10.9503 2.49405 10.8853 2.42805 10.8853L1.55605 10.8193C1.49105 10.8193 1.43405 10.8753 1.42505 10.9413Z" fill="white"/>
<path d="M3.76903 10.341C3.75003 10.416 3.68503 10.463 3.61003 10.454L1.68803 10.059C1.61303 10.04 1.56603 9.97496 1.58503 9.89996C1.60403 9.82496 1.66903 9.77796 1.74403 9.78796L3.66603 10.172C3.73103 10.191 3.77803 10.266 3.76903 10.341Z" fill="#F3F3F3"/>
<path d="M3.7781 10.341C3.7591 10.425 3.6841 10.472 3.6091 10.463L1.6881 10.078C1.6131 10.059 1.5561 9.98395 1.5751 9.89995C1.5941 9.81595 1.6691 9.76895 1.7441 9.77795L3.6661 10.162C3.7411 10.181 3.7881 10.256 3.7781 10.341ZM1.5941 9.89995C1.5841 9.96595 1.6221 10.031 1.6881 10.05L3.6101 10.434C3.6761 10.443 3.7411 10.406 3.7601 10.331C3.7691 10.265 3.7321 10.2 3.6661 10.181L1.7441 9.79695C1.6691 9.78795 1.6131 9.83395 1.5941 9.89995Z" fill="white"/>
<path d="M2.92506 9.21598C2.90706 9.29098 2.83206 9.33698 2.75706 9.31898L1.91306 9.08498C1.83806 9.06598 1.80006 8.99098 1.81906 8.91598C1.83706 8.84098 1.91306 8.79498 1.98806 8.81298L2.83206 9.04698C2.90606 9.06598 2.94406 9.14098 2.92506 9.21598Z" fill="#F3F3F3"/>
<path d="M2.93402 9.21623C2.91602 9.29123 2.83102 9.34723 2.75602 9.31923L1.91202 9.08523C1.83802 9.06623 1.79102 8.98123 1.80902 8.90623C1.82802 8.83123 1.91302 8.77523 1.98802 8.80323L2.83202 9.03723C2.90602 9.05623 2.95302 9.13123 2.93402 9.21623ZM1.83802 8.90623C1.81902 8.97223 1.85702 9.04723 1.92202 9.06523L2.76602 9.29923C2.83202 9.31823 2.89702 9.28023 2.91602 9.20523C2.93502 9.13923 2.89702 9.06423 2.83202 9.04623L1.98802 8.81223C1.92202 8.80323 1.85602 8.84123 1.83802 8.90623Z" fill="white"/>
<path d="M4.2471 8.76628C4.2191 8.84128 4.1341 8.86928 4.0691 8.84128L2.2601 8.09128C2.1941 8.06328 2.1571 7.97928 2.1851 7.91328C2.2131 7.83828 2.2981 7.81028 2.3631 7.83828L4.1721 8.58828C4.2471 8.61628 4.2751 8.70028 4.2471 8.76628Z" fill="#F3F3F3"/>
<path d="M4.25608 8.7751C4.22808 8.8501 4.14408 8.8881 4.06908 8.8591L2.26008 8.1091C2.18508 8.0811 2.15708 7.9971 2.18508 7.9121C2.21408 7.8371 2.29708 7.7991 2.37308 7.8281L4.18208 8.5781C4.25608 8.6161 4.28408 8.7001 4.25608 8.7751ZM2.20308 7.9221C2.17508 7.9881 2.20308 8.0631 2.26908 8.0911L4.07808 8.8411C4.14408 8.8691 4.20908 8.8311 4.23808 8.7661C4.26608 8.7001 4.23808 8.6251 4.17208 8.5971L2.36308 7.8471C2.29708 7.8281 2.22208 7.8561 2.20308 7.9221Z" fill="white"/>
<path d="M3.638 7.50002C3.601 7.56602 3.526 7.59402 3.46 7.56602L2.682 7.17202C2.616 7.14402 2.588 7.05902 2.625 6.98402C2.663 6.91902 2.738 6.89102 2.803 6.91902L3.581 7.31302C3.647 7.35002 3.675 7.43402 3.638 7.50002Z" fill="#F3F3F3"/>
<path d="M3.64708 7.50924C3.60908 7.58424 3.52508 7.61224 3.45008 7.57524L2.67208 7.18124C2.59708 7.14424 2.56908 7.05924 2.60608 6.98424C2.64408 6.90924 2.72808 6.88124 2.80308 6.91924L3.58108 7.31324C3.65608 7.34124 3.68408 7.43424 3.64708 7.50924ZM2.63408 6.99424C2.60608 7.05924 2.62508 7.13424 2.69108 7.16324L3.46908 7.55724C3.52508 7.58524 3.60008 7.55724 3.63808 7.50124C3.66608 7.43524 3.64708 7.36024 3.58208 7.33224L2.79408 6.93824C2.73708 6.91024 2.66208 6.92824 2.63408 6.99424Z" fill="white"/>
<path d="M5.016 7.32236C4.969 7.38836 4.894 7.40636 4.828 7.35936L3.206 6.28136C3.141 6.24436 3.131 6.15936 3.169 6.09436C3.207 6.02836 3.291 6.01036 3.357 6.05636L4.988 7.14436C5.044 7.18136 5.063 7.26636 5.016 7.32236Z" fill="#F3F3F3"/>
<path d="M5.02502 7.33098C4.97802 7.39698 4.88402 7.41598 4.81902 7.37798L3.19702 6.28998C3.13102 6.24398 3.11302 6.15898 3.15902 6.08398C3.20602 6.01898 3.30002 5.99998 3.36602 6.03798L4.98802 7.12498C5.06302 7.17198 5.07202 7.26598 5.02502 7.33098ZM3.17802 6.09398C3.14102 6.14998 3.15002 6.23498 3.20602 6.27198L4.83802 7.35898C4.89402 7.39698 4.96902 7.37798 5.00702 7.32198C5.04402 7.26598 5.03502 7.18098 4.97902 7.14398L3.34802 6.05598C3.29102 6.01898 3.21602 6.03798 3.17802 6.09398Z" fill="white"/>
<path d="M4.66906 5.96295C4.62206 6.01895 4.53806 6.03795 4.48106 5.99095L3.79706 5.45695C3.74106 5.40895 3.73106 5.32495 3.77806 5.26895C3.82506 5.21295 3.90906 5.19395 3.96606 5.24095L4.65006 5.77495C4.70606 5.82195 4.71606 5.90595 4.66906 5.96295Z" fill="#F3F3F3"/>
<path d="M4.67806 5.97215C4.63106 6.03815 4.53806 6.04715 4.47206 6.00015L3.78806 5.46615C3.72206 5.41915 3.71306 5.32515 3.75906 5.26015C3.80606 5.19415 3.90006 5.18515 3.96506 5.23215L4.64906 5.76615C4.71606 5.81315 4.72506 5.90615 4.67806 5.97215ZM3.77806 5.26915C3.73106 5.32515 3.74106 5.40015 3.79706 5.44715L4.48106 5.98115C4.53806 6.01915 4.61306 6.00915 4.65906 5.95315C4.70606 5.89715 4.69706 5.82215 4.64006 5.77515L3.95606 5.24115C3.90006 5.20315 3.82506 5.21315 3.77806 5.26915Z" fill="white"/>
<path d="M6.06606 6.05624C6.01006 6.11224 5.92506 6.11224 5.87906 6.05624L4.48206 4.67824C4.42606 4.62224 4.43506 4.53724 4.48206 4.49024C4.53806 4.43424 4.62306 4.43424 4.66906 4.49024L6.05706 5.86824C6.11306 5.91624 6.11306 6.00924 6.06606 6.05624Z" fill="#F3F3F3"/>
<path d="M6.06605 6.06594C6.00905 6.12194 5.91705 6.12194 5.86005 6.06594L4.47205 4.68794C4.41605 4.63094 4.41605 4.53894 4.47205 4.48194C4.52905 4.42594 4.62105 4.42594 4.67805 4.48194L6.06605 5.85994C6.13105 5.91594 6.13105 6.00894 6.06605 6.06594ZM4.49105 4.49994C4.44405 4.54694 4.44405 4.63094 4.49105 4.67794L5.87805 6.05594C5.92505 6.10294 6.00905 6.10294 6.05605 6.05594C6.10305 6.00894 6.10305 5.92494 6.05605 5.87794L4.66905 4.49094C4.62205 4.44394 4.54705 4.44394 4.49105 4.49994Z" fill="white"/>
<path d="M5.98105 4.65892C5.92505 4.70592 5.84005 4.70592 5.79305 4.64992L5.22105 3.99392C5.17405 3.93792 5.18405 3.85292 5.24005 3.80692C5.29705 3.75892 5.38105 3.75892 5.42805 3.81592L6.00005 4.47192C6.04705 4.51892 6.03805 4.60292 5.98105 4.65892Z" fill="#F3F3F3"/>
<path d="M5.991 4.65926C5.925 4.71526 5.841 4.70626 5.785 4.65026L5.213 3.99426C5.157 3.93826 5.166 3.84426 5.232 3.78826C5.298 3.73226 5.382 3.74126 5.438 3.79726L6.01 4.45326C6.056 4.51926 6.056 4.61326 5.991 4.65926ZM5.241 3.80626C5.185 3.85326 5.185 3.92826 5.222 3.98426L5.794 4.64026C5.841 4.68726 5.916 4.69626 5.972 4.64926C6.028 4.60326 6.028 4.52826 5.991 4.47226L5.419 3.81626C5.372 3.75926 5.297 3.75926 5.241 3.80626Z" fill="white"/>
<path d="M7.33106 5.0161C7.26506 5.0631 7.18106 5.0441 7.14306 4.9781L6.04606 3.3561C6.00906 3.2911 6.02806 3.2061 6.08406 3.1691C6.15006 3.1221 6.23406 3.1411 6.27206 3.2071L7.35906 4.8291C7.40606 4.8941 7.38806 4.9781 7.33106 5.0161Z" fill="#F3F3F3"/>
<path d="M7.33109 5.02539C7.26509 5.07239 7.17209 5.05339 7.12509 4.98839L6.03809 3.36639C5.99109 3.30039 6.00909 3.20639 6.08409 3.15939C6.15009 3.11239 6.24309 3.13139 6.29009 3.19639L7.37809 4.81939C7.42509 4.89439 7.40609 4.97839 7.33109 5.02539ZM6.09409 3.17839C6.03809 3.21539 6.01909 3.29039 6.05709 3.34739L7.14409 4.96939C7.18209 5.02539 7.25709 5.03539 7.32209 4.99739C7.37809 4.95939 7.39709 4.88439 7.35909 4.82839L6.27209 3.21539C6.23409 3.15939 6.15009 3.14139 6.09409 3.17839Z" fill="white"/>
<path d="M7.52806 3.62818C7.46206 3.66518 7.37806 3.64718 7.34106 3.58118L6.91006 2.82218C6.87306 2.75618 6.90106 2.67218 6.96606 2.63418C7.03206 2.59718 7.11606 2.61518 7.15306 2.68118L7.58406 3.44018C7.61306 3.50618 7.59406 3.59118 7.52806 3.62818Z" fill="#F3F3F3"/>
<path d="M7.52806 3.63815C7.45306 3.67515 7.36906 3.65715 7.33106 3.59115L6.90006 2.83215C6.86306 2.76615 6.88106 2.67315 6.95606 2.63515C7.03106 2.59815 7.11506 2.61615 7.15306 2.68215L7.58406 3.44115C7.62206 3.50615 7.60306 3.59115 7.52806 3.63815ZM6.96606 2.64415C6.91006 2.68115 6.88206 2.75615 6.91906 2.81315L7.35006 3.57215C7.38806 3.62815 7.46306 3.64715 7.51906 3.61915C7.57506 3.58215 7.60306 3.50615 7.56606 3.45015L7.13506 2.69115C7.10606 2.63415 7.02206 2.60615 6.96606 2.64415Z" fill="white"/>
<path d="M8.77506 4.24739C8.70006 4.27539 8.62506 4.24739 8.59706 4.18139L7.83806 2.37239C7.81006 2.30639 7.84706 2.22239 7.91306 2.19439C7.98806 2.16639 8.06306 2.19439 8.09106 2.26039L8.85006 4.06939C8.87806 4.13439 8.84106 4.21939 8.77506 4.24739Z" fill="#F3F3F3"/>
<path d="M8.77507 4.25599C8.70007 4.28399 8.61607 4.25598 8.57807 4.18098L7.81907 2.37198C7.79007 2.29698 7.82807 2.21298 7.90307 2.18398C7.97807 2.15598 8.06207 2.18398 8.10007 2.25898L8.85907 4.06798C8.88807 4.13398 8.85007 4.21899 8.77507 4.25599ZM7.92207 2.20298C7.85607 2.23098 7.82807 2.30598 7.85607 2.36298L8.61507 4.17198C8.64307 4.23798 8.71807 4.26599 8.78407 4.23798C8.85007 4.20898 8.87807 4.13398 8.85007 4.07798L8.09107 2.26898C8.05307 2.20298 7.98707 2.17498 7.92207 2.20298Z" fill="white"/>
<path d="M9.23401 2.91628C9.15901 2.94428 9.08401 2.90728 9.05601 2.83228L8.78401 2.00728C8.75601 1.94128 8.80301 1.85728 8.86801 1.83828C8.93401 1.81928 9.01801 1.84728 9.04601 1.92228L9.31801 2.74728C9.34701 2.81328 9.30901 2.88828 9.23401 2.91628Z" fill="#F3F3F3"/>
<path d="M9.24403 2.92518C9.16903 2.95318 9.08503 2.91618 9.05703 2.84118L8.78503 2.01618C8.75603 1.94118 8.80303 1.85618 8.87803 1.82818C8.95303 1.80018 9.03703 1.83718 9.06503 1.91218L9.33703 2.73718C9.35603 2.81318 9.31903 2.89718 9.24403 2.92518ZM8.87803 1.84718C8.81203 1.86618 8.77503 1.94118 8.79403 2.00618L9.06603 2.83118C9.08503 2.89718 9.16003 2.92518 9.22503 2.90618C9.29103 2.88718 9.32803 2.81218 9.30903 2.74718L9.03803 1.92218C9.01903 1.85918 8.95303 1.82418 8.89003 1.84318C8.88603 1.84418 8.88203 1.84518 8.87803 1.84718Z" fill="white"/>
<path d="M10.341 3.7693C10.266 3.7883 10.191 3.7413 10.182 3.6663L9.78803 1.7443C9.76903 1.6693 9.82503 1.6033 9.90003 1.5843C9.97503 1.5653 10.05 1.6123 10.059 1.6873L10.453 3.6093C10.463 3.6753 10.416 3.7503 10.341 3.7693Z" fill="#F3F3F3"/>
<path d="M10.341 3.77797C10.256 3.79697 10.181 3.74097 10.163 3.66597L9.76899 1.74397C9.74999 1.66897 9.80599 1.58397 9.88099 1.57497C9.96499 1.55597 10.04 1.61297 10.059 1.68797L10.453 3.60897C10.472 3.68397 10.425 3.75897 10.341 3.77797ZM9.89999 1.59397C9.83399 1.60297 9.78799 1.66897 9.79699 1.74397L10.191 3.66597C10.2 3.73197 10.275 3.77797 10.341 3.75997C10.407 3.75097 10.453 3.68497 10.444 3.60997L10.05 1.68697C10.031 1.62197 9.96599 1.58397 9.89999 1.59397Z" fill="white"/>
<path d="M11.0531 2.54993C10.9781 2.55893 10.9131 2.51293 10.8941 2.43793L10.7811 1.57493C10.7721 1.49993 10.8281 1.43393 10.9031 1.42493C10.9781 1.41593 11.0441 1.46293 11.0631 1.53793L11.1751 2.39993C11.1841 2.47493 11.1281 2.54093 11.0531 2.54993Z" fill="#F3F3F3"/>
<path d="M11.0531 2.55918C10.9691 2.56918 10.8941 2.51318 10.8841 2.43718L10.7721 1.57518C10.7631 1.50018 10.8191 1.42518 10.9031 1.41618C10.9881 1.40618 11.0631 1.46318 11.0721 1.53818L11.1841 2.40018C11.1941 2.47518 11.1381 2.55018 11.0531 2.55918ZM10.9131 1.43418C10.8471 1.44418 10.7911 1.50918 10.8001 1.57518L10.9131 2.43818C10.9221 2.50318 10.9881 2.55018 11.0531 2.54118C11.1191 2.53218 11.1751 2.46618 11.1661 2.40018L11.0531 1.53818C11.0441 1.47218 10.9781 1.42518 10.9131 1.43418Z" fill="white"/>
<path d="M19.584 4.41602L10.734 10.707L13.359 13.313L19.584 4.41602Z" fill="#CD151E"/>
<path d="M10.744 10.688L12.066 11.991L19.585 4.41602L10.744 10.688Z" fill="#FA5153"/>
<path d="M10.744 10.688L13.369 13.294L4.51904 19.585L10.744 10.688Z" fill="#ACACAC"/>
<path d="M4.51904 19.584L12.066 11.99L10.744 10.687L4.51904 19.584Z" fill="#EEEEEE"/>
<defs>
<radialGradient id="paint0_radial" cx="0" cy="0" r="1" gradientUnits="userSpaceOnUse" gradientTransform="translate(12.91 8.60785) scale(13.4414)">
<stop stop-color="#2ABCE1"/>
<stop offset="0.114" stop-color="#2ABBE1"/>
<stop offset="1" stop-color="#3375F8"/>
</radialGradient>
</defs>
</svg>
